<svg xmlns="http://www.w3.org/2000/svg" xmlns:xlink="http://www.w3.org/1999/xlink" viewBox="0 0 1000 355.04"><defs><style>.cls-1{isolation:isolate;}.cls-2{fill:url(#linear-gradient);}.cls-3{fill:#9ceaff;opacity:0.37;}.cls-4{fill:url(#New_Gradient_Swatch_2);}.cls-5{fill:url(#New_Gradient_Swatch_2-2);}.cls-6{fill:#00abff;}.cls-7{fill:#68e0cf;}.cls-8{fill:#d6e0ef;}.cls-54,.cls-60,.cls-8{opacity:0.6;}.cls-15,.cls-23,.cls-25,.cls-29,.cls-34,.cls-37,.cls-38,.cls-43,.cls-45,.cls-48,.cls-52,.cls-54,.cls-8{mix-blend-mode:multiply;}.cls-9{fill:#62d5ff;}.cls-10{fill:#209cff;}.cls-11,.cls-15{fill:#ebe8dd;}.cls-12{fill:#ffa31b;}.cls-13{fill:#ff841b;}.cls-14,.cls-38{fill:#ffc507;}.cls-16{fill:#e36b7b;}.cls-17{fill:#e35566;}.cls-18{fill:#e3546c;}.cls-19{fill:#7e53b3;}.cls-20{fill:#9c77cf;}.cls-21{fill:#784c9e;}.cls-22,.cls-23{fill:#3f68b4;}.cls-23{opacity:0.5;}.cls-24,.cls-25{fill:#fbf4db;}.cls-26,.cls-29{fill:#62c9ff;}.cls-27{fill:#a28a96;}.cls-28{fill:#e3c336;}.cls-29,.cls-38{opacity:0.4;}.cls-30{fill:#1a3360;}.cls-31{fill:#5f46a4;}.cls-32,.cls-34{fill:#7168dd;}.cls-33{fill:#e5fbff;}.cls-34,.cls-37,.cls-43,.cls-45,.cls-48,.cls-52,.cls-58{opacity:0.3;}.cls-35{fill:#ffad32;}.cls-36,.cls-37{fill:#ff9301;}.cls-39{fill:#f5e6e5;}.cls-40{fill:#ffffed;}.cls-41{fill:none;stroke:#f5e6e5;stroke-linecap:round;stroke-linejoin:round;}.cls-42,.cls-43{fill:#f7c858;}.cls-44,.cls-45{fill:#e773e0;}.cls-46,.cls-62{fill:#fff;}.cls-47,.cls-48{fill:#ffaff1;}.cls-49{fill:#a83851;}.cls-50{fill:#1b374b;}.cls-51,.cls-52{fill:#3b3e58;}.cls-53,.cls-54{fill:#ff6c59;}.cls-55{fill:#4d4c53;}.cls-56{fill:#7b96b9;}.cls-57,.cls-58{fill:#6f7782;}.cls-58{mix-blend-mode:screen;}.cls-59{fill:#c1aaaf;}.cls-60,.cls-61{fill:#fff3ff;}.cls-61{opacity:0.8;}.cls-62{font-size:45px;font-family:GoodTimesRg-Regular, Good Times;}.cls-63{letter-spacing:-0.02em;}</style><linearGradient id="linear-gradient" x1="128.77" y1="562.12" x2="884.81" y2="-193.92" gradientTransform="translate(0 0)" gradientUnits="userSpaceOnUse"><stop offset="0" stop-color="#1670ff"/><stop offset="1" stop-color="#6cdaff"/></linearGradient><linearGradient id="New_Gradient_Swatch_2" x1="846.16" y1="251.72" x2="1000" y2="251.72" gradientUnits="userSpaceOnUse"><stop offset="0" stop-color="#209cff"/><stop offset="1" stop-color="#68e0cf"/></linearGradient><linearGradient id="New_Gradient_Swatch_2-2" x1="0" y1="141.89" x2="150.9" y2="141.89" xlink:href="#New_Gradient_Swatch_2"/></defs><title>about</title><g class="cls-1"><g id="BACKGROUND"><rect class="cls-2" x="250" y="-309.11" width="500" height="1000" transform="translate(690.89 -309.11) rotate(90)"/><path class="cls-3" d="M822.14-59.11H1000V390.47S761.43,363.7,858.76,213.61C924.05,112.94,980.43,16.89,822.14-59.11Z"/><path class="cls-4" d="M1000,62.56V440.89H846.16s108.68-71.81,104.46-153c-2-38.4-56.64-62.52-72.35-106.7C862,135.5,907.25,91.18,1000,62.56Z"/><path class="cls-3" d="M151.65,440.89H0v-424S163.83,44.62,121,205.64C82.72,349.64,257.82,338.89,151.65,440.89Z"/><path class="cls-5" d="M0,342.89v-402H97S200.73,23.37,120.4,91.15C5.58,188,194.23,292.29,0,342.89Z"/><path class="cls-6" d="M918.54,289.68c1.4-4.58,5.16-16.77-18.91-15.91S861,297.41,878.14,307.3,914.21,303.86,918.54,289.68Z"/><path class="cls-7" d="M933.29-8.65c-10.06-4.32-36.84-15.87-57,4.7s22.91,48.45,63.35,41S964.48,4.75,933.29-8.65Z"/><path class="cls-7" d="M95.46,79.55c-2.54,4.17-9.35,15.31,24.81,15.63s57.61-20.13,34.49-30.1S103.32,66.59,95.46,79.55Z"/></g><g id="OBJECTS"><path class="cls-8" d="M688.36,226c0,6.86-131,48.11-173.47,41.94-38.75-5.63-211.45-27.32-211.45-34.17s38.4-9.64,77.56-9.64S688.36,219.13,688.36,226Z"/><path class="cls-9" d="M625.91,78.84c-11.19-11.06-22.22-11-35.33-5.14s-12.37,20.29-31,19.08c-28-1.81-24.46,49.57,7.31,42.48,59.68-13.31,48.93,26,81.1,19.84,50.12-9.64,51.63-48,33-62.36S650.61,103.24,625.91,78.84Z"/><path class="cls-7" d="M676.85,82.92c-6.24-6.63-34.79-21-36.32-2.48s-8,30.68,12.71,25.81S685.46,92.07,676.85,82.92Z"/><path class="cls-10" d="M688.23,187.06c6.62-4.93,19.94-20.44,8.92-33.18-9.9-11.44-28.75-6.87-31,12.28C663.68,187.59,679.1,193.87,688.23,187.06Z"/><path class="cls-7" d="M383.85,73.4c-8.25-13.61-19.22-16.09-33.5-13.4s-17,17-35,11.42c-27-8.39-35.75,42.92-2.86,43.47,61.79,1,22.53,36.71,55.51,33.69s74-45.79,59.07-64.34S403.86,106.4,383.85,73.4Z"/><path class="cls-6" d="M298.88,115.52c-5.17,5.6-16.27,34,18.87,36.81S362.93,92,343.44,94.58,303.53,110.48,298.88,115.52Z"/><path class="cls-11" d="M546.19,251.05l138.58-24.83s-17.28-12.35-2.94-38l-135.64,24.3C526,236.22,546.19,251.05,546.19,251.05Z"/><polygon class="cls-12" points="546.19 212.54 333.74 187.71 470.77 166.05 684.77 187.71 546.19 212.54"/><path class="cls-13" d="M547.15,215.74l137.62-25v-3L546.19,212.54,540,215.2l-5.41,15.65,4.54,18.75,4.43-.41,2.61,1.86,138.58-24.87v-3l-138.4,23.71A29.07,29.07,0,0,1,547.15,215.74Z"/><path class="cls-14" d="M546.19,251.05,333.74,226.22c-14.63-2.11-12.6-40.33,0-38.51l212.45,24.83C536.27,221.48,536,242.77,546.19,251.05Z"/><path class="cls-15" d="M548.33,223.66c33.69-4,111.61-20.48,111.61-20.48S581.15,216.29,548.33,223.66Z"/><path class="cls-15" d="M549.61,240c14.5,2.37,119.87-21.3,119.87-21.3S571.27,235.58,549.61,240Z"/><path class="cls-15" d="M548.25,231.43c30.52-.74,99.19-16.6,99.19-16.6S569.27,225.68,548.25,231.43Z"/><path class="cls-8" d="M324,206.57c-1.13,6,1.32,15.79,7.64,19.07,12.18,1.77,214.51,25.41,214.51,25.41l138.58-24.83-9.08-11.39L539,236.7Z"/><path class="cls-13" d="M552.77,223.83s2.19,4.72,2.19,22l4.15-7.41,4,3.66s-.32-17.65-2.86-19.68Z"/><path class="cls-11" d="M538.19,205.76l112.2-18.4s-14-17.76-2.39-36.76l-109.81,18C521.86,186.17,538.19,205.76,538.19,205.76Z"/><polygon class="cls-16" points="538.18 168.62 366.18 150.21 477.13 134.16 650.39 150.21 538.18 168.62"/><path class="cls-17" d="M539,171l111.43-18.52v-2.26l-112.2,18.41-5,2-4.38,11.6,3.67,22.49,3.59-.3,2.12,1.38,112.2-18.43v-2.26L539.92,202.65C535.5,200.74,531.71,181.35,539,171Z"/><path class="cls-18" d="M538.19,205.76l-172-18.4c-11.85-1.57-10.2-38.5,0-37.15l172,18.41C530.16,175.24,530,199.62,538.19,205.76Z"/><path class="cls-15" d="M547.34,196.19c43.9-6.44,90.12-16.28,90.12-16.28S579.91,187.63,547.34,196.19Z"/><path class="cls-15" d="M539.69,194.46c43.9-6.43,90.13-16.28,90.13-16.28S572.27,185.9,539.69,194.46Z"/><path class="cls-15" d="M558.33,179.2C594,174,631.46,166,631.46,166S584.76,172.26,558.33,179.2Z"/><path class="cls-15" d="M545.6,177.45c43.89-6.43,90.12-16.28,90.12-16.28S578.17,168.89,545.6,177.45Z"/><path class="cls-15" d="M539.69,187.34c43.9-6.44,90.13-16.28,90.13-16.28S572.27,178.78,539.69,187.34Z"/><path class="cls-14" d="M544.72,173.76l10.61-1.43c6.49,5.3,5,27.85,4.83,32.89L555.92,201l-5.66,5.9S551.38,175.1,544.72,173.76Z"/><path class="cls-8" d="M357.92,169.87a30.6,30.6,0,0,0,3.39,14c-2.57,1.24-4.61,2.23-4.95,3.77-.27,1.24,4.41,1.24,4.41,1.24l181.55,19,110.25-18.24-7.55-13L537.23,196.93Z"/><path class="cls-11" d="M519.39,163.66l84.52-16.78s-10.74-15.1-2.17-31.49L519,131.81C506.87,147,519.39,163.66,519.39,163.66Z"/><polygon class="cls-19" points="519.02 131.81 388.99 117.55 472.58 102.8 603.54 115.03 519.02 131.81"/><path class="cls-20" d="M519.63,133.84,603.56,117l0-1.94L519,131.81l-3.75,1.73-3.19,10,3,19.25,2.7-.29,1.61,1.17,84.52-16.8,0-1.94L520.67,161C517.32,159.38,514.26,142.78,519.63,133.84Z"/><path class="cls-21" d="M519.39,163.66l-130-14.27c-9-1.23-8.09-32.91-.37-31.84l130,14.26C513,137.56,513.12,158.46,519.39,163.66Z"/><path class="cls-15" d="M526.21,154c33.07-5.9,67.87-14.75,67.87-14.75S550.71,146.33,526.21,154Z"/><path class="cls-15" d="M521.54,145.18c26.84-4.79,55.07-12,55.07-12S541.42,139,521.54,145.18Z"/><path class="cls-15" d="M524.06,140.59c33.07-5.91,67.87-14.75,67.87-14.75S548.56,133,524.06,140.59Z"/><path class="cls-15" d="M525.66,148.91c33.08-5.91,67.88-14.75,67.88-14.75S550.17,141.28,525.66,148.91Z"/><path class="cls-20" d="M524.06,147.27s3.2,8.43,2.85,10.5l6.66-2s-2.22-9.7-3.41-9.93Z"/><path class="cls-8" d="M384.42,129c-1.31,0-2.69,8.55.78,15.25-2.46,1.24-2.65,3-3,4.57C382,150,388.76,152,388.76,152l139.1,15,98.33-15.62-22.3-6.47-89.17,5.68Z"/><path class="cls-8" d="M498.71,187.76c.16-.69.32-1.36.46-2,.72,1.82,1.74,3.44,3.43,3.61,2.65.26,5.08-10.24,5.39-11.65.17,0,.33-.07.48-.12,0,0,1.19-8.37.65-14-.36-3.75-11.42-6-17.13-7.67a12.47,12.47,0,0,0,1.9-2.19c1,.22,2.6-.59,3.2-3,.53-2.19-1.3-2.3-1.3-2.3,3.24-1.27,3-12.36-.22-11.42-6.32-6.55-20.31-2.66-22.22,1.45-2.48,5.34-1.07,8.46.39,10.07-.51.18-1.25.69-.88,2.2.6,2.45,2.16,3.26,3.19,3a12.91,12.91,0,0,0,1.46,1.77c-5.66,1.74-15.34,4.93-15.69,8.62-.54,5.63,1.5,13.33,1.5,13.33.18.05.36.08.54.12h-.13s2.59,12.09,5.43,11.81a3.18,3.18,0,0,0,2.21-1.37h0c-1.58,3.78-9,15.19-8,17.91.12.32.29.69.48,1.09-2.44.83-4.05,1.4-4.36,1.51-1.18-.38-4.41-1.36-5.13-.84-.9.64-8,13.3-4.82,11.54,1.74-1,8-6.5,8-6.5s3.87-.17,9.32-.48c4.95,7.85,13.38,19.29,16.57,23.09h0c2.65,5.34-1.5,10.19,1.46,10.33,1.74.09,5-7.91,5.82-9.66.62-1.44-1.91-2.54-2.69-2.87a88.56,88.56,0,0,0-4.48-18h0l-.05-.12c-.15-.41-.3-.81-.46-1.21-.32-.85-.67-1.81-1-2.53h0c8.44-.66,16.45-1.49,19.06-2.42,10.82-1.75,10.36-6.63-2.4-21.07Zm2-9c0-.07,0-.14,0-.2l.21-.95c-.05.43-.11.92-.15,1.35C500.75,178.94,500.72,178.87,500.68,178.8Z"/><path class="cls-22" d="M495.38,187.76c-1.59-2.18-8.45.39-10.71,1.33-2.9-.93-11.08-3.76-12-1.07-1.3,3.77-7.5,15.2-6.64,17.92,2,6.42,17.12,30.87,17.72,30.71.81-.21,1.67.13,2.92-1.62-.31-5.87-2.88-19.37-6.59-27.12,1.76-3.78,16.52,1.07,17.3.92C506.37,207.08,506,202.2,495.38,187.76Z"/><path class="cls-23" d="M482.79,215.11c-.33-1-.81-2.71-1.26-3.86-1.76-4.59,11.35-11.53,10.06-12-.66-.27-5.72.42-6.68-2.91-3.31,8.82-13.47,10.34-16.33,11.53.13.92,1.93,2.92,2.48,4.28C473.86,212.11,477.72,212.87,482.79,215.11Z"/><rect class="cls-24" x="478.67" y="154.68" width="10.64" height="11.16"/><rect class="cls-25" x="478.67" y="154.68" width="10.64" height="11.16"/><path class="cls-26" d="M504,163.61c-.31-3.92-10.34-6.24-14.85-7.88-1.32,8.77-9.25,8.25-10.57-.53-4.5,1.65-13.59,5-13.9,8.94-.45,5.63,1.24,13.33,1.24,13.33a5.84,5.84,0,0,0,4.67-.48l2.22,12s2.53,1.41,11.14,1.41S495.13,189,495.13,189l2.23-12s3.74,1.53,6.14.63A89.53,89.53,0,0,0,504,163.61Z"/><path class="cls-24" d="M493,148.41c1.4-11.42-9-11.42-9-11.42s-10.4,0-9,11.42c0,0-1.52.11-1.08,2.3.5,2.45,1.8,3.26,2.66,3,0,0,2.75,5.22,7.42,5.22s7.41-5.22,7.41-5.22c.86.22,2.16-.59,2.66-3C494.48,148.52,493,148.41,493,148.41Z"/><path class="cls-27" d="M478.6,147.14a8,8,0,0,0-2.43,2.82s-5.22-2.82-1.87-11.52c1.59-4.11,13.22-8,18.48-1.45,2.69-.94,2.88,10.15.18,11.42-1.21.17-1.31-2.61-2.29-4.64C487.22,146.44,482.82,144,478.6,147.14Z"/><path class="cls-11" d="M484.47,170.32c-2.87-2.83-6.5-3.37-11.94-2.49L476,183.65s5.55-2.28,8.47.22c3.25-2.86,6.12-1.82,8.43-.58l3.5-15.3S487.65,166.23,484.47,170.32Z"/><path class="cls-28" d="M484.47,171.32c-2.87-2.83-6.5-3.37-11.94-2.49L476,184.65s5.55-2.28,8.47.22c3.25-2.86,6.12-1.82,8.43-.58l3.5-15.3S487.65,167.23,484.47,171.32Z"/><path class="cls-29" d="M495.13,189c1.85-9.19,2.25-12.62,2.25-12.62s-2.83,3.21-3.38,3.59-4.46-2.12-5.33-1.08c-1.07,1.28,1.52,3.81,3.58,3.81C494.05,182.72,493.82,188.24,495.13,189Z"/><path class="cls-29" d="M472.06,176.4s1.7.9,1.86,1.79,1.74.47,4,.47,3-.24,3.58.19-1.42,4.48-5.08,3.87c-2.07-.33-3.11,6.82-3.57,6.3a38.4,38.4,0,0,1-.8-5.26A69,69,0,0,1,472.06,176.4Z"/><path class="cls-24" d="M466.31,177.58s2.15,12.09,4.51,11.81c2.8-.34,3.4-6.48,4.17-8.4a4.33,4.33,0,0,0,4.77-.65c1.67-1.52,1.13-3.11-.61-2.69-2.21.54-4.44.54-5-2.12-.18-.85-.81-.37-.87,1.33,0,.27-.6,1.33-.92,2.14-.08-1.13-.27-2.6-.27-2.6S468.79,177.9,466.31,177.58Z"/><path class="cls-25" d="M469.34,184.19a9.62,9.62,0,0,1,3-5.19c-.09-1-.27-2.6-.27-2.6s-3,6.18-2.73,7.89A.38.38,0,0,0,469.34,184.19Z"/><path class="cls-24" d="M503.13,177.58s-2.15,12.09-4.51,11.81c-2.8-.34-3.4-6.48-4.17-8.4a4.33,4.33,0,0,1-4.77-.65c-1.67-1.52-1.13-3.11.61-2.69,2.21.54,4.44.54,5-2.12.18-.85.81-.37.87,1.33,0,.27.6,1.33.92,2.14.08-1.13.27-2.6.27-2.6S500.65,177.9,503.13,177.58Z"/><path class="cls-25" d="M500.1,184.19a9.62,9.62,0,0,0-3-5.19c.09-1,.27-2.6.27-2.6s3,6.18,2.73,7.89A.38.38,0,0,1,500.1,184.19Z"/><path class="cls-30" d="M482.7,235.36c1.08-.16,3.07-.88,3.81-2.2.65.33,2.76,1.43,2.24,2.87-.63,1.75-3.39,9.75-4.83,9.66C481.45,245.55,484.9,240.7,482.7,235.36Z"/><path class="cls-30" d="M463.16,208.69l-2,4.05s-5.19,5.54-6.64,6.5c-2.65,1.76,3.26-10.9,4-11.54S463.16,208.69,463.16,208.69Z"/><path class="cls-22" d="M462.75,208.57s23.07-10,31.25-9.44c10.07.83,8,7.69,3.38,9.7-5.19,2.23-36.21,3.91-36.21,3.91Z"/><ellipse class="cls-8" cx="345.22" cy="254.18" rx="37.01" ry="5.81"/><path class="cls-31" d="M329.18,120h7.56a2.4,2.4,0,0,1,2.4,2.4v73.95a0,0,0,0,1,0,0H326.79a0,0,0,0,1,0,0V122.41A2.4,2.4,0,0,1,329.18,120Z" transform="translate(-33.59 119.1) rotate(-19.33)"/><path class="cls-32" d="M336.48,128.36h11a3.49,3.49,0,0,1,3.49,3.49V239.4a0,0,0,0,1,0,0H333a0,0,0,0,1,0,0V131.84A3.49,3.49,0,0,1,336.48,128.36Z" transform="translate(-41.58 123.53) rotate(-19.33)"/><polygon class="cls-31" points="367.16 255.7 351.87 239.25 368.82 233.3 367.16 255.7"/><polygon class="cls-33" points="360.77 248.83 367.16 255.7 367.86 246.34 360.77 248.83"/><path class="cls-34" d="M337.36,143.59a1.08,1.08,0,0,0-.56,0l-2.42.85,0-.07a2.4,2.4,0,0,0-3.06-1.47l-1.68.59a2.4,2.4,0,0,0-1.47,3.06l0,.06-7.81,2.74,1.8,5.13,7.81-2.74,15.27,43.55a2.4,2.4,0,0,0,3.06,1.47l1.68-.59a2.4,2.4,0,0,0,1.47-3.06L336.18,149.6l2.42-.85a1.23,1.23,0,0,0,.46-.32Z"/><rect class="cls-35" x="318.34" y="143.12" width="20.59" height="5.43" rx="1.2" ry="1.2" transform="translate(-29.74 116.97) rotate(-19.33)"/><rect class="cls-35" x="336.02" y="138.27" width="6.58" height="56.45" rx="2.4" ry="2.4" transform="translate(-35.98 121.67) rotate(-19.32)"/><path class="cls-8" d="M467.4,108s17-.29,27.49-.37,57.27,2.51,50.71,7.38-35.93,14.33-47.75,12.27-27.2-12-39.34-7.38-50,6.52-43.66-2.62S467.4,108,467.4,108Z"/><path class="cls-36" d="M525.93,38.8c-1.64-9.32-11.49-8-16-5.72S486.4,63.79,492.34,91.63c4.78,22.35,19.07,23.84,24.23,17.51s1.95-14.24,1.95-14.24S505,101.15,501.85,89c-4.6-17.79,8.57-48.72,14.42-43.63S526.62,42.75,525.93,38.8Z"/><path class="cls-37" d="M525.93,38.8c-1.64-9.32-11.49-8-16-5.72S486.4,63.79,492.34,91.63c4.78,22.35,19.07,23.84,24.23,17.51s1.95-14.24,1.95-14.24S505,101.15,501.85,89c-4.6-17.79,8.57-48.72,14.42-43.63S526.62,42.75,525.93,38.8Z"/><path class="cls-36" d="M505.75,39.88c-1.78-9.32-12.54-8-17.51-5.72S462.62,64.87,469.1,92.71c5.21,22.36,20.81,23.84,26.44,17.52S497.67,96,497.67,96s-14.75,6.26-18.19-5.9c-5-17.79,9.35-48.72,15.73-43.63S506.51,43.83,505.75,39.88Z"/><path class="cls-37" d="M479.48,90.08c-5-17.79,9.35-48.72,15.73-43.63l.09.06-.08-.26c-.05-.16-.12-.36-.22-.63-.37-.95-.73-1.92-1.14-2.85-.13-.29-1.43-2.81-1.2-2.52a21.92,21.92,0,0,0-1.73-2.35c.46.58-1-.9-1.11-1l-.58-.39a9,9,0,0,0-1.09-.41c-1-.26-1.06-.28-.26,0a10.35,10.35,0,0,0-1.76,0h-.32c-7.15,7.22-22.41,32.16-16.71,56.62,5.21,22.36,20.81,23.84,26.44,17.52S497.67,96,497.67,96,482.92,102.24,479.48,90.08Z"/><path class="cls-14" d="M491.51,39.2s-8.32,10.06-8.83,22.36-3.54,46.51,3.05,54,55.79,6.39,57.58-.44.77-54.7-2.27-60.28-4.87-13.63-8.78-15.64S493.93,34.24,491.51,39.2Z"/><path class="cls-38" d="M494.89,107.65c-.07-3.66,1.42-7.27,1.64-10.46.57-8.2-.28-16.44.33-24.64.51-6.9,2.2-14.65.5-21.26-1.05-4.08-4-7.2-6.51-11.22-2,2.66-7.74,11.29-8.17,21.49-.5,12.29-3.54,46.51,3.05,54,1.87,2.12,7.14,3.55,13.78,4.36A19.09,19.09,0,0,1,494.89,107.65Z"/><path class="cls-38" d="M538.13,100.09c-7.28,11.52-19.66,19.41-33.58,17.41-8.72-1.25-17.12-6.75-22.43-14.16.58,5.55,1.68,10,3.61,12.22,6.6,7.49,55.79,6.39,57.58-.44.88-3.37,1.08-16.72.69-30.06A45.9,45.9,0,0,1,538.13,100.09Z"/><path class="cls-12" d="M496.57,35.89a264.39,264.39,0,0,1,31.28.59c2.43.23,14.52,14.11,12.78,33.27-.75,8.21-36.8,6.84-36.69,0C504.39,40.09,487.17,36.51,496.57,35.89Z"/><path class="cls-12" d="M480.79,90s15.27,3.54,16.9,2.18c0,0-1.9,21.54,0,23.14s-14.35.1-16.15-3.77S480,92.42,480.79,90Z"/><path class="cls-12" d="M538.69,85.15s-31.45-.72-34.47,2.85-3.26,23.86-1.9,27.06,3.51.87,3.51.87-1.94-24,2.63-25.95,32-3.3,33.55-2.72S538.69,85.15,538.69,85.15Z"/><path class="cls-36" d="M518.57,67.43a52.6,52.6,0,0,1,.33,10.46c-.07,1.39,6.2,4.26,6.2,4.26s5.68-2.58,5.74-3.87c.23-4.86-.12-6.06-.51-10.59C530.25,66.72,521.39,67.13,518.57,67.43Z"/><path class="cls-37" d="M524.2,74c0-.09,2.09-.55,2.16.13s.42,8.84-.36,10.2c0,0-1.87.75-1.8,0S524.6,75,524.2,74Z"/><path class="cls-39" d="M382.22,44.22s-8.64,7.34,1.19,13c9.58-13.92,28.92-18.51,37.12-22.66s.83-6.88.83-6.88Z"/><path class="cls-40" d="M382.22,44.22c6.82-1.6,19.47.47,22.48,20.12,3.22,21,15,60.82,32.89,56.76l47.79-31.7s-24.26-11.06-27.61-42.09c-2.59-24-14-33.48-21.27-30.87C431.52,18.23,389.63,38.44,382.22,44.22Z"/><path class="cls-39" d="M437.34,105.53c2.64,0,10,10.23.25,15.57,18.3-6,42.57-25.25,49.4-31.32s-.22-9.73-1.81-8.32C474.12,91.21,446,100.82,437.34,105.53Z"/><path class="cls-41" d="M400.46,42.63s24.61-13.55,37.32-19.52"/><path class="cls-41" d="M404.5,47.32s24.6-13.55,37.32-19.52"/><path class="cls-41" d="M411.79,62.69s24.61-13.56,37.32-19.52"/><path class="cls-41" d="M413.5,71.44s24.61-13.55,37.33-19.52"/><path class="cls-41" d="M416.16,77.48S440.76,63.92,453.48,58"/><path class="cls-41" d="M424.26,100.37s25.54-15.3,38.75-22"/><path class="cls-41" d="M428.82,107.36s25.43-15.5,38.58-22.31"/><path class="cls-41" d="M418.18,86.32s16.67-9.39,25.29-13.52"/><path class="cls-41" d="M407.6,54.39s21.5-12,32.62-17.24"/><path class="cls-41" d="M420.06,93.28s21.5-12,32.61-17.24"/><path class="cls-8" d="M445,119a19.89,19.89,0,0,1,8.82,12.57c1.84,8.69-12.29,23.57-20.05,22.72s-10.06,7.16-10.41,11.57,2,15.12-3.33,24.59-6.51,18-3.61,24.4,5.18,21.66,5.18,21.66l-6.78-1.36-9.72-24.56s5,19.31,0,24l-6.46-.76-1.19-38.65,2.81-43.77,7-36.94Z"/><path class="cls-42" d="M391.51,99.65c-.87.68-8.6,16.48,2.28,25.85,5.93,5.11,4.65,8.57,10,7.19s11.1-17.25,11.1-17.25S396.45,95.73,391.51,99.65Z"/><path class="cls-43" d="M395.72,100.69c-4.82,6-4.81,10.25-3.58,17.58,1.3,7.73,7.68,11,13,9.63s9.72-12.46,9.72-12.46S399.67,95.77,395.72,100.69Z"/><path class="cls-44" d="M392.63,162l3.87,79.65s2.41.14,3.17-.48,3.31-25.86,1.84-39.69c0,0,10.29-37.45,10.08-39.41S392.63,162,392.63,162Z"/><path class="cls-45" d="M396.94,161.82c.13,10,2.29,24,4,33.87.8,4.51,10.84-31.7,10.63-33.66C411.43,160.5,396.93,161.59,396.94,161.82Z"/><path class="cls-44" d="M415.51,161.89s1.44,3.19.76,12.8c-.28,3.91-4.49,15-7.5,29,2.82,5.67,6.08,12.83,7.68,31.44L414,236.7s-11.7-30.95-12.31-33.72-3-36.53-3.05-39.88C398.64,159.92,415.51,161.89,415.51,161.89Z"/><path class="cls-24" d="M393.78,103.69c-2,5.93,1.34,15.94,3.08,16.69s4.1-.95,4.77-.62c.26.13.22,1.15-.12,2.73-.51,2.31-.81,5.41-.81,5.41s9-3,9.3-4.79,0-11.38,0-11.38,2.35-5.36,1.34-7.53-6.53-6.7-6.53-6.7S396.43,95.69,393.78,103.69Z"/><path class="cls-25" d="M401.63,119.76c1.24-.78,4.37-1.37,5.62-5.31,0,4.81-3.55,7.87-5.74,9.06A9.9,9.9,0,0,0,401.63,119.76Z"/><path class="cls-42" d="M388,100.44c-1.81,4.14,4.57,9.13,14.34,8,3.94,5.26,4.87,9.17,7.77,11,8.87,53.42,59.45,16.93,33-4.28-10.81-8.68-19.61.82-28.34-14.09C408.42,90.07,392.06,91.19,388,100.44Z"/><path class="cls-43" d="M420.94,122.94c-3.08-.49-6.59-.25-10.62-2.53,3.23,18,11.31,25.44,19.41,26.58,7.37.17,8.21-10.77,4.79-15.44A20.76,20.76,0,0,0,420.94,122.94Z"/><path class="cls-46" d="M410.15,119.44l.54,2s-.86,10.27-7.17,13.33-3.16-13.09-3.16-13.09L401.7,120l1.44,7Z"/><path class="cls-47" d="M396.5,241.61s-8.61,1.92-8.58,3c0,.83,9.33.83,12,.83.95,0-.25-4.32-.25-4.32Z"/><path class="cls-47" d="M414,236.7a65.25,65.25,0,0,1,.08,7.06c-.24,1-3.41,2.11-2.79,2.67s5.33-.25,5.53-1,1.76-7.75,1.59-9c-.07-.43-2-1.37-2-1.37Z"/><path class="cls-47" d="M421.14,127.3c-4.15-3.48-10.63-5.86-10.63-5.86-3.95,8.26-6,10.19-8.83,11.34-1.87.42-1.49-11.1-1.49-11.1s-6.54,2.8-7.59,3.84c-.56.56-4.62,17-4.82,17.41a55.23,55.23,0,0,1-4.53-4.89l-3.57.83s7,13,9.08,13.13c1.14.05,4.24-5.36,5.37-8.29.7,1.18,2.1,1.65,1.91,2.9-1.11,7.31-3.93,16.52-3.81,16.48.29-.09,23.66.42,23.28-1.2a53.57,53.57,0,0,1,.25-23l3.38,8.45c3.34,0,5.94.14,5.94.14C424.6,142.85,423,128.84,421.14,127.3Z"/><path class="cls-48" d="M384.3,139.35c-.35-.41-.71-.84-1.05-1.31l-1,.4s4.41,13.47,6.53,13.56c.66,0,2-1.77,3.18-3.85C391.39,148.25,384.22,142.12,384.3,139.35Z"/><path class="cls-48" d="M396,146.61c-.46,3-1.22,6.41-1.94,9.31.73-.43,1.48-.84,2.26-1.21a73.27,73.27,0,0,0,7.39-8c-2.23-.26-6.27-.75-8.68-1.9C395.64,145.34,396.16,145.82,396,146.61Z"/><path class="cls-48" d="M418.67,125.5c-.64.6-3.16,7.55-3.15,9.66,0,1.39-3.41-.59-4.83-1.12-.68-.25-4-.43-5-1.11l-.09-.05c0,.14-1.19,2.14-1.18,2.28.71,5.78,7.2,10.73,7.2,16.44,0,7.76-10.08,10.29-16.57,11.49,6.24,0,20.79.08,20.49-1.2a53.57,53.57,0,0,1,.25-23l3.38,8.45c1.68,0,3.18,0,4.25.07C415.54,139.8,418.92,125.66,418.67,125.5Z"/><path class="cls-40" d="M373.21,123.51s10.39,8.4,11.73,20.73l7.25,5s2.41-16.79-4.34-21.25C384.27,126.24,373.21,123.51,373.21,123.51Z"/><path class="cls-24" d="M383.7,138a3,3,0,0,1-.41-1.6c.68-2,1.63-3.65,1.27-3.5a10.54,10.54,0,0,1-3.63-.12,12.05,12.05,0,0,1-1.08-1.88c-.34.73-1.33,3.77.65,7.84A11,11,0,0,0,383.7,138Z"/><polygon class="cls-49" points="404.85 124.79 394.46 133.21 393.79 134.66 395.04 134.31 405.1 125.78 404.85 124.79"/><path class="cls-24" d="M408.11,132.09c-1.4-1.19-2.52-2.1-3-2.44-1.7-1.12-2.33-2.29-4.9-2.35-.16,0-.39.79-.71.83-1.06.15-1.82,2.29-2,2.73s1.5,2.66,1.75,3c.6.69,1.66-2.27,3.42-1.35a15.64,15.64,0,0,1,2.79,2.83A34.91,34.91,0,0,1,408.11,132.09Z"/><path class="cls-47" d="M407.82,131.55l-3.43,3.61S417.67,151.6,420,152c4.78.87,6.58-4.08,4.33-6.08S407.82,131.55,407.82,131.55Z"/><path class="cls-8" d="M558.63,110.84l42,3.92s-7.75,15-5.78,22.23,1.91,10.73,7.06,11,12.69,1,11,2-17.25,9.34-23,7.81-17.34-4.51-17.5-5.64,4.05-32,4.05-32S553.4,124.18,558.63,110.84Z"/><path class="cls-50" d="M611.59,142.08s9-3.33,9.41-2.26-10,6.86-10,6.86L608.47,144Z"/><path class="cls-51" d="M581.91,97.63s21.12,8.65,25,12,4.36,32.67,4.36,32.67l-2.8,1.69s-8-21.94-8-24.85c-3.47,3-20.94-8.34-23.85-8.62S581.91,97.63,581.91,97.63Z"/><path class="cls-52" d="M607.25,134.41a55,55,0,0,1-3.39-11.89c-.58-4.28-1.24-10.38,3-13-4-3.35-25-11.94-25-11.94s-8.21,12.58-5.3,12.86,20.38,11.67,23.85,8.62c0,2.91,8,24.85,8,24.85l2.8-1.69s0-.32,0-.87C610.06,139.05,608.19,136.88,607.25,134.41Z"/><path class="cls-51" d="M577.76,100.47s24,8.73,24.2,12-14,33.73-14,33.73-2.84,1.11-4.05-.74L589,119.48s-22.45,1.49-24.52-9.68S577.76,100.47,577.76,100.47Z"/><path class="cls-52" d="M577.76,100.47s-15.33-1.85-13.25,9.33S589,119.48,589,119.48l-5.12,26a2.61,2.61,0,0,0,2.49,1.06c.21-4.85,1.7-9.36,3.48-13.88,1.88-4.75,10-18.09-7.09-16.34-2.93.3-4-7.51-1.1-6.86,11.22,2.53,17.4,3.77,19.34,2.11a1.77,1.77,0,0,1,.24-.17C597.33,107.59,577.76,100.47,577.76,100.47Z"/><path class="cls-53" d="M580.45,71.38C585,73,590,91.84,592,93.5s14.42,7.17,14.42,7.17l-2,2.42s-13.77-3.46-16.63-5.69c-3.41-2.67-7-10.16-7.53-10S578.67,70.74,580.45,71.38Z"/><path class="cls-54" d="M591.65,97.14c-4.11-3.61-4.39-9.4-4.42-14.53-2.08-5.19-4.5-10.42-6.78-11.23-1.78-.64-.77,16.14-.21,16s4.12,7.35,7.53,10c1.9,1.48,8.61,3.5,12.91,4.69C597.72,100.66,594.11,99.3,591.65,97.14Z"/><path class="cls-24" d="M592.43,55.2c.73,2.51-.09,11.08-.61,11.26s-1.43-.34-1.92.26-2.64,4.44-4.83,3.51a19.1,19.1,0,0,1-3.42-1.83l.19,7.68-7.64-3.81s1.31-8.29,1.28-10.21c-.06-3.88,1.83-9.81,5.8-11.71A7.87,7.87,0,0,1,592.43,55.2Z"/><path class="cls-55" d="M597.81,54.24c-.21,2.4-2.92,7.43-7,3.88-1.69-1.47-4.08-4.66-5.74-4-1,.37-.48,3.13-3.74,4.63-1.34.61-.79,1.68-.7,2.3s-1,0-1.11-1-1.22-3.44-2.57-1.14c-.93,1.59.25,2.75-.41,5.18-.34,1.25-1.43,2.18-1.41,1.82.29-4.24-1.56-4.36-2-8.21-.49-4.66,1.69-9.07,5.55-10.38,0,0,7.16-3.39,10.68,0S598.15,50.28,597.81,54.24Z"/><path class="cls-53" d="M581,73.31c.63,0,.84-.54.75-1.08,5.37,4.54,2.37,26.7,1.44,26.7a36.21,36.21,0,0,0-12.41,4.57c-4.86,3-4.2,5.13-6.42,4.36-1.63-.57-6.78-1,1.85-28.29,2-6.36,5.14-9.43,8.86-12.9C574.42,70.71,579,73.43,581,73.31Z"/><polygon class="cls-56" points="601.57 109.04 613 107.09 601.34 106.56 582.62 105.73 601.57 109.04"/><polygon class="cls-57" points="607.51 90.8 623.04 90.52 617.15 106.9 602.13 110.84 582.35 107.4 582.62 105.73 601.57 109.04 607.51 90.8"/><polygon class="cls-58" points="615.41 91.6 602.73 109.34 613.28 106.64 622.09 91.21 615.41 91.6"/><path class="cls-50" d="M588,146.17l-4.05-.74a6.38,6.38,0,0,0-.85,2.38c-.28,1.57,7.21,7.34,9.34,8S590.06,151.39,588,146.17Z"/><path class="cls-54" d="M577.29,100.45s-8.23-13.44-7-18.22c0,0-6.73,14.29,1.95,20.38C574.78,101.39,577.29,100.45,577.29,100.45Z"/><path class="cls-54" d="M582,96.77c-2.52-5.71-2.5-11.88-.36-15.31,0,0,.36,7.62,1.55,16.68A6.78,6.78,0,0,1,582,96.77Z"/><path class="cls-25" d="M581.65,68.4s-2.59-1.76-2.8-3.71a7.24,7.24,0,0,1-.09-2.17,10,10,0,0,0-.3,3.85c.1.82,3.24,4.18,3.24,4.18Z"/><path class="cls-24" d="M593.16,102l2.19-.49c.39-.07,1.34.62,1.34.62a3.53,3.53,0,0,1,2.09,1,8.39,8.39,0,0,1,2,3.61c.09.56-1,1-1.3.73-.82-.54-2.13-2.14-3.27-2.16-.37,0-3.28-1-3.28-1Z"/><path class="cls-53" d="M570.32,82.23c-.5,7.27,3.39,19.82,9.34,21.37,3.12.82,13.25.69,13.25.69l.72-2.19s-8-1.41-10.49-4.47-1.71-15.86-1.71-15.86S570.71,76.54,570.32,82.23Z"/><ellipse class="cls-8" cx="581.58" cy="271.41" rx="37.01" ry="5.81"/><ellipse class="cls-8" cx="658.31" cy="252.47" rx="47.88" ry="7.52"/><rect class="cls-59" x="612.02" y="232.69" width="10.87" height="18.51" transform="translate(361.58 -369.87) rotate(45.91)"/><circle class="cls-60" cx="652.57" cy="207.92" r="40.55" transform="translate(-23.97 314.55) rotate(-26.63)"/><path class="cls-61" d="M661.33,182.18a39.49,39.49,0,0,1-.49,55.44,30.82,30.82,0,0,0-5.31-60.37A39.54,39.54,0,0,1,661.33,182.18Z"/><path class="cls-19" d="M685.71,175.81a46.14,46.14,0,1,0-1,65.25A46.15,46.15,0,0,0,685.71,175.81Zm-58.5,56.68a35.31,35.31,0,1,1,49.93.79A35.31,35.31,0,0,1,627.21,232.49Z"/><path class="cls-20" d="M682.36,179.06a41.48,41.48,0,1,0-.93,58.65A41.48,41.48,0,0,0,682.36,179.06ZM625.2,234.44a38.11,38.11,0,1,1,53.89.85A38.1,38.1,0,0,1,625.2,234.44Z"/><rect class="cls-21" x="592.54" y="238.52" width="17.58" height="38.1" rx="3.87" ry="3.87" transform="translate(367.89 -353.53) rotate(45.91)"/><path class="cls-8" d="M554.86,269.88a2.32,2.32,0,0,0-2.41-2.23l-10.7.41a3.39,3.39,0,0,0-3.18-1.92l-15.66.6-.07-1.72,10.28-.41a1.56,1.56,0,0,0,1.51-1.63l-.06-1.71a1.56,1.56,0,0,0-1.63-1.51l-12.91.51-2.45.1h0l-34.89,1.39a2.43,2.43,0,0,0,.19,4.86l34.89-1.39.06,1.7-119.05,4.55-15.31,4.38h0l-11,3.15,11.2,2.29h0l15.6,3.2L518.33,280h0l5.08-.19h0l15.66-.6a3.37,3.37,0,0,0,3-2.15l10.7-.41a2.32,2.32,0,0,0,2.23-2.41Z"/><path class="cls-14" d="M508.93,217.5h4.31a2.32,2.32,0,0,1,2.32,2.32V316a0,0,0,0,1,0,0h-9a0,0,0,0,1,0,0V219.83A2.32,2.32,0,0,1,508.93,217.5Z" transform="translate(758.14 -254.14) rotate(87.81)"/><path class="cls-7" d="M472.84,196.46h6.27a3.38,3.38,0,0,1,3.38,3.38v139.9a0,0,0,0,1,0,0h-13a0,0,0,0,1,0,0V199.84A3.38,3.38,0,0,1,472.84,196.46Z" transform="translate(725.7 -217.77) rotate(87.81)"/><polygon class="cls-14" points="377.85 271.85 404.14 264.32 404.64 277.34 377.85 271.85"/><polygon class="cls-12" points="388.83 268.7 377.85 271.85 389.04 274.14 388.83 268.7"/><path class="cls-14" d="M485.72,257.13h0a2.44,2.44,0,0,1,2.34-2.53l50.24-2a1.56,1.56,0,0,1,1.63,1.51l.07,1.71a1.57,1.57,0,0,1-1.51,1.63l-50.25,2A2.43,2.43,0,0,1,485.72,257.13Z"/><rect class="cls-14" x="523.31" y="253.1" width="5.08" height="19.6" transform="translate(-9.65 20.27) rotate(-2.19)"/></g><g id="DESIGNED_BY_FREEPIK" data-name="DESIGNED BY FREEPIK"><text class="cls-62" transform="translate(281.8 339.13)">S<tspan class="cls-63" x="39.6" y="0">y</tspan><tspan x="80.5" y="0">napse Prep</tspan></text></g></g></svg>