<svg xmlns="http://www.w3.org/2000/svg" xmlns:xlink="http://www.w3.org/1999/xlink" viewBox="0 0 1000 500"><defs><style>.cls-1{isolation:isolate;}.cls-2{fill:url(#linear-gradient);}.cls-3,.cls-7{fill:#9ceaff;}.cls-3{opacity:0.37;}.cls-4{fill:#62d5ff;}.cls-5{fill:#00abff;}.cls-6{fill:#d6e0ef;}.cls-51,.cls-57,.cls-6{opacity:0.6;}.cls-12,.cls-20,.cls-22,.cls-26,.cls-31,.cls-34,.cls-35,.cls-40,.cls-42,.cls-45,.cls-49,.cls-51,.cls-6{mix-blend-mode:multiply;}.cls-12,.cls-8{fill:#ebe8dd;}.cls-9{fill:#ffa31b;}.cls-10{fill:#ff841b;}.cls-11,.cls-35{fill:#ffc507;}.cls-13{fill:#e36b7b;}.cls-14{fill:#e35566;}.cls-15{fill:#e3546c;}.cls-16{fill:#7e53b3;}.cls-17{fill:#9c77cf;}.cls-18{fill:#784c9e;}.cls-19,.cls-20{fill:#3f68b4;}.cls-20{opacity:0.5;}.cls-21,.cls-22{fill:#fbf4db;}.cls-23,.cls-26{fill:#62c9ff;}.cls-24{fill:#a28a96;}.cls-25{fill:#e3c336;}.cls-26,.cls-35{opacity:0.4;}.cls-27{fill:#1a3360;}.cls-28{fill:#5f46a4;}.cls-29,.cls-31{fill:#7168dd;}.cls-30{fill:#e5fbff;}.cls-31,.cls-34,.cls-40,.cls-42,.cls-45,.cls-49,.cls-55{opacity:0.3;}.cls-32{fill:#ffad32;}.cls-33,.cls-34{fill:#ff9301;}.cls-36{fill:#f5e6e5;}.cls-37{fill:#ffffed;}.cls-38{fill:none;stroke:#f5e6e5;stroke-linecap:round;stroke-linejoin:round;}.cls-39,.cls-40{fill:#f7c858;}.cls-41,.cls-42{fill:#e773e0;}.cls-43{fill:#fff;}.cls-44,.cls-45{fill:#ffaff1;}.cls-46{fill:#a83851;}.cls-47{fill:#1b374b;}.cls-48,.cls-49{fill:#3b3e58;}.cls-50,.cls-51{fill:#ff6c59;}.cls-52{fill:#4d4c53;}.cls-53{fill:#7b96b9;}.cls-54,.cls-55{fill:#6f7782;}.cls-55{mix-blend-mode:screen;}.cls-56{fill:#c1aaaf;}.cls-57,.cls-58{fill:#fff3ff;}.cls-58{opacity:0.8;}.cls-59{fill:#2250b1;}</style><linearGradient id="linear-gradient" x1="128.77" y1="621.23" x2="884.81" y2="-134.81" gradientTransform="translate(0 0)" gradientUnits="userSpaceOnUse"><stop offset="0" stop-color="#1670ff"/><stop offset="1" stop-color="#6cdaff"/></linearGradient></defs><title>blog1_1</title><g class="cls-1"><g id="BACKGROUND"><rect class="cls-2" x="250" y="-250" width="500" height="1000" transform="translate(750 -250) rotate(90)"/><path class="cls-3" d="M822.14,0H1000V449.58S761.43,422.81,858.76,272.72C924.05,172.05,980.43,76,822.14,0Z"/><path class="cls-4" d="M1000,121.67V500H846.16s108.68-71.81,104.46-153c-2-38.4-56.64-62.52-72.35-106.7C862,194.61,907.25,150.29,1000,121.67Z"/><path class="cls-3" d="M151.65,500H0V76s163.83,27.73,121,188.75C82.72,408.75,257.82,398,151.65,500Z"/><path class="cls-5" d="M0,402V0H97S200.73,82.48,120.4,150.26C5.58,247.14,194.23,351.4,0,402Z"/><path class="cls-5" d="M918.54,348.78c1.4-4.57,5.16-16.76-18.91-15.9S861,356.52,878.14,366.41,914.21,363,918.54,348.78Z"/><path class="cls-5" d="M933.29,50.46c-10.06-4.32-36.84-15.87-57,4.7s22.91,48.45,63.35,41S964.48,63.86,933.29,50.46Z"/><path class="cls-4" d="M801.1,436.2c-5.4-1.25-19.79-4.59-23.42,6.91s21.79,21.31,37.41,14.45S817.85,440.06,801.1,436.2Z"/><path class="cls-5" d="M75.89,424.84c-7.08-1.63-25.95-6-30.7,9.06s28.57,28,49,19S97.86,429.9,75.89,424.84Z"/><path class="cls-4" d="M95.46,138.65c-2.54,4.18-9.35,15.32,24.81,15.64s57.61-20.13,34.49-30.1S103.32,125.7,95.46,138.65Z"/></g><g id="OBJECTS"><path class="cls-6" d="M688.36,331.9c0,6.85-131,48.11-173.47,41.94-38.75-5.63-211.45-27.32-211.45-34.18S341.84,330,381,330,688.36,325,688.36,331.9Z"/><path class="cls-4" d="M625.91,184.76c-11.19-11.07-22.22-11-35.33-5.14s-12.37,20.29-31,19.08c-28-1.81-24.46,49.57,7.31,42.48,59.68-13.31,48.93,26,81.1,19.84,50.12-9.65,51.63-48,33-62.36S650.61,209.15,625.91,184.76Z"/><path class="cls-7" d="M676.85,188.84c-6.24-6.63-34.79-21-36.32-2.49s-8,30.68,12.71,25.82S685.46,198,676.85,188.84Z"/><path class="cls-4" d="M688.23,293c6.62-4.93,19.94-20.44,8.92-33.19-9.9-11.44-28.75-6.86-31,12.29C663.68,293.51,679.1,299.79,688.23,293Z"/><path class="cls-4" d="M383.85,179.32c-8.25-13.61-19.22-16.09-33.5-13.4s-17,17-35,11.42c-27-8.39-35.75,42.92-2.86,43.47,61.79,1,22.53,36.71,55.51,33.69s74-45.79,59.07-64.35S403.86,212.32,383.85,179.32Z"/><path class="cls-5" d="M298.88,221.44c-5.17,5.6-16.27,34,18.87,36.8s45.18-60.33,25.69-57.75S303.53,216.4,298.88,221.44Z"/><path class="cls-8" d="M546.19,357l138.58-24.83s-17.28-12.36-2.94-38l-135.64,24.3C526,342.14,546.19,357,546.19,357Z"/><polygon class="cls-9" points="546.19 318.46 333.74 293.63 470.77 271.97 684.77 293.63 546.19 318.46"/><path class="cls-10" d="M547.15,321.66l137.62-25v-3.05L546.19,318.46,540,321.11l-5.41,15.66,4.54,18.74,4.43-.4,2.61,1.86L684.77,332.1v-3.05l-138.4,23.72A29.07,29.07,0,0,1,547.15,321.66Z"/><path class="cls-11" d="M546.19,357,333.74,332.14c-14.63-2.11-12.6-40.33,0-38.51l212.45,24.83C536.27,327.39,536,348.69,546.19,357Z"/><path class="cls-12" d="M548.33,329.58c33.69-4,111.61-20.48,111.61-20.48S581.15,322.21,548.33,329.58Z"/><path class="cls-12" d="M549.61,345.87c14.5,2.36,119.87-21.3,119.87-21.3S571.27,341.5,549.61,345.87Z"/><path class="cls-12" d="M548.25,337.34c30.52-.73,99.19-16.59,99.19-16.59S569.27,331.6,548.25,337.34Z"/><path class="cls-6" d="M324,312.49c-1.13,6,1.32,15.79,7.64,19.07C343.86,333.33,546.19,357,546.19,357l138.58-24.83-9.08-11.39L539,342.62Z"/><path class="cls-10" d="M552.77,329.75s2.19,4.72,2.19,22l4.15-7.42,4,3.67s-.32-17.65-2.86-19.68Z"/><path class="cls-8" d="M538.19,311.68l112.2-18.41s-14-17.75-2.39-36.75l-109.81,18C521.86,292.09,538.19,311.68,538.19,311.68Z"/><polygon class="cls-13" points="538.18 274.54 366.18 256.13 477.13 240.07 650.39 256.13 538.18 274.54"/><path class="cls-14" d="M539,276.91l111.43-18.52v-2.26l-112.2,18.41-5,2-4.38,11.6,3.67,22.49,3.59-.3,2.12,1.38,112.2-18.44V291L539.92,308.56C535.5,306.66,531.71,287.27,539,276.91Z"/><path class="cls-15" d="M538.19,311.68l-172-18.41c-11.85-1.56-10.2-38.49,0-37.14l172,18.41C530.16,281.16,530,305.54,538.19,311.68Z"/><path class="cls-12" d="M547.34,302.1c43.9-6.43,90.12-16.27,90.12-16.27S579.91,293.55,547.34,302.1Z"/><path class="cls-12" d="M539.69,300.38c43.9-6.44,90.13-16.28,90.13-16.28S572.27,291.82,539.69,300.38Z"/><path class="cls-12" d="M558.33,285.12c35.62-5.22,73.13-13.21,73.13-13.21S584.76,278.17,558.33,285.12Z"/><path class="cls-12" d="M545.6,283.37c43.89-6.44,90.12-16.28,90.12-16.28S578.17,274.81,545.6,283.37Z"/><path class="cls-12" d="M539.69,293.26c43.9-6.44,90.13-16.28,90.13-16.28S572.27,284.7,539.69,293.26Z"/><path class="cls-11" d="M544.72,279.68l10.61-1.43c6.49,5.3,5,27.85,4.83,32.89l-4.24-4.27-5.66,5.89S551.38,281,544.72,279.68Z"/><path class="cls-6" d="M357.92,275.78a30.63,30.63,0,0,0,3.39,14c-2.57,1.23-4.61,2.23-4.95,3.77-.27,1.24,4.41,1.24,4.41,1.24l181.55,19L652.57,295.6l-7.55-13L537.23,302.85Z"/><path class="cls-8" d="M519.39,269.57l84.52-16.77s-10.74-15.1-2.17-31.49L519,237.73C506.87,252.92,519.39,269.57,519.39,269.57Z"/><polygon class="cls-16" points="519.02 237.72 388.99 223.46 472.58 208.71 603.54 220.95 519.02 237.72"/><path class="cls-17" d="M519.63,239.75l83.93-16.86,0-1.94L519,237.73l-3.75,1.73-3.19,10,3,19.25,2.7-.29,1.61,1.16,84.52-16.8,0-1.93-83.22,16C517.32,265.29,514.26,248.7,519.63,239.75Z"/><path class="cls-18" d="M519.39,269.57l-130-14.26c-9-1.23-8.09-32.91-.37-31.85l130,14.27C513,243.48,513.12,264.38,519.39,269.57Z"/><path class="cls-12" d="M526.21,259.87c33.07-5.91,67.87-14.75,67.87-14.75S550.71,252.24,526.21,259.87Z"/><path class="cls-12" d="M521.54,251.1c26.84-4.79,55.07-12,55.07-12S541.42,244.91,521.54,251.1Z"/><path class="cls-12" d="M524.06,246.51c33.07-5.91,67.87-14.76,67.87-14.76S548.56,238.88,524.06,246.51Z"/><path class="cls-12" d="M525.66,254.83c33.08-5.91,67.88-14.76,67.88-14.76S550.17,247.2,525.66,254.83Z"/><path class="cls-17" d="M524.06,253.19s3.2,8.43,2.85,10.5l6.66-1.95s-2.22-9.7-3.41-9.93Z"/><path class="cls-6" d="M384.42,234.87c-1.31,0-2.69,8.55.78,15.25-2.46,1.23-2.65,3-3,4.56-.26,1.25,6.54,3.24,6.54,3.24l139.1,15,98.33-15.61-22.3-6.47-89.17,5.68Z"/><path class="cls-6" d="M498.71,293.67c.16-.69.32-1.35.46-2,.72,1.82,1.74,3.44,3.43,3.61,2.65.26,5.08-10.24,5.39-11.65l.48-.13s1.19-8.37.65-14c-.36-3.75-11.42-6-17.13-7.67a12.29,12.29,0,0,0,1.9-2.2c1,.23,2.6-.58,3.2-3,.53-2.2-1.3-2.3-1.3-2.3,3.24-1.27,3-12.37-.22-11.42-6.32-6.55-20.31-2.66-22.22,1.45-2.48,5.34-1.07,8.45.39,10.07-.51.18-1.25.69-.88,2.2.6,2.45,2.16,3.26,3.19,3a12.24,12.24,0,0,0,1.46,1.77c-5.66,1.74-15.34,4.94-15.69,8.62-.54,5.64,1.5,13.33,1.5,13.33a5.23,5.23,0,0,0,.54.12h-.13s2.59,12.1,5.43,11.82a3.22,3.22,0,0,0,2.21-1.37h0c-1.58,3.78-9,15.19-8,17.91.12.31.29.69.48,1.09-2.44.82-4.05,1.4-4.36,1.51-1.18-.38-4.41-1.36-5.13-.84-.9.64-8,13.3-4.82,11.54,1.74-1,8-6.5,8-6.5s3.87-.18,9.32-.49c4.95,7.86,13.38,19.29,16.57,23.1h0c2.65,5.34-1.5,10.19,1.46,10.34,1.74.09,5-7.91,5.82-9.66.62-1.44-1.91-2.54-2.69-2.87A88.56,88.56,0,0,0,483.56,321h0a.61.61,0,0,0-.05-.12c-.15-.41-.3-.81-.46-1.21-.32-.85-.67-1.81-1-2.53h0c8.44-.66,16.45-1.5,19.06-2.43,10.82-1.75,10.36-6.62-2.4-21.07Zm2-8.95c0-.07,0-.14,0-.21l.21-.95c-.05.44-.11.92-.15,1.36C500.75,284.86,500.72,284.79,500.68,284.72Z"/><path class="cls-19" d="M495.38,293.67c-1.59-2.17-8.45.4-10.71,1.34-2.9-.93-11.08-3.76-12-1.07-1.3,3.76-7.5,15.2-6.64,17.92,2,6.41,17.12,30.86,17.72,30.71.81-.21,1.67.13,2.92-1.62-.31-5.87-2.88-19.37-6.59-27.12,1.76-3.78,16.52,1.06,17.3.91C506.37,313,506,308.12,495.38,293.67Z"/><path class="cls-20" d="M482.79,321c-.33-1-.81-2.71-1.26-3.86-1.76-4.59,11.35-11.53,10.06-12.05-.66-.26-5.72.43-6.68-2.91-3.31,8.83-13.47,10.35-16.33,11.53.13.93,1.93,2.93,2.48,4.28C473.86,318,477.72,318.79,482.79,321Z"/><rect class="cls-21" x="478.67" y="260.6" width="10.64" height="11.16"/><rect class="cls-22" x="478.67" y="260.6" width="10.64" height="11.16"/><path class="cls-23" d="M504,269.53c-.31-3.92-10.34-6.24-14.85-7.89-1.32,8.78-9.25,8.26-10.57-.52-4.5,1.65-13.59,5-13.9,8.93-.45,5.64,1.24,13.33,1.24,13.33a5.86,5.86,0,0,0,4.67-.47l2.22,12s2.53,1.41,11.14,1.41,11.14-1.41,11.14-1.41l2.23-12s3.74,1.53,6.14.62A89.45,89.45,0,0,0,504,269.53Z"/><path class="cls-21" d="M493,254.33c1.4-11.42-9-11.42-9-11.42s-10.4,0-9,11.42c0,0-1.52.1-1.08,2.3.5,2.45,1.8,3.26,2.66,3,0,0,2.75,5.22,7.42,5.22s7.41-5.22,7.41-5.22c.86.23,2.16-.58,2.66-3C494.48,254.43,493,254.33,493,254.33Z"/><path class="cls-24" d="M478.6,253.06a8,8,0,0,0-2.43,2.82s-5.22-2.82-1.87-11.52c1.59-4.11,13.22-8,18.48-1.45,2.69-.95,2.88,10.15.18,11.42-1.21.17-1.31-2.61-2.29-4.64C487.22,252.36,482.82,249.91,478.6,253.06Z"/><path class="cls-8" d="M484.47,276.23c-2.87-2.82-6.5-3.36-11.94-2.49L476,289.57s5.55-2.29,8.47.21c3.25-2.85,6.12-1.81,8.43-.58l3.5-15.29S487.65,272.15,484.47,276.23Z"/><path class="cls-25" d="M484.47,277.23c-2.87-2.82-6.5-3.36-11.94-2.49L476,290.57s5.55-2.29,8.47.21c3.25-2.85,6.12-1.81,8.43-.58l3.5-15.29S487.65,273.15,484.47,277.23Z"/><path class="cls-26" d="M495.13,294.94c1.85-9.19,2.25-12.62,2.25-12.62s-2.83,3.2-3.38,3.59-4.46-2.13-5.33-1.08c-1.07,1.28,1.52,3.81,3.58,3.81C494.05,288.64,493.82,294.15,495.13,294.94Z"/><path class="cls-26" d="M472.06,282.32s1.7.89,1.86,1.79,1.74.47,4,.47,3-.24,3.58.19-1.42,4.47-5.08,3.87c-2.07-.34-3.11,6.82-3.57,6.3a38.7,38.7,0,0,1-.8-5.27A68.76,68.76,0,0,1,472.06,282.32Z"/><path class="cls-21" d="M466.31,283.49s2.15,12.1,4.51,11.82c2.8-.34,3.4-6.48,4.17-8.4a4.34,4.34,0,0,0,4.77-.65c1.67-1.52,1.13-3.12-.61-2.69-2.21.54-4.44.54-5-2.13-.18-.85-.81-.36-.87,1.33a22.94,22.94,0,0,1-.92,2.15c-.08-1.14-.27-2.6-.27-2.6S468.79,283.82,466.31,283.49Z"/><path class="cls-22" d="M469.34,290.11a9.62,9.62,0,0,1,3-5.19c-.09-1-.27-2.6-.27-2.6s-3,6.17-2.73,7.88A.28.28,0,0,0,469.34,290.11Z"/><path class="cls-21" d="M503.13,283.49s-2.15,12.1-4.51,11.82c-2.8-.34-3.4-6.48-4.17-8.4a4.34,4.34,0,0,1-4.77-.65c-1.67-1.52-1.13-3.12.61-2.69,2.21.54,4.44.54,5-2.13.18-.85.81-.36.87,1.33a22.94,22.94,0,0,0,.92,2.15c.08-1.14.27-2.6.27-2.6S500.65,283.82,503.13,283.49Z"/><path class="cls-22" d="M500.1,290.11a9.62,9.62,0,0,0-3-5.19c.09-1,.27-2.6.27-2.6s3,6.17,2.73,7.88A.28.28,0,0,1,500.1,290.11Z"/><path class="cls-27" d="M482.7,341.27c1.08-.15,3.07-.87,3.81-2.19.65.33,2.76,1.43,2.24,2.87-.63,1.75-3.39,9.75-4.83,9.66C481.45,351.46,484.9,346.61,482.7,341.27Z"/><path class="cls-27" d="M463.16,314.61l-2,4.05s-5.19,5.54-6.64,6.5c-2.65,1.76,3.26-10.9,4-11.54S463.16,314.61,463.16,314.61Z"/><path class="cls-19" d="M462.75,314.49s23.07-10,31.25-9.44c10.07.82,8,7.69,3.38,9.69-5.19,2.24-36.21,3.92-36.21,3.92Z"/><ellipse class="cls-6" cx="345.22" cy="360.09" rx="37.01" ry="5.81"/><path class="cls-28" d="M329.18,225.93h7.56a2.4,2.4,0,0,1,2.4,2.4v73.95a0,0,0,0,1,0,0H326.79a0,0,0,0,1,0,0V228.33a2.4,2.4,0,0,1,2.4-2.4Z" transform="translate(-68.64 125.07) rotate(-19.33)"/><path class="cls-29" d="M336.48,234.28h11a3.49,3.49,0,0,1,3.49,3.49V345.32a0,0,0,0,1,0,0H333a0,0,0,0,1,0,0V237.76A3.49,3.49,0,0,1,336.48,234.28Z" transform="translate(-76.63 129.5) rotate(-19.33)"/><polygon class="cls-28" points="367.16 361.62 351.87 345.17 368.82 339.22 367.16 361.62"/><polygon class="cls-30" points="360.77 354.74 367.16 361.62 367.86 352.26 360.77 354.74"/><path class="cls-31" d="M337.36,249.5a1.2,1.2,0,0,0-.56.05l-2.42.84,0-.06a2.41,2.41,0,0,0-3.06-1.48l-1.68.59a2.4,2.4,0,0,0-1.47,3.06l0,.07-7.81,2.74,1.8,5.12,7.81-2.74,15.27,43.55a2.4,2.4,0,0,0,3.06,1.47l1.68-.58a2.41,2.41,0,0,0,1.47-3.07l-15.27-43.54,2.42-.85a1.23,1.23,0,0,0,.46-.32Z"/><rect class="cls-32" x="318.34" y="249.03" width="20.59" height="5.43" rx="1.2" ry="1.2" transform="translate(-64.79 122.94) rotate(-19.33)"/><rect class="cls-32" x="336.02" y="244.19" width="6.58" height="56.45" rx="2.4" ry="2.4" transform="translate(-71.03 127.63) rotate(-19.32)"/><path class="cls-6" d="M467.4,213.94s17-.29,27.49-.38,57.27,2.51,50.71,7.39-35.93,14.33-47.75,12.27-27.2-12.05-39.34-7.39-50,6.52-43.66-2.61S467.4,213.94,467.4,213.94Z"/><path class="cls-33" d="M525.93,144.72c-1.64-9.32-11.49-8-16-5.72s-23.48,30.71-17.54,58.55c4.78,22.35,19.07,23.84,24.23,17.51s1.95-14.24,1.95-14.24-13.52,6.25-16.67-5.9c-4.6-17.8,8.57-48.72,14.42-43.64S526.62,148.67,525.93,144.72Z"/><path class="cls-34" d="M525.93,144.72c-1.64-9.32-11.49-8-16-5.72s-23.48,30.71-17.54,58.55c4.78,22.35,19.07,23.84,24.23,17.51s1.95-14.24,1.95-14.24-13.52,6.25-16.67-5.9c-4.6-17.8,8.57-48.72,14.42-43.64S526.62,148.67,525.93,144.72Z"/><path class="cls-33" d="M505.75,145.8c-1.78-9.32-12.54-8-17.51-5.72s-25.62,30.71-19.14,58.55c5.21,22.35,20.81,23.84,26.44,17.51s2.13-14.24,2.13-14.24-14.75,6.25-18.19-5.9c-5-17.79,9.35-48.72,15.73-43.64S506.51,149.75,505.75,145.8Z"/><path class="cls-34" d="M479.48,196c-5-17.79,9.35-48.72,15.73-43.64l.09.07-.08-.26c-.05-.16-.12-.36-.22-.63-.37-1-.73-1.92-1.14-2.85-.13-.29-1.43-2.82-1.2-2.52a23.11,23.11,0,0,0-1.73-2.36c.46.58-1-.89-1.11-1l-.58-.39a11,11,0,0,0-1.09-.4c-1-.26-1.06-.28-.26-.05a11.5,11.5,0,0,0-1.76.05h-.32c-7.15,7.22-22.41,32.15-16.71,56.62,5.21,22.35,20.81,23.84,26.44,17.51s2.13-14.24,2.13-14.24S482.92,208.15,479.48,196Z"/><path class="cls-11" d="M491.51,145.12s-8.32,10.06-8.83,22.35-3.54,46.52,3.05,54,55.79,6.4,57.58-.43.77-54.7-2.27-60.28-4.87-13.63-8.78-15.64S493.93,140.16,491.51,145.12Z"/><path class="cls-35" d="M494.89,213.56c-.07-3.66,1.42-7.26,1.64-10.46.57-8.19-.28-16.43.33-24.63.51-6.91,2.2-14.65.5-21.26-1.05-4.09-4-7.21-6.51-11.23-2,2.66-7.74,11.3-8.17,21.49-.5,12.3-3.54,46.51,3.05,54,1.87,2.12,7.14,3.55,13.78,4.36A19,19,0,0,1,494.89,213.56Z"/><path class="cls-35" d="M538.13,206c-7.28,11.52-19.66,19.41-33.58,17.41-8.72-1.25-17.12-6.75-22.43-14.16.58,5.54,1.68,10,3.61,12.21,6.6,7.49,55.79,6.4,57.58-.43.88-3.37,1.08-16.72.69-30.06A45.9,45.9,0,0,1,538.13,206Z"/><path class="cls-9" d="M496.57,141.81a264.39,264.39,0,0,1,31.28.59c2.43.23,14.52,14.1,12.78,33.26-.75,8.21-36.8,6.84-36.69,0C504.39,146,487.17,142.43,496.57,141.81Z"/><path class="cls-9" d="M480.79,195.9s15.27,3.53,16.9,2.17c0,0-1.9,21.54,0,23.14s-14.35.11-16.15-3.77S480,198.33,480.79,195.9Z"/><path class="cls-9" d="M538.69,191.07s-31.45-.72-34.47,2.85S501,217.78,502.32,221s3.51.87,3.51.87-1.94-24,2.63-25.95,32-3.3,33.55-2.72S538.69,191.07,538.69,191.07Z"/><path class="cls-33" d="M518.57,173.34a52.74,52.74,0,0,1,.33,10.47c-.07,1.38,6.2,4.25,6.2,4.25s5.68-2.57,5.74-3.87c.23-4.85-.12-6.05-.51-10.59C530.25,172.64,521.39,173.05,518.57,173.34Z"/><path class="cls-34" d="M524.2,179.94c0-.09,2.09-.55,2.16.13s.42,8.84-.36,10.2c0,0-1.87.74-1.8,0S524.6,180.89,524.2,179.94Z"/><path class="cls-36" d="M382.22,150.13s-8.64,7.35,1.19,13c9.58-13.91,28.92-18.51,37.12-22.66s.83-6.87.83-6.87Z"/><path class="cls-37" d="M382.22,150.13c6.82-1.59,19.47.48,22.48,20.12,3.22,21,15,60.83,32.89,56.76l47.79-31.69s-24.26-11.06-27.61-42.09c-2.59-24-14-33.49-21.27-30.87C431.52,124.15,389.63,144.36,382.22,150.13Z"/><path class="cls-36" d="M437.34,211.44c2.64,0,10,10.24.25,15.57,18.3-6,42.57-25.24,49.4-31.31s-.22-9.74-1.81-8.33C474.12,197.13,446,206.74,437.34,211.44Z"/><path class="cls-38" d="M400.46,148.55S425.07,135,437.78,129"/><path class="cls-38" d="M404.5,153.24s24.6-13.56,37.32-19.52"/><path class="cls-38" d="M411.79,168.61s24.61-13.56,37.32-19.52"/><path class="cls-38" d="M413.5,177.36s24.61-13.56,37.33-19.52"/><path class="cls-38" d="M416.16,183.4s24.6-13.56,37.32-19.52"/><path class="cls-38" d="M424.26,206.28s25.54-15.3,38.75-22"/><path class="cls-38" d="M428.82,213.28s25.43-15.5,38.58-22.31"/><path class="cls-38" d="M418.18,192.24s16.67-9.4,25.29-13.52"/><path class="cls-38" d="M407.6,160.31s21.5-12,32.62-17.24"/><path class="cls-38" d="M420.06,199.2s21.5-12,32.61-17.24"/><path class="cls-6" d="M445,224.9a19.85,19.85,0,0,1,8.82,12.57c1.84,8.69-12.29,23.57-20.05,22.72s-10.06,7.16-10.41,11.56,2,15.12-3.33,24.6-6.51,18-3.61,24.4,5.18,21.66,5.18,21.66l-6.78-1.36-9.72-24.56s5,19.3,0,24l-6.46-.75-1.19-38.65,2.81-43.77,7-36.95Z"/><path class="cls-39" d="M391.51,205.57c-.87.68-8.6,16.48,2.28,25.85,5.93,5.11,4.65,8.56,10,7.19s11.1-17.25,11.1-17.25S396.45,201.65,391.51,205.57Z"/><path class="cls-40" d="M395.72,206.61c-4.82,6-4.81,10.25-3.58,17.58,1.3,7.72,7.68,11,13,9.62s9.72-12.45,9.72-12.45S399.67,201.69,395.72,206.61Z"/><path class="cls-41" d="M392.63,267.88l3.87,79.65s2.41.14,3.17-.48,3.31-25.86,1.84-39.69c0,0,10.29-37.45,10.08-39.41S392.63,267.88,392.63,267.88Z"/><path class="cls-42" d="M396.94,267.73c.13,10,2.29,24,4,33.88.8,4.51,10.84-31.7,10.63-33.66C411.43,266.42,396.93,267.51,396.94,267.73Z"/><path class="cls-41" d="M415.51,267.8s1.44,3.2.76,12.81c-.28,3.91-4.49,15-7.5,29,2.82,5.67,6.08,12.83,7.68,31.44L414,342.62s-11.7-30.95-12.31-33.73-3-36.52-3.05-39.88C398.64,265.83,415.51,267.8,415.51,267.8Z"/><path class="cls-21" d="M393.78,209.61c-2,5.93,1.34,15.94,3.08,16.69s4.1-1,4.77-.62c.26.13.22,1.14-.12,2.73-.51,2.31-.81,5.4-.81,5.4s9-2.94,9.3-4.78,0-11.38,0-11.38,2.35-5.36,1.34-7.53-6.53-6.7-6.53-6.7S396.43,201.61,393.78,209.61Z"/><path class="cls-22" d="M401.63,225.68c1.24-.78,4.37-1.38,5.62-5.32,0,4.82-3.55,7.88-5.74,9.07A9.9,9.9,0,0,0,401.63,225.68Z"/><path class="cls-39" d="M388,206.36c-1.81,4.14,4.57,9.12,14.34,8,3.94,5.25,4.87,9.17,7.77,11,8.87,53.42,59.45,16.93,33-4.29-10.81-8.68-19.61.83-28.34-14.09C408.42,196,392.06,197.11,388,206.36Z"/><path class="cls-40" d="M420.94,228.86c-3.08-.49-6.59-.25-10.62-2.53,3.23,18,11.31,25.43,19.41,26.58,7.37.17,8.21-10.78,4.79-15.44A20.72,20.72,0,0,0,420.94,228.86Z"/><path class="cls-43" d="M410.15,225.36l.54,2s-.86,10.27-7.17,13.33-3.16-13.1-3.16-13.1L401.7,226l1.44,7Z"/><path class="cls-44" d="M396.5,347.53s-8.61,1.92-8.58,3c0,.83,9.33.83,12,.83.95,0-.25-4.32-.25-4.32Z"/><path class="cls-44" d="M414,342.62a65.25,65.25,0,0,1,.08,7.06c-.24,1-3.41,2.1-2.79,2.66s5.33-.25,5.53-.94,1.76-7.75,1.59-9c-.07-.44-2-1.37-2-1.37Z"/><path class="cls-44" d="M421.14,233.22c-4.15-3.48-10.63-5.86-10.63-5.86-3.95,8.26-6,10.19-8.83,11.34-1.87.42-1.49-11.11-1.49-11.11s-6.54,2.8-7.59,3.85c-.56.56-4.62,17-4.82,17.41a56.8,56.8,0,0,1-4.53-4.89l-3.57.83s7,13,9.08,13.13c1.14,0,4.24-5.36,5.37-8.29.7,1.18,2.1,1.65,1.91,2.9-1.11,7.31-3.93,16.52-3.81,16.48.29-.1,23.66.41,23.28-1.21a53.57,53.57,0,0,1,.25-23.05l3.38,8.45c3.34,0,5.94.15,5.94.15C424.6,248.76,423,234.76,421.14,233.22Z"/><path class="cls-45" d="M384.3,245.27c-.35-.42-.71-.85-1.05-1.31l-1,.4s4.41,13.47,6.53,13.56c.66,0,2-1.77,3.18-3.85C391.39,254.16,384.22,248,384.3,245.27Z"/><path class="cls-45" d="M396,252.53c-.46,3-1.22,6.41-1.94,9.3.73-.43,1.48-.83,2.26-1.2a73.27,73.27,0,0,0,7.39-8c-2.23-.26-6.27-.76-8.68-1.9C395.64,251.25,396.16,251.73,396,252.53Z"/><path class="cls-45" d="M418.67,231.42c-.64.6-3.16,7.54-3.15,9.66,0,1.38-3.41-.59-4.83-1.13-.68-.25-4-.42-5-1.11l-.09,0c0,.14-1.19,2.14-1.18,2.28.71,5.78,7.2,10.73,7.2,16.44,0,7.76-10.08,10.28-16.57,11.48,6.24,0,20.79.08,20.49-1.2a53.57,53.57,0,0,1,.25-23.05l3.38,8.45c1.68,0,3.18,0,4.25.08C415.54,245.71,418.92,231.58,418.67,231.42Z"/><path class="cls-37" d="M373.21,229.43s10.39,8.39,11.73,20.73l7.25,5s2.41-16.79-4.34-21.25C384.27,232.16,373.21,229.43,373.21,229.43Z"/><path class="cls-21" d="M383.7,243.88a3,3,0,0,1-.41-1.6c.68-2,1.63-3.66,1.27-3.5a10.8,10.8,0,0,1-3.63-.12,12.53,12.53,0,0,1-1.08-1.88c-.34.73-1.33,3.76.65,7.84A11,11,0,0,0,383.7,243.88Z"/><polygon class="cls-46" points="404.85 230.71 394.46 239.13 393.79 240.58 395.04 240.23 405.1 231.69 404.85 230.71"/><path class="cls-21" d="M408.11,238c-1.4-1.19-2.52-2.1-3-2.44-1.7-1.13-2.33-2.29-4.9-2.35-.16,0-.39.79-.71.83-1.06.15-1.82,2.29-2,2.73s1.5,2.66,1.75,2.95c.6.7,1.66-2.26,3.42-1.34a15.64,15.64,0,0,1,2.79,2.83A34.91,34.91,0,0,1,408.11,238Z"/><path class="cls-44" d="M407.82,237.47l-3.43,3.61s13.28,16.44,15.63,16.86c4.78.87,6.58-4.08,4.33-6.08S407.82,237.47,407.82,237.47Z"/><path class="cls-6" d="M558.63,216.75l42,3.93s-7.75,15-5.78,22.23,1.91,10.73,7.06,11,12.69.94,11,2-17.25,9.33-23,7.81-17.34-4.51-17.5-5.65,4.05-32,4.05-32S553.4,230.1,558.63,216.75Z"/><path class="cls-47" d="M611.59,248s9-3.34,9.41-2.27-10,6.87-10,6.87l-2.54-2.73Z"/><path class="cls-48" d="M581.91,203.54s21.12,8.65,25,12,4.36,32.67,4.36,32.67l-2.8,1.68s-8-21.94-8-24.85c-3.47,3-20.94-8.33-23.85-8.61S581.91,203.54,581.91,203.54Z"/><path class="cls-49" d="M607.25,240.33a55,55,0,0,1-3.39-11.89c-.58-4.28-1.24-10.38,3-12.95-4-3.35-25-12-25-12s-8.21,12.59-5.3,12.87S597,228.07,600.46,225c0,2.91,8,24.85,8,24.85l2.8-1.68s0-.32,0-.88C610.06,245,608.19,242.8,607.25,240.33Z"/><path class="cls-48" d="M577.76,206.39s24,8.73,24.2,12-14,33.73-14,33.73-2.84,1.11-4.05-.73l5.12-26s-22.45,1.5-24.52-9.67S577.76,206.39,577.76,206.39Z"/><path class="cls-49" d="M577.76,206.39s-15.33-1.85-13.25,9.33S589,225.39,589,225.39l-5.12,26a2.65,2.65,0,0,0,2.49,1.06c.21-4.85,1.7-9.36,3.48-13.88,1.88-4.76,10-18.09-7.09-16.34-2.93.3-4-7.52-1.1-6.86,11.22,2.53,17.4,3.77,19.34,2.11a1.77,1.77,0,0,1,.24-.17C597.33,213.51,577.76,206.39,577.76,206.39Z"/><path class="cls-50" d="M580.45,177.29c4.5,1.62,9.56,20.47,11.5,22.13s14.42,7.17,14.42,7.17l-2,2.41s-13.77-3.45-16.63-5.68c-3.41-2.67-7-10.16-7.53-10S578.67,176.66,580.45,177.29Z"/><path class="cls-51" d="M591.65,203.06c-4.11-3.61-4.39-9.41-4.42-14.53-2.08-5.19-4.5-10.42-6.78-11.24-1.78-.63-.77,16.14-.21,16s4.12,7.36,7.53,10c1.9,1.48,8.61,3.5,12.91,4.69C597.72,206.58,594.11,205.22,591.65,203.06Z"/><path class="cls-21" d="M592.43,161.12c.73,2.5-.09,11.08-.61,11.26s-1.43-.34-1.92.26-2.64,4.44-4.83,3.51a18.68,18.68,0,0,1-3.42-1.84l.19,7.69-7.64-3.81s1.31-8.29,1.28-10.21c-.06-3.89,1.83-9.81,5.8-11.71A7.86,7.86,0,0,1,592.43,161.12Z"/><path class="cls-52" d="M597.81,160.16c-.21,2.39-2.92,7.42-7,3.88-1.69-1.47-4.08-4.66-5.74-4-1,.38-.48,3.13-3.74,4.63-1.34.62-.79,1.69-.7,2.3s-1,0-1.11-1-1.22-3.45-2.57-1.15c-.93,1.59.25,2.75-.41,5.19-.34,1.25-1.43,2.17-1.41,1.82.29-4.24-1.56-4.36-2-8.22-.49-4.66,1.69-9.06,5.55-10.38,0,0,7.16-3.38,10.68,0S598.15,156.2,597.81,160.16Z"/><path class="cls-50" d="M581,179.23c.63,0,.84-.54.75-1.08,5.37,4.54,2.37,26.69,1.44,26.69a36.31,36.31,0,0,0-12.41,4.58c-4.86,3-4.2,5.13-6.42,4.36-1.63-.57-6.78-1,1.85-28.29,2-6.36,5.14-9.43,8.86-12.9C574.42,176.62,579,179.35,581,179.23Z"/><polygon class="cls-53" points="601.57 214.96 613 213.01 601.34 212.48 582.62 211.65 601.57 214.96"/><polygon class="cls-54" points="607.51 196.72 623.04 196.44 617.15 212.82 602.13 216.75 582.35 213.32 582.62 211.65 601.57 214.96 607.51 196.72"/><polygon class="cls-55" points="615.41 197.52 602.73 215.25 613.28 212.56 622.09 197.12 615.41 197.52"/><path class="cls-47" d="M588,252.08l-4.05-.73a6.38,6.38,0,0,0-.85,2.38c-.28,1.57,7.21,7.34,9.34,8S590.06,257.31,588,252.08Z"/><path class="cls-51" d="M577.29,206.36s-8.23-13.43-7-18.21c0,0-6.73,14.29,1.95,20.38C574.78,207.31,577.29,206.36,577.29,206.36Z"/><path class="cls-51" d="M582,202.69c-2.52-5.72-2.5-11.88-.36-15.32,0,0,.36,7.63,1.55,16.68A6.65,6.65,0,0,1,582,202.69Z"/><path class="cls-22" d="M581.65,174.31s-2.59-1.75-2.8-3.71a7.14,7.14,0,0,1-.09-2.16,9.94,9.94,0,0,0-.3,3.84c.1.83,3.24,4.19,3.24,4.19Z"/><path class="cls-21" d="M593.16,207.93l2.19-.49c.39-.07,1.34.61,1.34.61a3.6,3.6,0,0,1,2.09,1,8.43,8.43,0,0,1,2,3.62c.09.55-1,1-1.3.73-.82-.55-2.13-2.14-3.27-2.17-.37,0-3.28-1-3.28-1Z"/><path class="cls-50" d="M570.32,188.15c-.5,7.27,3.39,19.81,9.34,21.37,3.12.82,13.25.69,13.25.69l.72-2.19s-8-1.41-10.49-4.48-1.71-15.86-1.71-15.86S570.71,182.45,570.32,188.15Z"/><ellipse class="cls-6" cx="581.58" cy="377.33" rx="37.01" ry="5.81"/><ellipse class="cls-6" cx="658.31" cy="358.39" rx="47.88" ry="7.52"/><rect class="cls-56" x="612.02" y="338.6" width="10.87" height="18.51" transform="translate(437.65 -337.65) rotate(45.91)"/><circle class="cls-57" cx="652.57" cy="313.84" r="40.55" transform="translate(-71.45 325.79) rotate(-26.63)"/><path class="cls-58" d="M661.33,288.1a39.47,39.47,0,0,1-.49,55.43,30.82,30.82,0,0,0-5.31-60.36A39.54,39.54,0,0,1,661.33,288.1Z"/><path class="cls-16" d="M685.71,281.73a46.14,46.14,0,1,0-1,65.25A46.14,46.14,0,0,0,685.71,281.73Zm-58.5,56.68a35.31,35.31,0,1,1,49.93.79A35.31,35.31,0,0,1,627.21,338.41Z"/><path class="cls-17" d="M682.36,285a41.48,41.48,0,1,0-.93,58.65A41.48,41.48,0,0,0,682.36,285ZM625.2,340.36a38.11,38.11,0,1,1,53.89.85A38.1,38.1,0,0,1,625.2,340.36Z"/><rect class="cls-18" x="592.54" y="344.43" width="17.58" height="38.1" rx="3.87" ry="3.87" transform="translate(443.96 -321.32) rotate(45.91)"/><path class="cls-6" d="M554.86,375.8a2.34,2.34,0,0,0-2.41-2.24l-10.7.41a3.38,3.38,0,0,0-3.18-1.91l-15.66.6-.07-1.72,10.28-.41a1.56,1.56,0,0,0,1.51-1.63l-.06-1.72a1.57,1.57,0,0,0-1.63-1.51l-12.91.52-2.45.09h0l-34.89,1.39a2.43,2.43,0,0,0,.19,4.86l34.89-1.39.06,1.7L398.78,377.4l-15.31,4.38h0l-11,3.14,11.2,2.3h0l15.6,3.2,119.05-4.55h0l5.08-.19h0l15.66-.6a3.38,3.38,0,0,0,3-2.16l10.7-.4A2.33,2.33,0,0,0,555,380.1Z"/><path class="cls-11" d="M508.93,323.42h4.31a2.32,2.32,0,0,1,2.32,2.32v96.18a0,0,0,0,1,0,0h-9a0,0,0,0,1,0,0V325.74a2.32,2.32,0,0,1,2.32-2.32Z" transform="translate(863.98 -152.27) rotate(87.81)"/><path class="cls-59" d="M472.84,302.37h6.27a3.38,3.38,0,0,1,3.38,3.38v139.9a0,0,0,0,1,0,0h-13a0,0,0,0,1,0,0V305.76A3.38,3.38,0,0,1,472.84,302.37Z" transform="translate(831.54 -115.89) rotate(87.81)"/><polygon class="cls-11" points="377.85 377.76 404.14 370.24 404.64 383.26 377.85 377.76"/><polygon class="cls-9" points="388.83 374.62 377.85 377.76 389.04 380.06 388.83 374.62"/><path class="cls-11" d="M485.72,363h0a2.43,2.43,0,0,1,2.34-2.52l50.24-2a1.57,1.57,0,0,1,1.63,1.51l.07,1.72a1.57,1.57,0,0,1-1.51,1.63l-50.25,2A2.43,2.43,0,0,1,485.72,363Z"/><rect class="cls-11" x="523.31" y="359.02" width="5.08" height="19.6" transform="translate(-13.7 20.35) rotate(-2.19)"/></g></g></svg>