<svg xmlns="http://www.w3.org/2000/svg" viewBox="0 0 248.2 151.5"><defs><style>.cls-1{fill:#f8cc46;}.cls-2{fill:#2980ba;}</style></defs><title>blue-logo</title><g id="Layer_2" data-name="Layer 2"><g id="Layer_1-2" data-name="Layer 1"><g id="Layer_2-2" data-name="Layer 2"><g id="Layer_1-2-2" data-name="Layer 1-2"><ellipse class="cls-1" cx="44" cy="62.7" rx="17.2" ry="15.8"/><ellipse class="cls-1" cx="160" cy="55.7" rx="17.2" ry="15.8"/><circle class="cls-1" cx="217" cy="21.2" r="17.2"/><circle class="cls-1" cx="98" cy="36.2" r="17.2"/><path class="cls-2" d="M30,49.5c3.5,3.3,10.9,10.4,17,10.4H66.9c16,0,28.1,3.7,36.4,11.2s12.4,18.9,12.4,34.1a52.61,52.61,0,0,1-3,18.4,39.1,39.1,0,0,1-9.1,14.6,40.52,40.52,0,0,1-15.2,9.6,63,63,0,0,1-21.5,3.5H3.3V123.9H66.9c7.3,0,13-1.9,17-5.6s6-8.7,5.9-14.9c0-6.8-2-11.8-5.9-15.2s-9.6-5.1-17-5.1H46.8a56.75,56.75,0,0,1-20-3.3,42.91,42.91,0,0,1-15.1-9.3C7.6,66.5,0,55.4,0,49.5Z"/><path class="cls-2" d="M156.1,95.7h38.5c9.1,0,19-.9,26.2-3.7s12.9-6.1,18-11c4.8-4.7,9-15.7,9.4-22.5h-31c-3.2,6.3-12.9,10.6-22.6,10.6L157.8,69l-.2-8.9V49.5c-9,0-18.4-.3-27.3-.3V151.3l27.6.2-.2-64.8"/><path class="cls-2" d="M.1,30C0,8.5,17.5,0,39,0H209c21.5,0,39,8.5,39,30H217.2c-2.4-8-14.4-6-22.6-6H157.5v6H130.2V24h-69c-2.4-.1-10.4-.1-14.2,0s-13.2,1-17,6Z"/></g></g></g></g></svg>