<svg xmlns="http://www.w3.org/2000/svg" xmlns:xlink="http://www.w3.org/1999/xlink" viewBox="0 0 377.13 245.01"><defs><style>.cls-1{isolation:isolate;}.cls-2{fill:#828282;}.cls-3{fill:url(#radial-gradient);}.cls-4{fill:url(#radial-gradient-2);}.cls-5{fill:#b2b2b2;}.cls-6{fill:url(#radial-gradient-3);}.cls-24,.cls-25,.cls-7{fill:#fff;}.cls-8{fill:#c6c2a6;}.cls-9{fill:url(#New_Gradient_Swatch_1);}.cls-10{fill:url(#radial-gradient-4);}.cls-11{fill:url(#New_Gradient_Swatch_1-2);}.cls-12,.cls-13,.cls-17,.cls-27,.cls-28,.cls-32,.cls-41,.cls-52{fill:none;}.cls-12,.cls-13,.cls-17,.cls-27,.cls-32{stroke-miterlimit:10;}.cls-12{stroke-width:1.89px;stroke:url(#linear-gradient);}.cls-13{stroke-width:1.28px;stroke:url(#linear-gradient-2);}.cls-14{fill:url(#radial-gradient-5);}.cls-15{fill:url(#radial-gradient-6);}.cls-16{fill:url(#New_Gradient_Swatch_1-3);}.cls-17{stroke:#b2b2b2;}.cls-18{fill:#f28c00;}.cls-19{opacity:0.38;fill:url(#linear-gradient-3);}.cls-20,.cls-23{fill:#1d1d1b;}.cls-20{opacity:0.44;}.cls-21{fill:#de680e;}.cls-22{fill:#521c00;}.cls-23{opacity:0.27;}.cls-24{opacity:0.18;}.cls-25{opacity:0.48;}.cls-26{fill:url(#New_Gradient_Swatch_1-4);}.cls-27{stroke:#00bf6f;stroke-width:2.08px;}.cls-28,.cls-52{stroke:#eee300;}.cls-28,.cls-32,.cls-41,.cls-52{stroke-linecap:round;}.cls-28,.cls-41,.cls-52{stroke-linejoin:round;}.cls-28{stroke-width:2.05px;}.cls-29{fill:url(#New_Gradient_Swatch_1-5);}.cls-30{fill:#c88300;}.cls-31{fill:#9e5e0d;}.cls-32{stroke:#c88300;stroke-width:2.08px;}.cls-33{fill:#75ccf4;}.cls-34{fill:#006f9e;opacity:0.63;}.cls-35{fill:url(#New_Gradient_Swatch_1-6);}.cls-36{fill:#006da1;}.cls-37{fill:#c79f6e;}.cls-38{fill:#ecd6a7;}.cls-39{fill:#fffde8;}.cls-40{fill:#ede7bf;}.cls-41{stroke:#a45e00;stroke-width:1.16px;}.cls-42{fill:#e30613;}.cls-43{fill:url(#New_Gradient_Swatch_1-7);}.cls-44{fill:#ffd600;}.cls-45{fill:#f7ab19;}.cls-46{fill:#c67f16;}.cls-47{fill:#ffebc5;}.cls-48{fill:#e4c399;}.cls-49{fill:#36311c;}.cls-50{fill:url(#New_Gradient_Swatch_1-8);}.cls-51{fill:#00bf6f;}.cls-52{stroke-width:1.03px;}.cls-53{fill:#40bbcf;opacity:0.45;mix-blend-mode:multiply;}</style><radialGradient id="radial-gradient" cx="112.55" cy="207.95" r="56.53" gradientUnits="userSpaceOnUse"><stop offset="0" stop-color="#fffdf0"/><stop offset="1" stop-color="#f3edc9"/></radialGradient><radialGradient id="radial-gradient-2" cx="261.31" cy="211.05" r="54.3" xlink:href="#radial-gradient"/><radialGradient id="radial-gradient-3" cx="100.15" cy="219.95" r="104.63" xlink:href="#radial-gradient"/><linearGradient id="New_Gradient_Swatch_1" x1="0.7" y1="241.1" x2="173.13" y2="241.1" gradientUnits="userSpaceOnUse"><stop offset="0" stop-color="#b465da"/><stop offset="0.36" stop-color="#cf6cc9"/><stop offset="0.78" stop-color="#ee609c"/></linearGradient><radialGradient id="radial-gradient-4" cx="381.04" cy="219.95" r="104.63" gradientTransform="matrix(-1, 0, 0, 1, 657.08, 0)" xlink:href="#radial-gradient"/><linearGradient id="New_Gradient_Swatch_1-2" x1="203.05" y1="241.1" x2="375.48" y2="241.1" gradientTransform="translate(578.54 482.2) rotate(-180)" xlink:href="#New_Gradient_Swatch_1"/><linearGradient id="linear-gradient" x1="170.4" y1="237.51" x2="206.39" y2="237.51" gradientUnits="userSpaceOnUse"><stop offset="0" stop-color="#ee609c"/><stop offset="1" stop-color="#b465da"/></linearGradient><linearGradient id="linear-gradient-2" x1="170.82" y1="243.04" x2="206.01" y2="243.04" xlink:href="#linear-gradient"/><radialGradient id="radial-gradient-5" cx="159.41" cy="175.44" r="43.68" xlink:href="#radial-gradient"/><radialGradient id="radial-gradient-6" cx="222.27" cy="182.3" r="41.48" xlink:href="#radial-gradient"/><linearGradient id="New_Gradient_Swatch_1-3" x1="198.46" y1="38.17" x2="267.39" y2="38.17" xlink:href="#New_Gradient_Swatch_1"/><linearGradient id="linear-gradient-3" x1="82.85" y1="95.56" x2="89.36" y2="86.69" gradientTransform="matrix(-0.71, -0.7, 0.7, -0.71, 207.88, 184.05)" gradientUnits="userSpaceOnUse"><stop offset="0" stop-color="#1d1d1b"/><stop offset="1" stop-color="#1d1d1b" stop-opacity="0"/></linearGradient><linearGradient id="New_Gradient_Swatch_1-4" x1="110.81" y1="38.17" x2="179.74" y2="38.17" xlink:href="#New_Gradient_Swatch_1"/><linearGradient id="New_Gradient_Swatch_1-5" x1="266.82" y1="82" x2="335.76" y2="82" gradientTransform="translate(57.59 -113.22) rotate(23.47)" xlink:href="#New_Gradient_Swatch_1"/><linearGradient id="New_Gradient_Swatch_1-6" x1="305.39" y1="148.61" x2="374.32" y2="148.61" gradientTransform="translate(407.66 -216.06) rotate(76.91)" xlink:href="#New_Gradient_Swatch_1"/><linearGradient id="New_Gradient_Swatch_1-7" x1="42.44" y1="82" x2="111.37" y2="82" gradientTransform="translate(21.24 -15.67) rotate(13.48)" xlink:href="#New_Gradient_Swatch_1"/><linearGradient id="New_Gradient_Swatch_1-8" x1="3.87" y1="148.61" x2="72.8" y2="148.61" gradientTransform="translate(23.91 -4.19) rotate(9.07)" xlink:href="#New_Gradient_Swatch_1"/></defs><title>book_1</title><g class="cls-1"><g id="Layer_2" data-name="Layer 2"><g id="OBJECTS"><path class="cls-2" d="M204.8,240.43c0,2.53-7.41,4.58-16.54,4.58s-16.55-2-16.55-4.58,8.3-5.61,17.43-5.61S204.8,237.9,204.8,240.43Z"/><path class="cls-3" d="M187.32,230.3c-5.87-35.45-26.15-41.38-45.21-42.5-22.1-1.31-39.91,4.1-57.13,9.33-15.49,4.7-33.19,9.44-49.19,8.23L39,203.08c15.63,1.17,30.07-3.22,45.37-7.86,17.4-5.28,35.38-10.74,57.84-9.42,18.69,1.11,40.93,7.12,47.07,44.17Z"/><path class="cls-4" d="M188.76,229.53l-2-.22c1.27-11.5,8.24-22.39,18.65-29.13,9.3-6,25.48-11.56,49.72-3.76,7.47,2.41,14.21,4.63,20.16,6.59,26.48,8.71,41.07,13.51,58.68,14.83l1.88,2.14c-17.86-1.34-34.55-6.31-61.18-15.07-5.95-2-12.69-4.18-20.16-6.58-23.49-7.57-39.08-2.26-48,3.53C196.59,208.28,190,218.62,188.76,229.53Z"/><polygon class="cls-5" points="173.13 216.39 122.83 216.11 14.06 234.03 0.7 239.66 173.13 239.66 173.13 216.39"/><path class="cls-6" d="M187.76,227.47c-4.24-19.77-32.59-40.4-73.44-23.87S49.16,224,22.54,224A200,200,0,0,1,6.45,238.48s64.87,2.14,94.1-4.59c35.91-8.26,56-20.19,71.61,5.05,7.08-4.58,16.06-4.59,16.06-4.59A20.34,20.34,0,0,0,187.76,227.47Z"/><path class="cls-7" d="M22.54,225.91c26.62,0,50.93-3.84,91.78-20.36s69.2,4.11,73.44,23.87a24.94,24.94,0,0,1,.54,4.05,22.4,22.4,0,0,0-.54-6c-4.24-19.77-32.59-40.4-73.44-23.87S49.16,224,22.54,224A200,200,0,0,1,6.45,238.48S18.05,230.62,22.54,225.91Z"/><path class="cls-8" d="M25.75,229.1l1.14.3a27.72,27.72,0,0,0,3.26.59l2.35.24,2.79.15c2,.05,4.23.05,6.68,0A159.93,159.93,0,0,0,58.63,229c3-.39,6.16-.9,9.31-1.48s6.35-1.26,9.51-2c1.59-.36,3.16-.81,4.72-1.24s3.11-.9,4.64-1.39c3.06-1,6.07-2,9-2.88s5.81-1.73,8.53-2.47,5.31-1.4,7.71-2c4.78-1.17,8.82-1.91,11.65-2.42s4.46-.67,4.46-.67-1.61.32-4.4,1-6.74,1.72-11.47,3c-2.36.68-4.91,1.42-7.6,2.26s-5.5,1.75-8.41,2.71-5.89,2.05-9,3c-1.55.5-3.1,1-4.69,1.44s-3.16.91-4.77,1.28c-3.2.79-6.43,1.45-9.62,2s-6.36,1-9.43,1.34a137.35,137.35,0,0,1-16.83.86c-1.24,0-2.42,0-3.55-.1s-2.18-.14-3.18-.23l-2.8-.31-2.35-.38c-.71-.12-1.34-.3-1.88-.43a9.14,9.14,0,0,1-1.36-.4Z"/><path class="cls-8" d="M98,217.86l3.64-1.38c2.33-.84,5.63-2.11,9.67-3.46,2-.67,4.2-1.38,6.54-2.09s4.8-1.43,7.39-2.06,5.29-1.24,8.06-1.68a78.65,78.65,0,0,1,8.47-1,56.69,56.69,0,0,1,8.55.12,40.16,40.16,0,0,1,8.17,1.53,32.61,32.61,0,0,1,7.17,3,14.55,14.55,0,0,1,1.57,1c.5.33,1,.64,1.48,1,.9.73,1.84,1.35,2.61,2.1a25.34,25.34,0,0,1,2.22,2.15,25.74,25.74,0,0,1,1.81,2.1c.52.69,1.05,1.31,1.47,1.94l1.13,1.72c.7,1,1.1,1.93,1.44,2.5l.49.89-.57-.85c-.39-.54-.88-1.37-1.63-2.36l-1.24-1.62c-.45-.59-1-1.16-1.57-1.81a26.6,26.6,0,0,0-1.91-1.93,30,30,0,0,0-2.26-2c-.78-.7-1.72-1.26-2.62-1.93-.47-.31-1-.59-1.47-.89a15.19,15.19,0,0,0-1.54-.85l-1.63-.8-1.72-.69c-.58-.25-1.18-.42-1.79-.63s-1.21-.42-1.85-.56a43.73,43.73,0,0,0-7.9-1.34,54.84,54.84,0,0,0-8.31-.05,78.59,78.59,0,0,0-8.3.91c-2.73.42-5.41,1-8,1.52s-5.06,1.18-7.41,1.79-4.55,1.23-6.59,1.81l-9.85,2.86Z"/><path class="cls-8" d="M49.51,237.13,51,237l4.07-.29c3.5-.26,8.48-.77,14.45-1.47,3-.36,6.21-.81,9.61-1.32s7-1.16,10.65-1.88,7.46-1.57,11.27-2.52,7.65-2.07,11.39-3.43c1.87-.65,3.77-1.36,5.64-2s3.79-1.33,5.7-1.89a87,87,0,0,1,11.36-2.78,52.77,52.77,0,0,1,10.93-.78,37.27,37.27,0,0,1,5.07.56,32.31,32.31,0,0,1,4.63,1.11,18.12,18.12,0,0,1,2.1.78c.67.28,1.34.53,2,.82,1.2.7,2.38,1.3,3.41,2l2.79,2c.8.71,1.51,1.38,2.16,2l.91.85.72.83,1.13,1.32.94,1.1-1-1-1.21-1.23c-.23-.25-.49-.51-.76-.79l-1-.8c-.67-.56-1.4-1.19-2.22-1.85l-2.84-1.87c-1-.6-2.22-1.14-3.42-1.76l-1.95-.73a15,15,0,0,0-2.05-.7,33.15,33.15,0,0,0-4.52-.95,35.79,35.79,0,0,0-4.93-.39,55.94,55.94,0,0,0-10.64,1,92.86,92.86,0,0,0-11.12,2.87c-1.89.56-3.74,1.25-5.62,1.89s-3.73,1.4-5.65,2.07c-3.81,1.37-7.71,2.44-11.55,3.42-1.93.46-3.85.94-5.76,1.31s-3.78.76-5.64,1.09c-3.71.69-7.33,1.18-10.76,1.63s-6.68.77-9.68,1c-6,.56-11,.73-14.54.85-1.76.05-3.14.06-4.08.06Z"/><rect class="cls-9" x="0.7" y="239.65" width="172.43" height="2.89"/><path class="cls-8" d="M117.69,222.86l1.44-.77c.45-.25,1-.51,1.69-.81s1.41-.64,2.25-.95,1.74-.65,2.72-1,2-.63,3.09-.94,2.2-.56,3.36-.78,2.32-.47,3.5-.64,2.38-.28,3.54-.41,2.33-.18,3.46-.17a31.09,31.09,0,0,1,3.23.07c1,.05,2,.2,2.88.29s1.7.28,2.4.48,1.32.35,1.81.53l1.52.61-1.57-.45c-.49-.14-1.12-.23-1.82-.38s-1.52-.18-2.4-.31-1.83-.15-2.85-.14-2.08,0-3.18,0-2.25.15-3.4.23-2.33.25-3.49.45-2.34.36-3.48.58-2.25.48-3.33.72-2.12.51-3.09.81-1.9.55-2.74.84-1.61.53-2.29.79-1.27.46-1.74.67Z"/><polygon class="cls-5" points="203.06 216.39 253.36 216.11 362.13 234.03 375.48 239.66 203.06 239.66 203.06 216.39"/><path class="cls-10" d="M188.42,227.47c4.24-19.77,32.59-40.4,73.45-23.87S327,224,353.65,224a200,200,0,0,0,16.09,14.52s-64.87,2.14-94.1-4.59c-35.91-8.26-56-20.19-71.61,5.05C197,234.36,188,234.35,188,234.35A20.47,20.47,0,0,1,188.42,227.47Z"/><path class="cls-7" d="M353.65,225.91c-26.62,0-50.93-3.84-91.78-20.36s-69.21,4.11-73.45,23.87a27.39,27.39,0,0,0-.54,4.05,23.29,23.29,0,0,1,.54-6c4.24-19.77,32.59-40.4,73.45-23.87S327,224,353.65,224a200,200,0,0,0,16.09,14.52S358.13,230.62,353.65,225.91Z"/><path class="cls-8" d="M350.44,229.1l-1.11.39a9.14,9.14,0,0,1-1.36.4c-.54.13-1.17.31-1.88.43l-2.36.38-2.79.31c-1,.09-2.06.15-3.19.23s-2.3.06-3.54.1a137.6,137.6,0,0,1-16.84-.86c-3.06-.35-6.23-.77-9.42-1.34s-6.42-1.23-9.62-2c-1.61-.37-3.19-.84-4.77-1.28s-3.14-.94-4.69-1.44c-3.09-1-6.06-2.09-9-3s-5.73-1.87-8.42-2.71-5.23-1.58-7.59-2.26c-4.73-1.31-8.68-2.38-11.48-3s-4.39-1-4.39-1,1.63.17,4.46.67,6.87,1.25,11.65,2.42c2.39.59,5,1.25,7.7,2s5.59,1.54,8.53,2.47,6,1.92,9,2.88c1.53.49,3.06,1,4.64,1.39s3.13.88,4.72,1.24c3.16.79,6.35,1.47,9.51,2s6.27,1.09,9.31,1.48a159.93,159.93,0,0,0,16.66,1.39c2.45.05,4.69.05,6.68,0l2.78-.15L346,230a28.13,28.13,0,0,0,3.26-.59Z"/><path class="cls-8" d="M278.19,217.86l-3.74-1.06-9.85-2.86c-2-.58-4.25-1.2-6.6-1.81s-4.83-1.21-7.4-1.79-5.25-1.1-8-1.52a78.59,78.59,0,0,0-8.3-.91A54.83,54.83,0,0,0,226,208a43.58,43.58,0,0,0-7.9,1.34c-.64.14-1.24.37-1.85.56s-1.22.38-1.79.63l-1.72.69-1.63.8a16.53,16.53,0,0,0-1.55.85c-.49.3-1,.58-1.46.89-.9.67-1.85,1.23-2.63,1.93s-1.58,1.3-2.25,2a26.6,26.6,0,0,0-1.91,1.93c-.56.65-1.12,1.22-1.57,1.81L198.51,223c-.75,1-1.25,1.82-1.63,2.36l-.57.85.49-.89c.34-.57.74-1.47,1.43-2.5l1.14-1.72c.41-.63.94-1.25,1.47-1.94a23.92,23.92,0,0,1,1.81-2.1,25.18,25.18,0,0,1,2.21-2.15c.78-.75,1.72-1.37,2.62-2.1.48-.34,1-.65,1.48-1a13.64,13.64,0,0,1,1.57-1,32.73,32.73,0,0,1,7.16-3,40.42,40.42,0,0,1,8.17-1.53,56.82,56.82,0,0,1,8.56-.12,78.65,78.65,0,0,1,8.47,1c2.77.44,5.46,1.06,8.05,1.68s5.07,1.35,7.4,2.06,4.53,1.42,6.54,2.09c4,1.35,7.34,2.62,9.67,3.46Z"/><path class="cls-8" d="M326.68,237.13h-1.45c-.94,0-2.32,0-4.07-.06-3.52-.12-8.54-.29-14.54-.85-3-.27-6.25-.62-9.69-1s-7-.94-10.75-1.63c-1.86-.33-3.75-.69-5.65-1.09s-3.82-.85-5.75-1.31c-3.84-1-7.74-2.05-11.55-3.42-1.92-.67-3.77-1.37-5.66-2.07s-3.73-1.33-5.61-1.89a92.86,92.86,0,0,0-11.12-2.87,56,56,0,0,0-10.64-1,35.67,35.67,0,0,0-4.93.39,32.83,32.83,0,0,0-4.52.95,15.59,15.59,0,0,0-2.06.7l-1.94.73c-1.2.62-2.38,1.16-3.43,1.76l-2.83,1.87c-.82.66-1.55,1.29-2.22,1.85l-1,.8-.77.79-1.2,1.23-1,1,.94-1.1,1.13-1.32.72-.83.91-.85c.65-.6,1.36-1.27,2.16-2l2.79-2c1-.67,2.21-1.27,3.41-2,.63-.29,1.3-.54,2-.82a17.46,17.46,0,0,1,2.1-.78,32.31,32.31,0,0,1,4.63-1.11,37.3,37.3,0,0,1,5.06-.56,52.86,52.86,0,0,1,10.94.78,87.37,87.37,0,0,1,11.36,2.78c1.9.56,3.79,1.25,5.69,1.89s3.78,1.39,5.65,2c3.74,1.36,7.58,2.44,11.39,3.43s7.58,1.83,11.27,2.52,7.25,1.33,10.65,1.88,6.62,1,9.61,1.32c6,.7,10.95,1.21,14.45,1.47l4.07.29Z"/><rect class="cls-11" x="203.05" y="239.65" width="172.43" height="2.89" transform="translate(578.54 482.2) rotate(180)"/><path class="cls-8" d="M258.5,222.86l-1.51-.62c-.47-.21-1.07-.42-1.75-.67s-1.44-.52-2.28-.79-1.76-.56-2.74-.84-2-.5-3.09-.81-2.19-.52-3.33-.72-2.31-.42-3.48-.58-2.34-.31-3.49-.45-2.29-.21-3.4-.23-2.17-.05-3.18,0-2,.09-2.86.14-1.68.18-2.39.31-1.33.24-1.82.38l-1.57.45,1.52-.61c.49-.18,1.11-.32,1.81-.53s1.51-.31,2.4-.48,1.85-.24,2.88-.29a31.09,31.09,0,0,1,3.23-.07c1.12,0,2.28.11,3.45.17s2.37.21,3.55.41,2.35.4,3.5.64,2.28.52,3.36.78,2.13.59,3.09.94,1.89.64,2.72,1,1.59.63,2.25.95,1.24.56,1.69.81Z"/><path class="cls-12" d="M171.13,240.41c2-2.51,20.84-11.21,34.66,0"/><path class="cls-13" d="M171.13,241.74c2,1.15,20.84,5.13,34.66,0"/><path class="cls-14" d="M189.42,229.43l-2,0c.23-18.33-5.59-41-15.57-60.73-11.15-22-26.23-38.12-42.47-45.4l.82-1.82c16.66,7.46,32.08,23.91,43.43,46.31C183.75,187.74,189.66,210.79,189.42,229.43Z"/><path class="cls-15" d="M187.43,229.46c-1-25.06,18.31-78.44,69.13-94.33l.6,1.91c-49.8,15.56-68.69,67.82-67.74,92.34Z"/><path class="cls-7" d="M188,69.28a4.12,4.12,0,1,1-4.12-4.12A4.13,4.13,0,0,1,188,69.28Z"/><path class="cls-7" d="M284.32,11.58a3.61,3.61,0,1,1-3.6-3.6A3.6,3.6,0,0,1,284.32,11.58Z"/><circle class="cls-7" cx="350.26" cy="97.09" r="3.61"/><path class="cls-7" d="M303.9,181.57a2.06,2.06,0,1,1-2.06-2.06A2.06,2.06,0,0,1,303.9,181.57Z"/><path class="cls-7" d="M83.43,27a6.18,6.18,0,1,1-6.18-6.18A6.18,6.18,0,0,1,83.43,27Z"/><path class="cls-7" d="M38.1,103.79A2.06,2.06,0,1,1,36,101.73,2.06,2.06,0,0,1,38.1,103.79Z"/><path class="cls-7" d="M16,190.85a2.06,2.06,0,1,1-2.06-2.07A2.07,2.07,0,0,1,16,190.85Z"/><circle class="cls-16" cx="232.92" cy="38.17" r="34.47"/><circle class="cls-17" cx="232.92" cy="38.17" r="37.54" transform="translate(143.07 256.43) rotate(-76.93)"/><path class="cls-18" d="M221.42,64.1l-15.2,3.62a1.28,1.28,0,0,1-1.59-1.56L208,50.89Z"/><path class="cls-19" d="M208.4,67.2l13-3.1L208,50.89l-1.1,5C211.39,58.08,211.87,63.57,208.4,67.2Z"/><path class="cls-18" d="M248.62,7a2.74,2.74,0,0,1,2.76-.7,20.89,20.89,0,0,1,8.24,5.22,20.4,20.4,0,0,1,5.29,8.05,2.73,2.73,0,0,1-.65,2.75L223.14,64.2a1.76,1.76,0,0,1-1.82.44,22.44,22.44,0,0,1-8.47-5.3,24.83,24.83,0,0,1-5.7-8.63,1.77,1.77,0,0,1,.39-1.87Z"/><path class="cls-20" d="M252.53,18.74c4.43,4.35,6,7.82,6.43,9L262,24.6c-.43-1.15-2-4.61-6.43-9s-8-5.94-9.19-6.37l-3,3.11C244.51,12.81,248.08,14.38,252.53,18.74Z"/><path class="cls-21" d="M245.65,9.47s4.13,1.15,9.59,6.51,6.58,9.37,6.58,9.37L226.75,61.08a32.37,32.37,0,0,1-9.16-6.55,36.58,36.58,0,0,1-7-9.34Z"/><path class="cls-22" d="M228.11,59.69A32.11,32.11,0,0,1,219,53.14a36.44,36.44,0,0,1-7-9.33l1-1.06a36.44,36.44,0,0,0,7,9.33,32.37,32.37,0,0,0,9.16,6.55Z"/><path class="cls-22" d="M230,57.82a32.22,32.22,0,0,1-9.17-6.55,36.44,36.44,0,0,1-7-9.33l1.43-1.45a36.44,36.44,0,0,0,7,9.33,32.11,32.11,0,0,0,9.16,6.55Z"/><path class="cls-22" d="M259.9,27.31a32.17,32.17,0,0,0-6.71-9,36.44,36.44,0,0,0-9.46-6.84c-.09-.08-1,1.06-1,1.06a36.56,36.56,0,0,1,9.46,6.84,32.26,32.26,0,0,1,6.72,9Z"/><path class="cls-22" d="M258.07,29.18a32.35,32.35,0,0,0-6.72-9,36.26,36.26,0,0,0-9.46-6.84l-1.42,1.45a36.26,36.26,0,0,1,9.46,6.84,32.17,32.17,0,0,1,6.71,9Z"/><path class="cls-23" d="M221.32,64.64a1.76,1.76,0,0,0,1.82-.44l3.24-3.3.37.18,35.07-35.73s0-.14-.14-.41l2.58-2.62a2.73,2.73,0,0,0,.65-2.75,16.93,16.93,0,0,0-1.74-3.67l-46,46.82A20.85,20.85,0,0,0,221.32,64.64Z"/><path class="cls-24" d="M210.76,45.56l-3.22,3.28a1.77,1.77,0,0,0-.39,1.87,24.34,24.34,0,0,0,1,2.32l45.13-46a16.23,16.23,0,0,0-2-.76,2.74,2.74,0,0,0-2.76.7l-2.57,2.61-.4-.14L210.58,45.19Z"/><path class="cls-25" d="M204.81,66.27l2.12-9.37S207.11,63.63,204.81,66.27Z"/><circle class="cls-26" cx="145.27" cy="38.17" r="34.47"/><circle class="cls-17" cx="145.27" cy="38.17" r="37.67"/><ellipse class="cls-27" cx="145.8" cy="37.75" rx="19.19" ry="10.99" transform="translate(102.54 182.01) rotate(-87.82)"/><ellipse class="cls-27" cx="145.8" cy="37.75" rx="21.8" ry="9.67" transform="translate(3.34 86.62) rotate(-33.45)"/><path class="cls-27" d="M153.8,31.8c9,7.85,12.79,16.87,8.37,20.15s-15.33-.42-24.37-8.26S125,26.83,129.43,23.54,144.76,24,153.8,31.8Z"/><path class="cls-28" d="M149.79,37.9a4,4,0,1,1-3.85-4A3.91,3.91,0,0,1,149.79,37.9Z"/><circle class="cls-29" cx="301.29" cy="82" r="34.47" transform="translate(-7.73 126.79) rotate(-23.47)"/><circle class="cls-17" cx="301.29" cy="82" r="38.31" transform="translate(-8.81 118.6) rotate(-21.96)"/><path class="cls-30" d="M285.91,107.46,306.3,112a11.74,11.74,0,0,0-9-9C291,101.52,285.91,107.46,285.91,107.46Z"/><path class="cls-31" d="M297.29,103a9.22,9.22,0,0,0-1.62-.21c5.06,2.44,4.84,5.61,3.52,7.62L306.3,112A11.74,11.74,0,0,0,297.29,103Z"/><path class="cls-32" d="M281.19,93.09A25,25,0,1,0,303.94,53.3"/><path class="cls-33" d="M320,71.66a20.12,20.12,0,1,1-25.53-12.55A20.1,20.1,0,0,1,320,71.66Z"/><path class="cls-34" d="M314,84.49c.2-.36.38-.72.55-1.06a32.06,32.06,0,0,0,2.75-8.33l3.73,2.14a20.3,20.3,0,0,0-.33-2.77l-3.06-1.75a24.76,24.76,0,0,0-.06-5.85,19.85,19.85,0,0,0-3.33-3.79,18.14,18.14,0,0,1,1.28,8.42l-6.72-3.87,3.42-6.1a19.42,19.42,0,0,0-1.91-1.16l-3.45,6.15L299.06,62a21.69,21.69,0,0,1,10-2.23,19.73,19.73,0,0,0-5.81-1.59,23.08,23.08,0,0,0-6.46,2.54l-2.62-1.51a19.31,19.31,0,0,0-2.54,1.11l3.07,1.77a24.14,24.14,0,0,0-6.56,7.44l-4.06-2.35A18.61,18.61,0,0,0,283,69.12l4.15,2.4a28.57,28.57,0,0,0-2.55,9.7l-3.72-2.15a20.12,20.12,0,0,0,.33,2.77l3.29,1.89a25.7,25.7,0,0,0,1.14,7.43,20.27,20.27,0,0,0,4.06,3.63A21,21,0,0,1,286.76,85l7.35,4.23-3.45,6.15a20.63,20.63,0,0,0,2,1l3.41-6.06,6.14,3.53A25.76,25.76,0,0,1,294.07,97a20.5,20.5,0,0,0,4.47,1.06,27.48,27.48,0,0,0,5.84-2.93l3.33,1.92A21.33,21.33,0,0,0,310.24,96l-3.88-2.23a30,30,0,0,0,6.53-7.32l4.84,2.8a16.93,16.93,0,0,0,1.13-1.92ZM296.85,63.31l8.95,5.15L301,77l-10.91-6.31A22.26,22.26,0,0,1,296.85,63.31Zm-1.65,24-8.45-4.87a26.22,26.22,0,0,1,2.35-9.8l10.82,6.27Zm9.06,5.21-7.12-4.1,4.72-8.4L311,85.3A27.48,27.48,0,0,1,304.26,92.53Zm8.31-10.08-.48.93L303,78.09l4.78-8.52,7.55,4.35A30.21,30.21,0,0,1,312.57,82.45Z"/><path class="cls-34" d="M320,71.66a20.1,20.1,0,0,0-1.57-3.46,20.1,20.1,0,0,1-37.27,13.38,21,21,0,0,0,.76,3.06,20.12,20.12,0,1,0,38.08-13Z"/><circle class="cls-35" cx="339.86" cy="148.61" r="34.47" transform="translate(118.16 446) rotate(-76.91)"/><circle class="cls-17" cx="339.86" cy="148.61" r="36.77" transform="translate(118.22 446.05) rotate(-76.93)"/><polygon class="cls-36" points="363.74 177.2 334.75 164.68 344.72 133.12 375.72 139.27 363.74 177.2"/><polygon class="cls-36" points="303.39 158.28 334.74 164.68 344.71 133.12 315.37 120.35 303.39 158.28"/><polyline class="cls-37" points="319.15 123.54 316.35 122.27 305.55 157.18 308.38 157.69"/><polygon class="cls-38" points="311.04 158.52 308.2 158.01 319 123.1 321.8 124.37 311.04 158.52"/><polyline class="cls-37" points="370.98 140 374 140.56 362.99 175.4 360.38 174.2"/><polygon class="cls-38" points="357.73 173.37 360.34 174.57 371.35 139.73 368.33 139.17 357.73 173.37"/><polygon class="cls-39" points="357.65 173.72 335.15 163.4 344.31 134.41 368.66 138.88 357.65 173.72"/><path class="cls-40" d="M347.83,135.05l-3.51-.64-9.17,29,22.5,10.32,1.29-4.08C342.45,168.5,340.54,152.92,347.83,135.05Z"/><line class="cls-41" x1="348.73" y1="140.27" x2="361.35" y2="142.7"/><line class="cls-41" x1="347.39" y1="144.51" x2="359.83" y2="147.51"/><line class="cls-41" x1="346.05" y1="148.76" x2="358.31" y2="152.32"/><line class="cls-41" x1="344.71" y1="153" x2="357" y2="156.47"/><line class="cls-41" x1="343.37" y1="157.25" x2="355.51" y2="161.19"/><line class="cls-41" x1="342.02" y1="161.5" x2="353.93" y2="166.19"/><polygon class="cls-39" points="310.8 158.92 335.14 163.39 344.3 134.4 321.81 124.08 310.8 158.92"/><line class="cls-41" x1="337.32" y1="136.66" x2="325.6" y2="131.4"/><line class="cls-41" x1="335.98" y1="140.91" x2="324.08" y2="136.21"/><line class="cls-41" x1="334.64" y1="145.15" x2="322.55" y2="141.02"/><line class="cls-41" x1="333.3" y1="149.4" x2="321.24" y2="145.17"/><line class="cls-41" x1="331.95" y1="153.65" x2="319.75" y2="149.89"/><line class="cls-41" x1="330.61" y1="157.89" x2="318.17" y2="154.89"/><path class="cls-40" d="M335.14,163.39l9.16-29-3.3-1.51c-1.77,15.36-11.8,35.15-27.9,18.76l-2.3,7.27Z"/><path class="cls-37" d="M344.3,134.4s-.09.47-.28,1.28-.46,2-.83,3.35c-.72,2.77-1.77,6.42-2.91,10s-2.39,7.22-3.39,9.89c-.49,1.34-.95,2.44-1.25,3.22s-.5,1.21-.5,1.21.1-.46.29-1.28.46-2,.83-3.35c.72-2.76,1.77-6.41,2.91-10s2.39-7.21,3.39-9.89c.49-1.34.95-2.44,1.24-3.21S344.3,134.4,344.3,134.4Z"/><polygon class="cls-42" points="340.78 132.79 339.08 138.39 340.4 137.59 341.25 138.94 342.75 133.66 340.78 132.79"/><circle class="cls-43" cx="76.91" cy="82" r="34.47" transform="translate(-17 20.19) rotate(-13.48)"/><circle class="cls-17" cx="76.91" cy="82" r="37.25" transform="translate(-17.02 20.22) rotate(-13.5)"/><polygon class="cls-44" points="88.12 103.29 48.66 59.11 51.55 54.22 55.68 50.53 60.24 48.77 99.7 92.95 88.12 103.29"/><path class="cls-45" d="M55.29,50.88l-3.74,3.34-2.89,4.89,39.46,44.18,5.42-4.84C76.13,87,57.69,64.45,55.29,50.88Z"/><polygon class="cls-46" points="96.67 95.65 56.19 50.33 55.68 50.53 55.25 50.92 95.85 96.38 96.67 95.65"/><polygon class="cls-46" points="51.55 54.22 51.18 54.84 91.63 100.15 92.45 99.42 51.85 53.95 51.55 54.22"/><path class="cls-47" d="M88.12,103.29l14.81,5.9a.68.68,0,0,0,.9-.8L99.7,93l-4.24,2-4.32,3.86Z"/><path class="cls-48" d="M103.75,108.12A34.65,34.65,0,0,1,92.33,97.76l-1.19,1.06-3,4.47,14.81,5.9a.68.68,0,0,0,.9-.8Z"/><path class="cls-49" d="M103.83,108.39l-1.43-5.34c-1.93.21-3.73,1.61-5,3.94l5.52,2.2A.68.68,0,0,0,103.83,108.39Z"/><circle class="cls-50" cx="38.34" cy="148.61" r="34.47" transform="translate(-22.95 7.9) rotate(-9.07)"/><circle class="cls-17" cx="38.34" cy="148.61" r="37.84"/><path class="cls-33" d="M42.15,139.25,38.89,124l-9.07,1.93,3.26,15.3-4.74,32.87a3.1,3.1,0,0,0,3.71,3.48L57.91,172a3.1,3.1,0,0,0,2-4.69Z"/><rect class="cls-33" x="26.34" y="119.64" width="14.92" height="5.35" rx="1.25" ry="1.25" transform="translate(-24.75 9.73) rotate(-12.03)"/><path class="cls-51" d="M42.5,143.19l-8.12,1.73-3.76,29.13a1.19,1.19,0,0,0,1.43,1.32l25-5.32a1.2,1.2,0,0,0,.77-1.79Z"/><path class="cls-52" d="M40.73,156.57a1.12,1.12,0,1,1-1.34-.87A1.12,1.12,0,0,1,40.73,156.57Z"/><path class="cls-28" d="M41.79,164.24a2,2,0,1,1-2.39-1.55A2,2,0,0,1,41.79,164.24Z"/><path class="cls-52" d="M47.32,159.69a1.38,1.38,0,0,1-1.06,1.62,1.37,1.37,0,0,1-.57-2.68A1.39,1.39,0,0,1,47.32,159.69Z"/><path class="cls-53" d="M35.85,146.43c.48-3.34.69-5.08.22-7.26s-2.24-12.31-2.24-12.31l5.44-1.15L38.89,124l-9.07,1.93,3.26,15.3-4.74,32.87a3.1,3.1,0,0,0,3.71,3.48l13.2-2.81C29.28,175.33,34.15,158.12,35.85,146.43Z"/><path class="cls-7" d="M45,147.39s6.36,12.12,12,19.25C55.41,163,47,150.18,45,147.39Z"/></g></g></g></svg>