<svg xmlns="http://www.w3.org/2000/svg" xmlns:xlink="http://www.w3.org/1999/xlink" viewBox="0 0 619.47 626"><defs><style>.cls-1{fill:#fdfdfd;}.cls-2{fill:#fff;stroke:#000;stroke-miterlimit:10;stroke-width:6px;}.cls-3{fill:#68e0cf;}.cls-4{fill:url(#linear-gradient);}.cls-5{fill:#302d21;}.cls-6{fill:url(#linear-gradient-2);}.cls-7{fill:url(#linear-gradient-3);}.cls-8{fill:#209cff;}.cls-9{fill:url(#linear-gradient-4);}</style><linearGradient id="linear-gradient" x1="314.98" y1="453.86" x2="593.31" y2="453.86" gradientUnits="userSpaceOnUse"><stop offset="0.47" stop-color="#209cff"/><stop offset="1" stop-color="#68e0cf"/></linearGradient><linearGradient id="linear-gradient-2" x1="199.58" y1="487.04" x2="266.91" y2="603.66" gradientUnits="userSpaceOnUse"><stop offset="0.36" stop-color="#209cff"/><stop offset="1" stop-color="#68e0cf"/></linearGradient><linearGradient id="linear-gradient-3" x1="315.41" y1="80.89" x2="425.93" y2="80.89" gradientUnits="userSpaceOnUse"><stop offset="0" stop-color="#209cff"/><stop offset="1" stop-color="#68e0cf"/></linearGradient><linearGradient id="linear-gradient-4" x1="237.07" y1="80.89" x2="347.73" y2="80.89" gradientTransform="matrix(-1, 0, 0, 1, 663.06, 0)" gradientUnits="userSpaceOnUse"><stop offset="0" stop-color="#68e0cf"/><stop offset="1" stop-color="#209cff"/></linearGradient></defs><title>brain</title><g id="Layer_2" data-name="Layer 2"><g id="Layer_1-2" data-name="Layer 1"><path class="cls-1" d="M0,359V345c1.77-2.34.81-5.17,1.34-7.75,3.35-16.39,11.12-30.55,21.54-43.41a106.69,106.69,0,0,1,10-11.14c2-1.9,2.85-3.95,1.21-6.62-15-24.36-9.51-46.95,6.78-68,4.79-6.18,6.5-11.14,4.39-19.18a93.37,93.37,0,0,1,2.87-56c5.62-15.55,17.2-26.23,31.18-34.51a107.31,107.31,0,0,1,20.8-9.65,7.11,7.11,0,0,0,4.9-5.11c3.36-10.73,9.91-19.42,17.45-27.6,9-9.74,19-17.54,32.08-21.07,8.82-2.39,17.78-2.6,26.76-2.2,4.65.2,7.12-1.53,9.32-5.63,8.76-16.28,23-24.38,41.1-26.11,1.49-.14,3,0,4.27-1h17c4.34,1.83,9.09,1.41,13.61,2.6,21.76,5.71,35.45,19.52,42,40.78a5.07,5.07,0,0,0,1.17,2.53c3-9,6.31-17.57,12.44-24.8C332.62,8.87,346.16,3,361.73,1c1.79-.22,3.7.28,5.27-1h17c2.19,1.7,4.84.83,7.26,1.25,16.59,2.9,29.41,11.34,37.64,26.09,2.3,4.11,5,5.63,9.56,5.4A84.37,84.37,0,0,1,469,36.34c10.21,3.28,18.32,9.56,25.45,17.07,8.6,9.07,16.64,18.69,20.15,31.16.84,3,3.6,3.78,6.08,4.69a118.88,118.88,0,0,1,24.8,12.8c20.68,13.61,29.92,33.29,30.78,57.44.45,12.35.21,24.67-4,36.52-1.08,3,.3,5,2.23,7.12a74,74,0,0,1,16.37,27.2c4.86,14.81,3.8,29.16-4,42.9-3.72,6.57-3.61,6.68,1.89,12.13A107.66,107.66,0,0,1,614,324c10,26.57,6.07,51.48-11.12,74-3.71,4.86-4.19,9-2.65,14.62,5.53,20.44,4.49,40.26-7.36,58.6-3.08,4.78-6.38,9.41-11.15,12.67-5.55,3.78-8.27,8.85-9.55,15.55a86.31,86.31,0,0,1-18.72,39.82c-12.19,14.56-28,22.24-46.73,24-5.74.53-9.69,2.29-13.29,7.12-16,21.42-35.09,39.19-60.46,49.1-8.57,3.35-17.42,5.66-26.73,5.6-1.51,0-3,0-4.28,1h-4c-4.72-2.2-9.81-.78-14.72-1.52-28.67-4.3-51.3-17.61-65.95-43.22-3.21-5.62-4.77-12-8-18.43-2.35,7.31-4.74,13.86-8.31,19.88-14.32,24.17-36.05,37-63.29,41.53a62.42,62.42,0,0,1-11.42.77c-1.81,0-3.7-.31-5.27,1h-3a5.52,5.52,0,0,0-3.78-1c-18.74,0-35.11-7.19-50.27-17.29a142.6,142.6,0,0,1-39.72-39.63c-2.38-3.56-5.66-4.4-9.38-4.68-30.7-2.26-50.52-19.15-62.48-46.53a82.59,82.59,0,0,1-6.28-21.54,12.75,12.75,0,0,0-5.25-8.63C23.64,473,15.38,455,15.78,433.12A75.24,75.24,0,0,1,19.55,410c1.4-4.08.88-7-2-10.42a81.21,81.21,0,0,1-15.83-30.9C.86,365.49,1.87,362,0,359Z"/><path class="cls-2" d="M304.14,353.62c0,19.33-.12,38.66.1,58,0,3.88-1.16,4.69-4.75,4.65-21.67-.23-39.43-9.77-55.49-23.2-16.27-13.59-29.34-29.93-40.29-48-4.22-7-7.12-7-11.28.09-21.15,36-53.57,55-93.87,61.78-19.06,3.21-38.14,3.15-57-1.9-4.84-1.29-9.31-3.07-12.79-7.18C5.61,370.48,3.55,341.46,22.87,311a125.79,125.79,0,0,1,21.5-25.54c4.73-4.33,4.91-5.32,1.05-10.38-18.42-24.21-9-49.21,8.79-67.84,1.77-1.85,3-.57,4.27.27A58.37,58.37,0,0,1,76.08,225c13.78,21,20.35,44,16.93,69.21-1.25,9.26-4.63,17.69-11.93,24.06-2.4,2.08-3.79,4.64-1.38,7.32,2.59,2.86,5.31,1.6,7.84-.65,8.64-7.7,12.93-17.63,14.48-28.8.55-3.94,2.06-5.58,6-6.18,14.86-2.31,29.69-4.18,44.67-1.05,13,2.71,13,2.64,6.82,13.95-3.26,6-6.24,12.13-9.34,18.2-1.48,2.91-1.45,5.63,1.77,7.22,3.41,1.68,5.31-.54,6.63-3.3,5.6-11.74,11.52-23.27,19.39-33.69,23.89-31.67,55.35-39.64,91.38-23.1a137.19,137.19,0,0,1,31.75,20.58,8,8,0,0,1,3,6.84c-.12,19.33-.07,38.66-.07,58Z"/><path class="cls-3" d="M315.13,412.18l.06-20.9c.68-1.85,1.93-3.7,0-5.55q0-11.25,0-22.49c.57-2,2.38-4,0-5.91l0-20.7c.59-1.93,2-3.85,0-5.79-.05-6.15-.48-12.32,0-18.43.28-3.89,1.66-7.27.15-11.6-2.23-6.37,1.08-11.35,6.68-15.39,8.23-5.93,16.19-12.62,25.73-15.89,8.49-2.91,16.35-7.66,25.61-8.68,9.53-1,18.87-1.24,28.18,1.18a15.86,15.86,0,0,1,1.84.71c1.41,4.13,4.36,4.23,7.82,3,14.47,6.45,24.65,17.66,33.47,30.33,1.7,2.44,3.14,5.06,4.7,7.6a1.93,1.93,0,0,0-.2.44c-.31,1.88-4.43.58-3.16,3.17s3.35-.37,5.1-.27c2.45,4,4.91,7.79,5.89,12.67.62,3.05,3.66,5.77,6,8.28,1.54,1.66,3.74,1.21,5.39-.29,2-1.82,1.9-3.94.77-6.31-4.05-8.51-8.29-16.92-13.17-25-.61-1-3.14-2.36-.26-3.8,5.52,3.15,5.56,3.14,6.27-1.74,5.75-3.47,12.28-3.27,18.58-3.54,10.28-.43,20.47.91,30.54,3,.28,3.49,2.07,5.14,5.64,4.61,2,11.52,5.79,22.16,15,30.1,4.14,3.58,6.4,3.08,9.28-1.86,3.29-4.9-2.22-4.15-3.8-5.93-3.56-3.24-5-7.65-7.2-11.71-4.23-7.77-4.24-15.69-4.74-23.82,4.21-2.1,4.2-2.09.72-5.38a1.69,1.69,0,0,1-.37-1.4c.88-12.82,4.63-24.88,9.84-36.54a2.9,2.9,0,0,1,1.8.61c1.25,1.06,2.88,2.6,3.86.28s-1.84-1.3-2.75-2.09c-.48-.41-1.06-.7-1.29-1.35a65.86,65.86,0,0,1,23.79-28.41c2.64-1.8,4.12-1.18,5,1.68-1.7,4.4-1.39,4.71,3.85,3.89,8.14,11,14.87,22.46,13.91,36.85a7.65,7.65,0,0,1-1.28.64c-1.31.67-4-.53-3.93,1.6.15,2.93,3,1.19,4.68,1.69-.85,8.21-4.56,15.23-9.55,21.52-3.18,4-2.72,6.71,1,10.1,13.86,12.72,25.21,27.26,31.17,45.44-2.1,2.89.29,4.47,1.83,6.31A50.06,50.06,0,0,1,609,357.32c-4.3,2.77-4.3,2.77-1,6.6-2.51,14.69-10,26.87-20.62,36.73-6.06,5.63-15,6-23.05,7.11-16.48,2.29-32.9,1.33-49.21-1.79-.39-.07-.71-.53-1.07-.81a4.36,4.36,0,0,1,.39-1.41c.35-.95,2-1.75.51-2.94a2.2,2.2,0,0,0-1.92-.18c-1.75.45-1.1,1.7-.88,2.8a2.32,2.32,0,0,1-.06,1.45c-13.29-1.93-25.44-7.05-37.22-13.24-.52-1.3,1.8-2.95-.27-3.94-1.78-.85-3.55-.17-5.08,1a121.2,121.2,0,0,1-42.54-43.35c-4.28-7.4-7.1-7.34-11.49-.17-12.89,21.07-28.31,39.88-48.61,54.32-3.75,2.67-7.49,5.42-12,6.68-.51-1.46.6-2.43,1.05-3.6.34-.87.2-1.6-.8-1.91a2.5,2.5,0,0,0-1.9.06c-1.06.56-.59,1.38-.1,2a9.15,9.15,0,0,1,1.86,3.37c-11.26,7.22-23.74,9.79-36.93,9.58C316.71,414.8,316.28,413.2,315.13,412.18Z"/><path class="cls-4" d="M421.19,354C442.31,386.69,472,405.56,508.8,414a9.91,9.91,0,0,1,4.84,2.44c10.28,10,15.92,22,14.62,36.64A20,20,0,0,1,524,463.62c-2,2.65-3.13,5.56.17,7.79s5.61.12,7.49-2.56c8.21-11.66,7.34-24.05,3-36.73-1.78-5.19-4.69-9.84-7.53-14.91,16.65,1.46,32.77,1.57,48.67-2.21a87,87,0,0,0,10.94-3.37c2.07-.79,2.83-.62,3.45,1.65C597,438,593.91,465,568.82,481.4c-3,2-4.38,4.39-4.93,8.06-3.32,21.94-11.41,41.38-30.53,54.48-9.31,6.38-20,8.84-31.05,9.81-2.87.25-2.79-1.61-3.09-3.39-4.65-27-16.19-50.88-33.18-72.19a65.22,65.22,0,0,0-18.31-16.06c-3-1.71-6-3.08-8.17.7-2,3.48.51,5.43,3.27,7.13,15.21,9.38,24.17,24,32.45,39.1,1.53,2.81,0,3.06-2.18,3-8.5-.1-17-.4-25.49-.2-19.42.46-38.56,2.43-56.19,11.7-1.75-1.24-1.33-3.31-1.81-5C381,488.52,360.45,472,330.43,466c-2-.39-3.93-.74-5.91-1-9.49-1.16-9.49-1.15-9.5-10.46,0-8.67,0-17.34,0-26,0-2.24,0-3.67,3.06-3.6,27.21.6,49-11.75,68.48-29.22,12.1-10.85,22.28-23.38,31.3-36.87C418.82,357.39,419.85,355.92,421.19,354Z"/><path class="cls-5" d="M542.21,211a156,156,0,0,0-14.05,20.79c-4.86-5-5-5.07-7.38,1.55-1.25,3.47-3.36,5.14-7,5a30.9,30.9,0,0,0-3.47,0c-1.15.07-2.51,0-3.07,1.2-.72,1.56.63,2.38,1.6,3.24a9.18,9.18,0,0,0,1.56,1.23c4.36,2.44,5,5.92,3.61,10.53-1.75,5.58-1.53,5.65,4.25,5.35-.91,7.17-2.31,14.29-2.38,21.8l-12-2.28c-.14-2.9,5.07-3.51,3.43-6.27-1.19-2-4.66-.58-7.08-1.09-4.23-.89-5.79-4-6.93-7.67-.43-1.37-.5-3.48-2.18-3.58-2.08-.13-2.28,2.16-2.7,3.65-1.24,4.32-3.24,7.5-8.35,7.83-6.28.39-6.27.54-4.31,5.69-8.62,1.42-17.33,2.52-25.19,6.78-1.79,1-2.71-.11-3.69-1.33-1.94-2.44-3.92-4.86-5.89-7.28,1.15-4.65-3.42-3.54-5.23-5.21l-8.54-7c-1.61-2-2.71-4.81-6.16-3.92a107.68,107.68,0,0,0-20.8-8.07c-2.92-3.56.3-5.26,2.24-7.34,1.5-1.6,5-2.18,4.08-4.93-.8-2.3-3.86-1.34-5.9-1.28-4.15.13-6.64-1.64-7.65-5.62a10.32,10.32,0,0,0-.66-1.89c-.61-1.3-.78-3.31-2.65-3.18s-1.88,2.1-2.36,3.47C385,238,385,238,377.48,238.33c-1.72.08-4.15-.6-4.66,1.73-.41,1.85,1.85,2.49,3,3.62,2,1.95,6.3,2.66,3.95,7.06-24.34,2.17-45.06,12.79-64.39,28.2V261c4.3-6.38,7.29-7.05,13.39-3a12.42,12.42,0,0,0,3,1.74c1.76.55,2.53-.18,2.43-2a2.27,2.27,0,0,0-.19-1c-3.28-6.39-1.66-11.09,4.74-14.31,1-.49,2.05-1.45,1.48-2.82s-1.86-1.23-3-1.33a20.36,20.36,0,0,0-3.49-.06c-4,.33-6.28-1.57-7.26-5.32a6.14,6.14,0,0,0-.5-1.4c-.82-1.51-.67-4.14-3.06-3.94-1.89.16-1.86,2.48-2.52,4-1.05,2.36-.75,6-5,5.54q-.52-21.42.16-42.83c3.36-6.22,7.09-7.18,12.82-3.48,1.59,1,3.19,3.6,5.07,2.3,2.18-1.52.36-4.05-.35-5.92-1.54-4.06-.65-7.13,2.91-9.54a22.7,22.7,0,0,0,3.16-2.46c1.71-1.65,1.39-2.9-.88-3.57a21.74,21.74,0,0,0-5-.36c-5.9-.3-8.36-3.71-7.29-10.07l17.64-1.92c4,2.7,6.5-1.4,9.71-2.25l3.46-1.26c2.42-.73,4,.89,5.8,2,1.45.88,2.75,3.08,4.64,1.79,1.68-1.14.24-3-.11-4.53a10,10,0,0,1-.2-3.41c21.88-10.87,40.21-25.82,53.34-46.65,2.73-4.34,5-8.94,7.54-13.42a3.17,3.17,0,0,1,2.38.12c1.43.5,2.85,2.58,4.35.86,1.19-1.36.06-3.21-.56-4.67-1.88-4.43-1-8,2.87-10.86,1.52-1.13,4.12-2.09,3.62-4.25-.55-2.37-3.48-1-5.17-1.86a4,4,0,0,1-1.19-.85,109.34,109.34,0,0,0,.13-24.33c-.55-5.17,4.14-2,6.39-2.74,6.66,2.45,7.77,4.52,6,11.22-.21.81-.51,1.59-.68,2.4-.22,1.11-.8,2.39.52,3.14,1,.57,1.88-.25,2.71-.76,1-.62,1.89-1.36,2.82-2.06,3-2.26,6.07-2.43,9.18-.16.94.68,1.87,1.39,2.84,2s2,1.66,3.14.89.61-2.1.32-3.2c-.46-1.77-1.31-3.45-1.46-5.28-.13-1.66-.8-3.72,1.84-4.25,8.57,2.47,14.67,8.24,20.06,15-.53,7.71-1.91,9.05-9.62,9.42-1.6.08-3.77-.45-4.4,1.43s1.56,2.66,2.81,3.6c5.63,4.28,5.74,4.64,3.71,11.75-.44,1.51-1.76,3.41,0,4.56s3-.75,4.33-1.65c5.73-3.92,6-3.94,11.91,0,.7.46,1.38.93,2.12,1.32s1.55.83,2.35.39c1.15-.64.72-1.74.5-2.67-.38-1.62-1.14-3.15-1.4-4.79s-1-3.73,1.58-4.47c3.25,5,4.18,10.2,2.19,16.12-3.28,9.75-6.77,19.36-12.07,28.22-2.6,1.38-3.22,4-4.18,6.45a14.56,14.56,0,0,1-2.55,4.75c-1.8,2.37-4.44,1.77-6.86,2-1.59.14-3.78-.63-4.53,1.12-.83,2,1.52,2.59,2.61,3.7s2.87,1.82,2.71,3.86A81.33,81.33,0,0,1,462.11,168c-2.68-1-2.48-3.71-3.52-5.69-.4-.75-.75-1.64-1.69-1.63s-1.36.85-1.73,1.6a5.23,5.23,0,0,0-.55,1.4c-1,6.11-4.79,8.28-10.72,7.62-1.55-.17-3.72-.23-4.17,1.82-.36,1.69,1.63,2.29,2.64,3.32,1.53,1.57,4.37,2.17,3.95,5.21a69.41,69.41,0,0,1-11.06,6.45c-3.08,1.37-4.22,3.88-2.72,6.82s4.29,2.49,6.77,1.11c1.53-.84,2.95-1.85,4.74-2.07,2.94.44,5.09-1.18,7.11-2.91,3.7-3.16,7.32-3.44,11-.1a13.17,13.17,0,0,0,2.06,1.37c1,.58,2,1.59,3.15.8,1.39-1,.57-2.4.27-3.65-.24-1-.63-1.88-.91-2.83-1.7-5.94,1.54-10.27,8.14-10.91q5,13.62,10,27.24c-1.78,3.24-4.95,1.85-7.58,2.25-1.24.2-3-.4-3.47,1.18s1.23,2.16,2.18,3,1.82,1.45,2.72,2.19c2.74,2.26,3.77,5,2.35,8.39a17.83,17.83,0,0,0-.91,2.85c-.3,1.23-1.23,2.69.15,3.65,1.15.8,2.12-.43,3.09-1,.57-.34,1.09-.76,1.64-1.12,5.32-3.41,6.92-3.28,11.84,1,5.13,2.25,5.13,2.25,6.55-2.87,1-2.76-1.13-4.62-2-6.84C500.85,212,504,211,506,209.14c.82-.78,2.15-1.46,1.71-2.75s-2-1.2-3.05-1c-6.62.93-9.74-2.78-11.32-8.47a8.06,8.06,0,0,0-3-4.92c-2.13-6.45-4.84-12.68-6.45-19.34-.45-1.89,0-3.9-1-5.64-.66-2.08-.19-4.22-.31-6.32,5.08-6.55,8-7,14.92-2.45,1.2.79,2.46,2.37,3.93,1.3s.4-2.83-.11-4.11c-2.12-5.25-.93-9.32,3.87-12.4,1.2-.77,2.91-1.74,2.35-3.41s-2.52-1.19-3.94-1.27c-4.83-.3-4.83-.27-6.46-2.3q6-12.51,12.07-25c5.4,1.32,6.5,3.19,5.23,8.35-.56,2.29-3.05,5.23-.81,6.82s4.33-1.61,6.24-3c3.06-2.14,5.73-2.14,8.55.19a15.6,15.6,0,0,0,2.46,1.66c1.22.67,2.37,2.5,3.86,1.22,1.33-1.14.22-2.8-.17-4.18-2.36-8.29-1.39-10.43,5.27-11.52a53.29,53.29,0,0,1,16.06,15.16c.22,3.3-1.28,6.12-2.5,9a5.57,5.57,0,0,1-5.07,3.44c-1.33.09-2.66,0-4,.13s-3.33-.46-3.85,1.38c-.43,1.51,1.29,2.11,2.24,3,.36.33.78.61,1.17.92,5.17,4.1,5.26,4.43,3.47,11-.42,1.55-1.59,3.46-.14,4.66,1.61,1.33,3-.57,4.3-1.4,6.67-4.18,9.75-3.54,14.45,3.12.73,12,.82,23.91-4.82,35-4.26-3.05-4.28-3.05-6.31,2a12.56,12.56,0,0,1-1.93,3.4l-3.53,2.68a11.39,11.39,0,0,1-5.12,1.23c-3.64-.08-5,1-2.21,4.3A1.58,1.58,0,0,1,542.21,211Z"/><path class="cls-6" d="M304.07,507c-.46,15.94.72,31.95-2.88,47.75-7.32,32.16-30,53.39-62.56,59.39-32.94,6.08-60.26-4.59-84.26-26.36a165.52,165.52,0,0,1-22.68-25.89,14,14,0,0,1-2.57-11.23,122.77,122.77,0,0,1,7.56-25.8c.67-1.66,1.38-2.8,3.46-2.94,24-1.61,47.91-2.08,71.34,4.8a43.77,43.77,0,0,1,16.3,8.4c1.86,1.58,3.88,2.81,6.35,1.62,2.23-1.07,2.56-3.25,2.79-5.49,3.05-29.79,23.44-51.15,53.6-56.15,3-.49,6-.54,8.89-1.24,4.37-1.06,4.81,1,4.74,4.65C304,488,304.08,497.45,304.07,507Z"/><path class="cls-5" d="M91.21,452c-.64-7.3,1.35-14,4.82-20.29,3.13-1,6.25,0,9.36.12,2.32.09,3.53,1.59,3.81,3.87.19,1.49.16,3,.38,4.47.48,3.24,2.22,5.2,5.62,5.14,3.16-.06,4.77-2,5.23-5,.1-.66.11-1.32.17-2,.51-6.11.66-6.26,6.77-6.73a12,12,0,0,0,3.91-.64c2.39-1,3.75-2.8,3.57-5.42-.16-2.42-1.68-3.91-3.9-4.68a17.38,17.38,0,0,0-3.94-.52c-6-.64-7.53-3.48-5-9.15L141.15,404c1.28,1.21,1.36,3,2.16,4.44,1.31,2.39,3.19,3.87,6,3.54,2.63-.3,4.7-2.09,4.65-4.49-.17-7.55,3.11-10.73,10.67-10.39,2.52.11,3.79-2.42,3.85-5,0-1.65-.46-3.32.12-4.95L177,380a5.45,5.45,0,0,1,2.89,0c4.7.57,7-1.23,7.68-5.91.32-2.39-.14-4.94,1.52-7l-.07.09a4.18,4.18,0,0,1,3.07-1.28c4.31.35,7.74-1.58,11-3.95L211,372.57c-.48,3.28-1.83,6.37-1.81,9.77,0,2.31-1.5,3.58-3.81,3.85-.83.1-1.66.12-2.49.21-4.69.48-7.37,2.64-7.15,6,.3,4.44,3.54,5,7.12,5.24,5.76.35,5.92.56,6.57,6.44a12.58,12.58,0,0,0,.83,3.89c1,2.28,2.63,4,5.27,3.92s4.23-1.69,5.26-4a11.25,11.25,0,0,0,.47-1.42c.82-2.62-.59-6.27,2.26-7.82,3.4-1.84,7.39-1.46,11.21-.92l9.78,7.75c0,3.66-1.28,7.16-1.35,10.84-.07,3.28-2.63,3.77-5.31,4-6.49.54-8.35,1.83-8.25,5.55s2.22,5.34,8.36,5.7c3.78.23,5.42,1.95,5.41,5.6a12.18,12.18,0,0,0,.61,4.44,5.35,5.35,0,0,0,5.79,3.78c3-.21,4.41-2,4.75-4.86a25.49,25.49,0,0,0,.16-3.49c-.08-3.79,1.83-5.47,5.52-5.42a15.62,15.62,0,0,0,4-.36c4.07-1,5.71-3.86,4.53-7.85-.33-1.1-1.1-2.09-.7-3.33,5-.33,9.16,2.67,13.9,3.33,3.94.54,7.86,1.24,11.79,1.87,2.34,4,6,6.23,10.28,7.69q0,11.46,0,22.92c-3.68-1.3-7.21-3-11.33-2.8-2.32.13-3.52-1.53-3.77-3.82-.17-1.49-.12-3-.32-4.47-.41-3.13-1.95-5.43-5.23-5.75s-5,2-6,4.89c-.16.47-.27,1-.39,1.44-1.67,6.95-1.67,7-8.42,8-3.16.5-5.46,2.13-5.5,5.4-.05,3.54,2.35,5.28,5.73,5.7,1.32.16,2.66.07,4,.33,2.61.51,3.88,1.82,2.61,4.57a122.18,122.18,0,0,0-19,9.49c-1.55-.77-1.46-2.5-2.19-3.75-1.27-2.13-3-3.69-5.59-3.37s-4,2.13-4.75,4.51a8,8,0,0,0-.22,1c-1.55,7.86-1.55,7.87-9,9.2-2.67.48-4.79,1.59-5,4.6s.84,5.18,3.8,6.24c1.52.54,3.35.49,4.27,2.2a66.57,66.57,0,0,0-7.71,18.79c-.95,4.34-2.74,5.68-6.51,2.63-2.78-2-1.22-5.19-2-7.75-.81-2.71-2-4.93-5-5.49a5.24,5.24,0,0,0-5.55,2.4,9.58,9.58,0,0,0-1.19,2.7,7.45,7.45,0,0,1-1.54,3.06l-21.5-3.32c-.32-3.53,1.23-6.81,1.32-10.31.07-2.72,2.32-3.25,4.63-3.56,6.41-.86,8.76-2.51,8.86-6.05s-2.3-5.55-8.67-6.23c-3.51-.38-5.07-2-5.1-5.4a10.44,10.44,0,0,0-.92-4.86c-1.19-2.24-3-3.6-5.61-3.44-2.43.14-4.44,1.58-4.62,3.86-.52,6.73-3.25,10.61-10.59,10.65-2.38,0-4.07,2.25-4.2,4.91-.14,2.88,1.49,4.63,4,5.67.31.12.63.2,1,.31,2.58.94,6.37-.44,7.7,2.53a19.08,19.08,0,0,1,1.6,11.15l-6.77-.07a1.82,1.82,0,0,0-.93-.26c-8.3,1.37-15.68-1.22-22.76-5.18,8-14.62,17.16-28.34,32-37.07,2.81-1.65,3.52-4.11,2-6.74s-4-2.46-6.56-1.25c-1.3.62-2.27,2-4,1.69-1-2-.09-4.3-1.3-6.26-1.71-2.78-4.36-3.4-7.31-3.3-3.95.13-5.84-1.69-5.78-5.66a11,11,0,0,0-.73-4.39c-1-2.5-2.71-4.29-5.55-4.25s-5.2,2-5.22,4.48c0,7.44-3.2,10.72-10.75,10.4-2.5-.1-3.8,2.44-3.83,5.05a5,5,0,0,0,3.78,5.21,9.26,9.26,0,0,0,1.46.31c7.31,1.23,7.33,1.23,8.8,8.5a8.74,8.74,0,0,0,3.63,5.72c1.06,1.26,3.6.73,3.74,3.09-13.46,18.39-22.81,38.74-28.89,60.64a3.36,3.36,0,0,1-1.48,0c-8.22-1.8-8.8-1.41-10.44,7-.22,1.13-.31,2.35-1.67,2.8A46.06,46.06,0,0,1,87.91,545a10.44,10.44,0,0,1-1.26-6.25c.12-3.21,1.67-4.89,4.91-5.07,2-.1,4,0,5.88-.89,2.51-1.16,4-3.08,3.68-5.91s-2.29-3.87-4.81-4.27c-1-.15-2-.14-3-.22-5.28-.43-6.26-1.41-6.71-6.66-.06-.66-.05-1.33-.11-2-.28-3.06-1.23-5.76-4.85-5.84s-5.3,2.3-6,5.56c-.13.65-.15,1.32-.22,2-.72,7.06-3.17,8.44-9.87,5.59-3.91-6.38-6.27-13.38-8.1-20.58,1.12-1.88,3.18-1.52,4.88-2,3-.89,5-2.74,5-6S65,487.51,62,486.7c-2.37-.64-5.06.11-7.19-1.6l0,.06A15.42,15.42,0,0,1,53.6,480c-.89-6.72-3.67-8.44-10-6.3a11.32,11.32,0,0,1-1.9.42,27.8,27.8,0,0,1-8-10c1.65-5.62-.08-9.72-5.47-12.18-2.47-7.51-2.78-15.2-2-23,3.9,1.18,7.55,3.14,11.82,3.09,1.89,0,2.74,1.6,3,3.4a40.44,40.44,0,0,0,.58,4.93c.84,3,2.57,5.07,5.9,5.08,3.16,0,4.65-2.11,5.5-4.85a3.08,3.08,0,0,0,.24-1c-.28-5.77,2.29-8.45,8.22-8.25a5.64,5.64,0,0,0,5.61-4.19,5.14,5.14,0,0,0-1.86-5.77,17.39,17.39,0,0,1-2.25-1.95,1,1,0,0,1,0-1.38c9.92-.14,19.85.44,30.74-1.29A86.94,86.94,0,0,0,83.23,438c-5.63,1.64-8.52,5.12-8.08,11.26.19,2.58-1.71,3.75-4.18,4a37.29,37.29,0,0,0-5,.42c-3.05.69-4.47,2.72-4.46,5.74,0,3.21,1.87,4.79,4.94,5.13a19.93,19.93,0,0,0,3,.1c3.88-.16,6,1.53,5.86,5.56a17.42,17.42,0,0,0,.19,3c.45,3.05,1.8,5.53,5.12,5.86s5.2-1.58,5.95-4.77c.32-1.38.29-3.1,2.24-3.46,5.5,2.66,7.71,1.4,8.21-4.69,7-7.82,6.07-10.66-4.17-13.13A3.33,3.33,0,0,1,91.21,452Z"/><path class="cls-5" d="M303.71,107.66c0,13-.14,26,.1,39,.06,3.48-1,4.45-4.33,4.78-17,1.66-32.78-2.59-47.49-10.51-27.38-14.74-47.9-35.62-56.4-66.46a61.83,61.83,0,0,1-.4-32.59c4.07-15.35,14-25.56,29.38-29.66a76.48,76.48,0,0,1,44.72,1.67C286.73,19.71,296,32.76,300.08,50,304.61,69,303.87,88.36,303.71,107.66Z"/><path class="cls-7" d="M419.08,30.85a27.38,27.38,0,0,1,5.32,14l.53,3.19c2.33,11.78.39,23.07-3.89,34.09L419.1,87c-4.44,12.09-12.13,22-21,31.11-9.34,9.55-19.76,17.72-32.09,23.18a3.9,3.9,0,0,1-2.32-.68c-1.23-.74-2.42-2.12-3.92-.73s.69,2.63.5,4a76.16,76.16,0,0,1-41.16,7.35c-1.89-.2-3.51-.42-3.42-3.1.87-25.06-1.37-50.14.43-75.19l.07-2c.42-7.57,1-15.12,3.67-22.33,2.39-2.08,5.66-3.9,2.25-7.68,1.24-3.22,2.38-6.49,4.82-9.07A1.91,1.91,0,0,0,328.07,30a7.6,7.6,0,0,1,3-3.5c1.09.74,1.68,2,2.69,2.79.77.62,1.52,1.33,2.55.5a1.71,1.71,0,0,0,.62-1.74,2.17,2.17,0,0,0-2-1.78c-1.28-.17-2.51.83-3.81.15,3.52-5.15,8.75-8,14.15-10.68,2.28.3,5.06,2.06,5.81-2,7.51-2.54,15-4.92,23.1-2.92,0,1.8-2.36,2.67-1.89,4.67a5.55,5.55,0,0,0,2,1.94,2.32,2.32,0,0,0,1.62-.07,3.56,3.56,0,0,0,1.44-1.91c-.22-1.86-2.25-2.76-2.43-4.62,8-1.69,15.7-.39,23.11,2.91-.05.89.93,1,1.45,1.57s1.18.22,1.92.59c.75.19,1.17,1,1.89,1,1.94,0,4.95,2,4.95,2L410,20.17c2,1,4.12,4.68,4.12,4.68"/><path class="cls-8" d="M135.79,277.86a155.42,155.42,0,0,0-28.21,3c-2.89.6-5,.37-4.55-3.46a49.91,49.91,0,0,0,0-5.47,14.63,14.63,0,0,1,3.24-4.37q34.1-34.06,68.16-68.14c1.29-1.28,2.46-2.75,4.38-3.17,2.88,1.43,5.2.88,7.34-1.6s-.05-3.79-1.1-5.46c5.86-6.77,12.51-12.78,18.78-19.15,8.39-8.51,16.88-16.92,25.34-25.36,1.4-1.39,2.64-3,4.74-3.47,8.28,5.06,16.64,10,25.83,13.29.33,1.48-1,2-1.73,2.75Q199.95,215.06,142.1,273.1C140.21,275,138.47,277,135.79,277.86Z"/><path class="cls-8" d="M167.05,283.72c-8.74-3.69-18-5.2-27.34-5.86-.06-2.33,1.77-3.49,3.14-4.86q57-57.1,114.13-114.17c1.42-1.42,2.81-2.86,4.82-3.45a123.77,123.77,0,0,0,27.39,5.75c.18,2.36-1.68,3.51-3,4.87q-57.3,57.38-114.66,114.68C170.21,282,169,283.44,167.05,283.72Z"/><path class="cls-5" d="M409.84,526.16c14-4.13,28.41-5.32,43-5,.73,2.27-1.13,3.31-2.33,4.51q-40.44,40.56-81,81c-1.4,1.4-2.75,3-5.07,2.65-8.81-3.09-16.82-7.51-23.41-14.25.33-2.18,2.09-3.33,3.47-4.71q29.75-29.82,59.53-59.59A38.06,38.06,0,0,1,409.84,526.16Z"/><path class="cls-8" d="M456.86,521.12c6.29-.3,12.57.3,18.85.37,4.58,0,7,1.7,7.89,6-.25,2.33-1.78,3.86-3.32,5.4L400.9,612.29c-1.41,1.41-2.81,2.84-4.84,3.37a94.47,94.47,0,0,1-28.22-5c.05-2.28,1.85-3.45,3.22-4.82q40.5-40.57,81.05-81.1A18.17,18.17,0,0,1,456.86,521.12Z"/><path class="cls-8" d="M293.11,161.15c10.7-.71,10.72-.71,10.72,9.84,0,4.95-.08,9.89-.13,14.83-.45,2.27-2.07,3.73-3.6,5.26q-28,28-56.06,56.06c-1.53,1.54-3,3.11-5.26,3.6-18.2-1.05-34.46,4.37-49.19,14.84-.52-2.42,1.32-3.64,2.67-5q48.15-48.22,96.34-96.39A13.12,13.12,0,0,1,293.11,161.15Z"/><path class="cls-5" d="M484.77,531.08a81.73,81.73,0,0,1,5.61,22.62c.17,1.85.23,3.6-1,5.23-15.76,21.6-33.68,40.74-59.18,51a75.78,75.78,0,0,1-30.09,5.79c-.39-2.42,1.55-3.54,2.89-4.88q38.38-38.48,76.85-76.85C481.23,532.63,482.35,530.69,484.77,531.08Z"/><path class="cls-8" d="M102.54,270.48c-1.19-10.15-4.07-19.88-7.41-29.49,5.62-7.35,11.53-14.39,19.71-19.08,3.4,6.19,7.34,2.93,10.16-1.84,4.06-6.85,7.47-14.08,11.16-21.16,4.89-5.35,10.14-10.34,15.27-15.46,1.23-1.24,2.32-2.89,4.47-2.65A183.89,183.89,0,0,0,176,195c.55,2.89-1.91,4-3.44,5.57Q140.93,232.35,109.13,264C106.94,266.15,105.42,269,102.54,270.48Z"/><path class="cls-8" d="M121.44,135.29c4.26,8.31,9.83,15.82,14.71,23.75.36,2-1.1,3.05-2.23,4.19q-25.36,25.47-50.83,50.86a3.47,3.47,0,0,1-2.51,1.44,69.86,69.86,0,0,0-21.1-18.21c.21-1.64,1.53-2.5,2.56-3.54q28.29-28.34,56.6-56.64C119.44,136.34,120.09,135.28,121.44,135.29Z"/><path class="cls-8" d="M127.21,126a85.24,85.24,0,0,1-10.82-24.49c.34-2.19,2.19-3.25,3.56-4.62Q145.35,71.45,170.77,46c1-1,2.54-1.69,2.73-3.4,2.95-.88,5.84.5,8.78.24,2.57-.23,3.07,1.21,2.67,3.38-1.38,7.53-.94,15.07-.11,22.61-.72,2.32-2.41,3.92-4.06,5.57q-24,24-48,47.93C131.22,123.9,130,126.22,127.21,126Z"/><path class="cls-8" d="M109.24,109.32c3.47,8.21,7.12,16.33,11.38,24.16-.22,1.84-1.7,2.78-2.85,3.93Q90.41,164.77,63,192.13c-1.48,1.47-2.67,3.52-5.2,3.47-4.56-9.63-5.24-19.88-4.74-30.31a14.76,14.76,0,0,1,4-5.6q23.48-23.44,46.94-46.88C105.53,111.34,106.7,109.27,109.24,109.32Z"/><path class="cls-8" d="M143.18,152.14c-6.47-7-10.89-15.19-14.83-23.72.08-1.53,1.31-2.26,2.22-3.17q25.62-25.6,51.21-51.2c1-1,1.9-2.38,3.54-2.61A106.36,106.36,0,0,0,195.7,99.92c-.18,2-1.65,3.19-2.93,4.47Q170.26,127,147.69,149.46C146.44,150.7,145.34,152.36,143.18,152.14Z"/><path class="cls-8" d="M379.65,517.92c1.69,4.56,2.21,9.34,2.86,14.13.72,5.28,4.16,6.63,8.4,3.42,3.43-2.6,6.71-5.4,11.08-6.32,1.37,2.22-.47,3.44-1.66,4.63q-28.69,28.89-57.57,57.6c-1,1-2.08,2.26-3.85,1.76a56.45,56.45,0,0,1-14.2-19.83c-.26-2.34,1.44-3.61,2.82-5q23.78-23.85,47.63-47.62C376.41,519.44,377.52,517.81,379.65,517.92Z"/><path class="cls-5" d="M366.09,494.69c5.85,5.5,9.62,12.29,12.37,19.73.07,2.45-1.61,3.91-3.13,5.43q-23.62,23.64-47.28,47.24c-1.34,1.33-2.45,3.29-4.89,2.86a76.25,76.25,0,0,1-6.58-23.64c-.45-2.73.66-4.78,2.55-6.67q21.4-21.33,42.75-42.69C363,495.8,364.14,494.42,366.09,494.69Z"/><path class="cls-8" d="M183.78,188.82a82.83,82.83,0,0,1-21.62-14.77c.23-2.22,2-3.37,3.38-4.75q21.12-21.18,42.3-42.29c1.48-1.48,2.7-3.49,5.24-3.39l18.74,16.07c.12,1.71-1.07,2.71-2.11,3.75q-21.92,22-43.91,43.93A10.34,10.34,0,0,1,183.78,188.82Z"/><path class="cls-8" d="M160.78,172.9c-6.51-5.43-11.64-12.07-16.7-18.78,5-6,10.88-11.16,16.36-16.71Q176,121.62,191.83,106c1.46-1.45,2.62-3.58,5.23-3.3,4.69,6.38,9,13,14.49,18.8.13,1.37-.92,2-1.72,2.85-15.81,15.8-31.67,31.57-47.4,47.46A3.91,3.91,0,0,1,160.78,172.9Z"/><path class="cls-8" d="M303.72,189.43q0,16.68.07,33.36a10.6,10.6,0,0,1-3,4.56q-14,13.92-27.91,27.88c-1.18,1.18-2.34,2.41-4.18,2.49a127.36,127.36,0,0,0-26.12-6.85c0-2.11,1.57-3.22,2.83-4.49,18.46-18.54,37-37,55.46-55.51C301.66,190.13,302.21,188.77,303.72,189.43Z"/><path class="cls-8" d="M316.09,540c-1.17-12.35-1-24.72-.79-37.09.65-2.16,2.24-3.63,3.76-5.15q8.26-8.24,16.51-16.49c1.28-1.28,2.47-2.71,4.38-3.1,9.24,2.87,17.55,7.28,24.17,14.51-.17,1.82-1.52,2.89-2.68,4.05q-20.38,20.43-40.83,40.8C319.39,538.75,318.31,540.5,316.09,540Z"/><path class="cls-8" d="M138.17,166c-4.22,17.53-11.82,33.67-20.45,49.38a9.53,9.53,0,0,1-1.64,1.73c-5.38,7.33-12.37,13.12-18.65,19.59-.88.9-1.86,1.95-3.41,1.39a201.83,201.83,0,0,0-12-20.91c.2-2,1.77-3.14,3-4.42q23.83-23.86,47.74-47.65c1.43-1.41,2.51-4.3,5.55-2.75A7.74,7.74,0,0,1,138.17,166Z"/><path class="cls-8" d="M53.18,161.23c-.2-24.7,10.55-43,32-55.15a152,152,0,0,1,15-7.07c3.53-1.52,5.94-1.38,6.7,3.06a32.41,32.41,0,0,0,1.54,4.68c-.58,1.83-2,3-3.31,4.28q-23.37,23.39-46.77,46.74C56.89,159.24,55.69,161.26,53.18,161.23Z"/><path class="cls-8" d="M113.88,88c1.75-9,7.2-16.08,12.86-22.85C138.33,51.32,152.67,42.65,171.41,43c.05,2.32-1.77,3.48-3.13,4.85q-23.92,24-47.93,47.93c-1.27,1.27-2.37,2.86-4.4,3-1.54-1.27-1.89-3-2.08-4.89A10.55,10.55,0,0,1,113.88,88Z"/><path class="cls-8" d="M146,480.17c-3.92-1.77-5.2-5.1-4.77-9,.47-4.3-1.25-5.64-5.3-5.11a8,8,0,0,1-6.19-1.34,6.92,6.92,0,0,1-2.57-7.55,6.43,6.43,0,0,1,5.51-5.09,17.67,17.67,0,0,1,4.48-.13c2.93.3,4.46-.65,4-3.83a13,13,0,0,1,0-2.49c.29-5,3.4-8.46,7.49-8.33a7.37,7.37,0,0,1,7,8.19c-.32,5.21,1.28,6.84,6.55,6.58,6.4-.32,9,4.23,6.83,10.85-1.44.91-1.88,3-3.94,3.21a4.48,4.48,0,0,1-1.79.72c-5,0-6.56,3.05-6.73,7.4l-5.29,5.81A8.12,8.12,0,0,1,146,480.17Z"/><path class="cls-8" d="M176,511.79a10.85,10.85,0,0,1-1.63-6.68c.64-4.77-1.61-5.45-5.69-5.36-5.52.13-8.81-3-8.65-7.45.14-4.23,3.28-7.12,8.62-7,4.06.09,5.93-.59,5.78-5.33-.19-6.07,3-9.23,7.57-9,4.37.25,7,3.48,6.83,9.22-.14,3.8.81,5.23,4.9,5.1,6.27-.21,9.34,2.46,9.39,7.13.05,4.83-3.14,7.54-9.69,7.31-3.95-.14-5,1.33-4.54,4.88a10.91,10.91,0,0,1-2.28,7.93Z"/><path class="cls-8" d="M268,420.11c2.36,2.36,3.93,4.92,2.27,8.4a7.34,7.34,0,0,1-8.16,4.4c-5-.67-6.25,1.31-6,6,.34,5.54-2.37,8.28-7,8.22-4.45-.06-7.4-3.07-7-8.35.35-4.89-1.2-6.31-6-6-5.28.37-8.28-2.59-8.32-7.05s2.7-7.28,8.26-6.94c4.79.3,6.78-1.08,6-6-.46-2.8.82-5.17,2.42-7.37l12.4,8.15c.51,5.26,5.61,3.25,8.22,5.18A3.55,3.55,0,0,1,268,420.11Z"/><path class="cls-8" d="M63,418.81c4.51,1,6.61,4,5.78,8.36-.79,4.17-4,6.15-8.12,5.72-4.82-.52-6.29,1.08-6.07,5.95.25,5.4-2.75,8.33-7.13,8.35-4.59,0-7.5-3.07-7.28-8.71.16-4.15-.68-6.29-5.34-5.55-3.63.57-6.42-1.17-8.59-4a40,40,0,0,1,1.39-9.68c1.76-.83,3.55-1.71,5.54-1.49,3.08.34,5.25-1,6.92-3.39l14,2.75C57,418.57,60.15,417.9,63,418.81Z"/><path class="cls-8" d="M275.25,469.45c.14-2.08-.22-3.7-2.9-3.36a10.58,10.58,0,0,1-1.49,0c-6.43-.12-9.94-2.73-9.8-7.29s3.45-6.94,9.7-6.81c3.35.06,5-.76,4.61-4.41a15.42,15.42,0,0,1,.48-4.45,6.61,6.61,0,0,1,6.61-5.74c3.67-.13,6.3,2,7.23,5.69a8.79,8.79,0,0,1,.21,3.46c-.75,4.49,1.12,6.06,5.48,5.4,3.64-.55,6.46,1,8.53,4,.62,8.05.63,8.15-6.9,8.86A116.2,116.2,0,0,0,275.25,469.45Z"/><path class="cls-8" d="M122.06,411.19c.08,7,.08,7,7.45,7.59,4.09.32,7.38,3.27,7.16,6.85-.25,4.16-2.56,6.74-6.83,7.3a1.69,1.69,0,0,1-.5,0c-5.68-1-8,1-7.41,7.09.42,4.58-2.81,7.3-7.1,7.12s-7.13-2.73-6.76-7c.49-5.79-1.28-8.21-7.26-7.32-1.5.23-3.18-.74-4.78-1.15a32.9,32.9,0,0,1,8.87-12.94,4.12,4.12,0,0,0,3-2.78C112,412.65,117.32,412.73,122.06,411.19Z"/><path class="cls-8" d="M234.71,397.76c-3.34,2.13-7.71.07-10.55,1.8-3.28,2-.26,6.86-2.26,10.12-1.54,2.5-3.65,4.05-6.43,4a6.67,6.67,0,0,1-6.31-4.14,7.66,7.66,0,0,1-.9-3.82c.9-5.6-1.42-7.17-6.82-6.75-4.65.35-7.4-2.64-7.47-6.79s3-7.46,7.75-7.13c5.11.35,7.29-1.11,6.54-6.46a6,6,0,0,1,2.72-6.05C218.59,381.25,226.17,390,234.71,397.76Z"/><path class="cls-8" d="M303.75,226.74q0,16.75.07,33.51c-2.81,4.27-6.07,8.09-10.71,10.5a226.13,226.13,0,0,0-21.42-11.93c-.1-1.71,1.09-2.73,2.13-3.78q13-13.12,26.15-26.15C301,227.85,302,226.66,303.75,226.74Z"/><path class="cls-8" d="M65.57,521a5,5,0,0,1,1.46-.23c5.34.78,7.8-.81,7.17-6.85a7,7,0,0,1,7.09-7.88c4.16,0,7.23,3,6.86,7.94-.41,5.52,1.45,7.26,6.9,6.84,4.75-.36,7.63,2.47,7.87,6.42s-2.71,7.12-7,7.65c-7.31.91-7.3.91-7.78,8.11,0,.66-.18,1.31-.27,2C77.89,539.4,70.79,531.08,65.57,521Z"/><path class="cls-8" d="M88.84,470.81c-.2,1-.46,1.92-.58,2.89-.61,4.51-3.52,7.36-7.38,7.16A7,7,0,0,1,74.19,473c.62-6-1.68-7.35-7.17-7-4.69.33-7.26-2.66-7.18-7s2.76-7.35,7.37-6.92c5.83.54,7.33-1.49,7-7.09-.32-5.23,3-7.36,9-7-1.26,7-2.22,14-.36,21C84,463.44,86.32,467.17,88.84,470.81Z"/><path class="cls-3" d="M501.93,80.74c-2.34,3.29.79,5.88,1.19,8.82.23,1.74,1.65,3.55-.4,5s-3.4-.33-4.89-1.28a13.22,13.22,0,0,1-2.42-1.75c-3-3.14-5.8-2.84-9.08-.15-2,1.64-4.15,5.11-7.12,3.06s-.46-5.34.54-7.65c1.84-4.28.73-6.93-3.16-9a23,23,0,0,1-2.85-2c-1.22-.89-2.57-1.86-2.08-3.6.54-2,2.29-2.43,4-2.1,6.87,1.32,10.91-1.45,12.35-8.21C494.06,67.12,499,73.21,501.93,80.74Z"/><path class="cls-3" d="M315.46,237.09c3.91-1.21,3.07-5.12,4.36-7.8.86-1.78,1-4.22,3.6-4.09,2.27.12,2.44,2.44,3.05,4.1,2.8,7.64,2.78,7.66,10.9,7.83,2,0,4.29-.2,5.05,2.19s-1.48,3.05-2.84,4.16a21,21,0,0,1-3.24,2.32c-3.06,1.64-3.45,3.8-2.37,7,.91,2.75,4.1,6.26.85,8.59s-5.64-1.76-7.95-3.5c-2.82-2.12-4.94-2.12-7.45.12a45,45,0,0,1-4,2.92A224,224,0,0,1,315.46,237.09Z"/><path class="cls-3" d="M326.09,161.16a44.44,44.44,0,0,1,1.24,4.29c.7,3.76,2.79,5.11,6.65,4.94,2.92-.13,7.18-1.58,8.33,2.24,1,3.17-3.11,4.33-5.31,5.74-3.64,2.32-4.46,4.95-2.57,8.73a21.32,21.32,0,0,1,1.41,4.24c.34,1.3.47,2.67-.88,3.58s-2.53.33-3.67-.44c-.41-.28-.8-.6-1.2-.89-7.37-5.22-7.37-5.22-14.48.67-.71-8-.11-16,.18-24,1.32-3.18,1.8-6.77,4.44-9.32Z"/><path class="cls-3" d="M539.79,110.57c-6.34,3.94-6.34,3.94-4.07,10.93a15.46,15.46,0,0,1,1.12,3.81c.12,2.87-1.88,4.66-4,2.64-6.16-6-11.57-6-17.73,0-2.07,2-4.11.27-4-2.6a10.63,10.63,0,0,1,1.32-4.27c2.43-4.58,1.28-7.87-3.33-10.07-.55-2.74,2.21-4.54,2-7.16,2.73-1.14,5.63-1.94,8-3.8A66,66,0,0,1,539.79,110.57Z"/><path class="cls-3" d="M565.94,160.92c-.56-.35-1.14-.67-1.67-1-6.75-4.75-6.73-4.74-13.51,0-1.41,1-2.74,2.93-4.75,1.54s-1.15-3.58-.53-5.44c3.15-9.31,2.76-7.42-4.15-12.81-1.51-1.17-3.87-2-3-4.52.79-2.21,3-1.68,4.74-1.71,9.08-.14,8.14,1.46,11.17-8.18a19,19,0,0,1,1.56-3C564.1,136.06,565.6,148.33,565.94,160.92Z"/><path class="cls-3" d="M379.78,250.74c.38-4.2-3.61-4.72-5.73-6.79-1.45-1.41-4.32-2.07-3.34-4.82s3.61-2.26,5.64-1.92c6.2,1,9.2-1.63,10.15-7.62.28-1.77.65-4.38,3.28-4.37s2.76,2.43,3.43,4.29c3.11,8.65,1.06,7.52,10.57,7.65,1.93,0,4.28-.58,5.13,2s-1.51,3.3-2.94,4.58c-2.54,2.27-7.13,3.17-5.71,8.2C393.47,250.8,386.62,250.83,379.78,250.74Z"/><path class="cls-3" d="M293.11,161.15c-1.21,1.35-2.37,2.75-3.65,4q-47.94,48-95.89,95.93c-1.4,1.4-2.64,3-4,4.45a148.78,148.78,0,0,0-17.21,17.21c-1.65,1.93-3.16,2.88-5.33.94q59-59.1,118.09-118.22c1.4-1.4,2.69-2.91,4-4.37Z"/><path class="cls-3" d="M261.8,155.38,143.4,273.82c-1.29,1.29-2.46,2.69-3.69,4h-3.92c1.09-1.24,2.11-2.54,3.27-3.71q58.19-58.21,116.41-116.39c1.27-1.27,2.3-2.89,4.27-3.28Z"/><path class="cls-3" d="M475.76,277.93c-.88-.74-1.77-1.48-2.64-2.23s-2.08-1.82-1.48-3.36,2-1.6,3.33-1.62a18.52,18.52,0,0,1,3,0c5.09.71,8.37-1,9.1-6.45a13.9,13.9,0,0,1,.64-1.88c.51-1.76.89-3.86,3.14-3.93s2.74,2,3.23,3.78c.35,1.27.87,2.51,1.16,3.8.8,3.49,3,4.94,6.49,4.67a33,33,0,0,1,4,0c1.59.08,3.57-.44,4.26,1.63.74,2.23-1.08,3.24-2.53,4.33l-3.54,2.69A216.58,216.58,0,0,0,475.76,277.93Z"/><path class="cls-8" d="M237.59,499.54a33.11,33.11,0,0,1-4.89-.86c-3.41-1.12-5-3.63-4.88-7.24s2.26-5.76,5.77-6.46a8.55,8.55,0,0,1,3-.11c4.33.7,5.86-.86,5.57-5.39-.37-5.67,2.51-9.11,6.77-9.29s7,3.06,7.37,8.75C249.07,484.92,242.36,491.35,237.59,499.54Z"/><path class="cls-3" d="M468,46.89c-2.48,3.44.53,6.27,1.07,9.37.31,1.75,1.55,3.54-.37,5s-3.44-.21-4.81-1.22c-7.76-5.69-6.41-5.54-13.94-.12-1.38,1-2.75,2.88-4.8,1.42s-1.31-3.33-.44-5c3.15-5.84,1.86-10.29-3.93-13.48C450.1,42.24,459.25,43.07,468,46.89Z"/><path class="cls-8" d="M456.86,521.12Q436,542.18,415,563.23q-23.58,23.71-47.19,47.38l-3.42-1.28c1-.85,2.1-1.63,3-2.57q42.06-42,84.1-84.07a18.55,18.55,0,0,0,1.24-1.54Z"/><path class="cls-3" d="M518.24,259.85a16,16,0,0,1-3.43,2c-2.48.74-3.88-.28-3.64-3a3.64,3.64,0,0,1,.48-1.41c3.53-6.45,2-11.23-4.64-14.42-1.58-.76-2.72-2.07-2-4.05.65-1.72,2.22-1.78,3.76-1.79a10.17,10.17,0,0,1,2,0c5.61,1,8.76-1.13,9.69-6.89.32-2,.6-4.84,3.34-5,3.2-.17,2.83,3.15,3.87,5.05a8.17,8.17,0,0,1,.48,1.42A200.54,200.54,0,0,0,518.24,259.85Z"/><path class="cls-8" d="M484.77,531.08,400.15,615.7l-4.09,0Q437.69,574,479.31,532.3c1.51-1.51,2.86-3.2,4.29-4.79Z"/><path class="cls-3" d="M497.09,136c2.91,1.91,6.15.58,9.22.92,1.51.17,3.1,0,3.65,1.89s-.71,2.75-1.91,3.69a13.42,13.42,0,0,1-2,1.47c-4.62,2.37-6,5.77-3.61,10.56a32,32,0,0,1,1.13,3.3,2.8,2.8,0,0,1-.84,3.57c-1.34,1-2.5.26-3.65-.45a2,2,0,0,1-.42-.27c-5.13-5.87-10.36-5.21-15.66-.25a2.13,2.13,0,0,1-.13-2.4Q490,147,497.09,136Z"/><path class="cls-3" d="M497,226c-4.51-4.5-8.66-3.25-12.87.6-1.31,1.21-2.88,3.31-5.1,1.54-2.06-1.62-.71-3.62-.14-5.46,2.34-7.54,2.33-7.52-4.3-12.72-1.36-1.06-3.49-1.88-2.9-4.15.7-2.71,3.13-1.81,5-2,2.76-.24,5.64.59,8.28-.84q4.74,9.11,9.46,18.21a10.26,10.26,0,0,0,3.54,4C498,226,498,226.54,497,226Z"/><path class="cls-5" d="M315.23,498.4c-.06-7.29-.08-14.57-.21-21.86,0-2.11.08-3.3,2.89-3,6.41.76,12.82,1.42,19,3.6.55,1.57-.52,2.55-1.42,3.47q-8,8.24-16.26,16.26C318.12,497.94,317,499,315.23,498.4Z"/><path class="cls-3" d="M102.54,270.48c0-2.48,1.94-3.74,3.43-5.24Q141,230.1,176,195l2.81,1.24L103,271.91C102.87,271.43,102.71,271,102.54,270.48Z"/><path class="cls-8" d="M168.63,387.12c3.24,7.84.7,12.14-7.54,11.94-4.09-.1-5.7,1-5.27,5.2.36,3.6-.45,7-4.24,8.75-5.48,2.53-9.8-1.2-10.43-9A188.8,188.8,0,0,0,168.63,387.12Z"/><path class="cls-8" d="M338.91,593.14q30.82-30.74,61.66-61.46a3.79,3.79,0,0,0,1.42-2.53,18.73,18.73,0,0,1,7.85-3Q375.43,560.62,341,595.08A3.16,3.16,0,0,1,338.91,593.14Z"/><path class="cls-3" d="M303.72,189.43q-28.7,28.71-57.4,57.42c-1.28,1.29-2.46,2.68-3.69,4l-3.85-.12q21.42-21.63,42.87-43.24c7.28-7.3,14.7-14.46,22.05-21.68C303.71,187,303.72,188.23,303.72,189.43Z"/><path class="cls-3" d="M57.82,195.6Q88,165.36,118.18,135.13a16.05,16.05,0,0,1,2.44-1.65c.27.6.54,1.21.82,1.81-1.07,1.26-2.06,2.6-3.22,3.77q-27.5,27.52-55,55c-1.16,1.16-2.48,2.17-3.73,3.25A2.19,2.19,0,0,1,57.82,195.6Z"/><path class="cls-3" d="M446.32,181.69c-1.76-2.75-4.82-3.93-7.16-6-1-.87-2.17-1.75-1.64-3.29s1.81-1.83,3.17-2a2.73,2.73,0,0,1,1-.08c7.58,1.57,11.35-1.89,12.38-9.2a2.85,2.85,0,0,1,3-2.74c1.58.07,2.12,1.44,2.59,2.68.87,2.31,1.66,4.66,2.48,7A66.49,66.49,0,0,1,446.32,181.69Z"/><path class="cls-3" d="M185.32,71.44c-2.95,3.13-5.83,6.33-8.86,9.38q-22,22.05-44,44c-1.28,1.28-2.73,2.39-4.09,3.58a2.52,2.52,0,0,1-1.14-2.4Q154,99.25,180.8,72.5c1.29-1.28,2.69-2.44,4-3.66Z"/><path class="cls-3" d="M116,98.85Q143.67,70.94,171.41,43l2.08-.42c3.53,1.82-.15,2.7-.7,3.26-11.19,11.4-22.51,22.66-33.8,34q-9.36,9.35-18.72,18.69c-1.16,1.16-2.14,2.58-3.89,3C116.24,100.63,116.09,99.74,116,98.85Z"/><path class="cls-3" d="M474.92,175.77c-1.25.8-2.45,1.7-3.76,2.37-3.94,2-4.89,4.77-3.18,9,.95,2.33,3.74,5.43.58,7.63-3,2.1-5.32-1.29-7.1-3-4.08-3.9-7-1.65-10.35.83-2,1.47-4,4.82-7.06,1.41,7.7-4.56,14.48-10.37,21.52-15.81a20.2,20.2,0,0,0,3.6-4.05c1.17-1.57,2.26-4.12,4.17-3.62C475.45,171.08,475,173.79,474.92,175.77Z"/><path class="cls-3" d="M137.88,161.92q-24,23.81-48,47.61c-2.58,2.57-5.22,5.07-7.84,7.6l-1.49-1.6c1.28-1.51,2.47-3.1,3.86-4.5q25.83-26,51.71-52l2,2c.24.28.29.5.14.68A.55.55,0,0,1,137.88,161.92Z"/><path class="cls-8" d="M323.16,570c18.61-18.33,37.34-36.54,55.29-55.53l1.2,3.5q-26.59,26.52-53.17,53a20.75,20.75,0,0,0-1.77,2.36C324.2,572.19,323.68,571.07,323.16,570Z"/><path class="cls-3" d="M53.18,161.23Q78.6,136,104.06,110.75c1.4-1.39,2.93-2.67,4.39-4,.26.86.52,1.71.79,2.57-18.55,18.84-37,37.71-56.16,56C53.11,163.94,53.14,162.59,53.18,161.23Z"/><path class="cls-3" d="M197.06,102.73q-24.15,24-48.32,48c-1.37,1.35-2.39,3.28-4.66,3.43-.84-.41-.88-1.19-.9-2L195.7,99.92C196.15,100.85,196.61,101.79,197.06,102.73Z"/><path class="cls-3" d="M160.78,172.9c0-1.48,1-2.35,2-3.29q23.2-23.19,46.4-46.37a18.9,18.9,0,0,1,2.4-1.71c.5.7,1,1.39,1.52,2.09q-21.72,21.56-43.45,43.13c-2.47,2.45-5,4.87-7.48,7.3Z"/><path class="cls-8" d="M316.09,540q21.46-21.29,42.93-42.56c1.66-1.63,3.4-3.18,5.1-4.76a3.07,3.07,0,0,1,2,2q-23.79,23.64-47.62,47.25a7.43,7.43,0,0,0-1.88,4.38C315.6,544.27,316.05,542.12,316.09,540Z"/><path class="cls-3" d="M183.78,188.82a3.27,3.27,0,0,1,1.19-2.6q23.44-23.25,46.85-46.53l2.09,1.5L188.27,187c-.94.94-1.82,2-3.22,2.21Z"/><path class="cls-8" d="M54.84,485.1c2.33,0,4.68-.07,7,.19,4.56.52,7.41,3.5,7.14,7.47-.29,4.33-3,6.47-7.08,7.06-1.47.21-2.94.43-4.42.63A71.38,71.38,0,0,1,54.84,485.1Z"/><path class="cls-8" d="M208.12,515.88a36.1,36.1,0,0,1,.58-4.42,6.55,6.55,0,0,1,6.88-5.35,6.46,6.46,0,0,1,6.76,5.5c.59,3.07.7,6.23,1,9.35Z"/><path class="cls-8" d="M107.49,552.26a18.29,18.29,0,0,0,.4-2.92c-.07-3.42.11-6.7,3.62-8.58s6.68-.58,9.57,1.69a5.4,5.4,0,0,1,0,1C119.59,554.88,119.15,555.16,107.49,552.26Z"/><path class="cls-3" d="M434.21,70c2.86.72,7.2-1.84,8.43,2s-3.46,4.64-5.72,6.49c-2.49,2-3.84,4-2.25,7.19a18.11,18.11,0,0,1,1.24,3.77c.41,1.68,1.75,3.53-.21,5s-3.39,0-4.88-1c-.93-.68-1.94-1.27-2.91-1.89C430.38,84.43,432.83,77.37,434.21,70Z"/><path class="cls-3" d="M303.75,226.74l-32.06,32.08-2.94-1.1c11.44-11.89,23-23.66,35-34.92C303.77,224.11,303.76,225.43,303.75,226.74Z"/><path class="cls-3" d="M490.25,192c3.21-.51,3.27,2.07,3.94,4,2.68,7.78,2.67,7.74,10.57,7.9,1.84,0,4.32-.91,5.17,1.69s-1.53,3.31-3,4.58c-1.93,1.7-4.85,2.45-5.41,5.5C496.86,208.19,493.89,199.91,490.25,192Z"/><path class="cls-8" d="M139.15,191.91c1.93-6.13,4.76-12,5.9-18.36.4-2.27,1.52-2.35,3-.88,2,2,3.88,4.08,5.82,6.13-2.8,5.74-7.85,9.38-12.51,13.38A1.5,1.5,0,0,1,139.15,191.91Z"/><path class="cls-8" d="M91.21,452h3.44c4.36-.05,7.46,1.91,8.11,6.25.63,4.14-1.61,6.84-5.71,7.87C93.66,462,91.16,457.53,91.21,452Z"/><path class="cls-8" d="M41.74,474.1c2-3.06,4.87-3.78,8.16-2.68s4.49,3.72,4.79,6.85c.22,2.28.14,4.59.2,6.89C50.88,481,45.25,478.82,41.74,474.1Z"/><path class="cls-8" d="M203.14,361.88c-2.69,7.18-8.86,4.95-14.11,5.23l9.12-13.25Z"/><path class="cls-8" d="M315.23,498.4c7.81-6.46,14.58-14,21.64-21.22l3.08,1L315.3,502.91C315.28,501.4,315.25,499.9,315.23,498.4Z"/><path class="cls-3" d="M479.25,146.94l-6.16-4.9c-1.1-.86-1.92-1.84-1.36-3.35s1.81-1.65,3.2-1.76c3.41-.25,6.94.81,10.22-.88q.48-.65,1,0A33.43,33.43,0,0,1,479.25,146.94Z"/><path class="cls-8" d="M189.1,367q-.09,3-.17,6c-.2,7.76-5,10.6-11.92,7Z"/><path class="cls-3" d="M94,238c6.1-6,12.17-12,18.31-18,1.14-1.11,1.93-2.71,3.75-3-.42,1.62-.83,3.23-1.24,4.85L95.13,241Z"/><path class="cls-3" d="M40.14,414.39c.5,3.39-.81,4.75-4.35,4.47a59.88,59.88,0,0,0-8.11.41c1.42-8.63,1.42-8.63,9.65-5.85Z"/><path class="cls-3" d="M139.15,191.91c4.65-1.89,7-6.36,10.67-9.39,1.4-1.17,2.68-2.48,4-3.72l2.06,2c-5.27,5.17-10.52,10.37-15.83,15.5-1.12,1.08-1.91,2.79-3.91,2.61C136,196.08,138.6,194.44,139.15,191.91Z"/><path class="cls-8" d="M145.55,506.28c3.66-.59,7-.12,9.14,3.32,1.11,1.81,2.67,1.58,4.31,1.63,3.42.12,6.89-.55,10.25.49H143.17C143.05,509.67,144.54,508.07,145.55,506.28Z"/><path class="cls-3" d="M367,151.57c1.06,3.13,4.48,6.8,1.56,9.42-3.28,2.94-5.38-2.26-8.24-3.36a29.11,29.11,0,0,1-3.45-1.9Z"/><path class="cls-8" d="M303.86,264.27v14.67l-8.57-6.66C296.9,268.28,299.19,265,303.86,264.27Z"/><path class="cls-8" d="M304,433c-5.73.5-9-2.25-10.29-7.69,1.33.05,2.66.08,4,.16C304.43,425.88,304.43,425.88,304,433Z"/><path class="cls-8" d="M28.32,451.94c7.3,1.05,9.32,5.56,5.47,12.18A31.82,31.82,0,0,1,28.32,451.94Z"/><path class="cls-3" d="M542.21,211c-.88-.73-1.78-1.46-2.66-2.21s-1.73-1.64-1.3-3c.48-1.5,1.7-1.93,3.13-1.9,2.66,0,5.31.12,8,.18Z"/><path class="cls-3" d="M552.88,201.37a44.6,44.6,0,0,1,1.25-5.19c.62-1.75.6-4.24,3.11-4.5,3-.3,2.82,2.62,3.88,4.28C559,198.63,555.63,199.57,552.88,201.37Z"/><path class="cls-3" d="M303.86,264.27l-8.57,8-2.18-1.53,10.71-10.5C303.83,261.59,303.84,262.93,303.86,264.27Z"/><path class="cls-8" d="M583.15,253.72c-1.6,0-2.07,3.16-4,1.64-1.48-1.15-3.45-2.55-3-4.72.53-2.41,2.44-1,4-1,1.18,0,2.39-1.12,3.57.12C583.69,251.13,584.34,252.55,583.15,253.72Z"/><path class="cls-3" d="M156.57,474.24c-2.22-8-1.82-8.35,8.52-8.12Z"/><path class="cls-8" d="M537.1,235.78a12,12,0,0,1,1.91.39c1.53.56,4-1.62,4.63,1.11.54,2.23-1.52,3.72-3.09,4.62-2.3,1.33-2.69-1.62-4-2.53a7.16,7.16,0,0,1-1-1Z"/><path class="cls-3" d="M320.23,161c-1.14,3.27-.85,7.22-4.44,9.32-.82-1.91-.23-3.93-.44-5.89C314.92,160.28,316.62,159.29,320.23,161Z"/><path class="cls-8" d="M512.05,404.88c-.6-1.63-2.79-2.6-2-4.77a1.56,1.56,0,0,1,2.4-.92c1.62,1.15,4.38-1.79,5.05,1.16.55,2.37-1.57,3.73-3.47,4.81Z"/><path class="cls-8" d="M451.14,307c-1.9,2.46-3.7,5.62-6.65,1-.62-1-1.44-1.87-.68-3.11s1.92-1.14,3-.51,1.69-.68,2.61-.72Z"/><path class="cls-3" d="M519.23,100c-1,4.92-4.84,3.62-8,3.8a6.9,6.9,0,0,0,.92-1.7C513.14,96.78,515.83,97.25,519.23,100Z"/><path class="cls-8" d="M516.78,294.87c-1.52.59-2.44,3.81-4.72,1.1-1.45-1.71-3.61-3.33-.92-5.71C514.19,290.37,517.18,290.55,516.78,294.87Z"/><path class="cls-8" d="M462,290.82c3.52.9,2,2.68.64,4.23-1.09,1.24-2.19,3.41-4.21,1-.94-1.13-1.81-2.32-2.71-3.48A10.24,10.24,0,0,1,462,290.82Z"/><path class="cls-8" d="M525.64,274.87c.46.62.68,1.72,1.67,1.52,1.82-.37,4.27-1,3.46,1.87-.55,2-1.72,5.44-5.48,3.39A19.33,19.33,0,0,1,525.64,274.87Z"/><path class="cls-8" d="M469.48,388.73c.08-1.53.45-3.72,2.2-2.91,1.91.89,4.21-1.54,5.41.81s-1.36,3.39-2.26,5Z"/><path class="cls-3" d="M265.1,418.84c-1.65,0-3.29,0-4.94.06-4.09.12-5-1.74-3.28-5.24C259.69,415.27,263.26,415.67,265.1,418.84Z"/><path class="cls-8" d="M608,363.92c-2.32.69-3-1.36-4.17-2.54a2.31,2.31,0,0,1-.54-3.06,1.75,1.75,0,0,1,2.54-.51c1.22.73,2.14-.25,3.18-.49C608.92,359.57,609.4,361.89,608,363.92Z"/><path class="cls-8" d="M411.23,265.73c-1.77.71-2.43,4-4.55,3s-4-3-3.27-6A23.86,23.86,0,0,1,411.23,265.73Z"/><path class="cls-3" d="M486.11,136.05h-1c1-2.83,2-5.64,2.83-8.48.65-2.08,1.84-3.09,4.07-2.49A33.61,33.61,0,0,1,486.11,136.05Z"/><path class="cls-8" d="M569.77,212.94c-2.14,2.86-4.24,3.32-6.21-.15-1.52-2.67-1-4.1,2.36-3.74C567.35,210.2,569.07,211.07,569.77,212.94Z"/><path class="cls-3" d="M497,226l1-.77c2.3,0,4.29-.68,5.56-2.76.3,2.19,1.44,4.81-1.25,6C500,229.55,498.52,227.39,497,226Z"/><path class="cls-3" d="M435.76,270.89c1.15-.06,2.3-.18,3.45-.17,1.48,0,3.14-.1,3.69,1.75s-.58,2.78-1.91,3.63Z"/><path class="cls-3" d="M353.44,157c-1.66,1.35-3.27,2.76-5,4-2.38,1.73-4,1-4.72-1.77Z"/><path class="cls-8" d="M537.23,317.18a8.37,8.37,0,0,0,2.3.68c1.51,0,3.5-1.4,4.17.94.58,2-1.23,3.2-2.67,4.31C540.87,320.42,538.58,319.1,537.23,317.18Z"/><path class="cls-3" d="M421.06,260c4.14-2.59,4.63-2.27,6.16,3.92Z"/><path class="cls-8" d="M607.58,337.09c-3,0-4.06-2.3-4.54-4.55-.36-1.66,1.34-1.84,2.71-1.76Z"/><path class="cls-3" d="M63,418.81c-3-.32-6.47,1.82-8.88-1.67a26,26,0,0,1,8.91.95Q63.07,418.45,63,418.81Z"/><path class="cls-8" d="M315.16,357.33c6.15,1.92,1.76,3.93,0,5.91C315.19,361.27,315.17,359.3,315.16,357.33Z"/><path class="cls-8" d="M315.24,330.84c3.87,1.39,3.87,1.58,0,5.79C315.21,334.7,315.22,332.77,315.24,330.84Z"/><path class="cls-8" d="M315.19,385.73c4,1.33,4,1.69,0,5.55Z"/><path class="cls-8" d="M315.13,412.18c2.41,0,3.35,1.19,2.85,3.54C314.73,416.39,314.81,414.38,315.13,412.18Z"/><path class="cls-1" d="M482.86,158c.05.8.09,1.6.13,2.4-.83,2.16.14,4.36-.15,6.53A10.46,10.46,0,0,1,482.86,158Z"/><path class="cls-3" d="M107.9,416c.38,2.42-.85,3.1-3,2.78A5.23,5.23,0,0,1,107.9,416Z"/><path class="cls-1" d="M113.88,88c0,2,0,3.95,0,5.92A4.82,4.82,0,0,1,113.88,88Z"/><path class="cls-3" d="M146,480.17l5.31-.12L150,481.81C148.94,480.54,146.93,481.62,146,480.17Z"/><path class="cls-1" d="M137.88,161.92a6.61,6.61,0,0,1,.24-.9,3.67,3.67,0,0,1,0,4.93C138.07,164.61,138,163.26,137.88,161.92Z"/><path class="cls-8" d="M487,317.94c1.7-.75,3.67-1.16,3.75,1.24.08,2.22-1.82,4.44-3.79,4.51s-3.87-2.25-3.88-4.38C483.12,316.35,485.39,317.41,487,317.94Z"/><path class="cls-8" d="M407.48,344.8c1.81-1.06,3.54-1.14,3.53,1.31,0,2.25-1.9,4.47-3.84,4.41s-3.9-2.48-3.76-4.58C403.59,343.11,405.85,344.14,407.48,344.8Z"/><path class="cls-8" d="M434,317.92c1.7-.56,4-1.41,3.87,1.49-.08,2.09-1.89,4.35-4,4.29-1.81,0-3.52-2.28-3.64-4.18C430,316.68,432.07,317.07,434,317.92Z"/><path class="cls-8" d="M513.76,318c2.18-1.17,4-.83,3.84,1.34s-1.87,4.43-4,4.39c-1.74,0-3.56-2.21-3.62-4.18C509.86,316.28,512.17,317.16,513.76,318Z"/><path class="cls-8" d="M527.2,358.08c1.8-.51,4-1.3,3.69,1.74-.2,1.92-1.89,4.05-3.72,4-2.11,0-3.93-2.29-3.93-4.34C523.23,356.67,525.5,357.5,527.2,358.08Z"/><path class="cls-8" d="M473.49,358.21c1.82-.82,4-1.37,3.83,1.45-.1,2-1.77,4.35-4,4.21-1.84-.12-3.5-2.32-3.55-4.22C469.67,356.8,471.68,357.24,473.49,358.21Z"/><path class="cls-8" d="M393.69,358.08c1.71-.48,4.05-1.35,4,1.43,0,2-1.87,4.41-4,4.31s-3.79-2.27-3.71-4.52C390.15,356.81,392.05,357.32,393.69,358.08Z"/><path class="cls-8" d="M543.88,346.37c-1.07,1.84-2.1,4.4-4.28,4.27-1.68-.1-3.55-2.28-3.57-4.28,0-4.4,3.52-.79,5.2-1.95C542.6,343.46,543.54,344.85,543.88,346.37Z"/><path class="cls-8" d="M487.06,344.74c1.73-.83,3.68-1.16,3.71,1.25,0,2.18-1.83,4.47-3.8,4.53s-3.83-2.32-3.83-4.44C483.15,343.09,485.43,344.23,487.06,344.74Z"/><path class="cls-8" d="M460.18,344.83c1.84-.81,3.89-1.3,3.75,1.59-.1,2-1.92,4.13-3.65,4.19-2.15.08-3.9-2.34-4-4.35C456.17,343.44,458.37,344,460.18,344.83Z"/><path class="cls-8" d="M407.51,318c1.88-1,3.62-.92,3.52,1.44-.1,2.17-1.85,4.33-3.95,4.34-1.91,0-3.6-2.34-3.68-4.16C403.26,316.24,405.73,317.41,407.51,318Z"/><path class="cls-8" d="M540.05,372.87c1.86-1,3.74-.85,3.63,1.39s-1.83,4.4-3.94,4.44c-1.8,0-3.54-2.18-3.68-4.11C535.82,371.11,538.31,372.43,540.05,372.87Z"/><path class="cls-8" d="M513.6,372.87c1.75-.76,4-1.47,4,1.34,0,2.05-1.95,4.53-4,4.41-1.81-.1-3.79-2.32-3.63-4.64C510.14,371.43,512,372,513.6,372.87Z"/><path class="cls-8" d="M553.55,222.9c2-1.11,3.59-.75,3.47,1.57-.11,2.05-1.93,4.12-3.62,4.24-2.22.17-4-2.4-4-4.31C549.27,221.13,551.89,222.52,553.55,222.9Z"/><path class="cls-8" d="M487.09,372.83c1.78-.9,3.7-1.08,3.69,1.29,0,2.16-1.86,4.47-3.85,4.47s-3.86-2.3-3.8-4.47C483.22,371.11,485.51,372.38,487.09,372.83Z"/><path class="cls-8" d="M460,373c1.89-.75,4.08-1.41,3.88,1.49-.14,2.07-1.88,4.35-4.06,4.21-1.81-.12-3.54-2.39-3.58-4.26C456.2,371.71,458.2,371.85,460,373Z"/><path class="cls-8" d="M553.3,249.7c1.74-.7,3.81-1.4,3.7,1.58-.08,2-2,4.18-3.59,4.25-2.12.09-3.9-2.38-4-4.36C549.24,248.42,551.43,248.87,553.3,249.7Z"/><path class="cls-8" d="M358.2,374.72c-1,1.6-2,4.15-4.23,3.82a4.68,4.68,0,0,1-3.49-4.36c.19-4.06,3.59-.72,5.37-1.81C357.26,371.5,358.13,372.93,358.2,374.72Z"/><path class="cls-8" d="M593.38,318.07c2-1.05,3.91-1.29,3.74,1.54-.11,2-1.94,4.12-3.64,4.14-2.12,0-3.89-2.42-3.9-4.43C589.56,316.7,591.61,316.88,593.38,318.07Z"/><path class="cls-8" d="M340.67,331.32c1.82-.23,4.05-1.23,4.08,1.37,0,2.19-1.9,4.43-3.88,4.42s-3.77-2.33-3.7-4.51C337.24,330,339.41,331,340.67,331.32Z"/><path class="cls-8" d="M420.48,331.51c2.11-.83,4-1,4,1.32-.08,2.16-2,4.45-3.92,4.41s-3.75-2.32-3.63-4.56C417.05,329.7,419.3,331.07,420.48,331.51Z"/><path class="cls-8" d="M553.34,304.58c1.74-.64,3.84-1.39,3.64,1.62-.13,2-1.91,4.15-3.59,4.17-2.07,0-3.92-2.34-4-4.36C549.32,303.22,551.54,303.87,553.34,304.58Z"/><path class="cls-8" d="M500.44,331.49c1.56-.56,3.51-1.46,3.61,1.19.09,2.26-1.78,4.46-3.67,4.53s-3.91-2.32-3.89-4.39C496.52,330,498.73,330.81,500.44,331.49Z"/><path class="cls-8" d="M580,304.65c1.71-.57,4-1.42,3.81,1.52-.12,2-1.88,4.37-4,4.28-1.77-.08-3.47-2.33-3.59-4.23C576,303.28,578.15,303.94,580,304.65Z"/><path class="cls-8" d="M353.08,317.35c1.46,1.6,4.87-1.94,5,1.92.07,2.21-1.86,4.43-3.8,4.43s-3.54-2.39-3.83-4.53C350.27,317.7,351.62,317,353.08,317.35Z"/><path class="cls-8" d="M327.41,344.81c1.65-.67,3.86-1.65,4,1.26.08,2.16-2,4.49-3.85,4.47s-3.76-2.29-3.68-4.57C323.93,343.44,325.7,343.8,327.41,344.81Z"/><path class="cls-8" d="M354.55,344.81c1.74-1,3.49-1.28,3.53,1.24,0,2.28-1.91,4.48-3.77,4.45s-3.91-2.41-3.79-4.54C350.68,343.1,352.89,344.1,354.55,344.81Z"/><path class="cls-8" d="M380.45,344.87c1.8-.85,3.81-1.4,3.74,1.5,0,2-1.95,4.17-3.57,4.25-2.1.1-3.87-2.32-4-4.34C376.5,343.51,378.59,343.87,380.45,344.87Z"/><path class="cls-8" d="M434,344.73c1.76-.68,4-1.36,3.78,1.54-.15,2-1.87,4.39-4.05,4.25-1.75-.12-3.49-2.36-3.57-4.27C430.08,343.34,432.22,344,434,344.73Z"/><path class="cls-8" d="M517.71,346.16c-.71,1.92-2,4.19-4,4.36-1.78.16-3.16-2.12-3.73-4-.46-1.54.78-3.12,2-2.29C513.86,345.45,516.92,342.11,517.71,346.16Z"/><path class="cls-8" d="M566.55,344.79c1.76-.79,4-1.45,3.89,1.39,0,2.08-2,4.4-4,4.4-1.6,0-3.46-2.21-3.57-4.24C562.74,343.42,564.66,343.83,566.55,344.79Z"/><path class="cls-8" d="M597.25,346.56c-1,1.68-1.94,4.18-4.16,3.9a4.66,4.66,0,0,1-3.53-4.32c.14-4.13,3.56-.73,5.3-1.84C596.27,343.41,597.17,344.79,597.25,346.56Z"/><path class="cls-8" d="M447.51,358.22c1.79-.83,3.74-1.25,3.64,1.32-.08,2.13-1.71,4.4-3.95,4.3-1.93-.08-3.61-2.38-3.6-4.26C443.63,356.75,445.79,357.36,447.51,358.22Z"/><path class="cls-8" d="M553.22,358.09c1.62-.4,4-1.5,3.76,1.54-.13,2.06-1.83,4.29-4,4.18-1.86-.1-3.52-2.33-3.6-4.18C549.24,356.86,551.34,357.28,553.22,358.09Z"/><path class="cls-8" d="M380.49,373c1.88-.94,3.83-1.29,3.69,1.57-.1,2-2,4.16-3.61,4.19-2.09,0-3.87-2.36-3.92-4.39C376.57,371.58,378.67,372,380.49,373Z"/><path class="cls-8" d="M593.44,372.87c1.85-.89,3.82-1.35,3.7,1.55-.08,2-2,4.19-3.6,4.22-2.06,0-3.89-2.36-4-4.4C589.49,371.46,591.62,371.92,593.44,372.87Z"/><path class="cls-8" d="M327.66,399.61c1.84-.84,3.75-1.1,3.72,1.32,0,2.22-2,4.49-3.86,4.48s-3.77-2.28-3.68-4.54C324,397.73,326.27,399.42,327.66,399.61Z"/><path class="cls-8" d="M354.91,406.14a18.6,18.6,0,0,1-2.65-2.23c-1-1.18-3.07-2.58-1.3-4.13s4.52-.72,6.64-.13c1.14.32.65,2.06-.06,3.06-.85,1.2-1.82,2.33-2.73,3.49Z"/><path class="cls-8" d="M543.84,401.06c-.71,1.95-2,4.2-4,4.41s-3.15-2.12-3.78-4c-.53-1.53.74-3.11,2-2.31C539.93,400.37,542.92,397.18,543.84,401.06Z"/><path class="cls-8" d="M566.62,399.63c1.93-.81,4-1.22,3.82,1.61-.13,1.9-2,4.11-3.71,4.14-2.05,0-3.77-2.18-3.82-4.33C562.83,398,565,399,566.62,399.63Z"/><path class="cls-8" d="M438.06,292.82c-1.08,1.78-2.1,4.28-4.36,4a4.5,4.5,0,0,1-3.53-4.32c.28-3.76,3.42-.87,5.13-1.66C436.78,290.19,437.79,291,438.06,292.82Z"/><path class="cls-8" d="M420.61,276.58c1.81-.76,4-1.26,3.82,1.53-.13,2-2,4.37-4.05,4.28-1.59-.07-3.44-2.22-3.49-4.3C416.8,275,418.91,276,420.61,276.58Z"/><path class="cls-8" d="M367.85,276.45c1.93-.75,3.89-.85,3.73,1.47-.13,2.11-2,4.44-4,4.37s-3.73-2.35-3.61-4.6C364.15,274.53,366.59,276.56,367.85,276.45Z"/><path class="cls-8" d="M539.59,263.16c1.7-.41,4.14-1.43,4.09,1.45,0,2-1.9,4.46-4.11,4.28-1.72-.13-3.54-2.25-3.55-4.34C536,261.94,537.88,262.4,539.59,263.16Z"/><path class="cls-8" d="M367.78,304.57c1.78-.76,3.78-1.09,3.81,1.26,0,2.18-1.94,4.43-3.84,4.51s-3.74-2.23-3.75-4.41C364,302.77,366.33,304.34,367.78,304.57Z"/><path class="cls-8" d="M500.53,304.71c1.8-1,3.55-1.18,3.51,1.34,0,2.22-1.87,4.46-3.81,4.36s-3.92-2.43-3.75-4.57C496.7,303,499,304.13,500.53,304.71Z"/><path class="cls-8" d="M420.59,304.67c1.73-.71,3.93-1.39,3.85,1.45-.07,2.09-2,4.4-4,4.38-1.55,0-3.44-2.21-3.53-4.27C416.76,303.22,418.76,303.91,420.59,304.67Z"/><path class="cls-8" d="M486.5,291.06c1.84,0,4.37-1.48,4.25,1.66-.08,2-1.85,4.08-3.68,4.12-2.16,0-3.86-2.2-3.95-4.33C483,289.91,485.09,290.48,486.5,291.06Z"/><path class="cls-8" d="M327.61,291.27c1.72-.76,3.74-1.3,3.74,1.23,0,2.19-1.79,4.46-3.92,4.45-1.82,0-3.54-2.25-3.59-4.25C323.76,289.54,326,290.74,327.61,291.27Z"/><path class="cls-8" d="M553.37,276.49c1.53-.5,3.51-1.44,3.62,1.2.08,2.24-1.78,4.47-3.66,4.55s-3.92-2.32-3.93-4.36C549.39,275.1,551.63,275.86,553.37,276.49Z"/><path class="cls-8" d="M393.85,276.43c1.76-.55,3.9-1.13,3.84,1.38-.06,2.16-1.95,4.42-4,4.43-1.76,0-3.47-2.28-3.57-4.25C389.93,274.74,392.37,276.25,393.85,276.43Z"/><path class="cls-8" d="M371.77,359.71c-.9,1.77-2,4.11-3.89,4.11a4.25,4.25,0,0,1-3.88-4.4c.18-3.9,3.41-.59,5.08-1.63C370.42,357,371.53,358,371.77,359.71Z"/><path class="cls-8" d="M566.55,263.12c1.81-.62,4.05-1.34,3.86,1.61-.12,1.89-1.82,4.19-3.75,4.1a4.36,4.36,0,0,1-3.76-4.52C563,261.66,565,262.49,566.55,263.12Z"/><path class="cls-8" d="M380.5,263.33c1.86-.88,3.72-1.37,3.68,1.3,0,2.08-1.8,4.2-3.57,4.29-2.23.11-4-2.32-3.94-4.39C376.72,261.64,378.93,262.46,380.5,263.33Z"/><path class="cls-8" d="M331.61,374.38c-1.12,1.87-2.14,4.42-4.31,4.23-1.65-.15-3.51-2.28-3.48-4.31.05-4.24,3.51-.77,5.21-1.91C330.46,371.42,331.2,373.06,331.61,374.38Z"/><path class="cls-8" d="M566.77,372.85c1.73-.94,3.63-1.12,3.68,1.22,0,2.18-1.9,4.48-3.8,4.52s-3.8-2.22-3.76-4.45C563,371.06,565.19,372.41,566.77,372.85Z"/><path class="cls-8" d="M367.81,386.13c1.66-.4,3.81-1,3.76,1.45-.05,2.15-1.85,4.39-4,4.37-1.79,0-3.5-2.21-3.6-4.18C363.83,384.6,366.2,385.87,367.81,386.13Z"/><path class="cls-8" d="M553.33,386.12c1.58-.25,3.77-1.28,3.61,1.49-.12,2.14-1.75,4.35-4,4.25-1.87-.08-3.59-2.29-3.63-4.18C549.32,384.75,551.67,385.78,553.33,386.12Z"/><path class="cls-8" d="M371.74,333.07c-1.14,1.72-2.09,4.36-4.38,4a4.47,4.47,0,0,1-3.36-4.46c.33-3.83,3.45-.52,5.14-1.59C370.43,330.23,371.6,331.31,371.74,333.07Z"/><path class="cls-8" d="M397.85,332.93c-1,1.84-2.06,4.28-4.27,4.1-1.73-.14-3.52-2.26-3.48-4.28.07-3.62,3-1.05,4.5-1.63S397.55,330.73,397.85,332.93Z"/><path class="cls-8" d="M341,304.66c1.86-.72,4-1.26,3.8,1.61-.14,1.86-1.88,4.09-3.68,4.16-2.18.08-3.81-2.3-3.92-4.31C337,303.15,339.27,304.06,341,304.66Z"/><path class="cls-8" d="M447.58,331.43c1.74-.68,3.61-1.32,3.57,1.41,0,2.11-1.85,4.23-3.53,4.31-2.14.09-3.95-2.28-3.94-4.39C443.69,329.69,446,331,447.58,331.43Z"/><path class="cls-8" d="M393.68,304.57c1.81-.55,4.12-1.38,4,1.48-.08,2-2,4.34-4,4.31-1.72,0-3.41-2.27-3.55-4.2C389.86,303.16,392,303.88,393.68,304.57Z"/><path class="cls-8" d="M473.52,331.37c1.57-.5,3.66-1.38,3.8,1.18.11,2.25-1.82,4.55-3.8,4.56s-3.79-2.32-3.7-4.57C469.94,329.84,472,331,473.52,331.37Z"/><path class="cls-8" d="M566.69,291.24c1.78-.77,3.81-1.16,3.74,1.32-.06,2.14-1.82,4.46-4,4.38-1.78-.06-3.52-2.25-3.54-4.3C562.86,289.42,565.17,290.89,566.69,291.24Z"/><path class="cls-8" d="M477.5,305.75c-.54,2.25-2,4.5-3.9,4.6s-3.45-2.21-3.83-4.4c-.25-1.39,1-2.53,2-1.85C473.6,305.23,476.51,302.23,477.5,305.75Z"/><path class="cls-8" d="M566.48,318.05c1.71-.75,3.93-1.5,4,1.28,0,2.05-1.86,4.47-3.88,4.4s-3.77-2.3-3.66-4.55C563,316.75,564.78,317,566.48,318.05Z"/><path class="cls-8" d="M331.53,319.52c-.85,1.85-2,4.25-4.08,4.24-1.73,0-3.22-2.2-3.64-4.17-.32-1.49,1-3,2.23-2.11C327.8,318.72,331,315.33,331.53,319.52Z"/><path class="cls-8" d="M579.67,358.11c1.8-.09,4.05-1.3,4.11,1.33.05,2.2-1.8,4.41-3.82,4.39s-3.84-2.24-3.75-4.43C576.31,356.94,578.41,357.69,579.67,358.11Z"/><path class="cls-8" d="M340.61,386.19c1.9-.11,4.38-1.33,4.13,1.75-.16,1.86-1.86,4-3.76,4-2.13-.05-3.81-2.23-3.81-4.39C337.18,384.93,339.32,385.87,340.61,386.19Z"/><path class="cls-8" d="M340.85,358.1c1.62-.08,4.12-1.37,3.89,1.74-.14,1.89-1.86,4.05-3.74,4-2.13,0-3.81-2.23-3.83-4.38C337.15,356.8,339.34,357.9,340.85,358.1Z"/><path class="cls-8" d="M539.48,291.2c1.95-.23,4.37-1.3,4.14,1.71-.14,1.86-1.84,4.06-3.75,4-2.13-.05-3.78-2.24-3.78-4.4C536.1,289.87,538.19,290.79,539.48,291.2Z"/><path class="cls-8" d="M527.43,386.12c1.46-.26,3.63-1.15,3.42,1.56-.16,2.09-1.8,4.32-4,4.18-1.81-.12-3.56-2.24-3.56-4.19C523.31,384.58,525.73,386.05,527.43,386.12Z"/><path class="cls-8" d="M566.51,236.38c1.68-.51,3.94-1.5,3.88,1.51,0,2-1.82,4.15-3.66,4.18-2.17,0-3.77-2.25-3.8-4.42C562.88,234.88,564.92,235.85,566.51,236.38Z"/><path class="cls-8" d="M580,386.18c1.76-.25,4-1.08,3.74,1.58-.19,2.08-1.87,4.33-4,4.17-1.75-.13-3.54-2.22-3.54-4.21C576.2,384.61,578.68,386.22,580,386.18Z"/><path class="cls-8" d="M380.56,291.31c1.47-.43,3.54-1.41,3.61,1.23.05,2.21-1.68,4.38-3.81,4.42-1.93,0-3.55-2.17-3.65-4.1C376.57,289.79,378.78,290.78,380.56,291.31Z"/><path class="cls-8" d="M344.93,278.15c-.95,1.81-2.1,4.3-4.17,4.16-1.9-.13-3.53-2.37-3.66-4.6-.1-1.73,1.46-2.2,2.79-1.46C341.49,277.13,344.4,274.24,344.93,278.15Z"/><path class="cls-8" d="M584,332.9c-1,1.89-2,4.3-4.23,4.16-1.82-.12-3.38-2.19-3.6-4.19-.25-2.18,1.49-2.2,3.05-1.7S583.31,329.6,584,332.9Z"/><path class="cls-8" d="M354.46,291.29c1.55-.62,3.56-1.57,3.6,1.18,0,2.23-1.73,4.39-3.87,4.4-1.94,0-3.64-2.33-3.67-4.18C350.48,289.78,352.65,290.47,354.46,291.29Z"/><path class="cls-8" d="M407.27,291.14c1.69-.3,3.87-1.29,3.69,1.48-.14,2.12-1.75,4.34-4,4.23-1.88-.1-3.58-2.33-3.59-4.21C403.39,289.76,405.7,290.7,407.27,291.14Z"/><path class="cls-8" d="M500.55,386.38c1.68-.65,3.58-1.31,3.48,1.41-.08,2-1.8,4.15-3.56,4.22-2.19.07-4-2.3-4-4.35C496.59,384.74,498.93,385.92,500.55,386.38Z"/><path class="cls-8" d="M380.53,318.17c1.93-1,3.72-1.12,3.66,1.35-.05,2-1.87,4.19-3.6,4.27-2.19.11-3.94-2.37-3.93-4.39C376.68,316.63,378.9,317.26,380.53,318.17Z"/><path class="cls-8" d="M553.47,331.4c1.64-.6,3.58-1.33,3.5,1.4-.07,2-1.81,4.14-3.56,4.22-2.19.1-4-2.27-4-4.31C549.46,329.79,551.82,331,553.47,331.4Z"/><path class="cls-8" d="M527.2,331.32c1.18.1,3.8-1.74,3.67,1.46-.09,2.07-1.79,4.35-4,4.18-1.81-.14-3.53-2.24-3.58-4.22C523.21,330.17,525.27,330.81,527.2,331.32Z"/><path class="cls-8" d="M500.33,358.22c1.52-.32,3.69-1.44,3.72,1.26,0,2.18-1.72,4.36-3.85,4.41-1.95.05-3.59-2.25-3.69-4.1C496.34,356.87,498.53,357.54,500.33,358.22Z"/><path class="cls-3" d="M469.81,259.14c-.07,2.24-1.19,3.28-3.51,2.81a2.56,2.56,0,0,1-1.31-.66c-5.41-5.8-10.79-5.83-16.31-.11a2.71,2.71,0,0,1-3.65.45c-1.32-.91-1.16-2.27-.86-3.61.12-.48.35-.93.5-1.41,2.4-8.09,2.38-8.07-4.25-13.12-1.4-1.06-3.55-1.91-2.87-4.15.74-2.39,3-2.17,5-2.21,8.14-.17,8.15-.19,11.07-8.27.61-1.69.82-3.84,3.3-3.66,2,.14,2.48,1.94,3,3.53a13,13,0,0,1,.77,2.36c.6,4.93,3.31,6.87,8.19,6.08a20.36,20.36,0,0,1,4,0c1.42.05,2.63.54,3,2.06s-.33,2.55-1.51,3.37c-.27.19-.56.36-.82.56-6.95,5.41-6.95,5.41-4.49,14C469.32,257.81,469.57,258.43,469.81,259.14Z"/><path class="cls-3" d="M389.57,158.31a2.81,2.81,0,0,1,2.75,2,38.81,38.81,0,0,1,1.72,5.18c.8,3.77,3,5,6.76,4.86,2.75-.09,6.77-1.63,8,2s-3.14,4.63-5.34,6.18c-3.11,2.2-4.25,4.38-2.52,7.91.64,1.32.85,2.86,1.4,4.24s.88,2.91-.51,4.08-2.78.4-4-.48c-.41-.28-.8-.59-1.21-.88-6.82-4.73-6.82-4.72-13.42,0-1.57,1.12-3.1,3-5.23,1.34-1.82-1.44-.73-3.31-.21-5,2.42-8,2.39-8-4.35-13.14-1.38-1.07-3.52-2-2.73-4.21.72-2.06,2.83-2,4.67-2.08a11.42,11.42,0,0,1,2.48,0c4.84.8,7.38-1.19,8.33-6C386.54,162,386.73,159.17,389.57,158.31Z"/><path class="cls-3" d="M537,192.3c-.29,2.42-1.34,3.7-4,2.68a2.44,2.44,0,0,1-.85-.51c-5.41-5.82-10.8-5.86-16.29-.05a2.59,2.59,0,0,1-3.61.48c-1.48-1.09-1.36-2.51-.77-4a17.61,17.61,0,0,1,.77-2.36c3-5.17,1.19-8.63-3.72-11.27-1.81-1-4.35-2.1-3.56-4.76.87-2.95,3.84-2.43,6-2.12,5.76.85,8.64-1.5,9.59-7.11.33-2,.63-4.8,3.45-4.82s3.19,2.81,3.48,4.77c.87,6.1,4.3,8,10,7.15,2-.28,4.7-.62,5.53,2.09.76,2.44-1.51,3.41-3.09,4.54-7.72,5.55-6.5,4.06-3.92,12.43C536.32,190.36,536.65,191.3,537,192.3Z"/><path class="cls-3" d="M411.13,157.12c5.18-6.94,1-11.47-5.74-15.66-2.46-1.53-1.22-4.66,1.52-4.29,8.45,1.13,12.92-2,14.44-10.45.47-2.58,3.11-2.68,4.8-.11a3.18,3.18,0,0,1,.58,1.37c.74,7.84,5.27,10.29,12.58,9,1.51-.27,3.06.09,3.58,1.92.44,1.56-.58,2.48-1.65,3.32-.52.42-1.05.82-1.58,1.22-6.28,4.66-6.25,4.65-3.88,12.47.55,1.81,1.9,3.87-.3,5.46-2,1.45-3.4-.37-4.83-1.34-6.84-4.63-6.83-4.64-14.33.31-1.21.8-2.32,2.1-4,1.26C410.89,160.9,410.77,159.58,411.13,157.12Z"/><path class="cls-3" d="M411.14,223.91c4.91-6.72,1.51-11.57-5.54-15.27a2.34,2.34,0,0,1-1.22-3,2.72,2.72,0,0,1,2.72-1.79,2.68,2.68,0,0,1,.49,0c7.69,1.39,12.36-1.4,13.32-9.5a2.74,2.74,0,0,1,2.65-2.55c1.89-.14,2.54,1.24,3.06,2.7a13.6,13.6,0,0,1,.73,2.38c.87,5.63,4.08,7.89,9.69,7a8.81,8.81,0,0,1,3.47.08c3,.74,3.27,2.44,1.3,4.65a8.91,8.91,0,0,1-1.16.93c-7,5.61-7,5.61-4.65,13.93.45,1.57,1.33,3.18-.35,4.56-2,1.66-3.36-.07-4.83-1A18.39,18.39,0,0,1,428,225c-2.89-2.7-5.66-3.06-8.63,0a22.93,22.93,0,0,1-4,2.9c-1,.61-2,1.36-3.2.57S410.79,226.25,411.14,223.91Z"/><path class="cls-3" d="M444.06,124.81a1.47,1.47,0,0,1,.11-.48c4.13-7.06,2-12-5-15.54a2.65,2.65,0,0,1-1.59-3.3c.54-1.5,1.9-1.69,3.28-1.68.5,0,1,0,1.5,0,10.35.1,8.28.11,11.25-8.23.6-1.69.78-3.88,3.13-3.94s2.71,2.05,3.3,3.78c3,8.68,1.08,8.48,11.61,8.41,1.6,0,3.58-.45,4.27,1.62.75,2.25-1.11,3.24-2.55,4.33a30.37,30.37,0,0,1-3.23,2.33c-3,1.65-3.53,3.72-2.46,7.05.88,2.74,4.06,6.2,1,8.63-3.3,2.58-5.47-1.71-7.82-3.31-2.88-2-5.21-2.51-7.91.08a29.59,29.59,0,0,1-4.44,3.22c-.95.62-2,1.32-3.21.56S443.86,126.18,444.06,124.81Z"/><path class="cls-3" d="M376,206.75c-.18,1.67-1.83,2.34-3.12,3.34-6.31,4.94-7.38,3.09-4.15,12.46.6,1.74,2.06,3.77-.08,5.5s-3.71-.39-5.2-1.4c-6.75-4.56-6.7-4.58-13.53.08-1.42,1-2.79,2.91-4.79,1.54-2.15-1.47-1.05-3.54-.48-5.44,2.39-7.92,2.37-7.91-4.15-12.83-1.52-1.15-3.89-2.06-2.91-4.58.84-2.18,3.09-1.54,4.85-1.56,9-.08,8.13,1,11-7.93.57-1.78.7-4.26,3.54-4.07,2.42.16,2.51,2.33,3.09,4,2.91,8.25,1.12,8,11,8C374.84,203.85,376,204.54,376,206.75Z"/><path class="cls-8" d="M215.55,437.77c4.57,0,7.45,3.13,7.17,8.83-.22,4.38,1,5.78,5.48,5.52,5.64-.34,8.87,2.64,8.84,7.11s-2.93,7.23-8.93,6.86c-4.68-.29-5.71,1.53-5.35,5.7.29,3.45-.72,6.58-4.22,8.32a6.63,6.63,0,0,1-7.47-.87,8,8,0,0,1-2.84-7.6c.54-4.43-1.06-5.77-5.49-5.54-5.94.31-8.83-2.34-8.78-7,0-4.44,3.3-7.38,8.94-7,4.7.35,5.52-1.47,5.37-5.63C208.06,440.84,211,437.74,215.55,437.77Z"/><path class="cls-8" d="M181.49,447.19c-4.23-.06-7.2-2.84-7-8,.14-4.85-.94-6.84-6.25-6.39-5,.42-8.31-3.1-8.17-7.37s3.11-6.93,8.27-6.59c4.83.31,6.27-1.25,6.14-6.07-.16-5.66,3.11-8.9,7.47-8.71s7.23,3.56,6.91,9.2c-.26,4.41,1,5.81,5.51,5.57,6-.33,8.81,2.26,8.79,7,0,4.51-3.19,7.42-9,7-4.76-.34-5.5,1.54-5.34,5.66C189,444.15,186.11,447.26,181.49,447.19Z"/><path class="cls-8" d="M136.73,491.59c.14,4.24-3.21,7.68-8.22,7.32-5.19-.38-6.94,1.2-6.54,6.49.39,5.12-2.42,7.82-6.85,7.88-4.64.05-7.49-2.71-7.07-8.15.4-5.17-1.32-6.58-6.31-6.22-5.15.37-8.46-2.86-8.38-7.1s3.35-7.33,8.55-6.83c5.46.52,6.4-1.72,6.11-6.46-.3-5,3-8.45,7.14-8.34a7.07,7.07,0,0,1,6.8,8.15c-.59,5.79,1.71,7.05,7,6.63A7,7,0,0,1,136.73,491.59Z"/><path class="cls-8" d="M400.9,102l-2.8-2.65"/><path class="cls-8" d="M321.1,132l-3-2.73"/><path class="cls-8" d="M326,129l-3,3"/><path class="cls-9" d="M315.48,107.86c0,13,.14,26-.1,39-.06,3.48,1,4.46,4.33,4.78,17,1.66,32.78-2.58,47.49-10.5,27.38-14.75,47.9-35.62,56.4-66.47A61.83,61.83,0,0,0,424,42c-4.07-15.35-14-25.55-29.38-29.65a76.39,76.39,0,0,0-44.72,1.67c-17.44,5.86-26.67,18.9-30.79,36.17C314.58,69.22,315.32,88.57,315.48,107.86Z"/></g></g></svg>