<svg xmlns="http://www.w3.org/2000/svg" xmlns:xlink="http://www.w3.org/1999/xlink" viewBox="0 0 102.68 102.68"><defs><style>.cls-1{opacity:0.7;}.cls-2{fill:url(#New_Gradient_Swatch_1);}.cls-3{fill:#fff;}</style><linearGradient id="New_Gradient_Swatch_1" y1="51.34" x2="102.68" y2="51.34" gradientUnits="userSpaceOnUse"><stop offset="0" stop-color="#fdbd5f"/><stop offset="1" stop-color="#ef58a0"/></linearGradient></defs><title>chevron-down-circle</title><g id="Layer_2" data-name="Layer 2"><g id="Layer_1-2" data-name="Layer 1"><g id="Layer_2-2" data-name="Layer 2"><g id="Слой_1" data-name="Слой 1"><g class="cls-1"><path class="cls-2" d="M51.35,102.68a51.34,51.34,0,1,1,51.33-51.35h0A51.48,51.48,0,0,1,51.35,102.68Z"/></g></g></g><path class="cls-3" d="M92,35.14,87.83,31A2.59,2.59,0,0,0,84,31L51.35,63.65,18.68,31a2.61,2.61,0,0,0-3.82,0L10.7,35.14a2.61,2.61,0,0,0,0,3.82L49.43,77.7a2.62,2.62,0,0,0,3.83,0L92,39a2.61,2.61,0,0,0,0-3.82Z"/></g></g></svg>