<svg xmlns="http://www.w3.org/2000/svg" xmlns:xlink="http://www.w3.org/1999/xlink" viewBox="0 0 384 384"><defs><style>.cls-1,.cls-2,.cls-3,.cls-4{fill:none;stroke-miterlimit:10;}.cls-1{stroke-width:0;stroke:url(#New_Gradient_Swatch_3);}.cls-2,.cls-3,.cls-4{stroke-linecap:round;stroke-width:14px;}.cls-2{stroke:url(#New_Gradient_Swatch_3-2);}.cls-3{stroke:url(#New_Gradient_Swatch_3-3);}.cls-4{stroke:url(#New_Gradient_Swatch_3-4);}.cls-5{clip-path:url(#clip-path);}.cls-6{fill:url(#New_Gradient_Swatch_3-5);}</style><linearGradient id="New_Gradient_Swatch_3" x1="12.02" y1="191.25" x2="371.98" y2="191.25" gradientUnits="userSpaceOnUse"><stop offset="0" stop-color="#eb4e8d"/><stop offset="0.35" stop-color="#e94f8f"/><stop offset="0.69" stop-color="#bc66a8"/><stop offset="1" stop-color="#a161a8"/></linearGradient><linearGradient id="New_Gradient_Swatch_3-2" x1="38.35" y1="69.12" x2="178.9" y2="69.12" gradientTransform="matrix(0.59, 0.74, -0.74, 0.66, 172.7, 68.92)" xlink:href="#New_Gradient_Swatch_3"/><linearGradient id="New_Gradient_Swatch_3-3" x1="4.21" y1="49.71" x2="144.76" y2="49.71" gradientTransform="matrix(0.91, 0, 0.09, 0.98, 110.43, 90.05)" xlink:href="#New_Gradient_Swatch_3"/><linearGradient id="New_Gradient_Swatch_3-4" x1="103.2" y1="76.87" x2="277.88" y2="76.87" gradientTransform="matrix(0.85, 0.41, -0.38, 0.91, 58.63, 115.04)" xlink:href="#New_Gradient_Swatch_3"/><clipPath id="clip-path"><circle class="cls-1" cx="192" cy="191.25" r="179.98"/></clipPath><linearGradient id="New_Gradient_Swatch_3-5" x1="0" y1="192" x2="384" y2="192" xlink:href="#New_Gradient_Swatch_3"/></defs><title>Icon-Inequality_3</title><g id="Layer_2" data-name="Layer 2"><g id="Layer_1-2" data-name="Layer 1"><line class="cls-2" x1="127.45" y1="166.17" x2="244.17" y2="223.02"/><line class="cls-3" x1="127.45" y1="166.17" x2="237.58" y2="110.82"/><line class="cls-4" x1="109.72" y1="262.59" x2="272.78" y2="262.59"/></g><g id="Layer_2-2" data-name="Layer 2"><g class="cls-5"><path class="cls-6" d="M182.16,0H200a32.1,32.1,0,0,1,5.53.48c.32.05.64.1,1,.12,30.55,2.27,59.06,11.16,85,27.38,49,30.62,79,74.39,89.57,131.32,1.13,6.14,1.8,12.37,2.61,18.57a32.28,32.28,0,0,1,.29,4.28v18a31.18,31.18,0,0,1-.44,5.46c-.08.4-.14.8-.2,1.21-1.25,8.51-2,17.11-3.8,25.52-15.8,75.81-77.95,135.57-154.5,148.69-6.28,1.08-12.61,1.8-18.92,2.64a32.58,32.58,0,0,1-4.3.29h-17.9a36.42,36.42,0,0,1-5.51-.51,5.73,5.73,0,0,0-.58-.07c-28.06-2-54.56-9.62-78.91-23.64-52.46-30.2-84.67-75.09-96-134.71-1.19-6.25-1.84-12.61-2.67-18.94A34.05,34.05,0,0,1,0,201.85v-18a29.64,29.64,0,0,1,.42-5.24,11.76,11.76,0,0,0,.2-1.45C3.2,144,13.51,113.36,32.2,85.86,63,40.59,105.34,12.76,159.3,2.91c6.14-1.13,12.36-1.8,18.56-2.62A32.58,32.58,0,0,1,182.16,0ZM358.39,188.41C356.9,97.35,280.61,24.16,188.7,25.59,97.41,27,24.17,103.27,25.6,195.39c1.41,91.07,77.78,164.52,169.51,163S359.91,280.71,358.39,188.41Z"/></g><circle class="cls-1" cx="192" cy="191.25" r="179.98"/></g></g></svg>