<svg xmlns="http://www.w3.org/2000/svg" xmlns:xlink="http://www.w3.org/1999/xlink" viewBox="0 0 470.03 423"><defs><style>.cls-1{fill:url(#New_Gradient_Swatch_2);}</style><linearGradient id="New_Gradient_Swatch_2" x1="165" y1="746.53" x2="635.03" y2="746.53" gradientUnits="userSpaceOnUse"><stop offset="0" stop-color="#eb4e8d"/><stop offset="0.35" stop-color="#e94f8f"/><stop offset="0.69" stop-color="#bc66a8"/><stop offset="1" stop-color="#a161a8"/></linearGradient></defs><title>Icon-Flasks_1</title><g id="Layer_2" data-name="Layer 2"><g id="Layer_1-2" data-name="Layer 1"><path class="cls-1" d="M542.53,705.86h0V602.4c11.23-1.12,20-9.71,20-20.12,0-11.17-10.09-20.25-22.5-20.25H440c-12.41,0-22.5,9.08-22.5,20.25,0,10.4,8.77,19,20,20.12V705.86a146,146,0,0,0-58.61,37.83,6.29,6.29,0,0,0,.93,9.51,8,8,0,0,0,4.81,1.58,7.85,7.85,0,0,0,5.75-2.41A131.28,131.28,0,0,1,447.48,717a6.85,6.85,0,0,0,5-6.38v-108H495c4.14,0,7.5-3,7.5-6.75S499.17,589,495,589H440c-4.14,0-7.5-3-7.5-6.75s3.36-6.75,7.5-6.75H540c4.14,0,7.5,3,7.5,6.75S544.17,589,540,589H525c-4.14,0-7.5,3-7.5,6.75s3.36,6.75,7.5,6.75h2.5v108a6.86,6.86,0,0,0,5.05,6.38C584.89,733.24,620,777.68,620,827.53c0,64.51-58.32,117-130,117A141.73,141.73,0,0,1,441.14,936c-3.84-1.4-8.21.26-9.77,3.72s.29,7.39,4.12,8.79A158.4,158.4,0,0,0,490,958c80,0,145-58.54,145-130.5C635,773.55,598.08,725.26,542.53,705.86Zm10.89,145.41c0-3.73-3.35-6.75-7.5-6.75s-7.5,3-7.5,6.75,3.36,6.75,7.5,6.75S553.42,855,553.42,851.27Zm-30,27c0-3.73-3.35-6.75-7.5-6.75s-7.5,3-7.5,6.75,3.36,6.75,7.5,6.75S523.42,882,523.42,878.27Zm-75.75,30.8a7.89,7.89,0,0,0-10,3.25c-1.76,3.38-.14,7.4,3.61,9A124.64,124.64,0,0,0,490,931c63.41,0,115-46.43,115-103.5a95.61,95.61,0,0,0-15.39-51.75,7.79,7.79,0,0,0-7.53-3.31l-2.73.34c-.34.05-.68.11-1,.19A59.74,59.74,0,0,0,556,783.87c-5.44,3.94-9,6.54-19.41,6.54-8.87,0-12.86-3.1-18.4-7.37-6.12-4.74-13.75-10.63-28.16-10.63S468,778.3,461.86,783c-5.53,4.28-9.53,7.37-18.39,7.37-10.37,0-14-2.6-19.41-6.54-4.91-3.55-11-8-22.36-10.87-.34-.08-.68-.14-1-.19l-2.73-.34a7.77,7.77,0,0,0-7.51,3.29c-.07.1-.13.2-.2.32a6.39,6.39,0,0,0,2.76,9.21,8.14,8.14,0,0,0,5,.81l.12,0c8.09,2.14,12.22,5.12,16.59,8.28,6.46,4.67,13.15,9.51,28.8,9.51,14.42,0,22-5.9,28.17-10.63,5.53-4.28,9.53-7.37,18.39-7.37s12.85,3.09,18.39,7.37c6.12,4.73,13.75,10.63,28.17,10.63,15.65,0,22.34-4.84,28.8-9.51,3.86-2.79,7.52-5.44,13.89-7.49A82.76,82.76,0,0,1,590,827.53c0,49.63-44.86,90-100,90A108.27,108.27,0,0,1,447.67,909.07ZM346,709.43v-134c11.23-1.12,20-9.71,20-20.12,0-11.17-10.09-20.25-22.5-20.25h-100c-12.41,0-22.5,9.08-22.5,20.25,0,10.4,8.77,19,20,20.12V683.57c0,3.73,3.36,6.75,7.5,6.75s7.5-3,7.5-6.75v-108h42.5c4.14,0,7.5-3,7.5-6.75s-3.36-6.75-7.5-6.75h-55c-4.14,0-7.5-3-7.5-6.75s3.36-6.75,7.5-6.75h100c4.14,0,7.5,3,7.5,6.75s-3.36,6.75-7.5,6.75h-15c-4.14,0-7.5,3-7.5,6.75s3.36,6.75,7.5,6.75H331v135a6.17,6.17,0,0,0,.41,2.2l72.89,189.68c4.4,11.46,3.41,22.08-2.79,29.92s-17,12.16-30.51,12.16H216c-13.47,0-24.3-4.32-30.5-12.16s-7.2-18.46-2.8-29.92l72.89-189.67c1.35-3.53-.72-7.37-4.64-8.59s-8.18.65-9.54,4.17L168.55,898c-6,15.69-4.34,30.67,4.76,42.16S197.58,958,216,958H371c18.45,0,33.63-6.33,42.72-17.83s10.79-26.47,4.76-42.16ZM229.65,848.93h0a8.18,8.18,0,0,0-6.73-1.14,7.2,7.2,0,0,0-4.95,4.27l-21.06,54.81c-2.78,7.21-2.48,13.49.83,17.67S207.55,931,216,931H371c8.48,0,15-2.3,18.29-6.49s3.61-10.46.83-17.67l-21.06-54.82a7.21,7.21,0,0,0-4.95-4.26,8.14,8.14,0,0,0-6.73,1.14c-4.09,2.85-8,5-17.33,5-8.86,0-12.85-3.09-18.39-7.37-6.12-4.74-13.75-10.63-28.17-10.63s-22,5.89-28.16,10.63c-5.53,4.28-9.53,7.37-18.39,7.37C237.61,854,233.74,851.78,229.65,848.93Zm45.49,7.91c5.53-4.28,9.53-7.37,18.38-7.37s12.86,3.09,18.4,7.37c6.12,4.73,13.75,10.63,28.16,10.63,7.84,0,13.49-1.27,17.89-3l18,46.85a12,12,0,0,1,1,5.36,15.75,15.75,0,0,1-6,.89H216a15.75,15.75,0,0,1-6-.89,12,12,0,0,1,1-5.36l18-46.85c4.4,1.78,10,3,17.88,3C261.39,867.47,269,861.57,275.14,856.84Z" transform="translate(-165 -535.03)"/></g></g></svg>