<svg xmlns="http://www.w3.org/2000/svg" xmlns:xlink="http://www.w3.org/1999/xlink" viewBox="0 0 409.28 252.6"><defs><style>.cls-1{fill:url(#New_Gradient_Swatch_2);}</style><linearGradient id="New_Gradient_Swatch_2" y1="126.3" x2="409.28" y2="126.3" gradientUnits="userSpaceOnUse"><stop offset="0" stop-color="#eb4e8d"/><stop offset="0.35" stop-color="#e94f8f"/><stop offset="0.69" stop-color="#bc66a8"/><stop offset="1" stop-color="#a161a8"/></linearGradient></defs><title>Icon-HandShake</title><g id="Layer_2" data-name="Layer 2"><g id="Layer_1-2" data-name="Layer 1"><path class="cls-1" d="M399,160.94q-20.81,2.76-41.64,5.2c-6.76.8-11.25-2.82-12.14-9.64-1.6-12.28-3.12-24.58-4.64-36.88q-5.44-44.22-10.9-88.44c-1-8.22,2.23-12.77,10.38-13.8,14.14-1.79,28.29-3.54,42.43-5.36,5.05-.65,7.39-3.11,6.87-7S385.66-.43,380.72.19c-12.42,1.55-24.86,3-37.28,4.57-6.2.78-12.51,1.21-17.68,5.42-5.61,4.56-8.26,10.59-8.61,17.57-10.32,2.35-10.33,2.36-19.1-2.58C288.88,20,279.63,15,270.57,9.64,261.09,4.05,251.09,5.24,241,6.9c-3.18.53-4.8,3-4.45,6.16s2.45,5.31,5.93,5.27a53.08,53.08,0,0,0,7.56-.54,24,24,0,0,1,16.11,3.15c10.73,6.19,21.63,12.08,32.32,18.33a14.85,14.85,0,0,0,10.68,1.88c3.07-.56,6.21-.76,9.48-1.13,4.47,36.36,8.88,72.23,13.28,108-9.41,1.86-18.71-1.77-27.55,2.84l-53.74-46.33C265,100,275.3,90.89,284.47,80.32c3.06-3.54,3.42-7.06.84-9.55s-6.3-2-9.72,1.52c-3.89,4-7.66,8.2-11.95,11.75C255.4,90.85,246.05,95,235,94.21c-11.29-.85-20.54-6.09-28.64-13.63-6-5.55-8.45-5.41-13.49,1.1S183,94.93,177.62,101.2c-8.76,10.27-22.31,13.52-34.87,8.84-4.17-1.55-5.06-3.8-2.79-7.73q20.32-35.1,40.74-70.13a17.65,17.65,0,0,1,14.54-9.24c7.7-.65,15.39-1.42,23.08-2.24,4.68-.5,7.27-4.19,5.72-8-1.46-3.61-4.47-4.2-7.92-3.85-7.29.73-14.58,1.5-21.88,2.12-10.15.86-18.12,5.45-23.26,14.2Q149.91,61,129.24,97c-5.76,10-1.38,20.71,9.56,24.33,19.73,6.53,37.74,1.06,50.55-15.37,3.66-4.71,7.29-9.45,11-14.18a7.66,7.66,0,0,1,1.3.62c9.26,7.34,19.46,12.48,31.38,13.84,1.29.14,2.6,1.21,3.67,2.12q15.81,13.52,31.53,27.12,21.36,18.41,42.72,36.8c2.54,2.18,4.61,4.52,3.91,8.18-1.08,5.64-8.48,11.12-14.06,9.92a18.31,18.31,0,0,1-7.29-3.68c-6.42-5.21-12.51-10.8-18.86-16.1-3.21-2.67-6.58-2.39-8.88.34-2.1,2.5-1.75,5.85,1,8.58,1,1,2.18,1.95,3.29,2.91l12.83,11.07c-2.3,2.7-4.31,5.15-6.41,7.52-5.41,6.11-11.09,6.52-17.39,1.2-5.5-4.64-10.91-9.4-16.37-14.09-2.2-1.9-4.53-3.36-7.6-2-4.11,1.87-4.77,6.85-1.12,10.22,4.47,4.12,9.16,8,13.88,12.12-5.26,6.14-9.19,13.3-18.74,12.87-2.92-.13-4.6,2.52-4.59,5.57a5.35,5.35,0,0,0,5,5.76,20.67,20.67,0,0,0,17.39-5.23,97.64,97.64,0,0,0,8.63-9.42c1.37-1.62,2.5-2.14,4.69-1.41,6.22,2.1,12.67,1.93,18-1.88,4.58-3.27,8.21-7.85,12.37-11.74.91-.85,2.55-1.95,3.42-1.66,14.19,4.78,23.63-2.86,29.55-11.41a18.8,18.8,0,0,0-1.76-23.89c-1.6-1.71-3.1-3.51-4.88-5.53,5,0,10-.11,15,.12.83,0,2,1.45,2.34,2.46,4,10.69,13.48,16.38,24.93,14.91,14-1.79,28-3.63,42-5.22,3.39-.38,6.08-1.46,8.1-4.17v-4C406.91,160.44,403.16,160.38,399,160.94ZM195.5,194.86c-2.44-.43-5-.41-7.4-.6-4.31-13.42-11.71-17.79-27.36-16.26-6.66-12.84-12.2-15.51-28-13.47a3.71,3.71,0,0,1-.71-.87c-5.62-13.82-23.26-16.61-32.71-8.13a3.92,3.92,0,0,1-2.49,1c-6.75-.4-13.48-.93-20.71-1.45,4.51-36.56,9-72.7,13.45-109.17,7.92.48,15.47.87,23,1.42,3.49.25,5.84-1,7.39-4.19,2.46-5,5.06-10,7.67-14.92,3.47-6.59,7.63-8.45,14.79-6.61,3.73,1,7.4,2.2,11.16,3,4.14.92,7-.73,7.87-4.13s-.84-6.14-4.92-7.41c-3.81-1.19-7.67-2.21-11.54-3.22-12-3.14-21.92,1.27-27.75,12.29-1.87,3.54-3.56,7.16-5.54,10.63-.55,1-1.83,2.2-2.74,2.17-5.82-.18-11.64-.68-17.66-1.09,1-18.33-5.34-26.21-23-28.64C54.77,3.35,41.14,1.77,27.52.09,23.18-.45,20.19,1.46,19.66,5c-.56,3.79,1.71,6.38,6.39,7,14.4,1.85,28.81,3.62,43.21,5.45A11.74,11.74,0,0,1,79.42,30.57C78.15,40.25,77,49.94,75.75,59.63q-6,48.37-12,96.76c-.88,7.05-5.43,10.54-12.44,9.74-5-.57-10-1.28-15.07-1.91q-14.07-1.75-28.15-3.47c-3.4-.42-6.46,0-7.93,3.71C-2.58,171.5,23.3,174,23.3,174l.74.09s38.06,7.5,47.57-5a5,5,0,0,1,3.48-1.89c4.63.08,9.25.55,14.12.89-.43,1.37-.79,2.49-1.12,3.62-3.08,10.55,2.64,22.07,13,25.51,3.07,1,7.23,0,9.55,1.75s2.57,6,4.37,8.66c4.64,6.95,11.67,9.27,19.8,9,3.25,12.35,11.11,18.48,23.8,17.9.32,1,.58,1.71.81,2.48,2.37,8.13,7.62,13.31,15.92,15.08s15.12-.86,20.33-7.24a191.37,191.37,0,0,0,14.06-18.91C217.51,213.49,210,197.39,195.5,194.86Zm-85-8.81a8.37,8.37,0,0,1-9-2.66c-2.41-2.78-3.07-6.15-1.31-9.23a45.47,45.47,0,0,1,7.16-9.4c2.55-2.57,6-2.51,9.26-.95a7.79,7.79,0,0,1,4.74,6.46C121.44,176.18,115.06,184.87,110.53,186.05Zm27.68,15.58a8.65,8.65,0,0,1-13.8-10.3,122.52,122.52,0,0,1,10.06-13.39c2.49-2.9,6.08-3.25,9.56-1.72s5.15,4.44,5.35,8.83a12.36,12.36,0,0,1-1.29,3.55A161,161,0,0,1,138.21,201.63ZM161.52,220c-1.19,1.46-3.56,2-5.39,2.9-7-.5-11.67-7.34-8.16-13a152.45,152.45,0,0,1,13.66-18.1c2.84-3.35,7.88-3.21,11.25-.58s4.69,7.18,2.33,10.69C171,208.21,166.32,214.18,161.52,220Zm36.69,1.64c-3.43,4.89-7.09,9.63-10.77,14.34-3.82,4.88-9,5.91-13.21,2.77s-4.65-8.55-1.06-13.46c3.77-5.14,7.59-10.26,11.6-15.21,2.85-3.52,6.68-4.47,10.32-3s5.38,4.15,5.63,9.2A27.42,27.42,0,0,1,198.21,221.67Zm172.86-99.21a17.78,17.78,0,0,0-17.76,17.42,17.58,17.58,0,0,0,35.15.38A17.79,17.79,0,0,0,371.07,122.46Zm-.35,23.06a5.47,5.47,0,0,1-5.34-5.71c.31-3.22,2.29-5,5.46-5.24a5.48,5.48,0,1,1-.12,11ZM54.94,140.26a17.67,17.67,0,0,0-17.31-17.81,17.91,17.91,0,0,0-17.81,17.42,17.68,17.68,0,0,0,17.42,17.69A17.43,17.43,0,0,0,54.94,140.26Zm-23-.31a5.49,5.49,0,1,1,5.48,5.57A5.47,5.47,0,0,1,31.92,140Z"/></g></g></svg>