<svg xmlns="http://www.w3.org/2000/svg" xmlns:xlink="http://www.w3.org/1999/xlink" viewBox="0 0 55.17 36.13"><defs><style>.cls-1{fill:#bf3f54;stroke:url(#New_Gradient_Swatch_2);}.cls-1,.cls-3,.cls-5,.cls-6{stroke-miterlimit:10;}.cls-2{fill:url(#New_Gradient_Swatch_2-2);}.cls-3,.cls-5,.cls-6{fill:#fff;}.cls-3{stroke:url(#New_Gradient_Swatch_2-3);}.cls-4{fill:url(#New_Gradient_Swatch_2-4);}.cls-5{stroke:url(#New_Gradient_Swatch_2-5);}.cls-6{stroke:url(#New_Gradient_Swatch_2-6);}.cls-7{fill:url(#New_Gradient_Swatch_2-7);}.cls-8{fill:url(#New_Gradient_Swatch_2-8);}.cls-9{fill:url(#New_Gradient_Swatch_2-9);}.cls-10{fill:url(#New_Gradient_Swatch_2-10);}.cls-11{fill:url(#New_Gradient_Swatch_2-11);}.cls-12{fill:url(#New_Gradient_Swatch_2-12);}.cls-13{fill:url(#New_Gradient_Swatch_2-13);}.cls-14{fill:url(#New_Gradient_Swatch_2-14);}.cls-15{fill:url(#New_Gradient_Swatch_2-15);}.cls-16{fill:url(#New_Gradient_Swatch_2-16);}</style><linearGradient id="New_Gradient_Swatch_2" y1="18.06" x2="55.17" y2="18.06" gradientUnits="userSpaceOnUse"><stop offset="0" stop-color="#eb4e8d"/><stop offset="0.35" stop-color="#e94f8f"/><stop offset="0.69" stop-color="#bc66a8"/><stop offset="1" stop-color="#a161a8"/></linearGradient><linearGradient id="New_Gradient_Swatch_2-2" x1="0.5" y1="20" x2="54.67" y2="20" xlink:href="#New_Gradient_Swatch_2"/><linearGradient id="New_Gradient_Swatch_2-3" x1="1.96" y1="17.03" x2="27.39" y2="17.03" xlink:href="#New_Gradient_Swatch_2"/><linearGradient id="New_Gradient_Swatch_2-4" x1="1.56" y1="17.16" x2="53.61" y2="17.16" xlink:href="#New_Gradient_Swatch_2"/><linearGradient id="New_Gradient_Swatch_2-5" x1="1.95" y1="17.48" x2="27.39" y2="17.48" xlink:href="#New_Gradient_Swatch_2"/><linearGradient id="New_Gradient_Swatch_2-6" x1="27.78" y1="17.56" x2="53.21" y2="17.56" xlink:href="#New_Gradient_Swatch_2"/><linearGradient id="New_Gradient_Swatch_2-7" x1="4.74" y1="7.11" x2="24.6" y2="7.11" xlink:href="#New_Gradient_Swatch_2"/><linearGradient id="New_Gradient_Swatch_2-8" x1="30.57" y1="7.19" x2="50.43" y2="7.19" xlink:href="#New_Gradient_Swatch_2"/><linearGradient id="New_Gradient_Swatch_2-9" x1="4.74" y1="11.91" x2="24.6" y2="11.91" xlink:href="#New_Gradient_Swatch_2"/><linearGradient id="New_Gradient_Swatch_2-10" x1="30.57" y1="12" x2="50.43" y2="12" xlink:href="#New_Gradient_Swatch_2"/><linearGradient id="New_Gradient_Swatch_2-11" x1="4.74" y1="16.72" x2="24.6" y2="16.72" xlink:href="#New_Gradient_Swatch_2"/><linearGradient id="New_Gradient_Swatch_2-12" x1="30.57" y1="16.8" x2="50.43" y2="16.8" xlink:href="#New_Gradient_Swatch_2"/><linearGradient id="New_Gradient_Swatch_2-13" x1="4.74" y1="21.52" x2="24.6" y2="21.52" xlink:href="#New_Gradient_Swatch_2"/><linearGradient id="New_Gradient_Swatch_2-14" x1="30.57" y1="21.61" x2="50.43" y2="21.61" xlink:href="#New_Gradient_Swatch_2"/><linearGradient id="New_Gradient_Swatch_2-15" x1="4.74" y1="26.33" x2="24.6" y2="26.33" xlink:href="#New_Gradient_Swatch_2"/><linearGradient id="New_Gradient_Swatch_2-16" x1="30.57" y1="26.41" x2="50.43" y2="26.41" xlink:href="#New_Gradient_Swatch_2"/></defs><title>Icon-English_1</title><g id="Layer_2" data-name="Layer 2"><g id="Layer_1-2" data-name="Layer 1"><path class="cls-1" d="M53.61,4.37V3.25L53,3A35,35,0,0,0,40.56.58,34.81,34.81,0,0,0,28.06,3l-.43.16-.43-.17A34.74,34.74,0,0,0,14.73.5,35,35,0,0,0,2.24,2.86l-.58.22V4.37H.5V35.63H54.67V4.37Z"/><rect class="cls-2" x="0.5" y="4.37" width="54.17" height="31.26"/><path class="cls-3" d="M26.79,32.44a32.74,32.74,0,0,0-24.33-.07c0-8.56.06-20.11.09-28.67a32.77,32.77,0,0,1,24.34.08C26.86,12.34,26.82,23.88,26.79,32.44Z"/><path class="cls-4" d="M53,3A35,35,0,0,0,40.56.58,34.81,34.81,0,0,0,28.06,3l-.43.16-.43-.17A34.74,34.74,0,0,0,14.73.5,35,35,0,0,0,2.24,2.86l-.58.22-.1,30.58,1.21-.45A33.1,33.1,0,0,1,14.63,31a33.26,33.26,0,0,1,11.84,2.33l.92.35v.11l.16-.06.14.06v-.11l.92-.34A33.08,33.08,0,0,1,40.46,31,33.09,33.09,0,0,1,52.3,33.37l1.21.46.1-30.58Z"/><path class="cls-5" d="M26.79,32.89a32.74,32.74,0,0,0-24.33-.08c0-8.56.06-20.1.09-28.66a32.74,32.74,0,0,1,24.33.08C26.86,12.79,26.82,24.33,26.79,32.89Z"/><path class="cls-6" d="M28.28,32.9A32.77,32.77,0,0,1,52.62,33c0-8.55.06-20.1.09-28.66a32.69,32.69,0,0,0-24.33-.07C28.35,12.79,28.31,24.34,28.28,32.9Z"/><path class="cls-7" d="M24.6,8.8C16.33,6.24,13,6.23,4.74,8.74V7.28C13,4.77,16.33,4.78,24.6,7.34Z"/><path class="cls-8" d="M30.57,8.82c8.28-2.51,11.59-2.5,19.85.07,0-1.84,0,.49,0-1.47-8.27-2.56-11.58-2.57-19.86-.06Z"/><path class="cls-9" d="M24.6,13.61C16.33,11,13,11,4.74,13.54V12.08c8.29-2.51,11.59-2.5,19.86.07Z"/><path class="cls-10" d="M30.57,13.63c8.28-2.52,11.59-2.51,19.85.07,0-1.84,0,.48,0-1.47-8.27-2.56-11.58-2.58-19.86-.06Z"/><path class="cls-11" d="M24.6,18.42C16.33,15.85,13,15.84,4.74,18.35V16.89C13,14.38,16.33,14.39,24.6,17Z"/><path class="cls-12" d="M30.57,18.43c8.28-2.51,11.59-2.5,19.85.07,0-1.84,0,.49,0-1.46-8.27-2.57-11.58-2.58-19.86-.07Z"/><path class="cls-13" d="M24.6,23.22C16.33,20.65,13,20.64,4.74,23.16V21.7c8.29-2.52,11.59-2.51,19.86.06Z"/><path class="cls-14" d="M30.57,23.24c8.28-2.51,11.59-2.5,19.85.07,0-1.84,0,.49,0-1.47-8.27-2.56-11.58-2.57-19.86-.06Z"/><path class="cls-15" d="M24.6,28C16.33,25.46,13,25.45,4.74,28V26.5C13,24,16.33,24,24.6,26.57Z"/><path class="cls-16" d="M30.57,28c8.28-2.51,11.59-2.5,19.85.07,0-1.83,0,.49,0-1.46-8.27-2.57-11.58-2.58-19.86-.07Z"/></g></g></svg>