<svg xmlns="http://www.w3.org/2000/svg" xmlns:xlink="http://www.w3.org/1999/xlink" viewBox="0 0 512 512"><defs><style>.cls-1{fill:url(#New_Gradient_Swatch_2);}.cls-2{fill:url(#New_Gradient_Swatch_2-2);}</style><linearGradient id="New_Gradient_Swatch_2" y1="256" x2="512" y2="256" gradientUnits="userSpaceOnUse"><stop offset="0" stop-color="#eb4e8d"/><stop offset="0.35" stop-color="#e94f8f"/><stop offset="0.69" stop-color="#bc66a8"/><stop offset="1" stop-color="#a161a8"/></linearGradient><linearGradient id="New_Gradient_Swatch_2-2" x1="106.67" y1="234.67" x2="490.67" y2="234.67" xlink:href="#New_Gradient_Swatch_2"/></defs><title>Icon-Stats</title><g id="Layer_2" data-name="Layer 2"><g id="Layer_1-2" data-name="Layer 1"><path class="cls-1" d="M501.33,448H64V10.67a10.67,10.67,0,1,0-21.33,0V448h-32a10.67,10.67,0,1,0,0,21.33h32v32a10.67,10.67,0,1,0,21.33,0v-32H501.33a10.67,10.67,0,1,0,0-21.33Z"/><path class="cls-2" d="M117.33,362.67a10.68,10.68,0,0,0,7.55-3.13L245.33,239.08l56.46,56.46a10.65,10.65,0,0,0,15.08,0L469.33,143.08v38.25a10.67,10.67,0,0,0,21.34,0v-64A10.66,10.66,0,0,0,480,106.67H416A10.67,10.67,0,1,0,416,128h38.25L309.33,272.92l-56.45-56.46a10.66,10.66,0,0,0-15.09,0l-128,128a10.67,10.67,0,0,0,7.54,18.21Z"/></g></g></svg>