<svg xmlns="http://www.w3.org/2000/svg" xmlns:xlink="http://www.w3.org/1999/xlink" viewBox="0 0 63.06 72.84"><defs><style>.cls-1,.cls-10,.cls-2,.cls-3,.cls-4,.cls-5,.cls-6,.cls-7,.cls-8,.cls-9{fill-rule:evenodd;}.cls-1{fill:url(#New_Gradient_Swatch_3);}.cls-2{fill:url(#New_Gradient_Swatch_3-2);}.cls-3{fill:url(#New_Gradient_Swatch_3-3);}.cls-4{fill:url(#New_Gradient_Swatch_3-4);}.cls-5{fill:url(#New_Gradient_Swatch_3-5);}.cls-6{fill:url(#New_Gradient_Swatch_3-6);}.cls-7{fill:url(#New_Gradient_Swatch_3-7);}.cls-8{fill:url(#New_Gradient_Swatch_3-8);}.cls-9{fill:url(#New_Gradient_Swatch_3-9);}.cls-10{fill:url(#New_Gradient_Swatch_3-10);}</style><linearGradient id="New_Gradient_Swatch_3" x1="23.26" y1="35.25" x2="39.54" y2="35.25" gradientUnits="userSpaceOnUse"><stop offset="0" stop-color="#eb4e8d"/><stop offset="0.35" stop-color="#e94f8f"/><stop offset="0.69" stop-color="#bc66a8"/><stop offset="1" stop-color="#a161a8"/></linearGradient><linearGradient id="New_Gradient_Swatch_3-2" x1="0" y1="34.13" x2="62.38" y2="34.13" xlink:href="#New_Gradient_Swatch_3"/><linearGradient id="New_Gradient_Swatch_3-3" x1="0.69" y1="37.4" x2="63.06" y2="37.4" xlink:href="#New_Gradient_Swatch_3"/><linearGradient id="New_Gradient_Swatch_3-4" x1="0.69" y1="34.13" x2="63.06" y2="34.13" xlink:href="#New_Gradient_Swatch_3"/><linearGradient id="New_Gradient_Swatch_3-5" x1="0" y1="37.4" x2="62.38" y2="37.4" xlink:href="#New_Gradient_Swatch_3"/><linearGradient id="New_Gradient_Swatch_3-6" x1="18.73" y1="35.62" x2="31.74" y2="35.62" xlink:href="#New_Gradient_Swatch_3"/><linearGradient id="New_Gradient_Swatch_3-7" x1="31.74" y1="35.62" x2="44.76" y2="35.62" xlink:href="#New_Gradient_Swatch_3"/><linearGradient id="New_Gradient_Swatch_3-8" x1="56.49" y1="27.71" x2="62.76" y2="27.71" xlink:href="#New_Gradient_Swatch_3"/><linearGradient id="New_Gradient_Swatch_3-9" x1="7.78" y1="15.93" x2="14.06" y2="15.93" xlink:href="#New_Gradient_Swatch_3"/><linearGradient id="New_Gradient_Swatch_3-10" x1="28.61" y1="69.7" x2="34.88" y2="69.7" xlink:href="#New_Gradient_Swatch_3"/></defs><title>Icon-Atom_2</title><g id="Layer_2" data-name="Layer 2"><g id="Layer_1-2" data-name="Layer 1"><path class="cls-1" d="M31.4,43.39a8.14,8.14,0,1,0-8.14-8.14A8.16,8.16,0,0,0,31.4,43.39Z"/><path class="cls-2" d="M62.38,18c-3.59-6.22-20.32-3.3-37.35,6.54S-2.91,47.35.69,53.57l1.89-1.1c-3-5.17,7.55-16.85,23.54-26.08s31.37-12.52,34.36-7.34Z"/><path class="cls-3" d="M62.38,18C66,24.18,55.08,37.2,38,47S4.28,59.8.69,53.57l1.89-1.1c3,5.18,18.38,1.89,34.36-7.34S63.47,24.22,60.48,19.05Z"/><path class="cls-4" d="M.69,18C4.28,11.73,21,14.65,38,24.49S66,47.35,62.38,53.57l-1.9-1.1c3-5.17-7.55-16.85-23.54-26.08S5.57,13.87,2.58,19.05Z"/><path class="cls-5" d="M.69,18C-2.91,24.18,8,37.2,25,47S58.79,59.8,62.38,53.57l-1.9-1.1c-3,5.18-18.37,1.89-34.36-7.34S-.41,24.22,2.58,19.05Z"/><path class="cls-6" d="M31.74,71.24c-7.18,0-13-15.95-13-35.62S24.56,0,31.74,0V2.19c-6,0-10.82,15-10.82,33.43s4.85,33.43,10.82,33.43Z"/><path class="cls-7" d="M31.74,71.24c7.19,0,13-15.95,13-35.62S38.93,0,31.74,0V2.19c6,0,10.83,15,10.83,33.43S37.72,69.05,31.74,69.05Z"/><path class="cls-8" d="M59.62,30.85a3.14,3.14,0,1,0-3.13-3.14A3.15,3.15,0,0,0,59.62,30.85Z"/><path class="cls-9" d="M10.92,19.07a3.14,3.14,0,1,0-3.14-3.14A3.15,3.15,0,0,0,10.92,19.07Z"/><path class="cls-10" d="M31.74,72.84a3.14,3.14,0,1,0-3.13-3.14A3.15,3.15,0,0,0,31.74,72.84Z"/></g></g></svg>