<svg xmlns="http://www.w3.org/2000/svg" viewBox="0 0 64 64"><defs><style>.cls-1{fill:#fff;}.cls-2{fill:#ef5186;opacity:0.4;}</style></defs><title>lightning_icon_new</title><g id="Layer_2" data-name="Layer 2"><g id="Layer_1-2" data-name="Layer 1"><g id="LIghting-circle"><path class="cls-1" d="M40.59,29a1,1,0,0,0-.83-.44l-5.78,0L39.09,13a1,1,0,0,0-.14-.9,1,1,0,0,0-.81-.41L26.21,11.6a1,1,0,0,0-1,.91l-2,22.41a1,1,0,0,0,1,1.09h5L28.06,55.72a1,1,0,0,0,.77,1l.23,0a1,1,0,0,0,.92-.62l10.7-26.28A1,1,0,0,0,40.59,29Z"/><path class="cls-1" d="M30.42,49.79l.88-14.72a1,1,0,0,0-1-1.06h-5L27.12,13.6l9.64,0-5.1,15.52a1,1,0,0,0,.94,1.31l5.67,0Z"/><path class="cls-2" d="M32,0A32,32,0,1,0,64,32,32,32,0,0,0,32,0Zm0,62A30,30,0,1,1,62,32,30,30,0,0,1,32,62Z"/><path class="cls-2" d="M32,2A30,30,0,1,0,62,32,30,30,0,0,0,32,2Zm8.68,27.88L30,56.16a1,1,0,0,1-.92.62l-.23,0a1,1,0,0,1-.77-1L29.24,36h-5a1,1,0,0,1-1-1.09l2-22.41a1,1,0,0,1,1-.91l11.93.05a1,1,0,0,1,.81.41,1,1,0,0,1,.14.9L34,28.48l5.78,0a1,1,0,0,1,.83.44A1,1,0,0,1,40.68,29.88Z"/></g></g></g></svg>