<?xml version="1.0" encoding="utf-8"?>
<!-- Generator: Adobe Illustrator 22.0.0, SVG Export Plug-In . SVG Version: 6.00 Build 0)  -->
<svg version="1.1" id="Layer_1" xmlns="http://www.w3.org/2000/svg" xmlns:xlink="http://www.w3.org/1999/xlink" x="0px" y="0px"
	 viewBox="0 0 251.3 154.5" style="enable-background:new 0 0 251.3 154.5;" xml:space="preserve">
<style type="text/css">
	.st0{fill:#F8CC46;}
	.st1{fill:#2980BA;}
</style>
<title>logo-blue</title>
<g id="Layer_2_1_">
	<g id="Layer_1-2">
		<ellipse class="st0" cx="45.5" cy="64.2" rx="17.2" ry="15.8"/>
		<ellipse class="st0" cx="161.5" cy="57.2" rx="17.2" ry="15.8"/>
		<circle class="st0" cx="218.5" cy="22.7" r="17.2"/>
		<circle class="st0" cx="99.5" cy="37.7" r="17.2"/>
		<path class="st1" d="M31.5,51c3.5,3.3,10.9,10.4,17,10.4h19.9c16,0,28.1,3.7,36.4,11.2s12.4,18.9,12.4,34.1
			c0.1,6.2-0.9,12.5-3,18.4c-1.9,5.5-5,10.4-9.1,14.6c-4.3,4.3-9.5,7.6-15.2,9.6c-6.9,2.4-14.2,3.6-21.5,3.5H4.8v-27.4h63.6
			c7.3,0,13-1.9,17-5.6s6-8.7,5.9-14.9c0-6.8-2-11.8-5.9-15.2s-9.6-5.1-17-5.1H48.3c-6.8,0.1-13.6-1-20-3.3
			c-5.6-2-10.8-5.2-15.1-9.3C9.1,68,1.5,56.9,1.5,51H31.5z"/>
		<path class="st1" d="M157.6,97.2h38.5c9.1,0,19-0.9,26.2-3.7s12.9-6.1,18-11c4.8-4.7,9-15.7,9.4-22.5h-31
			c-3.2,6.3-12.9,10.6-22.6,10.6l-36.8-0.1l-0.2-8.9l0-10.6c-9,0-18.4-0.3-27.3-0.3v102.1l27.6,0.2l-0.2-64.8"/>
		<path class="st1" d="M1.6,31.5C1.5,10,19,1.5,40.5,1.5h170c21.5,0,39,8.5,39,30h-30.8c-2.4-8-14.4-6-22.6-6H159v6h-27.3v-6h-69
			c-2.4-0.1-10.4-0.1-14.2,0s-13.2,1-17,6H1.6z"/>
	</g>
</g>
</svg>
