<svg xmlns="http://www.w3.org/2000/svg" xmlns:xlink="http://www.w3.org/1999/xlink" viewBox="0 0 433.07 477.58"><defs><style>.cls-1{opacity:0.29;}.cls-2{fill:url(#New_Gradient_Swatch_1);}.cls-3{fill:url(#New_Gradient_Swatch_1-2);}.cls-4{fill:url(#New_Gradient_Swatch_1-3);}.cls-5{fill:url(#New_Gradient_Swatch_1-4);}.cls-6{fill:url(#New_Gradient_Swatch_1-5);}.cls-7{fill:url(#New_Gradient_Swatch_1-6);}.cls-8{fill:url(#New_Gradient_Swatch_1-7);}.cls-9{fill:url(#New_Gradient_Swatch_1-8);}.cls-10{fill:url(#New_Gradient_Swatch_1-9);}.cls-11{fill:url(#New_Gradient_Swatch_1-10);}.cls-12{fill:url(#New_Gradient_Swatch_1-11);}.cls-13{fill:url(#New_Gradient_Swatch_1-12);}.cls-14{fill:url(#New_Gradient_Swatch_1-13);}.cls-15{fill:url(#New_Gradient_Swatch_1-14);}.cls-16{fill:url(#New_Gradient_Swatch_1-15);}.cls-17{fill:url(#New_Gradient_Swatch_1-16);}.cls-18{fill:url(#New_Gradient_Swatch_1-17);}.cls-19{fill:url(#New_Gradient_Swatch_1-18);}.cls-20{fill:url(#New_Gradient_Swatch_1-19);}.cls-21{fill:url(#New_Gradient_Swatch_1-20);}.cls-22{fill:url(#New_Gradient_Swatch_1-21);}.cls-23{fill:url(#New_Gradient_Swatch_1-22);}.cls-24{fill:url(#New_Gradient_Swatch_1-23);}.cls-25{fill:url(#New_Gradient_Swatch_1-24);}.cls-26{fill:url(#New_Gradient_Swatch_1-25);}.cls-27{fill:url(#New_Gradient_Swatch_1-26);}.cls-28{fill:url(#New_Gradient_Swatch_1-27);}.cls-29{fill:url(#New_Gradient_Swatch_1-28);}.cls-30{fill:url(#New_Gradient_Swatch_1-29);}.cls-31{fill:url(#New_Gradient_Swatch_1-30);}.cls-32{fill:url(#New_Gradient_Swatch_1-31);}.cls-33{fill:url(#New_Gradient_Swatch_2);}.cls-34{fill:url(#New_Gradient_Swatch_1-32);}.cls-35{fill:url(#New_Gradient_Swatch_1-33);}.cls-36{fill:url(#New_Gradient_Swatch_1-34);}.cls-37{fill:url(#New_Gradient_Swatch_1-35);}.cls-38{fill:url(#New_Gradient_Swatch_1-36);}.cls-39{fill:url(#New_Gradient_Swatch_1-37);}.cls-40{fill:url(#New_Gradient_Swatch_1-38);}.cls-41{fill:url(#New_Gradient_Swatch_1-39);}.cls-42{fill:url(#New_Gradient_Swatch_1-40);}.cls-43{fill:url(#New_Gradient_Swatch_1-41);}.cls-44{fill:url(#New_Gradient_Swatch_1-42);}.cls-45{fill:url(#New_Gradient_Swatch_1-43);}.cls-46{fill:url(#New_Gradient_Swatch_1-44);}.cls-47{fill:url(#New_Gradient_Swatch_1-45);}.cls-48{fill:url(#New_Gradient_Swatch_1-46);}.cls-49{fill:url(#New_Gradient_Swatch_1-47);}.cls-50{fill:url(#New_Gradient_Swatch_1-48);}.cls-51{fill:url(#New_Gradient_Swatch_1-49);}.cls-52{fill:url(#New_Gradient_Swatch_1-50);}.cls-53{fill:url(#New_Gradient_Swatch_1-51);}.cls-54{fill:url(#New_Gradient_Swatch_1-52);}.cls-55{fill:url(#New_Gradient_Swatch_1-53);}.cls-56{fill:url(#New_Gradient_Swatch_1-54);}.cls-57{fill:url(#New_Gradient_Swatch_1-55);}.cls-58{fill:url(#New_Gradient_Swatch_1-56);}.cls-59{fill:url(#New_Gradient_Swatch_1-57);}.cls-60{fill:url(#New_Gradient_Swatch_1-58);}.cls-61{fill:url(#New_Gradient_Swatch_1-59);}.cls-62{fill:url(#New_Gradient_Swatch_1-60);}.cls-63{fill:url(#New_Gradient_Swatch_1-61);}.cls-64{fill:url(#New_Gradient_Swatch_1-62);}.cls-65{fill:url(#New_Gradient_Swatch_1-63);}.cls-66{fill:url(#New_Gradient_Swatch_1-64);}.cls-67{fill:url(#New_Gradient_Swatch_1-65);}.cls-68{fill:url(#New_Gradient_Swatch_1-66);}.cls-69{fill:url(#New_Gradient_Swatch_1-67);}.cls-70{fill:url(#New_Gradient_Swatch_1-68);}.cls-71{fill:url(#New_Gradient_Swatch_1-69);}.cls-72{fill:url(#New_Gradient_Swatch_1-70);}.cls-73{fill:url(#New_Gradient_Swatch_1-71);}.cls-74{fill:url(#New_Gradient_Swatch_1-72);}.cls-75{fill:url(#New_Gradient_Swatch_1-73);}.cls-76{fill:url(#New_Gradient_Swatch_1-74);}.cls-77{fill:url(#New_Gradient_Swatch_1-75);}.cls-78{fill:url(#New_Gradient_Swatch_1-76);}.cls-79{fill:url(#New_Gradient_Swatch_1-77);}.cls-80{fill:url(#New_Gradient_Swatch_1-78);}.cls-81{fill:url(#New_Gradient_Swatch_1-79);}.cls-82{fill:url(#New_Gradient_Swatch_1-80);}.cls-83,.cls-84,.cls-85,.cls-86,.cls-87,.cls-88{opacity:0.53;}.cls-83{fill:url(#New_Gradient_Swatch_1-81);}.cls-84{fill:url(#New_Gradient_Swatch_1-82);}.cls-85{fill:url(#New_Gradient_Swatch_1-83);}.cls-86{fill:url(#New_Gradient_Swatch_1-84);}.cls-87{fill:url(#New_Gradient_Swatch_1-85);}.cls-88{fill:url(#New_Gradient_Swatch_1-86);}</style><linearGradient id="New_Gradient_Swatch_1" x1="309.37" y1="107.26" x2="312.22" y2="107.26" gradientTransform="matrix(-1, 0, 0, 1, 433.07, 0)" gradientUnits="userSpaceOnUse"><stop offset="0.13" stop-color="#4fa3eb"/><stop offset="0.52" stop-color="#9c6bdf"/><stop offset="0.73" stop-color="#9866df"/><stop offset="1" stop-color="#7336df"/></linearGradient><linearGradient id="New_Gradient_Swatch_1-2" x1="0" y1="463.33" x2="151.06" y2="463.33" xlink:href="#New_Gradient_Swatch_1"/><linearGradient id="New_Gradient_Swatch_1-3" x1="4.42" y1="434.06" x2="318.13" y2="434.06" xlink:href="#New_Gradient_Swatch_1"/><linearGradient id="New_Gradient_Swatch_1-4" x1="5.34" y1="427.86" x2="95.83" y2="427.86" xlink:href="#New_Gradient_Swatch_1"/><linearGradient id="New_Gradient_Swatch_1-5" x1="5.03" y1="435.58" x2="259.29" y2="435.58" xlink:href="#New_Gradient_Swatch_1"/><linearGradient id="New_Gradient_Swatch_1-6" x1="5.34" y1="407.38" x2="177.28" y2="407.38" xlink:href="#New_Gradient_Swatch_1"/><linearGradient id="New_Gradient_Swatch_1-7" x1="5.03" y1="386.65" x2="169.36" y2="386.65" xlink:href="#New_Gradient_Swatch_1"/><linearGradient id="New_Gradient_Swatch_1-8" x1="5.64" y1="345.19" x2="396.3" y2="345.19" xlink:href="#New_Gradient_Swatch_1"/><linearGradient id="New_Gradient_Swatch_1-9" x1="4.95" y1="320.88" x2="430.71" y2="320.88" xlink:href="#New_Gradient_Swatch_1"/><linearGradient id="New_Gradient_Swatch_1-10" x1="5.42" y1="337.18" x2="276.3" y2="337.18" xlink:href="#New_Gradient_Swatch_1"/><linearGradient id="New_Gradient_Swatch_1-11" x1="5.64" y1="373.1" x2="327.01" y2="373.1" xlink:href="#New_Gradient_Swatch_1"/><linearGradient id="New_Gradient_Swatch_1-12" x1="3.47" y1="338.3" x2="337.42" y2="338.3" xlink:href="#New_Gradient_Swatch_1"/><linearGradient id="New_Gradient_Swatch_1-13" x1="4.29" y1="318.58" x2="134.16" y2="318.58" xlink:href="#New_Gradient_Swatch_1"/><linearGradient id="New_Gradient_Swatch_1-14" x1="2.63" y1="270.16" x2="342.42" y2="270.16" xlink:href="#New_Gradient_Swatch_1"/><linearGradient id="New_Gradient_Swatch_1-15" x1="2.63" y1="283.2" x2="335.12" y2="283.2" xlink:href="#New_Gradient_Swatch_1"/><linearGradient id="New_Gradient_Swatch_1-16" x1="2.17" y1="312.07" x2="259.65" y2="312.07" xlink:href="#New_Gradient_Swatch_1"/><linearGradient id="New_Gradient_Swatch_1-17" x1="3.67" y1="285.63" x2="352.66" y2="285.63" xlink:href="#New_Gradient_Swatch_1"/><linearGradient id="New_Gradient_Swatch_1-18" x1="3.67" y1="241.29" x2="138.62" y2="241.29" xlink:href="#New_Gradient_Swatch_1"/><linearGradient id="New_Gradient_Swatch_1-19" x1="82.97" y1="367.19" x2="257.91" y2="367.19" xlink:href="#New_Gradient_Swatch_1"/><linearGradient id="New_Gradient_Swatch_1-20" x1="23.15" y1="279.37" x2="225.91" y2="279.37" xlink:href="#New_Gradient_Swatch_1"/><linearGradient id="New_Gradient_Swatch_1-21" x1="150.76" y1="449.69" x2="153.61" y2="449.69" xlink:href="#New_Gradient_Swatch_1"/><linearGradient id="New_Gradient_Swatch_1-22" x1="176.51" y1="412.39" x2="179.36" y2="412.39" xlink:href="#New_Gradient_Swatch_1"/><linearGradient id="New_Gradient_Swatch_1-23" x1="257.02" y1="414.5" x2="259.87" y2="414.5" xlink:href="#New_Gradient_Swatch_1"/><linearGradient id="New_Gradient_Swatch_1-24" x1="326.58" y1="359.34" x2="329.43" y2="359.34" xlink:href="#New_Gradient_Swatch_1"/><linearGradient id="New_Gradient_Swatch_1-25" x1="258.72" y1="442.16" x2="261.57" y2="442.16" xlink:href="#New_Gradient_Swatch_1"/><linearGradient id="New_Gradient_Swatch_1-26" x1="317.99" y1="413.19" x2="320.84" y2="413.19" xlink:href="#New_Gradient_Swatch_1"/><linearGradient id="New_Gradient_Swatch_1-27" x1="336.76" y1="329.42" x2="339.61" y2="329.42" xlink:href="#New_Gradient_Swatch_1"/><linearGradient id="New_Gradient_Swatch_1-28" x1="395.54" y1="282.05" x2="400.34" y2="282.05" xlink:href="#New_Gradient_Swatch_1"/><linearGradient id="New_Gradient_Swatch_1-29" x1="225.21" y1="251.41" x2="230" y2="251.41" xlink:href="#New_Gradient_Swatch_1"/><linearGradient id="New_Gradient_Swatch_1-30" x1="275.15" y1="308.9" x2="279.95" y2="308.9" xlink:href="#New_Gradient_Swatch_1"/><linearGradient id="New_Gradient_Swatch_1-31" x1="334.64" y1="297.51" x2="337.49" y2="297.51" xlink:href="#New_Gradient_Swatch_1"/><linearGradient id="New_Gradient_Swatch_2" x1="430.22" y1="246.92" x2="433.07" y2="246.92" gradientTransform="matrix(-1, 0, 0, 1, 433.07, 0)" gradientUnits="userSpaceOnUse"><stop offset="0" stop-color="#209cff"/><stop offset="1" stop-color="#68e0cf"/></linearGradient><linearGradient id="New_Gradient_Swatch_1-32" x1="351.31" y1="308.69" x2="354.16" y2="308.69" xlink:href="#New_Gradient_Swatch_1"/><linearGradient id="New_Gradient_Swatch_1-33" x1="341.99" y1="265.54" x2="344.84" y2="265.54" xlink:href="#New_Gradient_Swatch_1"/><linearGradient id="New_Gradient_Swatch_1-34" x1="259.35" y1="337.98" x2="262.2" y2="337.98" xlink:href="#New_Gradient_Swatch_1"/><linearGradient id="New_Gradient_Swatch_1-35" x1="169.14" y1="371.96" x2="171.99" y2="371.96" xlink:href="#New_Gradient_Swatch_1"/><linearGradient id="New_Gradient_Swatch_1-36" x1="80.24" y1="320.03" x2="83.09" y2="320.03" xlink:href="#New_Gradient_Swatch_1"/><linearGradient id="New_Gradient_Swatch_1-37" x1="20.75" y1="307.35" x2="23.6" y2="307.35" xlink:href="#New_Gradient_Swatch_1"/><linearGradient id="New_Gradient_Swatch_1-38" x1="133.88" y1="306.26" x2="136.73" y2="306.26" xlink:href="#New_Gradient_Swatch_1"/><linearGradient id="New_Gradient_Swatch_1-39" x1="138.36" y1="236.83" x2="141.21" y2="236.83" xlink:href="#New_Gradient_Swatch_1"/><linearGradient id="New_Gradient_Swatch_1-40" x1="94.5" y1="417.65" x2="97.35" y2="417.65" xlink:href="#New_Gradient_Swatch_1"/><linearGradient id="New_Gradient_Swatch_1-41" x1="0" y1="14.26" x2="151.06" y2="14.26" xlink:href="#New_Gradient_Swatch_1"/><linearGradient id="New_Gradient_Swatch_1-42" x1="4.42" y1="43.53" x2="318.13" y2="43.53" xlink:href="#New_Gradient_Swatch_1"/><linearGradient id="New_Gradient_Swatch_1-43" x1="5.34" y1="49.72" x2="95.83" y2="49.72" xlink:href="#New_Gradient_Swatch_1"/><linearGradient id="New_Gradient_Swatch_1-44" x1="5.03" y1="42" x2="259.29" y2="42" xlink:href="#New_Gradient_Swatch_1"/><linearGradient id="New_Gradient_Swatch_1-45" x1="5.34" y1="70.2" x2="177.28" y2="70.2" xlink:href="#New_Gradient_Swatch_1"/><linearGradient id="New_Gradient_Swatch_1-46" x1="5.03" y1="90.93" x2="169.36" y2="90.93" xlink:href="#New_Gradient_Swatch_1"/><linearGradient id="New_Gradient_Swatch_1-47" x1="5.64" y1="132.4" x2="348.92" y2="132.4" xlink:href="#New_Gradient_Swatch_1"/><linearGradient id="New_Gradient_Swatch_1-48" x1="4.95" y1="156.71" x2="364.89" y2="156.71" xlink:href="#New_Gradient_Swatch_1"/><linearGradient id="New_Gradient_Swatch_1-49" x1="5.42" y1="140.4" x2="276.3" y2="140.4" xlink:href="#New_Gradient_Swatch_1"/><linearGradient id="New_Gradient_Swatch_1-50" x1="5.64" y1="104.49" x2="327.01" y2="104.49" xlink:href="#New_Gradient_Swatch_1"/><linearGradient id="New_Gradient_Swatch_1-51" x1="3.47" y1="139.28" x2="337.42" y2="139.28" xlink:href="#New_Gradient_Swatch_1"/><linearGradient id="New_Gradient_Swatch_1-52" x1="4.29" y1="159.01" x2="134.16" y2="159.01" xlink:href="#New_Gradient_Swatch_1"/><linearGradient id="New_Gradient_Swatch_1-53" x1="2.63" y1="207.43" x2="342.42" y2="207.43" xlink:href="#New_Gradient_Swatch_1"/><linearGradient id="New_Gradient_Swatch_1-54" x1="2.63" y1="194.39" x2="377.69" y2="194.39" xlink:href="#New_Gradient_Swatch_1"/><linearGradient id="New_Gradient_Swatch_1-55" x1="2.17" y1="165.52" x2="259.65" y2="165.52" xlink:href="#New_Gradient_Swatch_1"/><linearGradient id="New_Gradient_Swatch_1-56" x1="3.67" y1="191.95" x2="352.66" y2="191.95" xlink:href="#New_Gradient_Swatch_1"/><linearGradient id="New_Gradient_Swatch_1-57" x1="3.67" y1="236.29" x2="138.62" y2="236.29" xlink:href="#New_Gradient_Swatch_1"/><linearGradient id="New_Gradient_Swatch_1-58" x1="82.97" y1="110.4" x2="257.91" y2="110.4" xlink:href="#New_Gradient_Swatch_1"/><linearGradient id="New_Gradient_Swatch_1-59" x1="23.15" y1="198.21" x2="225.91" y2="198.21" xlink:href="#New_Gradient_Swatch_1"/><linearGradient id="New_Gradient_Swatch_1-60" x1="150.76" y1="27.89" x2="153.61" y2="27.89" xlink:href="#New_Gradient_Swatch_1"/><linearGradient id="New_Gradient_Swatch_1-61" x1="176.51" y1="65.19" x2="179.36" y2="65.19" xlink:href="#New_Gradient_Swatch_1"/><linearGradient id="New_Gradient_Swatch_1-62" x1="257.02" y1="63.09" x2="259.87" y2="63.09" xlink:href="#New_Gradient_Swatch_1"/><linearGradient id="New_Gradient_Swatch_1-63" x1="326.58" y1="118.24" x2="329.43" y2="118.24" xlink:href="#New_Gradient_Swatch_1"/><linearGradient id="New_Gradient_Swatch_1-64" x1="258.72" y1="35.43" x2="261.57" y2="35.43" xlink:href="#New_Gradient_Swatch_1"/><linearGradient id="New_Gradient_Swatch_1-65" x1="317.99" y1="64.4" x2="320.84" y2="64.4" xlink:href="#New_Gradient_Swatch_1"/><linearGradient id="New_Gradient_Swatch_1-66" x1="336.76" y1="148.17" x2="339.61" y2="148.17" xlink:href="#New_Gradient_Swatch_1"/><linearGradient id="New_Gradient_Swatch_1-67" x1="348.17" y1="195.54" x2="352.97" y2="195.54" xlink:href="#New_Gradient_Swatch_1"/><linearGradient id="New_Gradient_Swatch_1-68" x1="225.21" y1="226.18" x2="230" y2="226.18" xlink:href="#New_Gradient_Swatch_1"/><linearGradient id="New_Gradient_Swatch_1-69" x1="275.15" y1="168.68" x2="279.95" y2="168.68" xlink:href="#New_Gradient_Swatch_1"/><linearGradient id="New_Gradient_Swatch_1-70" x1="377.22" y1="180.07" x2="380.07" y2="180.07" xlink:href="#New_Gradient_Swatch_1"/><linearGradient id="New_Gradient_Swatch_1-71" x1="364.4" y1="230.66" x2="367.25" y2="230.66" xlink:href="#New_Gradient_Swatch_1"/><linearGradient id="New_Gradient_Swatch_1-72" x1="351.31" y1="168.9" x2="354.16" y2="168.9" xlink:href="#New_Gradient_Swatch_1"/><linearGradient id="New_Gradient_Swatch_1-73" x1="341.99" y1="212.04" x2="344.84" y2="212.04" xlink:href="#New_Gradient_Swatch_1"/><linearGradient id="New_Gradient_Swatch_1-74" x1="259.35" y1="139.61" x2="262.2" y2="139.61" xlink:href="#New_Gradient_Swatch_1"/><linearGradient id="New_Gradient_Swatch_1-75" x1="169.14" y1="105.62" x2="171.99" y2="105.62" xlink:href="#New_Gradient_Swatch_1"/><linearGradient id="New_Gradient_Swatch_1-76" x1="80.24" y1="157.56" x2="83.09" y2="157.56" xlink:href="#New_Gradient_Swatch_1"/><linearGradient id="New_Gradient_Swatch_1-77" x1="20.75" y1="170.24" x2="23.6" y2="170.24" xlink:href="#New_Gradient_Swatch_1"/><linearGradient id="New_Gradient_Swatch_1-78" x1="133.88" y1="171.32" x2="136.73" y2="171.32" xlink:href="#New_Gradient_Swatch_1"/><linearGradient id="New_Gradient_Swatch_1-79" x1="138.36" y1="240.75" x2="141.21" y2="240.75" xlink:href="#New_Gradient_Swatch_1"/><linearGradient id="New_Gradient_Swatch_1-80" x1="94.5" y1="59.93" x2="97.35" y2="59.93" xlink:href="#New_Gradient_Swatch_1"/><linearGradient id="New_Gradient_Swatch_1-81" x1="311.85" y1="413.19" x2="326.98" y2="413.19" xlink:href="#New_Gradient_Swatch_1"/><linearGradient id="New_Gradient_Swatch_1-82" x1="163.13" y1="371.7" x2="178.26" y2="371.7" xlink:href="#New_Gradient_Swatch_1"/><linearGradient id="New_Gradient_Swatch_1-83" x1="270.09" y1="308.86" x2="285.21" y2="308.86" xlink:href="#New_Gradient_Swatch_1"/><linearGradient id="New_Gradient_Swatch_1-84" x1="220.14" y1="226.46" x2="235.27" y2="226.46" xlink:href="#New_Gradient_Swatch_1"/><linearGradient id="New_Gradient_Swatch_1-85" x1="252.59" y1="35.13" x2="267.72" y2="35.13" xlink:href="#New_Gradient_Swatch_1"/><linearGradient id="New_Gradient_Swatch_1-86" x1="342.88" y1="195.31" x2="358.01" y2="195.31" xlink:href="#New_Gradient_Swatch_1"/></defs><title>nodes_1</title><g id="Layer_2" data-name="Layer 2"><g id="BACKGROUND_2" data-name="BACKGROUND 2"><g class="cls-1"><circle class="cls-2" cx="122.27" cy="107.26" r="1.43"/></g><polygon class="cls-3" points="304.88 449.06 282 449.06 282 450.45 304.25 450.45 321.32 469.96 362.85 469.96 371.99 477.58 406.35 477.58 406.54 477.41 433.07 453.94 432.15 452.9 405.82 476.2 372.5 476.2 363.35 468.58 321.95 468.58 304.88 449.06"/><path class="cls-4" d="M225.68,404.16h-59l-.05,0L157.55,413H114.94v.35h42.75l.05-.05,9.09-8.79h58.7l35.37,35.67h55.18c9,9,22.51,22.73,22.79,23.6a.12.12,0,0,1,0-.11l.12.08V464h65.94l.05-.06,11.53-11.83h12.12v-.35H416.38l-.05,0-11.54,11.84H339.15c-.3-.56-2.1-2.66-11.34-12.08-5.69-5.8-11.48-11.59-11.54-11.65l0-.05H261Z"/><polygon class="cls-5" points="337.74 418.12 337.24 418.6 355.02 437.61 427.73 437.61 427.73 436.91 355.32 436.91 337.74 418.12"/><polygon class="cls-6" points="428.03 421.93 389.04 421.93 361.6 447.85 335.64 447.85 310.65 422.54 220.43 422.54 202.44 441.44 173.78 441.44 173.78 442.83 203.03 442.83 221.02 423.93 310.07 423.93 335.06 449.23 362.15 449.23 389.59 423.32 428.03 423.32 428.03 421.93"/><polygon class="cls-7" points="382.15 398.5 342.22 398.5 342.11 398.61 329.41 412.22 255.78 412.22 255.78 412.91 329.71 412.91 329.82 412.8 342.52 399.19 381.85 399.19 398.31 416.27 427.73 416.27 427.73 415.57 398.61 415.57 382.15 398.5"/><polygon class="cls-8" points="318.42 371.67 263.71 371.67 263.71 372.36 318.15 372.36 335.22 387.91 393.44 387.91 406.55 401.63 428.03 401.63 428.03 400.94 406.84 400.94 393.73 387.22 335.49 387.22 318.42 371.67"/><polygon class="cls-9" points="104.58 280.69 36.77 280.69 36.77 283.47 103.34 283.47 115.69 297.25 115.69 338.47 138.47 359.99 216.5 359.99 267.72 409.68 292.91 409.68 318.21 386.51 427.43 386.51 427.43 383.74 317.13 383.74 291.83 406.91 268.85 406.91 217.63 357.22 139.57 357.22 118.46 337.27 118.46 296.19 104.58 280.69"/><polygon class="cls-10" points="100.9 246.55 2.35 246.55 2.35 247.25 100.63 247.25 123.2 268.68 123.2 374.52 143.88 395.2 194.07 395.2 194.17 395.1 234.73 354.25 323.56 354.25 344.04 375.31 428.12 375.31 428.12 374.61 344.33 374.61 323.86 353.56 234.44 353.56 234.34 353.66 193.78 394.51 144.17 394.51 123.89 374.24 123.89 268.38 123.79 268.28 100.9 246.55"/><polygon class="cls-11" points="230.51 307.44 156.76 307.44 156.76 310.21 229.36 310.21 254.71 335.79 349.9 335.79 380.81 366.92 427.65 366.92 427.65 364.15 381.97 364.15 351.05 333.01 255.87 333.01 230.51 307.44"/><polygon class="cls-12" points="356.24 345.72 333.06 345.72 332.86 345.92 280.35 399.09 245.34 399.09 220.44 374.19 137.71 374.19 122.59 358.62 106.06 358.62 106.06 360 122 360 137.12 375.57 219.86 375.57 244.77 400.48 280.93 400.48 281.14 400.27 333.64 347.11 355.69 347.11 367.39 358 427.43 358 427.43 356.62 367.94 356.62 356.24 345.72"/><polygon class="cls-13" points="357.65 325.63 224.43 325.63 200.48 349.59 163.15 349.59 142.05 328.85 95.64 328.85 95.64 330.24 141.48 330.24 162.58 350.97 201.05 350.97 225.01 327.02 357.09 327.02 374.25 343.82 429.6 343.82 429.6 342.44 374.82 342.44 357.65 325.63"/><polygon class="cls-14" points="359.72 305.82 298.91 305.82 298.91 306.52 359.42 306.52 383.13 331.33 428.77 331.33 428.77 330.64 383.43 330.64 359.72 305.82"/><polygon class="cls-15" points="290.27 245.29 172.65 245.29 172.6 245.34 152.83 265.46 90.65 265.46 90.65 265.81 152.97 265.81 153.03 265.76 172.8 245.64 290.13 245.64 305.86 261.64 372.28 261.64 401.84 295.02 430.44 295.02 430.44 294.68 402 294.68 372.43 261.29 306 261.29 290.27 245.29"/><polygon class="cls-16" points="430.44 265.29 403.51 265.29 368.73 300.42 268.86 300.42 239.65 269.46 178.15 269.46 150.32 297.29 97.95 297.29 97.95 297.98 150.61 297.98 178.43 270.16 239.35 270.16 268.56 301.11 369.02 301.11 403.8 265.98 430.44 265.98 430.44 265.29"/><polygon class="cls-17" points="409.98 285.98 303.42 285.98 303.37 286.03 272.12 316.59 214.03 316.59 213.98 316.64 194.91 337.8 173.42 337.8 173.42 338.15 195.06 338.15 195.11 338.09 214.19 316.93 272.26 316.93 272.31 316.88 303.56 286.33 409.85 286.33 430.67 305.06 430.9 304.81 409.98 285.98"/><polygon class="cls-18" points="386.5 247.9 299.34 247.9 291 257.99 243.74 257.99 243.54 258.19 178.7 321.98 93.73 321.98 81.41 308.98 80.41 309.93 93.13 323.37 179.27 323.37 179.47 323.17 244.31 259.37 291.65 259.37 299.99 249.29 386.04 249.29 395.43 256.24 429.39 256.24 429.39 254.86 395.89 254.86 386.5 247.9"/><polygon class="cls-19" points="329.35 236.42 294.45 236.42 294.45 237.12 329.11 237.12 340.24 246.16 429.39 246.16 429.39 245.47 340.48 245.47 329.35 236.42"/><polygon class="cls-20" points="350.1 319.72 326.72 319.72 326.67 319.77 303.42 344.76 268.3 344.76 268.24 344.81 199.09 414.31 175.16 414.31 175.16 414.66 199.23 414.66 199.28 414.61 268.44 345.11 303.57 345.11 303.62 345.05 326.87 320.06 350.1 320.06 350.1 319.72"/><polygon class="cls-21" points="228.6 249.99 207.16 249.99 207.16 252.76 227.44 252.76 248.66 274.33 289.32 274.33 308.8 295.54 381.52 295.54 394.74 308.76 409.92 308.76 409.92 305.98 395.88 305.98 382.67 292.77 310.02 292.77 290.54 271.55 249.82 271.55 228.6 249.99"/><circle class="cls-22" cx="280.88" cy="449.69" r="1.43"/><path class="cls-23" d="M256.56,412.39a1.43,1.43,0,1,0-1.43,1.43A1.43,1.43,0,0,0,256.56,412.39Z"/><circle class="cls-24" cx="174.62" cy="414.5" r="1.43"/><path class="cls-25" d="M106.48,359.34a1.43,1.43,0,0,0-2.85,0,1.43,1.43,0,1,0,2.85,0Z"/><path class="cls-26" d="M174.35,442.16a1.43,1.43,0,1,0-1.42,1.42A1.43,1.43,0,0,0,174.35,442.16Z"/><circle class="cls-27" cx="113.65" cy="413.19" r="1.43"/><circle class="cls-28" cx="94.88" cy="329.42" r="1.43"/><path class="cls-29" d="M37.52,282.05a2.4,2.4,0,1,0-2.39,2.4A2.39,2.39,0,0,0,37.52,282.05Z"/><path class="cls-30" d="M207.86,251.41a2.4,2.4,0,1,0-2.4,2.39A2.39,2.39,0,0,0,207.86,251.41Z"/><path class="cls-31" d="M157.91,308.9a2.4,2.4,0,1,0-2.39,2.4A2.4,2.4,0,0,0,157.91,308.9Z"/><circle class="cls-32" cx="97" cy="297.51" r="1.43"/><path class="cls-33" d="M2.85,246.92a1.43,1.43,0,1,0-1.42,1.43A1.43,1.43,0,0,0,2.85,246.92Z"/><circle class="cls-34" cx="80.33" cy="308.69" r="1.43"/><path class="cls-35" d="M91.08,265.54A1.43,1.43,0,1,0,89.65,267,1.43,1.43,0,0,0,91.08,265.54Z"/><circle class="cls-36" cx="172.29" cy="337.98" r="1.43"/><circle class="cls-37" cx="262.5" cy="371.96" r="1.43"/><path class="cls-38" d="M352.83,320a1.43,1.43,0,1,0-1.42,1.42A1.43,1.43,0,0,0,352.83,320Z"/><circle class="cls-39" cx="410.89" cy="307.35" r="1.43"/><circle class="cls-40" cx="297.76" cy="306.26" r="1.43"/><path class="cls-41" d="M294.7,236.83a1.43,1.43,0,0,0-2.85,0,1.43,1.43,0,1,0,2.85,0Z"/><circle class="cls-42" cx="337.14" cy="417.65" r="1.43"/><polygon class="cls-43" points="406.35 0 371.99 0 362.85 7.62 321.32 7.62 304.25 27.13 282 27.13 282 28.52 304.88 28.52 321.95 9.01 363.35 9.01 372.5 1.39 405.82 1.39 432.15 24.69 433.07 23.65 406.35 0"/><path class="cls-44" d="M404.94,13.63H339v.18l-.12.1a.12.12,0,0,1,0-.11c-.28.88-13.76,14.58-22.79,23.61H260.9l-.06.05L225.53,73.08h-58.7l-9.14-8.84H114.94v.34h42.61l9.14,8.84h59l0,0L261,37.75h55.18l0,0c.06-.05,5.85-5.85,11.54-11.65,9.24-9.41,11-11.51,11.34-12.07h65.64l11.59,11.89h12.26v-.35H416.52Z"/><polygon class="cls-45" points="427.73 39.98 355.02 39.98 337.24 58.99 337.74 59.47 355.32 40.67 427.73 40.67 427.73 39.98"/><polygon class="cls-46" points="362.15 28.35 335.06 28.35 310.07 53.66 221.02 53.66 203.03 34.76 173.78 34.76 173.78 36.14 202.44 36.14 220.43 55.04 310.65 55.04 335.64 29.74 361.6 29.74 389.04 55.65 428.03 55.65 428.03 54.27 389.59 54.27 362.15 28.35"/><polygon class="cls-47" points="427.73 61.32 398.31 61.32 381.85 78.39 342.52 78.39 329.71 64.67 255.78 64.67 255.78 65.37 329.41 65.37 342.22 79.09 382.15 79.09 398.61 62.01 427.73 62.01 427.73 61.32"/><polygon class="cls-48" points="428.03 75.95 406.55 75.95 393.44 89.67 335.22 89.67 318.15 105.22 263.71 105.22 263.71 105.91 318.42 105.91 335.49 90.37 393.73 90.37 406.84 76.65 428.03 76.65 428.03 75.95"/><polygon class="cls-49" points="292.91 67.9 267.72 67.9 216.5 117.59 138.47 117.59 115.69 139.12 115.69 180.34 103.34 194.12 84.14 194.12 84.14 196.89 104.58 196.89 118.46 181.4 118.46 140.31 139.57 120.37 217.63 120.37 268.85 70.67 291.83 70.67 317.13 93.84 427.43 93.84 427.43 91.07 318.21 91.07 292.91 67.9"/><polygon class="cls-50" points="194.07 82.38 143.88 82.38 123.2 103.06 123.2 208.91 100.63 230.34 68.17 230.34 68.17 231.03 100.9 231.03 101 230.94 123.89 209.2 123.89 103.35 144.17 83.07 193.78 83.07 234.44 124.03 323.86 124.03 323.96 123.92 344.33 102.97 428.12 102.97 428.12 102.28 344.04 102.28 343.94 102.39 323.56 123.33 234.73 123.33 194.07 82.38"/><polygon class="cls-51" points="427.65 110.66 380.81 110.66 349.9 141.8 254.71 141.8 229.36 167.37 156.76 167.37 156.76 170.15 230.51 170.15 255.87 144.57 351.05 144.57 381.97 113.44 427.65 113.44 427.65 110.66"/><polygon class="cls-52" points="280.93 77.11 244.77 77.11 219.86 102.01 137.12 102.01 122 117.58 106.06 117.58 106.06 118.97 122.59 118.97 137.71 103.4 220.44 103.4 245.34 78.49 280.35 78.49 333.06 131.87 356.24 131.87 367.94 120.97 427.43 120.97 427.43 119.58 367.39 119.58 355.69 130.48 333.64 130.48 280.93 77.11"/><polygon class="cls-53" points="201.05 126.61 162.58 126.61 141.48 147.35 95.64 147.35 95.64 148.74 142.05 148.74 163.15 128 200.48 128 224.43 151.96 357.65 151.96 374.82 135.15 429.6 135.15 429.6 133.76 374.25 133.76 357.09 150.57 225.01 150.57 201.05 126.61"/><polygon class="cls-54" points="428.77 146.25 383.13 146.25 359.42 171.07 298.91 171.07 298.91 171.76 359.72 171.76 383.43 146.95 428.77 146.95 428.77 146.25"/><polygon class="cls-55" points="430.44 182.56 401.84 182.56 401.79 182.62 372.28 215.95 305.86 215.95 305.8 216 290.13 231.95 172.8 231.95 152.97 211.78 90.65 211.78 90.65 212.12 152.83 212.12 172.65 232.29 290.27 232.29 290.33 232.24 306 216.3 372.43 216.3 372.49 216.24 402 182.91 430.44 182.91 430.44 182.56"/><polygon class="cls-56" points="369.02 176.48 268.56 176.48 268.46 176.59 239.35 207.43 178.43 207.43 150.61 179.61 55.37 179.61 55.37 180.3 150.32 180.3 178.15 208.12 239.65 208.12 239.75 208.01 268.86 177.17 368.73 177.17 403.51 212.3 430.44 212.3 430.44 211.6 403.8 211.6 369.02 176.48"/><polygon class="cls-57" points="195.06 139.44 173.42 139.44 173.42 139.78 194.91 139.78 214.03 161 272.12 161 303.42 191.6 409.98 191.6 410.03 191.56 430.9 172.78 430.67 172.52 409.85 191.26 303.56 191.26 272.26 160.65 214.19 160.65 195.06 139.44"/><polygon class="cls-58" points="179.27 154.22 93.13 154.22 80.41 167.65 81.41 168.6 93.73 155.6 178.7 155.6 243.74 219.6 291 219.6 299.34 229.69 386.5 229.69 395.89 222.73 429.39 222.73 429.39 221.34 395.43 221.34 386.04 228.3 299.99 228.3 291.65 218.21 244.31 218.21 179.27 154.22"/><polygon class="cls-59" points="429.39 231.43 340.24 231.43 340.14 231.5 329.11 240.47 294.45 240.47 294.45 241.16 329.35 241.16 340.48 232.12 429.39 232.12 429.39 231.43"/><polygon class="cls-60" points="199.23 62.92 175.16 62.92 175.16 63.27 199.09 63.27 268.3 132.83 303.42 132.83 326.72 157.87 350.1 157.87 350.1 157.52 326.87 157.52 303.57 132.48 268.44 132.48 199.23 62.92"/><polygon class="cls-61" points="409.92 168.83 394.74 168.83 381.52 182.04 308.8 182.04 289.32 203.26 248.66 203.26 227.44 224.82 207.16 224.82 207.16 227.6 228.6 227.6 249.82 206.03 290.54 206.03 310.02 184.82 382.67 184.82 395.88 171.6 409.92 171.6 409.92 168.83"/><circle class="cls-62" cx="280.88" cy="27.89" r="1.43"/><circle class="cls-63" cx="255.13" cy="65.19" r="1.43"/><path class="cls-64" d="M176.05,63.09a1.43,1.43,0,1,1-1.43-1.43A1.42,1.42,0,0,1,176.05,63.09Z"/><path class="cls-65" d="M106.48,118.24a1.43,1.43,0,1,1-1.42-1.42A1.42,1.42,0,0,1,106.48,118.24Z"/><path class="cls-66" d="M174.35,35.43A1.43,1.43,0,1,1,172.93,34,1.43,1.43,0,0,1,174.35,35.43Z"/><path class="cls-67" d="M115.08,64.4A1.43,1.43,0,1,1,113.65,63,1.43,1.43,0,0,1,115.08,64.4Z"/><path class="cls-68" d="M96.31,148.17a1.43,1.43,0,1,1-1.43-1.43A1.42,1.42,0,0,1,96.31,148.17Z"/><path class="cls-69" d="M84.9,195.54a2.4,2.4,0,1,1-2.4-2.4A2.41,2.41,0,0,1,84.9,195.54Z"/><path class="cls-70" d="M207.86,226.18a2.4,2.4,0,1,1-2.4-2.4A2.4,2.4,0,0,1,207.86,226.18Z"/><path class="cls-71" d="M157.91,168.68a2.4,2.4,0,1,1-2.39-2.39A2.39,2.39,0,0,1,157.91,168.68Z"/><path class="cls-72" d="M55.85,180.07a1.43,1.43,0,1,1-1.43-1.42A1.43,1.43,0,0,1,55.85,180.07Z"/><path class="cls-73" d="M68.67,230.66a1.43,1.43,0,1,1-1.43-1.42A1.43,1.43,0,0,1,68.67,230.66Z"/><path class="cls-74" d="M81.76,168.9a1.43,1.43,0,1,1-1.43-1.43A1.42,1.42,0,0,1,81.76,168.9Z"/><circle class="cls-75" cx="89.65" cy="212.04" r="1.43"/><path class="cls-76" d="M173.71,139.61a1.43,1.43,0,1,1-1.42-1.43A1.43,1.43,0,0,1,173.71,139.61Z"/><circle class="cls-77" cx="262.5" cy="105.62" r="1.43"/><path class="cls-78" d="M352.83,157.56a1.43,1.43,0,1,1-1.42-1.43A1.43,1.43,0,0,1,352.83,157.56Z"/><path class="cls-79" d="M412.32,170.24a1.43,1.43,0,1,1-1.43-1.43A1.43,1.43,0,0,1,412.32,170.24Z"/><circle class="cls-80" cx="297.76" cy="171.32" r="1.43"/><path class="cls-81" d="M294.7,240.75a1.43,1.43,0,1,1-1.42-1.42A1.42,1.42,0,0,1,294.7,240.75Z"/><circle class="cls-82" cx="337.14" cy="59.93" r="1.43"/><circle class="cls-83" cx="113.65" cy="413.19" r="7.56"/><circle class="cls-84" cx="262.37" cy="371.7" r="7.56"/><circle class="cls-85" cx="155.42" cy="308.86" r="7.56"/><circle class="cls-86" cx="205.37" cy="226.46" r="7.56"/><circle class="cls-87" cx="172.91" cy="35.13" r="7.56"/><circle class="cls-88" cx="82.62" cy="195.31" r="7.56"/></g></g></svg>