<svg xmlns="http://www.w3.org/2000/svg" xmlns:xlink="http://www.w3.org/1999/xlink" viewBox="0 0 431 327.66"><defs><style>.cls-1{fill:#a3a3a3;}.cls-2{fill:url(#New_Gradient_Swatch_1);}.cls-3{fill:#656565;}.cls-4{fill:#c2c2c2;}.cls-5{fill:#888;}.cls-6{fill:url(#linear-gradient);}.cls-7{fill:url(#linear-gradient-2);}.cls-8{fill:url(#linear-gradient-3);}.cls-9{fill:url(#linear-gradient-4);}.cls-10{fill:url(#linear-gradient-5);}.cls-11{fill:url(#linear-gradient-6);}.cls-12{fill:url(#linear-gradient-7);}.cls-13{fill:url(#linear-gradient-8);}.cls-14{fill:url(#linear-gradient-9);}.cls-15{fill:url(#linear-gradient-10);}.cls-16{fill:url(#linear-gradient-11);}.cls-17{fill:url(#linear-gradient-12);}.cls-18{fill:url(#linear-gradient-13);}.cls-19{fill:url(#linear-gradient-14);}.cls-20{fill:url(#linear-gradient-15);}.cls-21{fill:url(#linear-gradient-16);}.cls-22{fill:url(#linear-gradient-17);}.cls-23{fill:url(#linear-gradient-18);}.cls-24{fill:url(#linear-gradient-20);}.cls-25{fill:url(#linear-gradient-21);}.cls-26{fill:url(#linear-gradient-23);}.cls-27{fill:url(#linear-gradient-24);}.cls-28{fill:url(#linear-gradient-26);}.cls-29{fill:url(#linear-gradient-27);}.cls-30{fill:url(#linear-gradient-28);}.cls-31{fill:url(#linear-gradient-29);}.cls-32{fill:url(#linear-gradient-30);}.cls-33{fill:#292929;}.cls-34{fill:#fff;}.cls-35{fill:#1f1f1f;}.cls-36{fill:url(#New_Gradient_Swatch_1-2);}.cls-37{fill:#323232;}.cls-38{fill:#d99a75;}.cls-39{fill:#e3e3e3;}.cls-40{fill:#ffb58a;}.cls-41{fill:#0e0bab;}.cls-42{fill:#7d4c25;}.cls-43{fill:url(#linear-gradient-31);}.cls-44{fill:url(#linear-gradient-32);}.cls-45{fill:url(#linear-gradient-33);}.cls-46{fill:url(#linear-gradient-34);}.cls-47{fill:url(#linear-gradient-35);}.cls-48{fill:url(#linear-gradient-36);}.cls-49{fill:#5e391c;}.cls-50{fill:url(#linear-gradient-37);}.cls-51{fill:url(#linear-gradient-38);}.cls-52{fill:url(#linear-gradient-39);}.cls-53{fill:url(#linear-gradient-40);}.cls-54{fill:#424242;}.cls-55{fill:url(#linear-gradient-41);}.cls-56{fill:url(#linear-gradient-42);}.cls-57{fill:url(#linear-gradient-43);}.cls-58{fill:url(#linear-gradient-44);}.cls-59{fill:url(#linear-gradient-45);}.cls-60{fill:url(#linear-gradient-46);}.cls-61{fill:#cfcfcf;}.cls-62{fill:#c7c7c7;}.cls-63{fill:#d1d1d1;}.cls-64{fill:#ededed;}.cls-65{fill:url(#linear-gradient-47);}.cls-66{fill:url(#linear-gradient-48);}.cls-67{fill:url(#linear-gradient-49);}.cls-68{fill:url(#linear-gradient-50);}.cls-69{fill:url(#linear-gradient-51);}.cls-70{fill:url(#linear-gradient-52);}.cls-71{fill:url(#linear-gradient-53);}.cls-72{fill:url(#linear-gradient-54);}.cls-73{fill:#6e4e3b;}.cls-74{fill:#805b45;}.cls-75{fill:url(#linear-gradient-55);}.cls-76{fill:url(#linear-gradient-56);}.cls-77{fill:url(#linear-gradient-57);}.cls-78{fill:url(#linear-gradient-58);}.cls-79{fill:url(#linear-gradient-59);}.cls-80{fill:url(#linear-gradient-60);}.cls-81{fill:url(#linear-gradient-61);}.cls-82{fill:url(#linear-gradient-62);}.cls-83{fill:url(#linear-gradient-63);}.cls-84{fill:url(#linear-gradient-64);}.cls-85{fill:#9141a6;}.cls-86{fill:url(#linear-gradient-65);}.cls-87{fill:url(#linear-gradient-66);}.cls-88{fill:url(#linear-gradient-67);}.cls-89{fill:url(#linear-gradient-68);}.cls-90{opacity:0.1;}</style><linearGradient id="New_Gradient_Swatch_1" x1="24.5" y1="142.17" x2="406.5" y2="142.17" gradientUnits="userSpaceOnUse"><stop offset="0" stop-color="#4fa3eb"/><stop offset="0.33" stop-color="#9c6bdf"/><stop offset="0.67" stop-color="#9866df"/><stop offset="1" stop-color="#7336df"/></linearGradient><linearGradient id="linear-gradient" x1="131.38" y1="43.53" x2="145.88" y2="43.53" gradientUnits="userSpaceOnUse"><stop offset="0" stop-color="#4fa3eb"/><stop offset="0" stop-color="#7336df"/></linearGradient><linearGradient id="linear-gradient-2" x1="276.86" y1="75.17" x2="311.89" y2="75.17" gradientTransform="translate(173.44 -203.54) rotate(52.22)" gradientUnits="userSpaceOnUse"><stop offset="0" stop-color="#4fa3eb"/><stop offset="1" stop-color="#579dea"/><stop offset="1" stop-color="#7336df"/></linearGradient><linearGradient id="linear-gradient-3" x1="276.81" y1="75.16" x2="311.84" y2="75.16" gradientTransform="matrix(0.79, 0.61, -0.61, 0.79, 107.74, -164.56)" xlink:href="#linear-gradient-2"/><linearGradient id="linear-gradient-4" x1="308.5" y1="60.27" x2="315.17" y2="60.27" gradientTransform="matrix(1, 0, 0, 1, 0, 0)" xlink:href="#linear-gradient-2"/><linearGradient id="linear-gradient-5" x1="141" y1="42.95" x2="147.67" y2="42.95" gradientTransform="matrix(1, 0, 0, 1, 0, 0)" xlink:href="#linear-gradient-2"/><linearGradient id="linear-gradient-6" x1="141.5" y1="35.04" x2="384.5" y2="35.04" gradientTransform="matrix(1, 0, 0, 1, 0, 0)" xlink:href="#linear-gradient-2"/><linearGradient id="linear-gradient-7" x1="141.48" y1="56.59" x2="276.61" y2="56.59" gradientTransform="translate(245.64 -156.86) rotate(84.58)" xlink:href="#linear-gradient-2"/><linearGradient id="linear-gradient-8" x1="273.83" y1="62.69" x2="384.5" y2="62.69" gradientTransform="matrix(1, 0, 0, 1, 0, 0)" xlink:href="#linear-gradient-2"/><linearGradient id="linear-gradient-9" x1="273.83" y1="60.27" x2="280.5" y2="60.27" gradientTransform="matrix(1, 0, 0, 1, 0, 0)" xlink:href="#linear-gradient-2"/><linearGradient id="linear-gradient-10" x1="377.83" y1="48.86" x2="384.5" y2="48.86" gradientTransform="matrix(1, 0, 0, 1, 0, 0)" xlink:href="#linear-gradient-2"/><linearGradient id="linear-gradient-11" x1="343.17" y1="48.86" x2="349.84" y2="48.86" gradientTransform="matrix(1, 0, 0, 1, 0, 0)" xlink:href="#linear-gradient-2"/><linearGradient id="linear-gradient-12" x1="347.58" y1="49.75" x2="379.69" y2="49.75" gradientTransform="translate(180.18 -268.14) rotate(52.22)" xlink:href="#linear-gradient-2"/><linearGradient id="linear-gradient-13" x1="347.59" y1="49.71" x2="379.7" y2="49.71" gradientTransform="translate(106.64 -212.32) rotate(37.77)" xlink:href="#linear-gradient-2"/><linearGradient id="linear-gradient-14" x1="273.83" y1="48.86" x2="280.5" y2="48.86" gradientTransform="matrix(1, 0, 0, 1, 0, 0)" xlink:href="#linear-gradient-2"/><linearGradient id="linear-gradient-15" x1="243.58" y1="49.74" x2="275.69" y2="49.74" gradientTransform="translate(139.89 -185.94) rotate(52.22)" xlink:href="#linear-gradient-2"/><linearGradient id="linear-gradient-16" x1="243.58" y1="49.72" x2="275.69" y2="49.72" gradientTransform="translate(84.85 -148.61) rotate(37.77)" xlink:href="#linear-gradient-2"/><linearGradient id="linear-gradient-17" x1="239.17" y1="46.54" x2="245.84" y2="46.54" gradientTransform="matrix(1, 0, 0, 1, 0, 0)" xlink:href="#linear-gradient-2"/><linearGradient id="linear-gradient-18" x1="208.89" y1="45.89" x2="241.01" y2="45.89" gradientTransform="matrix(1, 0, 0, 1, 0, 0)" xlink:href="#linear-gradient-2"/><linearGradient id="linear-gradient-20" x1="204.5" y1="44.86" x2="211.17" y2="44.86" gradientTransform="matrix(1, 0, 0, 1, 0, 0)" xlink:href="#linear-gradient-2"/><linearGradient id="linear-gradient-21" x1="174.23" y1="44.47" x2="206.34" y2="44.47" gradientTransform="matrix(1, 0, 0, 1, 0, 0)" xlink:href="#linear-gradient-2"/><linearGradient id="linear-gradient-23" x1="169.83" y1="42.95" x2="176.5" y2="42.95" gradientTransform="matrix(1, 0, 0, 1, 0, 0)" xlink:href="#linear-gradient-2"/><linearGradient id="linear-gradient-24" x1="144.39" y1="43.79" x2="171.68" y2="43.79" gradientTransform="matrix(1, 0, 0, 1, 0, 0)" xlink:href="#linear-gradient-2"/><linearGradient id="linear-gradient-26" x1="313.13" y1="49.74" x2="345.24" y2="49.74" gradientTransform="translate(166.83 -240.91) rotate(52.22)" xlink:href="#linear-gradient-2"/><linearGradient id="linear-gradient-27" x1="313.09" y1="49.74" x2="345.2" y2="49.74" gradientTransform="matrix(0.79, 0.61, -0.61, 0.79, 99.47, -191.22)" xlink:href="#linear-gradient-2"/><linearGradient id="linear-gradient-28" x1="278.31" y1="49.75" x2="310.41" y2="49.75" gradientTransform="translate(153.34 -213.38) rotate(52.22)" xlink:href="#linear-gradient-2"/><linearGradient id="linear-gradient-29" x1="278.28" y1="49.74" x2="310.38" y2="49.74" gradientTransform="matrix(0.79, 0.61, -0.61, 0.79, 92.17, -169.89)" xlink:href="#linear-gradient-2"/><linearGradient id="linear-gradient-30" x1="133.3" y1="43.63" x2="136.12" y2="43.63" gradientTransform="matrix(1, 0, 0, 1, 0, 0)" xlink:href="#linear-gradient-2"/><linearGradient id="New_Gradient_Swatch_1-2" x1="85.83" y1="199" x2="242.58" y2="199" gradientTransform="matrix(1, 0, 0, -1, 0, 330)" xlink:href="#New_Gradient_Swatch_1"/><linearGradient id="linear-gradient-31" x1="318.32" y1="178.46" x2="335.84" y2="178.46" gradientTransform="matrix(1, 0, 0, 1, 0, 0)" xlink:href="#linear-gradient-2"/><linearGradient id="linear-gradient-32" x1="319.63" y1="173.99" x2="334.94" y2="173.99" xlink:href="#linear-gradient"/><linearGradient id="linear-gradient-33" x1="317.24" y1="206" x2="337.03" y2="206" xlink:href="#linear-gradient"/><linearGradient id="linear-gradient-34" x1="317.25" y1="105.85" x2="335.66" y2="105.85" gradientTransform="matrix(1, 0, 0, -1, 0, 330)" gradientUnits="userSpaceOnUse"><stop offset="0" stop-color="#0e0bab"/><stop offset="1" stop-color="#9141a6"/></linearGradient><linearGradient id="linear-gradient-35" x1="328.09" y1="88.48" x2="335.66" y2="88.48" xlink:href="#linear-gradient-34"/><linearGradient id="linear-gradient-36" x1="317.24" y1="88.48" x2="324.82" y2="88.48" xlink:href="#linear-gradient-34"/><linearGradient id="linear-gradient-37" x1="317.25" y1="204" x2="337" y2="204" gradientTransform="matrix(1, 0, 0, 1, 0, 0)" xlink:href="#linear-gradient-2"/><linearGradient id="linear-gradient-38" x1="317.25" y1="209.88" x2="337" y2="209.88" gradientTransform="matrix(1, 0, 0, 1, 0, 0)" xlink:href="#linear-gradient-2"/><linearGradient id="linear-gradient-39" x1="327.21" y1="173.51" x2="334.66" y2="173.51" gradientTransform="matrix(1, 0, 0, 1, 0, 0)" xlink:href="#linear-gradient-2"/><linearGradient id="linear-gradient-40" x1="84.3" y1="173.79" x2="101.19" y2="173.79" gradientTransform="matrix(1, 0, 0, 1, 0, 0)" xlink:href="#linear-gradient-2"/><linearGradient id="linear-gradient-41" x1="85.52" y1="177.59" x2="102.59" y2="177.59" gradientTransform="matrix(1, 0, 0, 1, 0, 0)" xlink:href="#linear-gradient-2"/><linearGradient id="linear-gradient-42" x1="84.98" y1="174.21" x2="100.93" y2="174.21" xlink:href="#linear-gradient"/><linearGradient id="linear-gradient-43" x1="87.1" y1="205.03" x2="106.86" y2="205.03" xlink:href="#linear-gradient"/><linearGradient id="linear-gradient-44" x1="88.44" y1="100.85" x2="106.85" y2="100.85" xlink:href="#linear-gradient-34"/><linearGradient id="linear-gradient-45" x1="87.1" y1="203.03" x2="106.85" y2="203.03" gradientTransform="matrix(1, 0, 0, 1, 0, 0)" xlink:href="#linear-gradient-2"/><linearGradient id="linear-gradient-46" x1="87.1" y1="208.89" x2="106.85" y2="208.89" gradientTransform="matrix(1, 0, 0, 1, 0, 0)" xlink:href="#linear-gradient-2"/><linearGradient id="linear-gradient-47" x1="294.66" y1="247.21" x2="338.99" y2="247.21" gradientUnits="userSpaceOnUse"><stop offset="0" stop-color="#9c6bdf"/><stop offset="1" stop-color="#7336df"/></linearGradient><linearGradient id="linear-gradient-48" x1="270.38" y1="247.21" x2="301.92" y2="247.21" xlink:href="#linear-gradient-47"/><linearGradient id="linear-gradient-49" x1="331.73" y1="247.17" x2="364.79" y2="247.17" xlink:href="#linear-gradient-47"/><linearGradient id="linear-gradient-50" x1="274.63" y1="287.61" x2="298.47" y2="287.61" xlink:href="#linear-gradient-47"/><linearGradient id="linear-gradient-51" x1="301.63" y1="287.61" x2="335.54" y2="287.61" xlink:href="#linear-gradient-47"/><linearGradient id="linear-gradient-52" x1="338.75" y1="287.61" x2="360.55" y2="287.61" xlink:href="#linear-gradient-47"/><linearGradient id="linear-gradient-53" x1="104.1" y1="58.42" x2="128.89" y2="58.42" gradientTransform="matrix(1, 0, 0, -1, 0, 330)" gradientUnits="userSpaceOnUse"><stop offset="0" stop-color="#4fa3eb"/><stop offset="0" stop-color="#9866df"/></linearGradient><linearGradient id="linear-gradient-54" x1="113.43" y1="53.22" x2="164.95" y2="53.22" xlink:href="#linear-gradient-53"/><linearGradient id="linear-gradient-55" x1="230.34" y1="119.06" x2="247.87" y2="119.06" gradientTransform="matrix(1, 0, 0, 1, 0, 0)" xlink:href="#linear-gradient-2"/><linearGradient id="linear-gradient-56" x1="231.29" y1="114.59" x2="246.6" y2="114.59" xlink:href="#linear-gradient"/><linearGradient id="linear-gradient-57" x1="229.23" y1="146.62" x2="248.97" y2="146.62" xlink:href="#linear-gradient"/><linearGradient id="linear-gradient-58" x1="230.56" y1="151.74" x2="248.98" y2="151.74" xlink:href="#linear-gradient-34"/><linearGradient id="linear-gradient-59" x1="229.23" y1="144.61" x2="248.98" y2="144.61" gradientTransform="matrix(1, 0, 0, 1, 0, 0)" xlink:href="#linear-gradient-2"/><linearGradient id="linear-gradient-60" x1="229.23" y1="150.49" x2="248.98" y2="150.49" gradientTransform="matrix(1, 0, 0, 1, 0, 0)" xlink:href="#linear-gradient-2"/><linearGradient id="linear-gradient-61" x1="231.56" y1="114.12" x2="239.01" y2="114.12" gradientTransform="matrix(1, 0, 0, 1, 0, 0)" xlink:href="#linear-gradient-2"/><linearGradient id="linear-gradient-62" x1="50.6" y1="254.67" x2="100.1" y2="254.67" gradientUnits="userSpaceOnUse"><stop offset="1" stop-color="#4fa3eb"/><stop offset="1" stop-color="#7336df"/></linearGradient><linearGradient id="linear-gradient-63" x1="57.52" y1="226.46" x2="93.18" y2="226.46" xlink:href="#linear-gradient-62"/><linearGradient id="linear-gradient-64" x1="176.59" y1="132.38" x2="196.46" y2="132.38" gradientTransform="translate(268.16 -81.28) rotate(75.55)" xlink:href="#linear-gradient-2"/><linearGradient id="linear-gradient-65" x1="166.63" y1="84.05" x2="196.37" y2="84.05" xlink:href="#linear-gradient"/><linearGradient id="linear-gradient-66" x1="173.03" y1="85.06" x2="190.35" y2="85.06" gradientTransform="matrix(1, 0, 0, 1, 0, 0)" xlink:href="#linear-gradient-2"/><linearGradient id="linear-gradient-67" x1="173.22" y1="83.52" x2="190.54" y2="83.52" xlink:href="#linear-gradient"/><linearGradient id="linear-gradient-68" x1="178.01" y1="83.73" x2="185.69" y2="83.73" gradientTransform="matrix(1, 0, 0, 1, 0, 0)" xlink:href="#linear-gradient-2"/></defs><title>under-construction</title><g id="Layer_2" data-name="Layer 2"><g id="Layer_1-2" data-name="Layer 1"><g id="Layer_2-2" data-name="Layer 2"><g id="Objects"><path class="cls-1" d="M21.67,284.33H409.33A21.67,21.67,0,0,1,431,306h0a21.67,21.67,0,0,1-21.67,21.67H21.67A21.67,21.67,0,0,1,0,306H0A21.67,21.67,0,0,1,21.67,284.33Z"/><path class="cls-2" d="M215.5,0h0c105.49,0,191,85.51,191,191v93.33H24.5V191C24.5,85.51,110,0,215.5,0Z"/><rect class="cls-3" x="125.5" y="43.79" width="1.88" height="39.97"/><rect class="cls-3" x="140.56" y="43.79" width="1.87" height="39.97"/><circle class="cls-4" cx="134.75" cy="43.79" r="11.13"/><circle class="cls-5" cx="134.75" cy="43.79" r="7.2"/><circle class="cls-4" cx="134.75" cy="43.79" r="4.98"/><path class="cls-6" d="M134.75,40.15h11.13V46.9H134.75a3.37,3.37,0,0,1-3.37-3.37h0a3.37,3.37,0,0,1,3.36-3.38Z"/><rect class="cls-7" x="291.93" y="54.9" width="4.88" height="40.54" transform="translate(54.62 261.78) rotate(-52.22)"/><rect class="cls-8" x="274.06" y="72.72" width="40.54" height="4.88" transform="translate(15.65 196.07) rotate(-37.78)"/><rect class="cls-9" x="308.5" y="31.7" width="6.67" height="57.13"/><rect class="cls-10" x="141" y="31.7" width="6.67" height="22.5"/><rect class="cls-11" x="141.5" y="31.7" width="243" height="6.67"/><rect class="cls-12" x="205.71" y="-10.96" width="6.67" height="135.1" transform="translate(132.96 259.36) rotate(-84.58)"/><rect class="cls-13" x="273.83" y="59.36" width="110.67" height="6.67"/><rect class="cls-14" x="273.83" y="31.7" width="6.67" height="57.13"/><rect class="cls-15" x="377.83" y="31.7" width="6.67" height="34.33"/><rect class="cls-16" x="343.17" y="31.7" width="6.67" height="34.33"/><rect class="cls-17" x="361.4" y="31.17" width="4.47" height="37.16" transform="translate(101.54 306.68) rotate(-52.22)"/><rect class="cls-18" x="345.07" y="47.48" width="37.16" height="4.47" transform="translate(45.75 233.15) rotate(-37.77)"/><rect class="cls-19" x="273.83" y="31.7" width="6.67" height="34.33"/><rect class="cls-20" x="257.4" y="31.16" width="4.47" height="37.16" transform="translate(61.26 224.48) rotate(-52.22)"/><rect class="cls-21" x="241.06" y="47.49" width="37.16" height="4.47" transform="translate(23.95 169.44) rotate(-37.77)"/><rect class="cls-22" x="239.17" y="31.7" width="6.67" height="29.67"/><polygon class="cls-23" points="241.01 54.77 238.27 58.03 208.89 37.01 211.63 33.75 241.01 54.77"/><polygon class="cls-23" points="208.89 54.77 211.63 58.03 241.01 37.01 238.27 33.75 208.89 54.77"/><rect class="cls-24" x="204.5" y="31.7" width="6.67" height="26.33"/><polygon class="cls-25" points="206.34 52.57 203.6 55.55 174.23 36.36 176.97 33.38 206.34 52.57"/><polygon class="cls-25" points="174.23 52.57 176.97 55.55 206.34 36.36 203.6 33.38 174.23 52.57"/><rect class="cls-26" x="169.83" y="31.7" width="6.67" height="22.5"/><polygon class="cls-27" points="171.68 49.06 169.35 51 144.39 38.52 146.72 36.58 171.68 49.06"/><polygon class="cls-27" points="144.39 49.06 146.72 51 171.68 38.52 169.35 36.58 144.39 49.06"/><rect class="cls-28" x="326.95" y="31.16" width="4.47" height="37.16" transform="translate(88.2 279.44) rotate(-52.22)"/><rect class="cls-29" x="310.57" y="47.51" width="37.16" height="4.47" transform="translate(38.53 212.07) rotate(-37.78)"/><rect class="cls-30" x="292.12" y="31.17" width="4.47" height="37.16" transform="translate(74.71 251.92) rotate(-52.22)"/><rect class="cls-31" x="275.75" y="47.51" width="37.16" height="4.47" transform="translate(31.23 190.74) rotate(-37.78)"/><path class="cls-32" d="M136.12,43.62a1.41,1.41,0,1,1-1.42-1.4h0A1.4,1.4,0,0,1,136.12,43.62Z"/><path class="cls-33" d="M82,89H349a8.51,8.51,0,0,1,8.5,8.5V259H73.5V97.5A8.51,8.51,0,0,1,82,89Z"/><rect class="cls-34" x="85.83" y="102.33" width="259.33" height="143.33" rx="5.67" ry="5.67"/><path class="cls-35" d="M46.51,259h338a5.51,5.51,0,0,1,5.51,5.51h0v5.88a13.94,13.94,0,0,1-13.94,13.94H54.94A14,14,0,0,1,41,270.4v-5.88A5.51,5.51,0,0,1,46.5,259Z"/><path class="cls-36" d="M91.5,102.33A5.67,5.67,0,0,0,85.83,108v15.26H86v1.12a7,7,0,1,0,13.91,0V118a3.42,3.42,0,0,1,6.75.76v16.13a6.57,6.57,0,0,0,6.57,6.57h0a6.58,6.58,0,0,0,6.58-6.57V119.47a5.36,5.36,0,0,1,5.35-5.35h0a5.37,5.37,0,0,1,5.35,5.35v15.95a20.08,20.08,0,0,0,20.08,20.08h0a20.08,20.08,0,0,0,20-18.56h.08v-2.82a4.17,4.17,0,0,1,4.16-4.17h0a4.17,4.17,0,0,1,4.17,4.17v11.24a6.57,6.57,0,0,0,13.14,0v7.47a6.58,6.58,0,0,0,13.15.51,4.34,4.34,0,0,0,0-.51V119.54a4.17,4.17,0,0,1,8.33,0v11.53a6.57,6.57,0,0,0,13.14,0V110.76a4.17,4.17,0,0,1,8.34,0h0v12.5h7.48V102.33Z"/><polygon class="cls-37" points="101.79 154.26 100.6 152.66 131.31 129.87 135.64 129.87 161.24 143.73 160.29 145.49 135.14 131.87 131.97 131.87 101.79 154.26"/><path class="cls-38" d="M329.92,197.06a3.31,3.31,0,0,1-1.92-1.37c-1.42-2.15-6.13-9.39-7-12.58a37.62,37.62,0,0,1-.28-15.42,3.33,3.33,0,0,1,6.51,1.38,30.66,30.66,0,0,0,.2,12.33c.39,1.47,3.46,6.66,6.09,10.61a3.32,3.32,0,0,1-3.6,5.05Z"/><path class="cls-39" d="M333.54,192c-1.83-2.75-3.87-6.09-5.07-8.37l-6,1.35a4.43,4.43,0,0,0-.22,1.13,107.55,107.55,0,0,0,5.73,9.57,3.33,3.33,0,0,0,5.56-3.68Z"/><path class="cls-39" d="M262.67,166.79,324.78,177a4.34,4.34,0,0,0,5-3.54v0h0a4.31,4.31,0,0,0-3.52-5h0l-62.11-10.2a4.34,4.34,0,0,0-5,3.54v0h0a4.33,4.33,0,0,0,3.55,5Z"/><rect class="cls-40" x="322.48" y="188.27" width="9.78" height="6.12"/><path class="cls-41" d="M321.17,176.5l12.91,2.19.49-2.89a6.4,6.4,0,0,0-5.24-7.38h0a6.69,6.69,0,0,0-7.72,5.47v0Z"/><path class="cls-40" d="M331.85,190.74l-9.39-1.59a3.93,3.93,0,0,1-3.22-4.53L321,174.57h0l13.26,2.25h0l-2.36,13.92Z"/><path class="cls-42" d="M328,187.27h0a5.2,5.2,0,0,0,6-4.23v0l.84-4.92-11.92-2-.55,3.23A6.91,6.91,0,0,0,328,187.27Z"/><path class="cls-43" d="M319.11,178l15.72,2.66a.9.9,0,0,0,1-.74h0a.9.9,0,0,0-.74-1l-15.71-2.66a.9.9,0,0,0-1.05.72v0h0A.9.9,0,0,0,319.11,178Z"/><path class="cls-44" d="M328.56,169.28h0a7.66,7.66,0,0,1,6.27,8.82l-.12.7-15.08-2.56.11-.69A7.66,7.66,0,0,1,328.56,169.28Z"/><path class="cls-45" d="M337,220.27H317.24V196.52a4.78,4.78,0,0,1,4.79-4.79h10.21a4.78,4.78,0,0,1,4.79,4.79h0v23.75Z"/><path class="cls-38" d="M322.61,182l-.69-.11.57-3.33.68.12a1.66,1.66,0,0,1,1.38,1.91v0h0a1.66,1.66,0,0,1-1.91,1.38Z"/><rect class="cls-42" x="320.05" y="179.69" width="3.37" height="0.95" transform="translate(90.39 467.31) rotate(-80.39)"/><polygon class="cls-38" points="320.32 178.21 318.89 182.06 319.6 182.48 320.32 178.21"/><rect class="cls-46" x="317.25" y="220.28" width="18.41" height="7.75"/><rect class="cls-47" x="328.08" y="228.02" width="7.57" height="27"/><rect class="cls-48" x="317.25" y="228.02" width="7.57" height="27"/><path class="cls-40" d="M321.74,198.82a3.34,3.34,0,0,1-2.35-1c-1.45-1.44-8.76-8.78-10.4-11.64a37.43,37.43,0,0,1-4.22-14.84,3.32,3.32,0,1,1,6.64-.33,31,31,0,0,0,3.35,11.87c.8,1.4,5.36,6.3,9.32,10.23a3.33,3.33,0,0,1-2.34,5.68Z"/><path class="cls-49" d="M323.48,260h12.18v-5h-7.23a5,5,0,0,0-4.95,5Z"/><path class="cls-42" d="M312.64,260h12.18v-5h-7.23a5,5,0,0,0-4.95,5Z"/><rect class="cls-50" x="317.25" y="201.4" width="19.75" height="5.2"/><rect class="cls-51" x="317.25" y="208.16" width="19.75" height="3.43"/><path class="cls-52" d="M332.59,175.8a6.4,6.4,0,0,0-5.24-7.38h-.14a6.85,6.85,0,0,1,2.12,0h0a6.4,6.4,0,0,1,5.24,7.38h0l-.49,2.89-1.93-.32Z"/><path class="cls-42" d="M335.72,182.65h-6.91v4.68h2.24A4.68,4.68,0,0,0,335.72,182.65Z"/><path class="cls-39" d="M324.08,193.14c-2.32-2.31-4.85-4.95-6.7-7L312.8,191c2.63,2.92,5.71,6,6.59,6.89a3.32,3.32,0,0,0,4.69-4.71h0Z"/><path class="cls-38" d="M95.85,199.49a35.76,35.76,0,0,1-4.63-.3,3.32,3.32,0,0,1,.94-6.58h0c2.89.4,7.83.4,9.81-.88,3.54-2.31,4.62-9,4.72-11.14a3.32,3.32,0,1,1,6.64.29c-.06,1.21-.73,11.87-7.75,16.42C102.85,199.08,98.92,199.49,95.85,199.49Z"/><rect class="cls-39" x="102.59" y="147.73" width="63.39" height="40.47" transform="translate(-24.29 22.72) rotate(-8.87)"/><polygon class="cls-40" points="101.16 174.76 104.45 176.54 103.48 178.87 101.16 174.76"/><rect class="cls-40" x="91.83" y="187.29" width="9.78" height="6.12"/><path class="cls-53" d="M101.19,172.42l-15,8.46-.77-1.36a8.59,8.59,0,0,1,3.23-11.7h0a8.6,8.6,0,0,1,11.72,3.25h0Z"/><path class="cls-40" d="M86.2,178.56l13.06-7.38h0l4.13,7.31a7.79,7.79,0,0,1-3,10.62h0l-6.27,3.54h0l-8-14.09Z"/><path class="cls-54" d="M86.06,180.1l7.79-4.4h0l2.28,4a4.72,4.72,0,0,1-1.79,6.43h0l-.59.33a3.55,3.55,0,0,1-4.84-1.34h0l-2.86-5.06h0Z"/><path class="cls-55" d="M102.11,174.18,87,182.72a1,1,0,0,1-1.35-.38h0A1,1,0,0,1,86,181l15.11-8.54a1,1,0,0,1,1.35.38h0A1,1,0,0,1,102.11,174.18Z"/><path class="cls-56" d="M89.21,168.75h0a8.31,8.31,0,0,0-3.16,11.32v0l.37.67,14.5-8.19-.37-.67A8.34,8.34,0,0,0,89.21,168.75Z"/><path class="cls-57" d="M91.89,190.76h10.18a4.78,4.78,0,0,1,4.79,4.79V219.3H87.1V195.55a4.78,4.78,0,0,1,4.79-4.79Z"/><path class="cls-38" d="M96.81,181.39l.66-.38-1.81-3.19-.66.37a1.82,1.82,0,0,0-.69,2.49h0A1.85,1.85,0,0,0,96.81,181.39Z"/><rect class="cls-54" x="96.48" y="177.35" width="1.03" height="3.67" transform="translate(-75.58 70.87) rotate(-29.46)"/><path class="cls-58" d="M88.44,219.3V239H96V228.69a1.63,1.63,0,0,1,1.64-1.64h0a1.63,1.63,0,0,1,1.63,1.63h0V239h7.58V219.3Z"/><path class="cls-49" d="M100.62,259H88.44v-4.95h7.23a5,5,0,0,1,5,4.95Z"/><path class="cls-42" d="M111.46,259H99.28v-4.95h7.23A5,5,0,0,1,111.46,259Z"/><rect class="cls-59" x="87.1" y="200.43" width="19.75" height="5.2"/><rect class="cls-60" x="87.1" y="207.18" width="19.75" height="3.43"/><path class="cls-40" d="M114,203.43c-4.85,0-10.26-3.48-12.14-4.82a3.32,3.32,0,0,1,3.83-5.43h0c3.64,2.56,8,4.1,8.89,3.52,3.85-2.49,3.17-7.53,3.14-7.74a3.32,3.32,0,0,1,6.56-1c.06.39,1.43,9.49-6.08,14.36A7.57,7.57,0,0,1,114,203.43Z"/><rect class="cls-40" x="88.44" y="238.98" width="6.89" height="15.07"/><rect class="cls-40" x="99.28" y="238.98" width="6.89" height="15.07"/><path class="cls-39" d="M114.35,196.79c-1.26.27-5.28-1.23-8.66-3.61a3.32,3.32,0,0,0-3.83,5.43c1.75,1.24,6.51,4.32,11.06,4.76Z"/><rect class="cls-39" x="88.44" y="250.69" width="6.89" height="3.36"/><rect class="cls-39" x="99.28" y="250.69" width="6.89" height="3.36"/><path class="cls-4" d="M134,131.31a11,11,0,0,1-1.5-21.9v-5.22a1.5,1.5,0,0,1,3,0v6.62a1.5,1.5,0,0,1-1.5,1.5A8,8,0,1,0,139.65,126a1.5,1.5,0,1,1,2.13,2.12h0A10.92,10.92,0,0,1,134,131.31Z"/><path class="cls-3" d="M131.64,132.3h0a.94.94,0,0,1-.94-.94h0v-4.11a.94.94,0,0,1,.94-.94h0a.94.94,0,0,1,.94.94h0v4.11a.94.94,0,0,1-.94.94Z"/><path class="cls-3" d="M133.52,132.3h0a.94.94,0,0,1-.94-.94h0v-4.11a.94.94,0,0,1,.94-.94h0a.94.94,0,0,1,.93.94v4.11A.94.94,0,0,1,133.52,132.3Z"/><path class="cls-3" d="M135.39,132.3h0a.94.94,0,0,1-.94-.94h0v-4.11a.94.94,0,0,1,.94-.94h0a.94.94,0,0,1,.94.94h0v4.11a.94.94,0,0,1-.94.94Z"/><polygon class="cls-61" points="243.55 259 248.44 259 239.66 204.74 234.77 204.74 243.55 259"/><polygon class="cls-62" points="247.03 259 251.91 259 243.14 204.74 238.25 204.74 247.03 259"/><rect class="cls-61" x="243.52" y="217.21" width="21" height="4.16"/><rect class="cls-61" x="245.52" y="230.77" width="21" height="4.16"/><rect class="cls-61" x="243.51" y="244.34" width="25.93" height="4.16"/><polygon class="cls-61" points="265.81 259 270.69 259 261.92 204.74 257.03 204.74 265.81 259"/><polygon class="cls-62" points="268.47 259 273.36 259 264.58 204.74 259.69 204.74 268.47 259"/><polygon class="cls-62" points="220.49 259 215.6 259 224.38 204.74 229.27 204.74 220.49 259"/><polygon class="cls-63" points="217.83 259 212.94 259 221.72 204.74 226.6 204.74 217.83 259"/><polygon class="cls-62" points="242.75 259 237.86 259 246.64 204.74 251.52 204.74 242.75 259"/><polygon class="cls-63" points="239.27 259 234.38 259 243.16 204.74 248.05 204.74 239.27 259"/><rect class="cls-63" x="221.78" y="217.21" width="21" height="4.16"/><rect class="cls-63" x="221.78" y="200.58" width="26.27" height="4.16"/><rect class="cls-62" x="248.05" y="200.58" width="16.54" height="4.16"/><rect class="cls-63" x="219.77" y="230.78" width="21" height="4.16"/><rect class="cls-63" x="216.86" y="244.34" width="21" height="4.16"/><rect class="cls-64" x="270.39" y="234.31" width="94.4" height="25.8" rx="1.73" ry="1.73"/><rect class="cls-39" x="274.63" y="260.11" width="9.94" height="50.95"/><rect class="cls-39" x="350.61" y="260.11" width="9.94" height="50.95"/><rect class="cls-64" x="274.63" y="279.92" width="85.92" height="15.38"/><path class="cls-39" d="M286.65,315.82h-14.1a2.39,2.39,0,0,1-2.38-2.38h0a2.4,2.4,0,0,1,2.38-2.38h14.1a2.4,2.4,0,0,1,2.38,2.38h0a2.39,2.39,0,0,1-2.38,2.38Z"/><path class="cls-39" d="M362.63,315.82h-14.1a2.39,2.39,0,0,1-2.38-2.38h0a2.4,2.4,0,0,1,2.38-2.38h14.1a2.4,2.4,0,0,1,2.38,2.38h0a2.39,2.39,0,0,1-2.38,2.38Z"/><polygon class="cls-65" points="338.99 234.31 320.46 234.31 294.66 260.12 313.19 260.12 338.99 234.31"/><path class="cls-66" d="M301.92,234.31H283.38l-13,13v11.08a1.73,1.73,0,0,0,1.73,1.72h4Z"/><path class="cls-67" d="M364.79,245.59V236a1.75,1.75,0,0,0-1.73-1.73h-5.53l-25.8,25.8h18.54Z"/><polygon class="cls-68" points="279.93 279.92 274.63 285.23 274.63 295.3 283.09 295.3 298.47 279.92 279.93 279.92"/><polygon class="cls-69" points="335.54 279.92 317.01 279.92 301.63 295.3 320.17 295.3 335.54 279.92"/><polygon class="cls-70" points="360.55 292.03 360.55 279.92 354.12 279.92 338.75 295.3 357.29 295.3 360.55 292.03"/><path class="cls-71" d="M104.45,288.62l16.13-37.5a4.33,4.33,0,0,1,5.69-2.27h0a4.33,4.33,0,0,1,2.27,5.69h0l-16.13,37.51a4.33,4.33,0,0,1-5.69,2.27h0A4.35,4.35,0,0,1,104.45,288.62Z"/><path class="cls-72" d="M156.37,296.55a7.43,7.43,0,0,0,8-4.39h0a7.4,7.4,0,0,0-2.3-8.8l-34.52-26.44-7,16.38-7,16.38Z"/><polygon class="cls-64" points="146.27 271.27 136.75 293.41 145.62 294.83 153.4 276.74 146.27 271.27"/><polygon class="cls-64" points="132.96 261.08 120.2 290.76 129.07 292.18 140.09 266.55 132.96 261.08"/><rect class="cls-4" x="125.5" y="79.94" width="16.94" height="21.75" rx="4.84" ry="4.84"/><path class="cls-5" d="M130.59,101.69h6.75v.46a3.37,3.37,0,0,1-3.37,3.37h0a3.38,3.38,0,0,1-3.38-3.38h0v-.46h0Z"/><circle class="cls-5" cx="133.97" cy="88.21" r="1.69"/><path class="cls-73" d="M238,141.07a35.72,35.72,0,0,1-4.62-.3,3.32,3.32,0,1,1,.94-6.58h0c2.88.41,7.83.4,9.8-.88,3.55-2.3,4.62-9,4.72-11.14a3.32,3.32,0,1,1,6.64.3c-.06,1.2-.73,11.86-7.74,16.42C245,140.66,241,141.07,238,141.07Z"/><rect class="cls-39" x="252.18" y="111.32" width="71.57" height="26.43"/><rect class="cls-74" x="233.96" y="128.87" width="9.78" height="6.12"/><path class="cls-41" d="M245.06,117.11l-12.92,2.19-.49-2.89a6.4,6.4,0,0,1,5.21-7.4h0a6.7,6.7,0,0,1,7.72,5.48Z"/><path class="cls-74" d="M232,117.43l13.26-2.25h0l1.7,10a3.93,3.93,0,0,1-3.22,4.53l-9.39,1.59h0L232,117.43Z"/><path class="cls-54" d="M238.21,127.87h0a5.2,5.2,0,0,1-6-4.23v0l-.83-4.91,11.92-2,.54,3.23A6.89,6.89,0,0,1,238.21,127.87Z"/><path class="cls-75" d="M247.11,118.61l-15.71,2.66a.91.91,0,0,1-1.05-.75h0a.9.9,0,0,1,.74-1l15.72-2.66a.92.92,0,0,1,1.05.74h0A.91.91,0,0,1,247.11,118.61Z"/><path class="cls-76" d="M237.66,109.89h0a7.65,7.65,0,0,0-6.26,8.82l.12.69,15.08-2.55-.12-.69a7.65,7.65,0,0,0-8.82-6.27Z"/><path class="cls-77" d="M234,132.35h10.18a4.78,4.78,0,0,1,4.79,4.79v23.75H229.23V137.13A4.8,4.8,0,0,1,234,132.35Z"/><path class="cls-73" d="M243.61,122.62l.69-.12-.56-3.32-.69.12a1.68,1.68,0,0,0-1.38,1.93h0A1.69,1.69,0,0,0,243.61,122.62Z"/><rect class="cls-54" x="245.36" y="118.81" width="0.95" height="3.39" transform="translate(-16.85 43.34) rotate(-9.74)"/><polygon class="cls-73" points="245.9 118.81 247.34 122.67 246.62 123.08 245.9 118.81"/><path class="cls-78" d="M230.56,160.88v34.75h7.58V170.27a1.65,1.65,0,0,1,1.63-1.64h0a1.66,1.66,0,0,1,1.64,1.64v25.36H249V160.88Z"/><path class="cls-74" d="M250.05,141.07a35.72,35.72,0,0,1-4.62-.3,3.32,3.32,0,1,1,.94-6.58h0c2.88.41,7.82.4,9.8-.88,3.53-2.29,4.61-8.82,4.72-11.15a3.33,3.33,0,0,1,3.32-3.16h.16a3.33,3.33,0,0,1,3.16,3.47c-.06,1.2-.73,11.86-7.74,16.42C257.05,140.66,253.12,141.07,250.05,141.07Z"/><path class="cls-49" d="M242.74,200.58H230.56v-5h7.23a5,5,0,0,1,5,5Z"/><path class="cls-42" d="M253.58,200.58H241.41v-5h7.22a5,5,0,0,1,5,5Z"/><rect class="cls-79" x="229.23" y="142.01" width="19.75" height="5.2"/><rect class="cls-80" x="229.23" y="148.77" width="19.75" height="3.43"/><path class="cls-81" d="M233.64,116.41a6.39,6.39,0,0,1,5.22-7.38H239a6.79,6.79,0,0,0-2.11,0h0a6.4,6.4,0,0,0-5.25,7.37h0l.49,2.89,1.93-.33Z"/><path class="cls-82" d="M95.76,259H54.94a4.33,4.33,0,0,1-4.34-4.32h0a4.34,4.34,0,0,1,4.34-4.34H95.76a4.34,4.34,0,0,1,4.34,4.34h0A4.33,4.33,0,0,1,95.77,259Z"/><path class="cls-83" d="M82.53,208.17a7.4,7.4,0,0,0-7.18-5.59h0a7.4,7.4,0,0,0-7.18,5.59L57.52,250.33H93.18Z"/><polygon class="cls-64" points="63.3 227.44 87.39 227.44 85.19 218.73 65.5 218.73 63.3 227.44"/><polygon class="cls-64" points="59.2 243.69 91.5 243.69 89.3 234.98 61.4 234.98 59.2 243.69"/><path class="cls-39" d="M257.86,157h62.93a4.33,4.33,0,0,0,4.32-4.33h0a4.33,4.33,0,0,0-4.32-4.31H257.85a4.33,4.33,0,0,0-4.32,4.33h0a4.31,4.31,0,0,0,4.33,4.31Z"/><path class="cls-39" d="M141.08,207.37l62.93-.05a4.31,4.31,0,0,0,4.32-4.32h0a4.31,4.31,0,0,0-4.32-4.32H141.07a4.31,4.31,0,0,0-4.32,4.32h0a4.33,4.33,0,0,0,4.29,4.37Z"/><path class="cls-39" d="M141.08,223.07,204,223a4.31,4.31,0,0,0,4.32-4.3v0h0a4.33,4.33,0,0,0-4.32-4.31H141.06a4.31,4.31,0,0,0-4.32,4.32h0a4.33,4.33,0,0,0,4.29,4.37Z"/><path class="cls-39" d="M141.08,238.65h52.1a4.31,4.31,0,0,0,4.32-4.3v0h0a4.31,4.31,0,0,0-4.31-4.31H141.07a4.33,4.33,0,0,0-4.32,4.33h0A4.33,4.33,0,0,0,141.08,238.65Z"/><path class="cls-4" d="M198.76,135.88h-.22l-1.83-.48a.89.89,0,1,1,.37-1.74l.08,0,1,.25,1-3.87-10.38-2.72a.92.92,0,0,1-.64-1.09l1.39-5.27a.88.88,0,0,1,1.07-.64h0a.9.9,0,0,1,.64,1.09l-1.16,4.41,10.39,2.72a.9.9,0,0,1,.63,1.09l-1.47,5.6A.87.87,0,0,1,198.76,135.88Z"/><rect class="cls-84" x="183.81" y="122.63" width="5.43" height="19.5" rx="0.85" ry="0.85" transform="translate(11.78 279.96) rotate(-75.55)"/><path class="cls-39" d="M190.28,122.7l-2.23-.58a.66.66,0,0,1-.48-.81l.32-1.27h0l3.52.91h0l-.32,1.26a.68.68,0,0,1-.82.49Z"/><rect class="cls-85" x="185.2" y="112.44" width="12" height="4.61" rx="0.48" ry="0.48" transform="translate(32.36 271.25) rotate(-75.55)"/><path class="cls-86" d="M186.32,79h-9.64a10.05,10.05,0,0,0-10.05,10h0a.09.09,0,0,0,.09.09h29.55a.09.09,0,0,0,.1-.08h0A10.05,10.05,0,0,0,186.32,79Z"/><path class="cls-38" d="M174,82.68l15.61,2h0L189,88.92a7.15,7.15,0,0,1-8,6.2h0l-1.4-.18a7.16,7.16,0,0,1-6.2-8h0l.54-4.25Z"/><path class="cls-87" d="M190.28,86.15a8.66,8.66,0,1,1-7.5-9.68h0A8.66,8.66,0,0,1,190.28,86.15Z"/><path class="cls-88" d="M190.47,84.61a8.66,8.66,0,1,1-7.5-9.68h0A8.66,8.66,0,0,1,190.47,84.61Z"/><path class="cls-89" d="M181.21,74l3.77.48a.81.81,0,0,1,.7.91l-2.3,18.09h0L178,92.79h0l2.29-18.06a.8.8,0,0,1,.87-.74Z"/><path class="cls-38" d="M180.4,94.44l-1.49-.19.08.67a1.38,1.38,0,0,0,1.2,1.21h0a1.38,1.38,0,0,0,1.46-.87l.24-.63Z"/><path class="cls-40" d="M193.23,113.77a2.83,2.83,0,0,1-1.9-4.93,14,14,0,0,0,3.87-8.56c.34-4.88-4.12-9.89-4.16-9.94a2.83,2.83,0,1,1,4.18-3.82h0c.25.27,6.14,6.79,5.64,14.15A19.57,19.57,0,0,1,195.14,113,2.79,2.79,0,0,1,193.23,113.77Z"/><path class="cls-40" d="M162.84,103.31a2.8,2.8,0,0,1-2.66-1.87l-3.36-9.27a4.64,4.64,0,0,1,2.84-5.91l.28-.09,8.46-2.36a2.84,2.84,0,0,1,1.52,5.47l-7.39,2,3,8.23a2.84,2.84,0,0,1-1.69,3.63h0A2.79,2.79,0,0,1,162.84,103.31Z"/><path class="cls-39" d="M171.89,85.73a2.84,2.84,0,0,0-3.48-2h0l-5.33,1.49,2.1,5.3,4.75-1.32A2.84,2.84,0,0,0,171.89,85.73Z"/><path class="cls-39" d="M195.22,86.52A2.85,2.85,0,1,0,191,90.34a21.06,21.06,0,0,1,3.17,5l4.92-2.86A25.73,25.73,0,0,0,195.22,86.52Z"/><g class="cls-90"><ellipse cx="39.3" cy="294.92" rx="7.13" ry="2.74"/></g><g class="cls-90"><ellipse cx="379.3" cy="293.55" rx="3.57" ry="1.37"/></g><g class="cls-90"><ellipse cx="232.02" cy="296.64" rx="3.57" ry="1.37"/></g><g class="cls-90"><ellipse cx="406.5" cy="315.82" rx="3.57" ry="1.37"/></g><g class="cls-90"><path d="M96.33,311.06c0,.76-1.6,1.38-3.57,1.38s-3.56-.62-3.56-1.38,1.59-1.37,3.56-1.37S96.33,310.31,96.33,311.06Z"/></g><g class="cls-90"><ellipse cx="188.98" cy="315.82" rx="7.13" ry="2.74"/></g></g></g></g></g></svg>