<svg xmlns="http://www.w3.org/2000/svg" viewBox="0 0 248.21 151.5"><defs><style>.cls-1{fill:#f0c418;}.cls-2{fill:#fff;}</style></defs><title>white_logo</title><g id="Layer_2" data-name="Layer 2"><g id="Layer_1-2" data-name="Layer 1"><ellipse class="cls-1" cx="44" cy="62.71" rx="17.23" ry="15.79"/><ellipse class="cls-1" cx="160" cy="55.71" rx="17.23" ry="15.79"/><circle class="cls-1" cx="217" cy="21.21" r="17.23"/><circle class="cls-1" cx="98" cy="36.21" r="17.23"/><path class="cls-2" d="M30,49.5c3.53,3.31,10.94,10.43,17,10.43H66.91q24,0,36.4,11.23t12.42,34.13a53.82,53.82,0,0,1-3,18.36,39.63,39.63,0,0,1-9.07,14.58,41.43,41.43,0,0,1-15.23,9.61,60.73,60.73,0,0,1-21.49,3.46H3.33V123.87H66.91q11,0,17-5.62t5.94-14.9q0-10.16-5.94-15.23T66.91,83H46.77a56.51,56.51,0,0,1-20-3.35,43.11,43.11,0,0,1-15.12-9.28C7.56,66.45,0,55.41,0,49.5Z"/><path class="cls-2" d="M157.63,60.1l-.07-10.6c-9,0-18.44-.29-27.29-.29V151.3l27.56.2-.2-64.83"/><path class="cls-2" d="M156.13,86.67h38.52c9.07,0,19-.86,26.18-3.67s12.94-6.12,18-11c4.84-4.68,9-15.74,9.38-22.5h-31c-3.22,6.31-12.93,10.6-22.57,10.6H156.13"/><path class="cls-2" d="M.12,30C0,8.46,17.46,0,39,0H209c21.54,0,39,8.46,39,30H217.22c-2.39-8-14.39-6-22.57-6H157.57v6h-27.3V24h-69c-2.37-.09-10.43-.15-14.24,0s-13.16,1-17,6Z"/></g></g></svg>