<svg xmlns="http://www.w3.org/2000/svg" xmlns:xlink="http://www.w3.org/1999/xlink" viewBox="0 0 314.68 256.47"><defs><style>.cls-1{opacity:0.15;}.cls-2{fill:#c3d4fb;}.cls-3{fill:url(#New_Gradient_Swatch_2);}.cls-4,.cls-5{fill:#7937a0;}.cls-17,.cls-5{opacity:0.2;}.cls-22,.cls-6{stroke:#535373;}.cls-22,.cls-24,.cls-6{stroke-miterlimit:10;}.cls-6{stroke-width:1.31px;fill:url(#New_Gradient_Swatch_2-2);}.cls-7{fill:url(#linear-gradient);}.cls-8{fill:#fff;}.cls-9{fill:url(#linear-gradient-2);}.cls-10{fill:url(#linear-gradient-3);}.cls-11{fill:url(#linear-gradient-4);}.cls-12{fill:url(#linear-gradient-5);}.cls-13{fill:url(#linear-gradient-6);}.cls-14{fill:url(#linear-gradient-7);}.cls-15{fill:url(#linear-gradient-8);}.cls-16{fill:url(#linear-gradient-9);}.cls-18{fill:url(#New_Gradient_Swatch_2-3);}.cls-19{fill:#4ad487;}.cls-20{fill:#ff6344;}.cls-21{fill:url(#linear-gradient-10);}.cls-22,.cls-24,.cls-44{fill:none;}.cls-22{stroke-width:0.7px;}.cls-23{fill:url(#linear-gradient-11);}.cls-24{stroke:#fff;stroke-width:0.62px;}.cls-25{opacity:0.35;}.cls-26{fill:#d99b00;}.cls-27{fill:url(#linear-gradient-12);}.cls-28{fill:url(#linear-gradient-13);}.cls-29{fill:url(#linear-gradient-14);}.cls-30{fill:url(#linear-gradient-15);}.cls-31{fill:url(#linear-gradient-16);}.cls-32{fill:url(#linear-gradient-17);}.cls-33{fill:url(#linear-gradient-18);}.cls-34{fill:#ff927d;}.cls-35{fill:#414657;}.cls-36{fill:url(#linear-gradient-19);}.cls-37{fill:#ffb700;}.cls-38{fill:url(#linear-gradient-20);}.cls-39{fill:#535373;}.cls-40{fill:#6582db;}.cls-41{fill:#ffd261;}.cls-42{fill:#3c57ab;}.cls-43{fill:url(#linear-gradient-21);}.cls-44{stroke:#3c57ab;stroke-linecap:round;stroke-linejoin:round;stroke-width:1.04px;}.cls-45{fill:url(#linear-gradient-22);}.cls-46{fill:#de5667;}.cls-47{fill:url(#linear-gradient-23);}.cls-48{fill:url(#linear-gradient-24);}.cls-49{fill:url(#linear-gradient-25);}</style><linearGradient id="New_Gradient_Swatch_2" x1="12.8" y1="119.4" x2="297.8" y2="119.4" gradientUnits="userSpaceOnUse"><stop offset="0" stop-color="#b465da"/><stop offset="0.36" stop-color="#cf6cc9"/><stop offset="0.78" stop-color="#ee609c"/></linearGradient><linearGradient id="New_Gradient_Swatch_2-2" x1="0" y1="238.8" x2="309.45" y2="238.8" xlink:href="#New_Gradient_Swatch_2"/><linearGradient id="linear-gradient" x1="91.12" y1="144.31" x2="268.75" y2="144.31" gradientUnits="userSpaceOnUse"><stop offset="1" stop-color="#b465da"/><stop offset="1" stop-color="#cf6cc9"/></linearGradient><linearGradient id="linear-gradient-2" x1="191.84" y1="120.06" x2="249.89" y2="120.06" xlink:href="#linear-gradient"/><linearGradient id="linear-gradient-3" x1="191.84" y1="151.87" x2="249.89" y2="151.87" gradientUnits="userSpaceOnUse"><stop offset="0" stop-color="#b465da"/><stop offset="0" stop-color="#ee609c"/></linearGradient><linearGradient id="linear-gradient-4" x1="191.84" y1="159.34" x2="249.89" y2="159.34" xlink:href="#linear-gradient-3"/><linearGradient id="linear-gradient-5" x1="110.21" y1="102.32" x2="168.26" y2="102.32" xlink:href="#linear-gradient-3"/><linearGradient id="linear-gradient-6" x1="110.21" y1="109.8" x2="168.26" y2="109.8" xlink:href="#linear-gradient-3"/><linearGradient id="linear-gradient-7" x1="110.21" y1="117.27" x2="168.26" y2="117.27" xlink:href="#linear-gradient-3"/><linearGradient id="linear-gradient-8" x1="110.21" y1="124.75" x2="168.26" y2="124.75" xlink:href="#linear-gradient-3"/><linearGradient id="linear-gradient-9" x1="191.84" y1="166.82" x2="211.3" y2="166.82" xlink:href="#linear-gradient-3"/><linearGradient id="New_Gradient_Swatch_2-3" x1="116.09" y1="52.53" x2="181.6" y2="52.53" xlink:href="#New_Gradient_Swatch_2"/><linearGradient id="linear-gradient-10" x1="211.95" y1="25.91" x2="244.19" y2="25.91" gradientUnits="userSpaceOnUse"><stop offset="1" stop-color="#b465da"/><stop offset="1" stop-color="#ee609c"/></linearGradient><linearGradient id="linear-gradient-11" x1="246.23" y1="60.19" x2="278.48" y2="60.19" xlink:href="#linear-gradient-10"/><linearGradient id="linear-gradient-12" x1="228.58" y1="225.42" x2="250.37" y2="225.42" gradientUnits="userSpaceOnUse"><stop offset="0" stop-color="#3c57ab"/><stop offset="1" stop-color="#6582db"/></linearGradient><linearGradient id="linear-gradient-13" x1="239.48" y1="207.83" x2="239.48" y2="180.38" xlink:href="#linear-gradient-12"/><linearGradient id="linear-gradient-14" x1="229.06" y1="190.4" x2="239.48" y2="190.4" xlink:href="#linear-gradient-10"/><linearGradient id="linear-gradient-15" x1="239.48" y1="190.4" x2="249.89" y2="190.4" xlink:href="#linear-gradient-10"/><linearGradient id="linear-gradient-16" x1="207.23" y1="198.76" x2="230.54" y2="198.76" xlink:href="#linear-gradient-10"/><linearGradient id="linear-gradient-17" x1="248.49" y1="198.76" x2="271.8" y2="198.76" xlink:href="#linear-gradient-10"/><linearGradient id="linear-gradient-18" x1="237.22" y1="235.54" x2="208.35" y2="224.92" xlink:href="#linear-gradient-12"/><linearGradient id="linear-gradient-19" x1="283.51" y1="219.91" x2="257.01" y2="230.01" xlink:href="#linear-gradient-12"/><linearGradient id="linear-gradient-20" x1="252.55" y1="123.2" x2="311.97" y2="123.2" xlink:href="#linear-gradient"/><linearGradient id="linear-gradient-21" x1="48.58" y1="125.65" x2="73.23" y2="125.65" gradientUnits="userSpaceOnUse"><stop offset="1" stop-color="#ee609c"/><stop offset="1" stop-color="#b465da"/></linearGradient><linearGradient id="linear-gradient-22" x1="69.99" y1="80.62" x2="108.08" y2="80.62" xlink:href="#linear-gradient-3"/><linearGradient id="linear-gradient-23" x1="104.97" y1="202.53" x2="175.25" y2="202.53" xlink:href="#linear-gradient-3"/><linearGradient id="linear-gradient-24" x1="110.73" y1="171.97" x2="169.49" y2="171.97" xlink:href="#linear-gradient-10"/><linearGradient id="linear-gradient-25" x1="110.73" y1="224.96" x2="169.49" y2="224.96" xlink:href="#linear-gradient-10"/></defs><title>academic-graphic_3</title><g id="Layer_2" data-name="Layer 2"><g id="OBJECTS"><path class="cls-1" d="M187.71,249.94c0,3.6-19.78,6.53-44.18,6.53s-44.18-2.93-44.18-6.53,19.78-6.53,44.18-6.53S187.71,246.33,187.71,249.94Z"/><rect class="cls-2" x="79.07" y="39.99" width="61.13" height="5" rx="2.41" ry="2.41" transform="translate(219.27 84.98) rotate(180)"/><rect class="cls-2" x="92.94" y="48.47" width="38.01" height="5" rx="2.41" ry="2.41" transform="translate(223.89 101.95) rotate(180)"/><path class="cls-3" d="M18.09,238.8S-7.75,133,54.76,117.15C174,86.9,162.32,0,227.58,0S297.8,238.8,297.8,238.8Z"/><rect class="cls-4" x="166.06" y="206.42" width="27.75" height="32.38"/><polygon class="cls-5" points="166.06 209.68 193.81 231.61 193.81 206.42 166.06 206.42 166.06 209.68"/><line class="cls-6" y1="238.8" x2="309.45" y2="238.8"/><rect class="cls-7" x="91.12" y="80.62" width="177.63" height="127.38"/><rect class="cls-8" x="99.44" y="89.93" width="160.98" height="108.76"/><rect class="cls-9" x="191.84" y="100.37" width="58.05" height="39.38" rx="3.63" ry="3.63"/><path class="cls-8" d="M212.62,111.37v17.37a1.75,1.75,0,0,0,2.66,1.5l14.29-8.68a1.76,1.76,0,0,0,0-3l-14.29-8.68A1.75,1.75,0,0,0,212.62,111.37Z"/><rect class="cls-10" x="191.84" y="149.91" width="58.05" height="3.91" rx="1.76" ry="1.76"/><rect class="cls-11" x="191.84" y="157.39" width="58.05" height="3.91" rx="1.76" ry="1.76"/><rect class="cls-12" x="110.21" y="100.37" width="58.05" height="3.91" rx="1.76" ry="1.76"/><rect class="cls-13" x="110.21" y="107.84" width="58.05" height="3.91" rx="1.76" ry="1.76"/><rect class="cls-14" x="110.21" y="115.32" width="58.05" height="3.91" rx="1.76" ry="1.76"/><rect class="cls-15" x="110.21" y="122.8" width="58.05" height="3.91" rx="1.76" ry="1.76"/><rect class="cls-16" x="191.84" y="164.87" width="19.46" height="3.91" rx="1.76" ry="1.76"/><circle class="cls-17" cx="150.51" cy="55.78" r="32.75" transform="translate(-9.93 60.54) rotate(-22.03)"/><circle class="cls-18" cx="148.85" cy="52.53" r="32.75"/><path class="cls-19" d="M168.92,26.66c-8.15-1.19-25.36-2.87-26.18,4.17-.56,4.72,5.55,2.91,6.11,6.24s-1,5.83,4.3,6.25,10.4,1.39,7.49,4.72-9.71,4-11.79,7.63,1.94,8,2.21,11.13,1.81,9.87,10.55,10.94c-.42-4.86,1.81-8.19,2.08-13.61s-3.33-9.19,0-11.6,4.21,1.72,8.7,0c4.24-1.62,1.51-6,8.79-5.24A32.74,32.74,0,0,0,168.92,26.66Z"/><path class="cls-19" d="M136.77,76.9c-.28-2.77,4.16-5.83,4.3-10.1s-4.86-5.58-6.66-9.19,1.94-12.77,2.5-17.9-4.86-7.22-8.61-6.8a10.53,10.53,0,0,1-5-.86,32.71,32.71,0,0,0-1.24,39.3,5.05,5.05,0,0,1,3.2-3.33C129.63,66.47,134.55,75.1,136.77,76.9Z"/><polygon class="cls-8" points="237.79 61.34 226.93 50.47 254.53 20.24 268.02 33.73 237.79 61.34"/><polygon class="cls-20" points="234.59 58.14 230.13 53.67 218.55 56.23 232.04 69.72 234.59 58.14"/><polygon class="cls-20" points="252.33 22.66 265.61 35.94 268.02 33.73 254.53 20.24 252.33 22.66"/><polygon class="cls-21" points="230.84 42.03 211.95 30.2 232.36 9.78 244.19 28.68 230.84 42.03"/><line class="cls-22" x1="236.63" y1="34.47" x2="253.8" y2="51.63"/><polygon class="cls-23" points="246.24 57.42 258.07 76.32 278.48 55.91 259.59 44.07 246.24 57.42"/><line class="cls-24" x1="261.75" y1="45.43" x2="247.59" y2="59.59"/><line class="cls-24" x1="264.23" y1="46.98" x2="249.14" y2="62.07"/><line class="cls-24" x1="267.06" y1="48.75" x2="250.91" y2="64.9"/><line class="cls-24" x1="270.31" y1="50.79" x2="252.95" y2="68.15"/><line class="cls-24" x1="274.09" y1="53.15" x2="255.32" y2="71.93"/><line class="cls-24" x1="252.91" y1="50.75" x2="268.28" y2="66.11"/><line class="cls-24" x1="242.84" y1="26.51" x2="228.67" y2="40.67"/><line class="cls-24" x1="241.28" y1="24.03" x2="226.19" y2="39.12"/><line class="cls-24" x1="239.51" y1="21.2" x2="223.37" y2="37.35"/><line class="cls-24" x1="237.48" y1="17.95" x2="220.12" y2="35.31"/><line class="cls-24" x1="235.11" y1="14.17" x2="216.34" y2="32.95"/><line class="cls-24" x1="222.15" y1="19.99" x2="237.52" y2="35.35"/><polygon class="cls-25" points="230.13 53.67 226.4 54.49 232.04 69.72 234.59 58.14 230.13 53.67"/><rect class="cls-26" x="196.39" y="41.69" width="26.98" height="2.21" rx="0.88" ry="0.88"/><rect class="cls-26" x="206.59" y="46.96" width="16.78" height="2.21" rx="0.88" ry="0.88"/><rect class="cls-26" x="268.98" y="37.05" width="26.98" height="2.21" rx="0.88" ry="0.88" transform="translate(564.93 76.31) rotate(-180)"/><rect class="cls-26" x="268.98" y="42.32" width="16.78" height="2.21" rx="0.88" ry="0.88" transform="translate(554.73 86.85) rotate(-180)"/><rect class="cls-27" x="228.58" y="221.34" width="21.79" height="8.17"/><path class="cls-28" d="M239.48,177.32a52.09,52.09,0,0,0-13.43,1.53L227.79,208h23.37l1.74-29.14A52,52,0,0,0,239.48,177.32Z"/><path class="cls-20" d="M233.55,177.6l5.93,25.6,5.92-25.6c-1.73-.16-3.71-.28-5.92-.28S235.28,177.44,233.55,177.6Z"/><polygon class="cls-29" points="239.47 203.19 233.55 177.6 229.06 183.41 234.27 189.38 230.68 193.63 239.47 203.19"/><polygon class="cls-30" points="239.47 203.19 245.4 177.6 249.89 183.41 244.68 189.38 248.27 193.63 239.47 203.19"/><path class="cls-31" d="M226.05,178.85s3.27,6.21.73,12.32S216.29,208,216.29,208l14.25,4v6.66s-19,.65-22.76-6.2S221.08,180.24,226.05,178.85Z"/><path class="cls-32" d="M253,178.85s-3.27,6.21-.73,12.32S262.74,208,262.74,208l-14.25,4v6.66s19,.65,22.77-6.2S258,180.24,253,178.85Z"/><path class="cls-33" d="M246.24,233.28l-2.13,7.12S192.62,237.76,199,222C204.94,207.1,246.24,233.28,246.24,233.28Z"/><path class="cls-34" d="M235,233.69l-4.86,1.21s-3.62-.89-8.36-1.81-8.8-1.08-9.63,1.2,1.44,7.68,6.34,7.4c4.57-.26,6.14,1.19,9.44.75s4.12-2.5,4.12-2.5l4.73-.85Z"/><path class="cls-35" d="M227.9,242.44c-3.3.44-4.87-1-9.44-.75-4.9.28-7.16-5.11-6.34-7.4s4.86-2.12,9.63-1.2,8.36,1.81,8.36,1.81a8.78,8.78,0,0,0,1.91,5S231.2,242,227.9,242.44Z"/><path class="cls-34" d="M244,233.69l4.86,1.21s3.62-.89,8.36-1.81,8.8-1.08,9.63,1.2-1.44,7.68-6.34,7.4c-4.57-.26-6.14,1.19-9.44.75s-4.12-2.5-4.12-2.5l-4.73-.85Z"/><path class="cls-35" d="M251.05,242.44c3.3.44,4.87-1,9.44-.75,4.9.28,7.16-5.11,6.34-7.4s-4.86-2.12-9.63-1.2-8.36,1.81-8.36,1.81a8.78,8.78,0,0,1-1.91,5S247.75,242,251.05,242.44Z"/><path class="cls-36" d="M232.71,233.28l2.13,7.12S286.33,237.76,280,222C274,207.1,232.71,233.28,232.71,233.28Z"/><path class="cls-17" d="M256.22,226.22H222.73a1.66,1.66,0,0,1-1.64-1.38l-4-22.48a1.67,1.67,0,0,1,1.64-2h41.41a1.67,1.67,0,0,1,1.64,2l-4,22.48A1.66,1.66,0,0,1,256.22,226.22Z"/><path class="cls-37" d="M256.56,224.58H222.39a1.66,1.66,0,0,1-1.64-1.38l-4-22.48a1.67,1.67,0,0,1,1.64-2h42.09a1.67,1.67,0,0,1,1.64,2l-4,22.48A1.66,1.66,0,0,1,256.56,224.58Z"/><circle class="cls-8" cx="239.48" cy="210.78" r="4.35"/><path class="cls-35" d="M233,167.35l-2.41-5.5s-4.58-.37-4.58-3.75c0-4.81,7.22-7.72,7.22-7.72a1.79,1.79,0,0,1,.18-2.18c1.67-2.31,9.3,1.34,9.3,1.34a1.92,1.92,0,0,1,1.16-1.85c2.26-.87,3.88,4.26,4,6.43,0,0,3.41,1.69,3.56,3.86,0,.69-2.41-.8-2.41-.8s1.65,4.84-3.15,10.17Z"/><path class="cls-34" d="M235.31,170.59v7c0,.29,1.87.53,4.17.53s4.16-.24,4.16-.53v-7Z"/><path class="cls-17" d="M235.31,173.47a12.54,12.54,0,0,0,8.33,3.19v-6.07h-8.33Z"/><path class="cls-34" d="M244.28,157.83c-1.16,1.29-4.26,2-6-1.21-2.42,3.12-4.55,4-5.87,4.25a81.8,81.8,0,0,0,1,8.34c.69,3.12,4.93,4.3,6.11,4.3s5.41-1.18,6.1-4.3a81.41,81.41,0,0,0,1-8.56A4.75,4.75,0,0,1,244.28,157.83Z"/><path class="cls-17" d="M305.61,146a31,31,0,1,0-48-5.17l-4.76,11.71L267,150.2A31,31,0,0,0,305.61,146Z"/><path class="cls-38" d="M303.26,144.21a29.71,29.71,0,1,0-46-5l-4.36,13.32,13.32-4.36A29.71,29.71,0,0,0,303.26,144.21Z"/><path class="cls-39" d="M286.37,142.19c0,1.38-1.93,2.5-4.3,2.5s-4.31-1.12-4.31-2.5,1.93-2.49,4.31-2.49S286.37,140.81,286.37,142.19Z"/><path class="cls-8" d="M282.07,110.24c-7.22,0-11,4.16-11,9.16,0,7.49,6.18,9.44,6.18,13.95h9.58c0-4.51,6.17-6.46,6.17-13.95C293,114.4,289.28,110.24,282.07,110.24Z"/><path class="cls-40" d="M288.22,136.75a1.14,1.14,0,0,0-1.13-1.14,1.13,1.13,0,0,0,0-2.26h-10a1.13,1.13,0,1,0,0,2.26,1.14,1.14,0,1,0,0,2.27,1.14,1.14,0,1,0,0,2.27,1.13,1.13,0,1,0,0,2.26h10a1.13,1.13,0,0,0,0-2.26,1.14,1.14,0,0,0,0-2.27A1.14,1.14,0,0,0,288.22,136.75Z"/><rect class="cls-8" x="275.3" y="103.47" width="1.18" height="4.27" transform="translate(-19.51 107.79) rotate(-21.37)"/><rect class="cls-8" x="266.33" y="110.19" width="1.18" height="4.51" transform="translate(43.76 297.08) rotate(-62.45)"/><rect class="cls-8" x="286.11" y="105.02" width="4.27" height="1.18" transform="translate(84.78 335.48) rotate(-68.61)"/><rect class="cls-8" x="294.96" y="111.85" width="4.51" height="1.18" transform="translate(-18.29 150.36) rotate(-27.58)"/><path class="cls-41" d="M285.46,129h-.06a.51.51,0,0,1-.46-.56c.07-.58.11-5,.11-6,0-3-.6-4.76-.94-4.94a7,7,0,0,0-.58,1.91.52.52,0,0,1-.51.42.51.51,0,0,1-.5-.42c-.25-1.39-.59-1.86-.69-1.91a6.36,6.36,0,0,0-.59,1.91.52.52,0,0,1-.51.42h0a.51.51,0,0,1-.5-.42c-.25-1.39-.59-1.86-.69-1.91-.23.18-.83,2-.83,4.94,0,1,0,5.39.1,6a.51.51,0,0,1-.46.56.51.51,0,0,1-.56-.46c-.07-.69-.11-5.49-.11-6.07s.05-6,1.91-6c.46,0,.84.33,1.14,1,.61-1.3,1.68-1.3,2.29,0,.3-.65.69-1,1.14-1,1.86,0,1.91,5.35,1.91,6s0,5.38-.1,6.07A.52.52,0,0,1,285.46,129Z"/><path class="cls-39" d="M77.54,108.18c-1.94-1.8-1.66-5.27-1.8-7.15a8.37,8.37,0,0,0-3.06-6.24c-2.36-1.88-2.15-4-3.26-7.29S65.33,82,61.16,82,54,84.24,52.91,87.5s-.9,5.41-3.26,7.29A8.37,8.37,0,0,0,46.59,101c-.14,1.88.14,5.35-1.8,7.15s-3.75,5.41-.63,7.15,17,3.12,17,3.12,13.88-1.39,17-3.12S79.48,110,77.54,108.18Z"/><path class="cls-34" d="M49.78,117.57,37.29,127.75,47.56,141a9.71,9.71,0,0,1,1,4.35l-2,6.47s-3.13-1-2.77-3.79a26.49,26.49,0,0,0-.66-7.22s-12.12-5.73-12-12.86,19.49-20.17,19.49-20.17S53.3,113.13,49.78,117.57Z"/><path class="cls-34" d="M82.71,234.75l1.38,7.49s8.54,8.19,13.4,12.35c0,0-2.22,2.85-7.39.77s-5.52-3.33-9.27-4-4.51-2.84-4.51-2.84a9.48,9.48,0,0,0,1.39-7.15c-.83-4.23-1.39-6.66-1.39-6.66Z"/><path class="cls-34" d="M49.69,234.75l.93,7.49s-8.53,8.19-13.39,12.35c0,0,2.22,2.85,7.39.77s5.52-3.33,9.26-4,4.51-2.84,4.51-2.84a31.57,31.57,0,0,1-1.67-7.33c-.5-4.65-.65-6.48-.65-6.48Z"/><path class="cls-42" d="M44.62,255.36c5.17-2.08,5.52-3.33,9.26-4s4.51-2.84,4.51-2.84a30.52,30.52,0,0,1-1.33-5,32.17,32.17,0,0,1-7.66-.17c-2.53,2.41-8.43,8-12.17,11.18C37.23,254.59,39.45,257.44,44.62,255.36Z"/><path class="cls-42" d="M97.49,254.59c-3.67-3.14-9.44-8.58-12-11.05a32.66,32.66,0,0,1-7.56.18,9.25,9.25,0,0,1-1.57,4.84s.77,2.22,4.51,2.84,4.1,1.88,9.27,4S97.49,254.59,97.49,254.59Z"/><path class="cls-8" d="M72.56,140.24l13.13,96H72.56s-3.13-21-3.2-33.58c0-9.85-9.94-27.48-9.94-46v79.56h-10s-4.44-17.76-3.48-29.79-2.12-25.9-2.12-40.71a64.42,64.42,0,0,1,6.44-27Z"/><path class="cls-1" d="M54.59,139.05l-4.37-.29a59.84,59.84,0,0,0-3.85,10C51.11,148.14,53.59,142.24,54.59,139.05Z"/><path class="cls-34" d="M71.92,108.52l14.92,17.13,15.47-9.77s3.2-4.09,6.94-3.54l-1.66,1.25s5-1.39,5.27-.55-1.87,4.51-4.65,5.2a18.9,18.9,0,0,1-5.06.58S92.67,131.68,86.7,131.68s-17.07-13.23-17.07-13.23Z"/><path class="cls-43" d="M71.51,125.53A39.24,39.24,0,0,0,72.07,109a1.72,1.72,0,0,0-.84-1.23,16.36,16.36,0,0,0-7.3-1.77c-1.88-.08-3,0-3,0s-1.14-.07-3,0a16.36,16.36,0,0,0-7.3,1.77,1.73,1.73,0,0,0-.85,1.23,39.41,39.41,0,0,0,.56,16.54c1.72,7.49-1.72,15.73-1.72,15.73s2.07,3.89,5.6,4.07,6.73-3.7,6.73-3.7,3.2,3.89,6.73,3.7,5.59-4.07,5.59-4.07S69.79,133,71.51,125.53Z"/><rect class="cls-8" x="60.65" y="105.99" width="0.52" height="18.23"/><circle class="cls-41" cx="62.88" cy="111.68" r="1"/><circle class="cls-41" cx="62.88" cy="115.38" r="1"/><circle class="cls-41" cx="62.88" cy="119.09" r="1"/><path class="cls-34" d="M57.66,99.92V106c0,.23,1.46.41,3.25.41s3.24-.18,3.24-.41V99.92Z"/><path class="cls-17" d="M64.15,105.92v-6H57.66v2.62A13.9,13.9,0,0,0,64.15,105.92Z"/><path class="cls-34" d="M65.47,89.79a5.39,5.39,0,0,1-4.56,2.38,6,6,0,0,0,2.2-3.59,11.23,11.23,0,0,1-8.5,3.11,66.53,66.53,0,0,0,.76,7.23c.56,2.49,4.23,3.53,5.59,3.53s5-1,5.58-3.53a47.18,47.18,0,0,0,.66-6A5.28,5.28,0,0,1,65.47,89.79Z"/><path class="cls-1" d="M68.71,197.62v0a25.06,25.06,0,0,1,.65,5c.07,12.57,3.2,33.58,3.2,33.58h7.5Z"/><path class="cls-42" d="M48.44,232.07c.54,2.58.94,4.2.94,4.2h10v-4.2Z"/><path class="cls-42" d="M72.56,236.27H85.69l-.57-4.2H72C72.32,234.66,72.56,236.27,72.56,236.27Z"/><line class="cls-44" x1="102.02" y1="116.76" x2="130.17" y2="103.75"/><path class="cls-17" d="M104.06,95.89a19,19,0,1,0-29.5-3.18l-4.35,6.74,10.09-1A19.06,19.06,0,0,0,104.06,95.89Z"/><path class="cls-45" d="M102.5,94.09A19,19,0,1,0,73,90.9l-2.79,8.55,8.54-2.8A19,19,0,0,0,102.5,94.09Z"/><path class="cls-8" d="M89.18,70.29a9.15,9.15,0,0,1,2.66.38,7,7,0,0,1,2.3,1.12,5.69,5.69,0,0,1,1.62,1.83,5.16,5.16,0,0,1,.61,2.52,5,5,0,0,1-.37,2,6.14,6.14,0,0,1-.93,1.54A9.69,9.69,0,0,1,93.84,81L92.57,82a8.06,8.06,0,0,0-1,1.06A2.32,2.32,0,0,0,91,84.28a1.13,1.13,0,0,1-.27.56.67.67,0,0,1-.52.23H88a.83.83,0,0,1-.57-.23.67.67,0,0,1-.22-.56,5.11,5.11,0,0,1,.48-2,6.87,6.87,0,0,1,1-1.54A10.66,10.66,0,0,1,90,79.51c.46-.37.88-.72,1.27-1.06a7.49,7.49,0,0,0,1-1,1.84,1.84,0,0,0,.37-1.12,2.2,2.2,0,0,0-.93-1.82,4,4,0,0,0-2.47-.71,3.82,3.82,0,0,0-3.64,2.47,1.47,1.47,0,0,1-.3.48.74.74,0,0,1-.54.16H82.34a.68.68,0,0,1-.45-.17.63.63,0,0,1-.19-.47,4.49,4.49,0,0,1,.63-2.08,7.06,7.06,0,0,1,1.6-1.92,8.59,8.59,0,0,1,2.36-1.41A7.51,7.51,0,0,1,89.18,70.29Zm1.17,16.52a.75.75,0,0,1,.55.24.76.76,0,0,1,.23.55v2.56a.76.76,0,0,1-.23.55.75.75,0,0,1-.55.24H87.84a.75.75,0,0,1-.55-.24.73.73,0,0,1-.23-.55V87.6a.73.73,0,0,1,.23-.55.75.75,0,0,1,.55-.24Z"/><path class="cls-46" d="M111.66,147.93h70.13a0,0,0,0,1,0,0v99.93a0,0,0,0,1,0,0H105a0,0,0,0,1,0,0V154.62A6.69,6.69,0,0,1,111.66,147.93Z"/><path class="cls-8" d="M175.25,249.94H107.46V155.82a6.29,6.29,0,0,1,6.54-6h65.6v96.31Z"/><polygon class="cls-17" points="169.08 249.94 175.25 249.94 179.6 246.14 179.6 222.83 169.08 249.94"/><rect class="cls-47" x="104.97" y="153.54" width="70.28" height="97.98"/><rect class="cls-48" x="110.73" y="159.16" width="58.76" height="25.63"/><rect class="cls-49" x="110.73" y="204.02" width="58.76" height="41.87"/><path class="cls-17" d="M119.17,151.5l-.88,1.1a3.33,3.33,0,0,0-.75,2.09v40.82l9.84-10.64,9.85,10.64V154.69a3.33,3.33,0,0,1,.75-2.09l.88-1.1Z"/><path class="cls-37" d="M118,151.5l-.88,1.1a3.33,3.33,0,0,0-.75,2.09v39.19l9.85-10.65L136,193.88V154.69a3.33,3.33,0,0,1,.75-2.09l.88-1.1Z"/><g class="cls-17"><rect x="114.14" y="151.24" width="32.89" height="0.52"/></g><path class="cls-8" d="M289.58,200.59c-4,1.16-5,2.1-6.13,6.13-1.15-4-2.09-5-6.12-6.13,4-1.16,5-2.09,6.12-6.12C284.61,198.5,285.55,199.43,289.58,200.59Z"/><circle class="cls-8" cx="194.54" cy="66.11" r="6.12"/><circle class="cls-8" cx="25.5" cy="179.01" r="6.12"/></g></g></svg>