<svg xmlns="http://www.w3.org/2000/svg" xmlns:xlink="http://www.w3.org/1999/xlink" viewBox="0 0 193.3 157.14"><defs><style>.cls-1{fill:url(#radial-gradient);}.cls-2{fill:#fff;}.cls-3{fill:url(#radial-gradient-2);}.cls-4{fill:url(#radial-gradient-3);}.cls-5{fill:url(#radial-gradient-4);}.cls-6{fill:url(#radial-gradient-5);}.cls-7{fill:url(#radial-gradient-6);}.cls-8{fill:url(#radial-gradient-7);}.cls-9{fill:url(#radial-gradient-8);}.cls-10{fill:url(#radial-gradient-9);}.cls-11{fill:url(#radial-gradient-10);}.cls-12{fill:url(#radial-gradient-11);}.cls-13{fill:url(#radial-gradient-12);}.cls-14{fill:url(#radial-gradient-13);}.cls-15{fill:url(#radial-gradient-14);}.cls-16{fill:url(#radial-gradient-15);}.cls-17{fill:url(#radial-gradient-16);}.cls-18{fill:url(#radial-gradient-17);}.cls-19{fill:url(#radial-gradient-18);}.cls-20{fill:url(#radial-gradient-19);}.cls-21{fill:url(#radial-gradient-20);}.cls-22{fill:url(#radial-gradient-21);}.cls-23{fill:url(#radial-gradient-22);}.cls-24{fill:url(#radial-gradient-23);}.cls-25{fill:url(#radial-gradient-24);}.cls-26{fill:url(#radial-gradient-25);}.cls-27{fill:url(#radial-gradient-26);}.cls-28{fill:url(#radial-gradient-27);}.cls-29{fill:url(#radial-gradient-28);}.cls-30{fill:url(#radial-gradient-29);}.cls-31{fill:url(#radial-gradient-30);}.cls-32{fill:url(#linear-gradient);}.cls-33{fill:url(#linear-gradient-2);}.cls-34{fill:url(#linear-gradient-3);}.cls-35{fill:url(#New_Gradient_Swatch_1);}.cls-36{fill:url(#radial-gradient-31);}.cls-37{fill:url(#radial-gradient-32);}.cls-38{fill:url(#radial-gradient-33);}.cls-39{fill:#fabf31;}.cls-40{fill:url(#radial-gradient-34);}.cls-41{fill:url(#radial-gradient-35);}.cls-42{fill:url(#radial-gradient-36);}.cls-43{fill:url(#radial-gradient-37);}.cls-44{fill:url(#linear-gradient-4);}.cls-45{fill:url(#linear-gradient-5);}.cls-46{fill:#f9be2f;}.cls-47{fill:url(#linear-gradient-6);}.cls-48{fill:url(#radial-gradient-38);}.cls-49{fill:url(#radial-gradient-39);}.cls-50{fill:url(#radial-gradient-40);}</style><radialGradient id="radial-gradient" cx="75.59" cy="44.71" r="9.14" gradientUnits="userSpaceOnUse"><stop offset="0" stop-color="#bcbec0"/><stop offset="0.99" stop-color="#e6e7e8"/></radialGradient><radialGradient id="radial-gradient-2" cx="192.83" cy="39.04" r="26.43" gradientTransform="matrix(1, 0, 0, -1, -46.36, 170.85)" xlink:href="#radial-gradient"/><radialGradient id="radial-gradient-3" cx="188.55" cy="19.69" r="26.5" gradientTransform="matrix(1, 0, 0, -1, -46.36, 170.85)" gradientUnits="userSpaceOnUse"><stop offset="0" stop-color="#808285"/><stop offset="0.99" stop-color="#58595b"/></radialGradient><radialGradient id="radial-gradient-4" cx="41.11" cy="66.15" r="26.43" gradientTransform="translate(229.59 170.85) rotate(180)" xlink:href="#radial-gradient"/><radialGradient id="radial-gradient-5" cx="36.83" cy="46.8" r="26.5" gradientTransform="translate(229.59 170.85) rotate(180)" xlink:href="#radial-gradient-3"/><radialGradient id="radial-gradient-6" cx="55.55" cy="137.86" r="26.43" gradientTransform="translate(229.59 170.85) rotate(180)" xlink:href="#radial-gradient"/><radialGradient id="radial-gradient-7" cx="51.28" cy="118.51" r="26.5" gradientTransform="translate(229.59 170.85) rotate(180)" xlink:href="#radial-gradient-3"/><radialGradient id="radial-gradient-8" cx="67.91" cy="26.45" r="26.44" gradientTransform="translate(229.59 170.85) rotate(180)" xlink:href="#radial-gradient"/><radialGradient id="radial-gradient-9" cx="63.64" cy="7.11" r="26.49" gradientTransform="translate(229.59 170.85) rotate(180)" xlink:href="#radial-gradient-3"/><radialGradient id="radial-gradient-10" cx="87.94" cy="151.54" r="26.44" gradientTransform="translate(229.59 170.85) rotate(180)" xlink:href="#radial-gradient"/><radialGradient id="radial-gradient-11" cx="83.66" cy="132.2" r="26.49" gradientTransform="translate(229.59 170.85) rotate(180)" xlink:href="#radial-gradient-3"/><radialGradient id="radial-gradient-12" cx="247.94" cy="54.6" r="26.43" gradientTransform="matrix(1, 0, 0, -1, -72, 170.85)" xlink:href="#radial-gradient"/><radialGradient id="radial-gradient-13" cx="243.67" cy="35.25" r="26.5" gradientTransform="matrix(1, 0, 0, -1, -72, 170.85)" xlink:href="#radial-gradient-3"/><radialGradient id="radial-gradient-14" cx="134.99" cy="43.63" r="26.44" gradientTransform="translate(-46.36 -45.35)" xlink:href="#radial-gradient"/><radialGradient id="radial-gradient-15" cx="130.71" cy="24.29" r="26.49" gradientTransform="translate(-46.36 -45.35)" xlink:href="#radial-gradient-3"/><radialGradient id="radial-gradient-16" cx="111.51" cy="55.38" r="26.44" gradientTransform="matrix(-1, 0, 0, 1, 229.59, -45.35)" xlink:href="#radial-gradient"/><radialGradient id="radial-gradient-17" cx="107.24" cy="36.03" r="26.49" gradientTransform="matrix(-1, 0, 0, 1, 229.59, -45.35)" xlink:href="#radial-gradient-3"/><radialGradient id="radial-gradient-18" cx="103.18" cy="181.1" r="9.14" gradientTransform="translate(206.45 304.91) rotate(180)" xlink:href="#radial-gradient"/><radialGradient id="radial-gradient-19" cx="216" cy="-97.35" r="26.43" gradientTransform="matrix(-1, 0, 0, 1, 252.81, 134.06)" xlink:href="#radial-gradient"/><radialGradient id="radial-gradient-20" cx="211.72" cy="-116.7" r="26.5" gradientTransform="matrix(-1, 0, 0, 1, 252.81, 134.06)" xlink:href="#radial-gradient-3"/><radialGradient id="radial-gradient-21" cx="31.22" cy="-54" r="26.43" gradientTransform="translate(-23.15 134.06)" xlink:href="#radial-gradient"/><radialGradient id="radial-gradient-22" cx="26.95" cy="-73.35" r="26.5" gradientTransform="translate(-23.15 134.06)" xlink:href="#radial-gradient-3"/><radialGradient id="radial-gradient-23" cx="27.96" cy="1.47" r="26.43" gradientTransform="translate(-23.15 134.06)" xlink:href="#radial-gradient"/><radialGradient id="radial-gradient-24" cx="23.69" cy="-17.88" r="26.5" gradientTransform="translate(-23.15 134.06)" xlink:href="#radial-gradient-3"/><radialGradient id="radial-gradient-25" cx="40.32" cy="-109.94" r="26.44" gradientTransform="translate(-23.15 134.06)" xlink:href="#radial-gradient"/><radialGradient id="radial-gradient-26" cx="36.05" cy="-129.29" r="26.49" gradientTransform="translate(-23.15 134.06)" xlink:href="#radial-gradient-3"/><radialGradient id="radial-gradient-27" cx="60.35" cy="11.99" r="26.44" gradientTransform="translate(-23.15 134.06)" xlink:href="#radial-gradient"/><radialGradient id="radial-gradient-28" cx="56.07" cy="-7.35" r="26.49" gradientTransform="translate(-23.15 134.06)" xlink:href="#radial-gradient-3"/><radialGradient id="radial-gradient-29" cx="275.53" cy="-81.79" r="26.43" gradientTransform="matrix(-1, 0, 0, 1, 278.45, 134.06)" xlink:href="#radial-gradient"/><radialGradient id="radial-gradient-30" cx="271.26" cy="-101.14" r="26.5" gradientTransform="matrix(-1, 0, 0, 1, 278.45, 134.06)" xlink:href="#radial-gradient-3"/><linearGradient id="linear-gradient" x1="67.35" y1="115.96" x2="101.26" y2="115.96" gradientUnits="userSpaceOnUse"><stop offset="1" stop-color="#b465da"/><stop offset="1" stop-color="#cf6cc9"/></linearGradient><linearGradient id="linear-gradient-2" x1="67.35" y1="120.96" x2="101.26" y2="120.96" gradientUnits="userSpaceOnUse"><stop offset="1" stop-color="#ee609c"/><stop offset="1" stop-color="#b465da"/></linearGradient><linearGradient id="linear-gradient-3" x1="67.35" y1="127.42" x2="101.26" y2="127.42" xlink:href="#linear-gradient-2"/><linearGradient id="New_Gradient_Swatch_1" x1="49.59" y1="64.78" x2="127.09" y2="64.78" gradientUnits="userSpaceOnUse"><stop offset="0" stop-color="#b465da"/><stop offset="0.36" stop-color="#cf6cc9"/><stop offset="0.78" stop-color="#ee609c"/></linearGradient><radialGradient id="radial-gradient-31" cx="106.34" cy="73.34" r="39.37" xlink:href="#radial-gradient"/><radialGradient id="radial-gradient-32" cx="99.8" cy="38.02" r="20.4" xlink:href="#radial-gradient"/><radialGradient id="radial-gradient-33" cx="86.67" cy="88.68" r="35.69" xlink:href="#radial-gradient"/><radialGradient id="radial-gradient-34" cx="82.37" cy="120.49" r="58.18" gradientTransform="matrix(1, 0, 0, 1, 0, 0)" xlink:href="#radial-gradient-3"/><radialGradient id="radial-gradient-35" cx="82.37" cy="134.05" r="58.18" gradientTransform="matrix(1, 0, 0, 1, 0, 0)" xlink:href="#radial-gradient-3"/><radialGradient id="radial-gradient-36" cx="76.55" cy="102.56" r="42.37" gradientTransform="matrix(1, 0, 0, 1, 0, 0)" xlink:href="#radial-gradient-3"/><radialGradient id="radial-gradient-37" cx="85.17" cy="57.29" r="15.08" xlink:href="#radial-gradient"/><linearGradient id="linear-gradient-4" x1="81.96" y1="47.41" x2="92.89" y2="47.41" gradientUnits="userSpaceOnUse"><stop offset="0" stop-color="#b465da"/><stop offset="0" stop-color="#ee609c"/></linearGradient><linearGradient id="linear-gradient-5" x1="71.45" y1="72.33" x2="80.65" y2="72.33" xlink:href="#linear-gradient-4"/><linearGradient id="linear-gradient-6" x1="69.41" y1="52.89" x2="61.57" y2="52.89" xlink:href="#linear-gradient-2"/><radialGradient id="radial-gradient-38" cx="61.59" cy="57.71" r="9.14" xlink:href="#radial-gradient"/><radialGradient id="radial-gradient-39" cx="72.41" cy="80.07" r="15.08" xlink:href="#radial-gradient"/><radialGradient id="radial-gradient-40" cx="98.57" cy="29.61" r="4.57" xlink:href="#radial-gradient"/></defs><title>head-gear_8</title><g id="Layer_2" data-name="Layer 2"><g id="objects"><path class="cls-1" d="M77,51.7a2,2,0,1,1-2-2A1.94,1.94,0,0,1,77,51.7Z"/><rect class="cls-2" x="161.99" y="138.89" width="1.44" height="10.38"/><polygon class="cls-2" points="189.52 99.84 165.37 99.99 165.37 98.55 189.52 98.4 189.52 99.84"/><rect class="cls-2" x="165.37" y="67.77" width="1.44" height="32.14"/><rect class="cls-2" x="93.52" y="67.77" width="73.29" height="1.44"/><rect class="cls-2" x="174.35" y="27.49" width="1.44" height="32.14"/><rect class="cls-2" x="103.22" y="58.18" width="72.57" height="1.44"/><rect class="cls-2" x="121.29" y="81.69" width="1.44" height="45.41"/><polygon class="cls-2" points="145.43 126.95 121.29 127.1 121.29 125.66 145.43 125.51 145.43 126.95"/><path class="cls-3" d="M149.21,126.3a3.78,3.78,0,1,0-3.78,3.79A3.78,3.78,0,0,0,149.21,126.3Z"/><path class="cls-4" d="M147.8,126.3a2.37,2.37,0,1,0-2.37,2.37A2.37,2.37,0,0,0,147.8,126.3Z"/><rect class="cls-2" x="113.87" y="99.73" width="1.44" height="49.69"/><polygon class="cls-2" points="163.44 149.27 163.44 147.83 113.88 147.97 113.88 149.42 163.44 149.27"/><rect class="cls-2" x="141.97" y="13.81" width="1.44" height="42.28"/><polygon class="cls-2" points="97.66 56.09 143.41 56.09 143.41 54.65 97.58 54.65 97.66 56.09"/><path class="cls-5" d="M185.74,99.2a3.78,3.78,0,1,1,3.78,3.78A3.78,3.78,0,0,1,185.74,99.2Z"/><path class="cls-6" d="M187.15,99.2a2.37,2.37,0,1,1,2.37,2.36A2.37,2.37,0,0,1,187.15,99.2Z"/><path class="cls-7" d="M171.29,27.49a3.79,3.79,0,1,1,3.78,3.78A3.78,3.78,0,0,1,171.29,27.49Z"/><path class="cls-8" d="M172.71,27.49a2.37,2.37,0,1,1,2.36,2.36A2.37,2.37,0,0,1,172.71,27.49Z"/><path class="cls-9" d="M158.93,138.89a3.79,3.79,0,1,1,3.79,3.79A3.79,3.79,0,0,1,158.93,138.89Z"/><path class="cls-10" d="M160.35,138.89a2.37,2.37,0,1,1,2.37,2.37A2.37,2.37,0,0,1,160.35,138.89Z"/><path class="cls-11" d="M138.91,13.81a3.78,3.78,0,1,1,3.78,3.78A3.79,3.79,0,0,1,138.91,13.81Z"/><path class="cls-12" d="M140.33,13.81a2.36,2.36,0,1,1,2.36,2.36A2.36,2.36,0,0,1,140.33,13.81Z"/><rect class="cls-2" x="121.81" y="66.2" width="1.44" height="45.41"/><rect class="cls-2" x="121.81" y="110.17" width="53.17" height="1.44"/><path class="cls-13" d="M178.69,110.75a3.78,3.78,0,1,0-3.78,3.78A3.79,3.79,0,0,0,178.69,110.75Z"/><path class="cls-14" d="M177.28,110.75a2.37,2.37,0,1,0-2.37,2.36A2.37,2.37,0,0,0,177.28,110.75Z"/><rect class="cls-2" x="86.87" y="2.36" width="1.44" height="80.72"/><path class="cls-15" d="M91.37,3.78A3.78,3.78,0,1,1,87.59,0,3.78,3.78,0,0,1,91.37,3.78Z"/><path class="cls-16" d="M90,3.78a2.37,2.37,0,1,1-2.37-2.36A2.37,2.37,0,0,1,90,3.78Z"/><rect class="cls-2" x="82.56" y="15.35" width="1.44" height="49.69"/><rect class="cls-2" x="82.56" y="15.35" width="36.38" height="1.44"/><path class="cls-17" d="M115.33,15.53a3.79,3.79,0,1,0,3.78-3.78A3.78,3.78,0,0,0,115.33,15.53Z"/><path class="cls-18" d="M116.75,15.53a2.37,2.37,0,1,0,2.36-2.37A2.36,2.36,0,0,0,116.75,15.53Z"/><path class="cls-19" d="M101.9,116.82a1.95,1.95,0,1,1,1.95,2A2,2,0,0,1,101.9,116.82Z"/><rect class="cls-2" x="15.42" y="19.25" width="1.44" height="10.38"/><polygon class="cls-2" points="7.04 84.92 31.18 84.77 31.18 86.21 7.04 86.36 7.04 84.92"/><rect class="cls-2" x="29.74" y="84.68" width="1.44" height="16.07"/><rect class="cls-2" x="29.74" y="99.31" width="55.59" height="1.44"/><rect class="cls-2" x="3.06" y="108.89" width="1.44" height="32.14"/><rect class="cls-2" x="3.06" y="108.89" width="72.57" height="1.44"/><polygon class="cls-2" points="37.84 41.57 61.98 41.42 61.98 42.86 37.84 43.01 37.84 41.57"/><path class="cls-20" d="M34.06,42.21a3.78,3.78,0,1,0,3.78-3.78A3.79,3.79,0,0,0,34.06,42.21Z"/><path class="cls-21" d="M35.48,42.21a2.37,2.37,0,1,0,2.36-2.36A2.37,2.37,0,0,0,35.48,42.21Z"/><rect class="cls-2" x="63.54" y="19.1" width="1.44" height="49.69"/><polygon class="cls-2" points="15.42 19.25 15.42 20.69 64.98 20.54 64.98 19.1 15.42 19.25"/><rect class="cls-2" x="35.44" y="112.43" width="1.44" height="42.28"/><polygon class="cls-2" points="81.19 112.43 35.44 112.43 35.44 113.87 81.27 113.87 81.19 112.43"/><path class="cls-22" d="M10.82,85.56A3.78,3.78,0,1,1,7,81.78,3.78,3.78,0,0,1,10.82,85.56Z"/><path class="cls-23" d="M9.4,85.56A2.36,2.36,0,1,1,7,83.2,2.37,2.37,0,0,1,9.4,85.56Z"/><path class="cls-24" d="M7.56,141a3.78,3.78,0,1,1-3.78-3.78A3.78,3.78,0,0,1,7.56,141Z"/><path class="cls-25" d="M6.15,141a2.37,2.37,0,1,1-2.37-2.36A2.37,2.37,0,0,1,6.15,141Z"/><path class="cls-26" d="M19.92,29.63a3.78,3.78,0,1,1-3.78-3.79A3.78,3.78,0,0,1,19.92,29.63Z"/><path class="cls-27" d="M18.5,29.63a2.36,2.36,0,1,1-2.36-2.37A2.36,2.36,0,0,1,18.5,29.63Z"/><path class="cls-28" d="M40,151.56a3.79,3.79,0,1,1-3.79-3.79A3.79,3.79,0,0,1,40,151.56Z"/><path class="cls-29" d="M38.53,151.56a2.37,2.37,0,1,1-2.37-2.37A2.37,2.37,0,0,1,38.53,151.56Z"/><rect class="cls-2" x="3.88" y="56.9" width="53.17" height="1.44"/><path class="cls-30" d="M.16,57.77A3.78,3.78,0,1,0,3.94,54,3.78,3.78,0,0,0,.16,57.77Z"/><path class="cls-31" d="M1.58,57.77a2.37,2.37,0,1,0,2.36-2.36A2.37,2.37,0,0,0,1.58,57.77Z"/><rect class="cls-2" x="94.86" y="103.48" width="1.44" height="49.69"/><rect class="cls-32" x="67.35" y="94.17" width="33.91" height="43.6"/><rect class="cls-33" x="67.35" y="118.7" width="33.91" height="4.52"/><rect class="cls-34" x="67.35" y="125.16" width="33.91" height="4.52"/><circle class="cls-35" cx="88.34" cy="64.78" r="38.75"/><path class="cls-36" d="M93.19,26.35S112.82,30.71,112,55,95.45,87.71,85.11,89s-10.33,8.4-5.49,17.12,11.3,14.53,25.84,14.2,17-2.85,17.84-5.78,2.18-9.07,5.73-20.05c0,0,6.46-2.39,7.11-3.94s-4.37-6.88-8.71-20C130.51,54.25,121.76,29.58,93.19,26.35Z"/><path class="cls-37" d="M102.85,53.6a4.35,4.35,0,1,1-4.35-4.35A4.35,4.35,0,0,1,102.85,53.6Z"/><path class="cls-38" d="M90.38,96.1A5.11,5.11,0,1,1,85.27,91,5.11,5.11,0,0,1,90.38,96.1Z"/><path class="cls-39" d="M88.46,96.1a3.19,3.19,0,1,1-3.19-3.19A3.19,3.19,0,0,1,88.46,96.1Z"/><path class="cls-40" d="M111,138.89a4.69,4.69,0,0,1-4.69,4.69H63a4.69,4.69,0,0,1-4.68-4.69h0A4.69,4.69,0,0,1,63,134.21h43.27a4.69,4.69,0,0,1,4.69,4.68Z"/><path class="cls-41" d="M111,152.46a4.69,4.69,0,0,1-4.69,4.68H63a4.69,4.69,0,0,1-4.68-4.68h0A4.69,4.69,0,0,1,63,147.77h43.27a4.69,4.69,0,0,1,4.69,4.69Z"/><path class="cls-42" d="M102.78,145.67a3.23,3.23,0,0,1-3.23,3.23H69.71a3.22,3.22,0,0,1-3.23-3.23h0a3.23,3.23,0,0,1,3.23-3.23H99.55a3.23,3.23,0,0,1,3.23,3.23Z"/><path class="cls-43" d="M87.42,68.8a3.21,3.21,0,1,1-3.21-3.21A3.21,3.21,0,0,1,87.42,68.8Z"/><path class="cls-39" d="M98.81,49.73V45.08h-3a8.44,8.44,0,0,0-.81-2L97.12,41l-3.29-3.28-2.12,2.12a8.44,8.44,0,0,0-2-.81V36H85.1v3a8.36,8.36,0,0,0-1.95.81L81,37.72,77.74,41l2.12,2.12a8.46,8.46,0,0,0-.82,2h-3v4.65h3a8.51,8.51,0,0,0,.81,2l-2.11,2.11L81,57.1,83.13,55a9.21,9.21,0,0,0,2,.82v3h4.65v-3a8.8,8.8,0,0,0,2-.82l2.11,2.11,3.29-3.29L95,51.7a8.51,8.51,0,0,0,.81-2ZM87.43,52.88a5.47,5.47,0,1,1,5.46-5.46A5.47,5.47,0,0,1,87.43,52.88Z"/><path class="cls-44" d="M87.43,42a5.47,5.47,0,1,0,5.46,5.47A5.47,5.47,0,0,0,87.43,42Zm0,9.66a4.2,4.2,0,1,1,4.19-4.19A4.19,4.19,0,0,1,87.43,51.61Z"/><path class="cls-39" d="M85.63,74.28V70.37H83.11a7.77,7.77,0,0,0-.69-1.65l1.78-1.78-2.76-2.77L79.65,66A6.69,6.69,0,0,0,78,65.27V62.75H74.09v2.52a6.79,6.79,0,0,0-1.64.69l-1.79-1.79-2.77,2.77,1.79,1.78A7.28,7.28,0,0,0,69,70.37H66.47v3.91H69a7.53,7.53,0,0,0,.68,1.66l-1.78,1.77,2.77,2.77,1.77-1.78a7.1,7.1,0,0,0,1.66.69V81.9H78V79.39a6.76,6.76,0,0,0,1.66-.69l1.78,1.78,2.76-2.77-1.77-1.77a7.53,7.53,0,0,0,.68-1.66Zm-9.58,2.65a4.6,4.6,0,1,1,4.6-4.6A4.6,4.6,0,0,1,76.05,76.93Z"/><path class="cls-45" d="M76.05,67.73a4.6,4.6,0,1,0,4.6,4.6A4.6,4.6,0,0,0,76.05,67.73Zm0,8.13a3.53,3.53,0,1,1,3.53-3.53A3.53,3.53,0,0,1,76.05,75.86Z"/><path class="cls-46" d="M73.65,54.55V51.22H71.5a6.24,6.24,0,0,0-.58-1.41l1.52-1.52-2.36-2.35-1.52,1.52a5.82,5.82,0,0,0-1.41-.58V44.72H63.82v2.16a5.74,5.74,0,0,0-1.4.58L60.9,45.94l-2.36,2.35,1.52,1.52a6.27,6.27,0,0,0-.59,1.41H57.33v3.33h2.14A6.24,6.24,0,0,0,60.05,56l-1.51,1.52,2.36,2.35,1.51-1.51a6.27,6.27,0,0,0,1.41.59V61h3.33V58.91a6.35,6.35,0,0,0,1.42-.59l1.51,1.51,2.36-2.35L70.92,56a6.27,6.27,0,0,0,.59-1.41Zm-8.16,2.26a3.92,3.92,0,1,1,3.92-3.92A3.91,3.91,0,0,1,65.49,56.81Z"/><path class="cls-47" d="M65.49,49a3.92,3.92,0,1,0,3.92,3.92A3.92,3.92,0,0,0,65.49,49Zm0,6.93a3,3,0,1,1,3-3A3,3,0,0,1,65.49,55.9Z"/><path class="cls-48" d="M63,64.7a2,2,0,1,1-2-2A1.94,1.94,0,0,1,63,64.7Z"/><path class="cls-49" d="M74.66,91.58a3.22,3.22,0,1,1-3.21-3.21A3.22,3.22,0,0,1,74.66,91.58Z"/><path class="cls-50" d="M99.25,33.1a1,1,0,1,1-1-1A1,1,0,0,1,99.25,33.1Z"/></g></g></svg>