<svg xmlns="http://www.w3.org/2000/svg" xmlns:xlink="http://www.w3.org/1999/xlink" viewBox="0 0 348.45 512"><defs><style>.cls-1{fill:url(#New_Gradient_Swatch_1);}</style><linearGradient id="New_Gradient_Swatch_1" y1="256" x2="348.45" y2="256" gradientUnits="userSpaceOnUse"><stop offset="0" stop-color="#ffbe5f"/><stop offset="1" stop-color="#ff57a4"/></linearGradient></defs><title>fist</title><g id="Layer_2" data-name="Layer 2"><g id="Layer_1-2" data-name="Layer 1"><path class="cls-1" d="M326.65,117.05V65.29A45.8,45.8,0,0,0,280.9,19.54h-1.42A45.6,45.6,0,0,0,247,33.16,45.82,45.82,0,0,0,203,0h-1.42a45.75,45.75,0,0,0-38.25,20.69A45.73,45.73,0,0,0,125.08,0h-1.42a45.82,45.82,0,0,0-44,33.16A45.61,45.61,0,0,0,47.16,19.54H45.75A45.8,45.8,0,0,0,0,65.29V144.7a46.38,46.38,0,0,0,16.67,35.61v5a152.58,152.58,0,0,0,35.45,98.48A157,157,0,0,0,83.47,312.7L56,491.85A17.48,17.48,0,0,0,73.27,512H206.14a7.5,7.5,0,0,0,0-15H73.27a2.51,2.51,0,0,1-2.47-2.88L89.93,369.49a95.75,95.75,0,0,1,3.77,9,13.54,13.54,0,0,0,11.62,9c.44,0,.88.06,1.31.06a13.54,13.54,0,0,0,11.76-6.77C142.88,339,166.87,314,182.56,314s39.68,25,64.16,66.86a13.68,13.68,0,0,0,24.7-2.31,96,96,0,0,1,5.06-11.63l18.23,127.26a2.5,2.5,0,0,1-2.48,2.86l-.38,0-.38,0H234.14a7.5,7.5,0,0,0,0,15h57.33l.38,0,.38,0a17.5,17.5,0,0,0,17.32-20L289.36,351s0,0,0-.06l-8.08-56.42a42.62,42.62,0,0,1,28.55-39.69,57.64,57.64,0,0,0,38.63-54.37V144.71A28.51,28.51,0,0,0,326.65,117.05ZM279.48,34.54h1.42a30.79,30.79,0,0,1,30.75,30.75v51H248.74v-51A30.78,30.78,0,0,1,279.48,34.54ZM92.91,45.75A30.79,30.79,0,0,1,123.66,15h1.42a30.78,30.78,0,0,1,30.74,30.75V67a7.5,7.5,0,0,0,15,0V45.75A30.79,30.79,0,0,1,201.57,15H203a30.78,30.78,0,0,1,30.75,30.75v70.51H214a28.32,28.32,0,0,0-27.18,36.27,31.48,31.48,0,0,1-16-27.37V95a7.5,7.5,0,1,0-15,0v30.2a31.46,31.46,0,1,1-62.91,0ZM15,65.29A30.79,30.79,0,0,1,45.75,34.54h1.41A30.79,30.79,0,0,1,77.91,65.29V144.7a31.46,31.46,0,0,1-62.91,0ZM333.45,200.43a42.61,42.61,0,0,1-28.56,40.2A57.64,57.64,0,0,0,266.27,295a7.69,7.69,0,0,0,.07,1.07l7.14,49.83a13.78,13.78,0,0,0-4.75,4.47,110.79,110.79,0,0,0-10.46,20.49c-19.8-33.37-48.54-71.9-75.71-71.9s-55.92,38.52-75.71,71.9a110.84,110.84,0,0,0-10.47-20.49,13.42,13.42,0,0,0-3-3.27L99,310.17a7.5,7.5,0,0,0-3.67-7.63c-.63-.36-61.87-36.58-63.66-113.8a46.42,46.42,0,0,0,59.38-31.21,46.38,46.38,0,0,0,72.23-7.12,46.49,46.49,0,0,0,35.1,21,77.76,77.76,0,0,0,14.35,13,51.73,51.73,0,0,0-41.57,50.67,7.5,7.5,0,0,0,15,0,36.7,36.7,0,0,1,36.65-36.66h57.2a7.5,7.5,0,0,0,0-15H257.32A62.85,62.85,0,0,1,209,160.7a7.34,7.34,0,0,0-1.83-2.31,62.94,62.94,0,0,1-4.78-7.38A13.31,13.31,0,0,1,214,131.25H320a13.48,13.48,0,0,1,13.47,13.46Z"/></g></g></svg>