<svg xmlns="http://www.w3.org/2000/svg" xmlns:xlink="http://www.w3.org/1999/xlink" viewBox="0 0 384 382.84"><defs><style>.cls-1{fill:url(#New_Gradient_Swatch_2);}</style><linearGradient id="New_Gradient_Swatch_2" y1="191.42" x2="384" y2="191.42" gradientUnits="userSpaceOnUse"><stop offset="0" stop-color="#10ab5c"/><stop offset="0" stop-color="#10ab5c"/><stop offset="0.56" stop-color="#1c8d9a"/><stop offset="0.98" stop-color="#2780ba"/><stop offset="1" stop-color="#2780ba"/></linearGradient></defs><title>Icon-Line_1</title><g id="Layer_2" data-name="Layer 2"><g id="Layer_1-2" data-name="Layer 1"><path class="cls-1" d="M372.61,183.08a180.93,180.93,0,0,1-15.06,14.07v-4.24q0-53,0-106.08c0-7.66-1.35-9-8.89-9H308.88c1.34-1.5,2.08-2.4,2.91-3.23Q324.9,61.41,338,48.3c8.64-8.67,8.69-18.34.13-26.94-5.2-5.23-10.38-10.47-15.64-15.64-7.81-7.66-17.82-7.63-25.6.13Q262.43,40.26,228,74.8a9.24,9.24,0,0,1-7.17,3q-83-.13-166-.07H50V72.93q0-24.18,0-48.35c0-6.62-1.79-8.34-8.24-8-20,.95-37.33,16.15-41,36A19.07,19.07,0,0,1,0,55V303.2c.57,2.29,1.07,4.6,1.73,6.87,5.21,17.81,21.41,30.52,40,30.58,55.86.18,111.72.09,167.58.1h5.36c-1.37,1.48-2.21,2.45-3.11,3.35Q197.79,357.9,184,371.67c-2.1,2.1-4.06,4.19-2.73,7.51s4.32,3.63,7.46,3.63q93.72,0,187.44,0c3.44,0,6.11-.81,7.83-3.89V183.2C379.83,178.5,377.22,178.46,372.61,183.08ZM306.48,12.5c2.28-2.08,5.25-1.54,7.48.63,5.88,5.76,11.73,11.57,17.45,17.49,2.4,2.49,2.52,5.53.14,8.08-3.55,3.82-7.38,7.38-11.17,11.13L295,24.4C298.72,20.47,302.38,16.24,306.48,12.5ZM286.19,32.82l25.24,25.3-9.57,9.13-24.93-24.9Zm86.33,300.52c-2.91,0-5.85,0-8.79,0-4.45.08-6.89,2.11-6.91,5.65s2.33,5.55,6.84,5.62c2.85.05,5.71,0,8.82,0v26.61H200.61c1.19-1.27,2.06-2.27,3-3.2l50.9-50.91c.79-.8,1.63-1.56,2.36-2.41,2.37-2.75,2.38-5.75.08-8s-5.52-2.23-8.07.2c-4.33,4.15-9,8.06-12.64,12.78-6.2,8.08-13.81,10.15-23.85,10.06-56.25-.5-112.49-.22-168.74-.25-15.84,0-28.63-10-31.62-24.57-3.32-16.19,8-33.19,24.73-36.92a48.06,48.06,0,0,1,6.67-.84c4.44-.35,6.52-2.17,6.55-6.53q.14-19.68,0-39.37c0-3.81-2.38-6.25-5.56-6.31s-5.61,2.46-5.64,6.52c-.07,10.38-.1,20.75,0,31.12,0,2.53-.49,3.71-3.29,4.21-9.27,1.64-17,6.32-24.11,13.58-.07-1.56-.13-2.28-.13-3q0-103.3,0-206.61A32.77,32.77,0,0,1,34.53,29.22c1.15-.36,2.36-.55,4.21-1v5.12q0,80.43,0,160.86a29.15,29.15,0,0,0,.2,4.86,5,5,0,0,0,4.85,4.4c2.83.23,4.94-1,5.74-3.75a17.62,17.62,0,0,0,.45-4.82q0-50.43,0-100.86V89.32H213.47l-19.34,19.3c-3.53,3.53-7.08,7-10.59,10.61-3.21,3.24-3.56,6.27-1.1,8.84s5.75,2.35,9.12-1Q228.3,90.36,265,53.61a32.6,32.6,0,0,0,2.41-3l25.89,25.87-116.07,116-25.5-25.64,17.48-17.44c1.5-1.51,3.07-2.95,4.48-4.53,2.38-2.65,2.37-5.79.1-8s-5.49-2.32-8,.17c-6.7,6.55-13.08,13.45-20,19.79A38.63,38.63,0,0,0,135,173.91c-4.51,13.88-9.67,27.55-14.35,41.37-.91,2.68-2.25,3.36-4.85,3.25-4.49-.19-9-.08-13.5,0-4.67,0-7.19,2.11-7.1,5.8s2.47,5.45,7,5.45q47.43,0,94.87,0,29.06,0,58.12,0c2.79,0,5.24-.44,6.61-3.22a5.52,5.52,0,0,0-4.22-7.94,24.55,24.55,0,0,0-4.12-.13H147.17l-.14-.7c7.68-2.74,15.27-5.83,23.08-8.12,7.07-2.07,12.6-5.84,17.77-11.06,35.38-35.68,71-71.11,106.46-106.71A9.15,9.15,0,0,1,301.56,89c13.38.14,26.75.06,40.12.06h4.41c.08,1.7.19,3,.19,4.35q0,56.24.06,112.49a8,8,0,0,1-2.64,6.19q-38,37.84-75.86,75.8a22.06,22.06,0,0,0-2.79,3,5.17,5.17,0,0,0,.66,7.15c2.15,2.12,4.7,2.18,7.17.53a21.45,21.45,0,0,0,3-2.81l93.34-93.33c.94-.94,1.93-1.84,3.29-3.13v49.31c-3.13,0-6.1-.05-9.07,0-4.16.09-6.57,2.14-6.63,5.53-.07,3.61,2.31,5.62,6.76,5.69,2.63,0,5.25,0,7.88.06a5.61,5.61,0,0,1,1,.26v16.78c-2.94,0-6,0-9.07,0-4.16.06-6.53,2.08-6.57,5.53s2.36,5.61,6.44,5.69c3,0,6,0,9.23,0v17c-3.05,0-6.13-.06-9.21,0-4.22.09-6.49,2.12-6.45,5.62s2.36,5.47,6.57,5.58c3,.07,5.95,0,9.13,0ZM166.3,198.91c-4.6,1.65-9.36,3.53-14.24,5-2.6.81-12-9.81-11.18-12.37,1.52-4.46,3.12-8.9,4.71-13.44Zm173.49,71.62c-3.15-1.31-5.42.33-7.59,2.51q-29.35,29.46-58.82,58.82c-2.19,2.18-3.77,4.49-2.44,7.61s4.17,3.49,7.22,3.47c9.49-.06,19,0,28.48,0s19.23,0,28.85,0c5.94,0,7.81-1.87,7.82-7.86,0-19.11,0-38.22,0-57.33C343.33,274.69,343,271.85,339.79,270.53Zm-7.93,60.83H291.68c13.14-13.15,26.75-26.75,40.18-40.18Z"/></g></g></svg>