<svg xmlns="http://www.w3.org/2000/svg" xmlns:xlink="http://www.w3.org/1999/xlink" viewBox="0 0 403 403.18"><defs><style>.cls-1{fill:url(#New_Gradient_Swatch_2);}</style><linearGradient id="New_Gradient_Swatch_2" y1="201.59" x2="403" y2="201.59" gradientUnits="userSpaceOnUse"><stop offset="0" stop-color="#eb4e8d"/><stop offset="0.35" stop-color="#e94f8f"/><stop offset="0.69" stop-color="#bc66a8"/><stop offset="1" stop-color="#a161a8"/></linearGradient></defs><title>Icon-Considering</title><g id="Layer_2" data-name="Layer 2"><g id="Layer_1-2" data-name="Layer 1"><path class="cls-1" d="M365.12,19.13C336.08-2.48,304-5.55,270.59,8.75a11.79,11.79,0,0,1-9.07.59c-21.63-7-43.83-10.93-66.56-8.23-20.35,2.42-40.6,5.81-60.8,9.3A129.65,129.65,0,0,0,89.27,26.64C63.69,42,48.88,65.53,40.1,93.3c-3.64,11.52-5.72,23.46-11,34.58-8.19,17.39-7,21.91,6.9,35.34l.29.27c2.95,2.49,3.66,5.26,1.58,8.77-7.2,12.13-14.11,24.45-21.53,36.45-3.56,5.76-8.16,10.87-12,16.46-7.28,10.5-5.44,19.29,5.36,26.07,3.26,2,6.72,3.79,10.08,5.69,5.83,3.3,6.69,6,3.74,12.08-1.45,3-3.22,5.85-4.6,8.87-2.63,5.76-1.7,9.36,3.18,13.37a12.16,12.16,0,0,1,2.74,2.3c.67,1.05,1.39,2.58,1.12,3.65-2.32,9.27-1.29,12,6.83,16.77,7.25,4.26,7.47,5.63,6.19,13.89a58,58,0,0,0-.47,17.39c3,19.67,18.82,27.59,34,22.94,14.89-4.56,29.94-8.63,44.83-13.2,10.13-3.12,10.62-3.21,17.48,4.92a28.86,28.86,0,0,1,4.45,6.13c4.53,9.76,9.14,19.5,13.06,29.51,2.55,6.5,3.25,7.64,10.17,7.63q53.4-.1,106.8-.24,28.4-.07,56.8-.26c7.58,0,10.38-4.27,7.34-11.26-1.37-3.16-3.28-6.09-4.9-9.14-3.1-5.87-7.16-11.46-9.07-17.7-4.11-13.47-7.28-27.24-10.48-41-1.07-4.57-1.09-9.39-1.6-14.29,1.87-.18,3.18-.28,4.48-.44a26.88,26.88,0,0,0,4.85-52.33A26.94,26.94,0,0,0,285.44,269c-6.29,11.14-3.84,24.74,5.71,33.55a9.83,9.83,0,0,1,2.74,6.06,208.6,208.6,0,0,0,12.53,59.64c2.66,7,6.29,13.72,9.64,20.91a21,21,0,0,1-2.12.21q-73,.17-146,.38c-2.71,0-3.56-1.13-4.31-3.48a105.57,105.57,0,0,0-19.85-36.23c-.8-.95-1.51-2-2.56-3.35,6.93-2.36,13.43-4,19.46-6.75,8.82-4,17.73-8,25.8-13.3a27.59,27.59,0,0,0,13-22.78c.17-4.48-2.37-7.61-6.18-7.9s-6.19,2.52-7.34,6.87c-1,3.83-2.53,8-5.15,10.83a36.62,36.62,0,0,1-12,8.34c-9.9,4.23-20,8-30.27,11.33q-35.36,11.4-70.95,22.05c-6.84,2.06-12.33-1.47-14.71-8.17-2.18-6.13-1.95-12.2-.48-18.47C55.1,317.09,51.28,308.88,40.8,303c-.56-.32-1.07-.73-1.93-1.32.87-1.44,1.7-2.77,2.48-4.11,2.19-3.74,1.7-6.74-1.6-9.58a25.59,25.59,0,0,0-3.48-2.68c-3.54-2.11-4.82-4.38-1.89-8.19a21.6,21.6,0,0,0,3.17-7.27c2.91-10.28.06-17.6-9-23.29-2.48-1.56-5.12-2.85-7.69-4.27-8.75-4.81-8.89-5.54-2.73-13.32a281.06,281.06,0,0,0,32.46-52.18c3.34-6.89,2.5-13.23-1.64-19.22A40.63,40.63,0,0,0,42.63,151c-5.62-5.05-6.3-6.63-3.11-13.46,5.57-11.89,9.26-24.31,12.54-37C57.73,78.64,68.76,59.69,86.31,45c10.19-8.54,22.23-13.71,34.8-17.46C142,21.31,163.49,18.19,185,15.38c21-2.74,41.76-1.91,62.25,3.74,1.06.29,2.08.73,3.15,1.11-.23.5-.26.65-.35.73-.81.69-1.65,1.35-2.45,2.05C233.93,34.93,224,49.39,219,66.92a26.71,26.71,0,0,0,25.55,34c12.39.17,21.17-6.93,26.62-20.78,6.14-15.58,17.9-24.54,34.46-25.89s29.88,5.62,38.08,20.14,7.44,29.3-2.07,43c-7.78,11.23-18.94,16.74-32.69,17.16-16.83.5-26.89,10.94-27,27.69q0,7.61,0,15.2c.08,13.6-.32,27.22.44,40.78.61,10.64,7,18.08,16.85,21.85,17.23,6.58,35.08-4.93,36.18-23.39.56-9.3.32-18.66.15-28-.05-3.18.92-4.57,4-5.72,35.36-13.25,57.07-38.43,62.36-75.85C407,71.07,394.35,40.87,365.12,19.13ZM295.33,282.18A13.64,13.64,0,0,1,309,268.88a13.47,13.47,0,0,1,13.25,13.25,13.3,13.3,0,0,1-13.4,13.45A13.48,13.48,0,0,1,295.33,282.18Zm93.48-177.92a80.77,80.77,0,0,1-58.41,67.68c-7.52,2.1-8.12,2.9-8.13,10.87,0,10.53.1,21.06,0,31.59-.12,9.25-6.94,15.17-15.64,13.86-6.62-1-11.19-6.53-11.27-13.92-.09-8.93,0-17.86,0-26.8,0-8.39,0-16.79,0-25.19,0-9.56,4.58-14.13,14.21-14.35,40.05-.87,65.05-41.88,47.38-77.74a53.74,53.74,0,0,0-98.56,5.61C255,85.25,248.73,89.23,241,86.93a13.26,13.26,0,0,1-8.92-17.12A79.18,79.18,0,0,1,260,30.3a80.46,80.46,0,0,1,128.78,74ZM71.52,124.07c3.54-1.74,3.67-5.33,4.37-8.52,6.65-30.42,21.64-53.65,53.46-62.62A6.39,6.39,0,0,0,134,44.81c-1-3.66-4.54-6-8.46-4.47-8.28,3.22-17,6-24.33,10.83-23.9,15.5-34.35,39.46-39.33,66.4-.74,4,2.65,7.36,7.28,7.3A15.86,15.86,0,0,0,71.52,124.07ZM53.67,141.26A6.67,6.67,0,1,0,67,141.13a6.67,6.67,0,0,0-13.34.13Z"/></g></g></svg>