<svg xmlns="http://www.w3.org/2000/svg" xmlns:xlink="http://www.w3.org/1999/xlink" viewBox="0 0 56.41 60"><defs><style>.cls-1{fill:url(#New_Gradient_Swatch_2);}</style><linearGradient id="New_Gradient_Swatch_2" y1="30" x2="56.41" y2="30" gradientUnits="userSpaceOnUse"><stop offset="0" stop-color="#eb4e8d"/><stop offset="0.35" stop-color="#e94f8f"/><stop offset="0.69" stop-color="#bc66a8"/><stop offset="1" stop-color="#a161a8"/></linearGradient></defs><title>Icon-Clock_1</title><g id="Layer_2" data-name="Layer 2"><g id="Capa_1" data-name="Capa 1"><path class="cls-1" d="M29.84,38a3.56,3.56,0,0,0,2.61-1.46l9.36-12.94a1,1,0,0,0-1.4-1.4L27.47,31.55A3.56,3.56,0,0,0,29.56,38ZM28,34.32a1.59,1.59,0,0,1,.64-1.15l7.9-5.71-5.71,7.89a1.57,1.57,0,0,1-2.37.19A1.55,1.55,0,0,1,28,34.32ZM52.22,19.5l0-.05a27.64,27.64,0,0,0-3.57-4.81l2.15-2.15,1.41,1.42,4.24-4.25L52.17,5.42,47.93,9.66l1.41,1.42L47.2,13.23a27.51,27.51,0,0,0-4.81-3.57l0,0s-.05,0-.07,0A26.86,26.86,0,0,0,32,6.19V5h1.5a2.5,2.5,0,0,0,0-5h-9a2.5,2.5,0,0,0,0,5H26V6.16a27,27,0,0,0-3.22.53,1,1,0,1,0,.44,2A26.48,26.48,0,0,1,26,8.16l1.08-.08L28,8v2a1,1,0,0,0,2,0V8a24.71,24.71,0,0,1,10.46,2.85l-1,1.7A1,1,0,0,0,39.84,14a1,1,0,0,0,.49.13,1,1,0,0,0,.87-.5l1-1.7A25.19,25.19,0,0,1,50,19.65l-1.71,1a1,1,0,0,0,1,1.74l1.7-1A24.76,24.76,0,0,1,53.81,32h-2a1,1,0,0,0,0,2h2A24.76,24.76,0,0,1,51,44.62l-1.7-1a1,1,0,0,0-1.37.37,1,1,0,0,0,.37,1.36l1.7,1a25.27,25.27,0,0,1-7.77,7.77l-1-1.7a1,1,0,0,0-1.36-.37,1,1,0,0,0-.37,1.37l1,1.7A25,25,0,0,1,30,58V56a1,1,0,0,0-2,0v2a25.65,25.65,0,0,1-4.77-.62,1,1,0,1,0-.45,2,27,27,0,0,0,6.06.69H29a26.8,26.8,0,0,0,13.22-3.57l.1,0,0,0a27.36,27.36,0,0,0,9.77-9.76l.06-.08s0,0,0-.06a26.89,26.89,0,0,0,0-26.88S52.23,19.52,52.22,19.5Zm0-11.25,1.42,1.41-1.42,1.42L50.76,9.66ZM30,6,29,6H28V3H24.5a.5.5,0,0,1,0-1h9a.5.5,0,0,1,0,1H30ZM20,14H15a1,1,0,0,0,0,2h5a1,1,0,0,0,0-2Zm0,7H10a1,1,0,0,0,0,2H20a1,1,0,0,0,0-2Zm0,7H5a1,1,0,0,0,0,2H20a1,1,0,0,0,0-2Zm0,7H1a1,1,0,0,0,0,2H20a1,1,0,0,0,0-2Zm0,7H7a1,1,0,0,0,0,2H20a1,1,0,0,0,0-2Zm0,7H13a1,1,0,0,0,0,2h7a1,1,0,0,0,0-2Z"/></g></g></svg>