<svg xmlns="http://www.w3.org/2000/svg" xmlns:xlink="http://www.w3.org/1999/xlink" viewBox="0 0 384 384"><defs><style>.cls-1{fill:url(#New_Gradient_Swatch_2);}</style><linearGradient id="New_Gradient_Swatch_2" x1="-653" y1="337" x2="-269" y2="337" gradientUnits="userSpaceOnUse"><stop offset="0" stop-color="#10ab5c"/><stop offset="0" stop-color="#10ab5c"/><stop offset="0.56" stop-color="#1c8d9a"/><stop offset="0.98" stop-color="#2780ba"/><stop offset="1" stop-color="#2780ba"/></linearGradient></defs><title>Icon-Parabola2_1</title><g id="Layer_2" data-name="Layer 2"><g id="Layer_1-2" data-name="Layer 1"><path class="cls-1" d="M-475.25,529c-4.07-3.12-5.33-6.49-3-9.35a9.78,9.78,0,0,1,5-2.71c1.74-.45,3.69-.1,5.87-.1V467c-1.8,0-3.74.08-5.66,0-3.84-.21-6.24-2.61-6.23-6.06s2.46-5.89,6.25-6.09c1.84-.09,3.69,0,5.74,0V405.41c-4.82-.79-11.76,1.31-11.82-6.4s6.94-5.64,11.81-6.41V343.33h-49.29c-.73,4.86,1.4,12-6.68,11.76-7.43-.25-5.38-7-6.1-11.77h-49.17c-.77,4.74,1.45,11.7-6.29,11.78s-5.67-6.89-6.35-11.76h-49.28c-1.13,4.2,1.52,10.17-5.18,11.78-3.52.85-5.57-1.32-7.36-3.87v-28.5c3.12-4.07,6.49-5.33,9.35-3a9.86,9.86,0,0,1,2.71,5c.45,1.75.1,3.7.1,5.86H-591c0-1.83-.09-3.77,0-5.71.21-3.83,2.62-6.21,6.1-6.17s5.84,2.49,6,6.3c.1,1.84,0,3.68,0,5.7h49.34c1-4.7-1.42-12.17,6.88-11.81,7.39.32,5.25,7.09,6,11.8h49.19V281.38c-4.76-.75-11.75,1.45-11.71-6.39s7-5.62,11.83-6.4V219.44c-4.85-.73-11.78,1.46-11.83-6.32s7-5.51,11.8-6.4V157.53c-4.24-1.13-10.2,1.55-11.82-5.17-.85-3.53,1.32-5.58,3.88-7.36h28.5c4.72,3.61,5.45,8.4,1.5,11-1.25.82-3,.95-4.59,1.15a39.28,39.28,0,0,1-4.77,0v49.6c1.78.08,3.71.14,5.64.26,3.86.24,6.25,2.57,6.25,6s-2.45,5.91-6.22,6.11c-1.85.11-3.7,0-5.76,0v49.37c4.85.82,12-1.33,11.8,6.71-.19,7.5-7,5.36-11.77,6.11V392.5c4.56,1,11.92-1.48,11.78,6.57-.13,7.63-7,5.64-11.85,6.26v49.46c1.93,0,3.87-.09,5.8,0,3.78.2,6.23,2.66,6.22,6.11s-2.39,5.82-6.25,6c-1.84.1-3.69,0-5.74,0v49.5c4.27,1.12,10.23-1.54,11.84,5.17.84,3.52-1.32,5.57-3.88,7.36Zm48.75-384c-3.06,2.09-4.2,4.94-3.8,8.64.84,7.93,1,16,2.32,23.81,11.91,72.72,76.18,127.83,150,128.88,3.76.05,6.84-.59,9-3.83V298c-2.05-3.11-5-3.9-8.61-4a137.7,137.7,0,0,1-47.87-9.14c-55.57-21.49-91.09-72-92.58-131.66-.09-3.53-1-6.26-3.94-8.24ZM-653,376c2,3.11,5,3.66,8.6,4,10.53,1,21.22,1.66,31.44,4.14,63,15.31,107.28,70.57,109,135.49.1,3.79.51,7.14,4,9.36h4.5c3.05-2.1,4.2-4.94,3.8-8.65-.84-7.93-1-16-2.32-23.8-11.84-72.69-76.22-127.89-150-128.88-3.75-.05-6.84.58-9,3.83Zm384-53.25c-1.79-2.56-3.84-4.72-7.36-3.88-6.72,1.6-4,7.57-5.18,11.8h-49.27c-.7-4.85,1.49-11.83-6.33-11.78s-5.57,7-6.32,11.8h-49.16c-.74-4.87,1.31-11.79-6.42-11.8s-5.6,7-6.46,12h-4.14c-8.88,0-17.75-.05-26.62,0-3.82.05-6.24,2.55-6.25,6s2.41,5.89,6.22,6.07c2.24.11,4.49,0,6.74,0h24.12c.73,4.92-1.39,11.68,6,12,8.33.37,5.86-7.16,6.93-11.81h49.29c0,2-.08,3.86,0,5.7.2,3.8,2.6,6.26,6,6.3s5.89-2.36,6.1-6.18c.11-1.93,0-3.88,0-5.7h49.88c0,2.16-.35,4.11.1,5.86a9.79,9.79,0,0,0,2.71,5c2.86,2.36,6.23,1.1,9.35-3Z" transform="translate(653 -145)"/></g></g></svg>