<svg xmlns="http://www.w3.org/2000/svg" xmlns:xlink="http://www.w3.org/1999/xlink" viewBox="0 0 348.64 380.65"><defs><style>.cls-1{fill:url(#New_Gradient_Swatch_1);}</style><linearGradient id="New_Gradient_Swatch_1" y1="190.33" x2="348.64" y2="190.33" gradientUnits="userSpaceOnUse"><stop offset="0" stop-color="#ffbe5f"/><stop offset="1" stop-color="#ff57a4"/></linearGradient></defs><title>social </title><g id="Layer_2" data-name="Layer 2"><g id="Capa_1" data-name="Capa 1"><path class="cls-1" d="M294.8,268.65H250a53.49,53.49,0,0,0-26.44,7,54.54,54.54,0,0,0-17.4,15.64,54.43,54.43,0,0,0-9.28-.8H152a54.43,54.43,0,0,0-9.28.8,54.54,54.54,0,0,0-17.4-15.64,53.49,53.49,0,0,0-26.44-7H54a54.12,54.12,0,0,0-54,54v30.44a5.8,5.8,0,0,0,5.8,5.76h92v16a5.8,5.8,0,0,0,5.8,5.8H245a5.8,5.8,0,0,0,5.8-5.8v-16h92a5.8,5.8,0,0,0,5.8-5.8v-30.4A54.13,54.13,0,0,0,294.8,268.65ZM98.4,339.25v8H11.6v-24.6A42.52,42.52,0,0,1,54,280.25H98.84a42,42,0,0,1,20.72,5.44,43,43,0,0,1,11.24,9.16A54.26,54.26,0,0,0,98.4,339.25Zm140.72,29.84H109.56V335.37l.24-1,.4-1.44.28-1a42.64,42.64,0,0,1,40.32-29.28l1.16-.64h44.88a42.56,42.56,0,0,1,42,37,9.84,9.84,0,0,0,.24,2.64Zm98.08-21.8H250.8v-16.8l-.28-1v-2L250,326a54.44,54.44,0,0,0-29.44-30.84,43.27,43.27,0,0,1,8.68-9.44,42,42,0,0,1,20.72-5.44H294.8a42.52,42.52,0,0,1,42.4,42.4ZM174.64,84.41a6.56,6.56,0,1,0-6.56-6.56A6.56,6.56,0,0,0,174.64,84.41ZM76.33,258.85A40.84,40.84,0,1,0,35.52,218,40.84,40.84,0,0,0,76.33,258.85ZM55.72,197.31a29.24,29.24,0,1,1,0,41.35A29.23,29.23,0,0,1,55.72,197.31ZM217,84.41a6.56,6.56,0,1,0-6.56-6.56A6.56,6.56,0,0,0,217,84.41ZM105.72,135l-4.6,30.6a5.76,5.76,0,0,0,8.6,5.84L141,153.21a115.1,115.1,0,0,0,15.12,3.4,120.83,120.83,0,0,0,18.32,1.4,109.66,109.66,0,0,0,68.32-22.72c17.88-14.36,29-34.24,29-56.28s-11.08-42-29-56.28A109.66,109.66,0,0,0,174.4,0a109.66,109.66,0,0,0-68.32,22.72C88.16,37.05,77.08,57,77.08,79a66.47,66.47,0,0,0,8.28,32A80.88,80.88,0,0,0,105.72,135Zm7.44-103.28a98,98,0,0,1,61.12-20,98,98,0,0,1,61.12,20C250.6,43.73,260,60.61,260,79s-9.28,35.12-24.48,47.32a98,98,0,0,1-61.12,20,108.79,108.79,0,0,1-16.52-1.24,102.3,102.3,0,0,1-16-3.72,5.76,5.76,0,0,0-4.64.52L114.4,155.37l3.32-22a5.78,5.78,0,0,0-2.36-5.56,70.27,70.27,0,0,1-20-22.4A54.9,54.9,0,0,1,88.56,79C88.56,60.61,98,43.89,113.16,31.73Zm118.4,186.2a40.84,40.84,0,1,0,40.87-40.8A40.85,40.85,0,0,0,231.56,217.93Zm61.51-20.65a29.24,29.24,0,1,1-41.35,0A29.24,29.24,0,0,1,293.07,197.28ZM132.24,84.41a6.56,6.56,0,1,0-6.56-6.56A6.56,6.56,0,0,0,132.24,84.41Zm13.28,126.52a40.8,40.8,0,1,0,28.88-12A40.8,40.8,0,0,0,145.52,210.93Zm49.56,8.2a29.24,29.24,0,1,1-20.67-8.57A29.16,29.16,0,0,1,195.08,219.13Z"/></g></g></svg>