<svg xmlns="http://www.w3.org/2000/svg" xmlns:xlink="http://www.w3.org/1999/xlink" viewBox="0 0 512 512"><defs><style>.cls-1{fill:url(#New_Gradient_Swatch_1);}</style><linearGradient id="New_Gradient_Swatch_1" y1="256" x2="512" y2="256" gradientUnits="userSpaceOnUse"><stop offset="0" stop-color="#fdbd5f"/><stop offset="1" stop-color="#ef58a0"/></linearGradient></defs><title>Icon-Flasks</title><g id="Layer_2" data-name="Layer 2"><g id="Layer_1-2" data-name="Layer 1"><path class="cls-1" d="M206.7,43.85v181.3a52.5,52.5,0,0,0,105,0V43.7a22.45,22.45,0,0,0,15-21.2c0-.39,0-.73,0-1.06a22.09,22.09,0,0,0-7.25-15.36A23.12,23.12,0,0,0,303.78,0h-90a22.49,22.49,0,0,0-7.08,43.85ZM213.78,15h90a8.23,8.23,0,0,1,5.51,2.14,7.18,7.18,0,0,1,2.39,5v.37a7.53,7.53,0,0,1-7.5,7.5H275a7.5,7.5,0,0,0,0,15H296.7v75.73H244.2a7.5,7.5,0,0,0,0,15h52.5v89.42a37.5,37.5,0,0,1-75,0V45H245a7.5,7.5,0,0,0,0-15,1,1,0,0,0-.24,0h-31a7.5,7.5,0,0,1,0-15ZM504.16,425.68l-69-119.17c-3.05-5.27-5.73-26.6-5.73-36.69V218.45A22.53,22.53,0,0,0,447,196.5q0-.54,0-1.08C446.39,183.78,436.55,175,424,175H347.33c-12.83,0-22.5,9.24-22.5,21.5a22.54,22.54,0,0,0,17.57,21.95v51.37c0,10.09-2.68,31.42-5.72,36.68l-69,119.18C245.43,464,273.05,512,317.39,512h137C498.71,512,526.39,464,504.16,425.68ZM454.41,497h-137c-32.75,0-53.2-35.45-36.78-63.8l69-119.18c5.89-10.16,7.75-37.4,7.75-44.2V219h19.89a7.5,7.5,0,0,0,0-15h-30a7.5,7.5,0,0,1-7.5-7.5c0-4.46,3.88-6.5,7.5-6.5H424c3.68,0,7.72,1.92,7.92,6.14,0,.12,0,.24,0,.36a7.5,7.5,0,0,1-7.5,7.5H407.25a7.5,7.5,0,0,0,0,15h7.14v50.82c0,6.8,1.86,34,7.75,44.2l69,119.18C507.6,461.53,487.18,497,454.41,497Zm-11-116.55a7.5,7.5,0,1,0-13,7.52l33.89,58.47a13.49,13.49,0,0,1-11.68,20.27H319.15a13.5,13.5,0,0,1-11.68-20.27l31.73-54.73h72.71a7.5,7.5,0,0,0,0-15h-77a7.5,7.5,0,0,0-6.49,3.74L294.5,438.91a28.49,28.49,0,0,0,24.65,42.8H452.64a28.5,28.5,0,0,0,24.66-42.8Zm-70,28.06a7.5,7.5,0,1,0-7.5,7.5A7.5,7.5,0,0,0,373.4,408.51ZM410.9,426a7.5,7.5,0,1,0,7.5,7.5A7.5,7.5,0,0,0,410.9,426Zm-35,30a7.5,7.5,0,1,0-7.5-7.5A7.5,7.5,0,0,0,375.9,456ZM176,254.32V218.94A22.45,22.45,0,0,0,193.56,197a22.75,22.75,0,0,0-22.92-22.5H93.93A22.49,22.49,0,0,0,89,218.94l0,35.4A132.51,132.51,0,0,0,132.49,512h.44C205.75,511.77,265,452.33,265,379.5A132.63,132.63,0,0,0,176,254.32ZM132.88,497a117.52,117.52,0,0,1-39-228.5A15,15,0,0,0,104,254.32V219.5h13.27a.7.7,0,0,0,.25,0,7.5,7.5,0,0,0,0-15H93.93a7.5,7.5,0,0,1,0-15h76.72a7.76,7.76,0,0,1,7.91,7.5,7.53,7.53,0,0,1-7.5,7.5H147.5a7.5,7.5,0,0,0,0,15H161v34.82a15.07,15.07,0,0,0,10.14,14.19A117.59,117.59,0,0,1,250,379.5C250,444.09,197.45,496.8,132.88,497Zm54.61-164c-16.72,0-29.48,9.57-39.76,18.94A7.5,7.5,0,0,0,157.84,363c11.71-10.67,20.3-15,29.65-15,17.44,0,33,14.06,32.46,34.06A32.53,32.53,0,0,1,187.49,413c-19.08,0-33.89-18.32-49.57-37.71C121.9,355.46,103.73,333,77.5,333a47.51,47.51,0,0,0-47.44,49.86A102.56,102.56,0,0,0,132.52,482h.31c57.83-.18,102.55-48.31,102.16-101.91C235.11,355.33,214.42,333,187.49,333ZM132.78,467h-.28C80.65,467,44.09,423.64,45,379.68A32.69,32.69,0,0,1,77.5,348c19.07,0,34.16,18.66,48.76,36.71,17.2,21.29,35,43.29,61.23,43.29a47.25,47.25,0,0,0,20.76-4.78A87.61,87.61,0,0,1,132.78,467ZM80,384.5a7.5,7.5,0,1,0-7.5,7.5A7.5,7.5,0,0,0,80,384.5ZM117.5,402a7.5,7.5,0,1,0,7.5,7.5A7.5,7.5,0,0,0,117.5,402Zm-35,15a7.5,7.5,0,1,0,7.5,7.5A7.5,7.5,0,0,0,82.5,417Z"/></g></g></svg>