<svg xmlns="http://www.w3.org/2000/svg" xmlns:xlink="http://www.w3.org/1999/xlink" viewBox="0 0 384 384"><defs><style>.cls-1,.cls-2,.cls-3,.cls-4{fill:none;}.cls-2,.cls-3,.cls-4{stroke-linecap:round;stroke-miterlimit:10;stroke-width:14px;}.cls-2{stroke:url(#New_Gradient_Swatch_2);}.cls-3{stroke:url(#New_Gradient_Swatch_2-2);}.cls-4{stroke:url(#New_Gradient_Swatch_2-3);}.cls-5{clip-path:url(#clip-path);}.cls-6{fill:url(#New_Gradient_Swatch_2-4);}</style><linearGradient id="New_Gradient_Swatch_2" x1="-614.65" y1="214.12" x2="-474.1" y2="214.12" gradientTransform="matrix(0.59, 0.74, -0.74, 0.66, 667.5, 457.12)" gradientUnits="userSpaceOnUse"><stop offset="0" stop-color="#10ab5c"/><stop offset="0" stop-color="#10ab5c"/><stop offset="0.56" stop-color="#1c8d9a"/><stop offset="0.98" stop-color="#2780ba"/><stop offset="1" stop-color="#2780ba"/></linearGradient><linearGradient id="New_Gradient_Swatch_2-2" x1="-648.79" y1="194.71" x2="-508.24" y2="194.71" gradientTransform="matrix(0.91, 0, 0.09, 0.98, 691.43, -53.8)" xlink:href="#New_Gradient_Swatch_2"/><linearGradient id="New_Gradient_Swatch_2-3" x1="-549.8" y1="221.87" x2="-375.12" y2="221.87" gradientTransform="matrix(0.85, 0.41, -0.38, 0.91, 666.81, 247.41)" xlink:href="#New_Gradient_Swatch_2"/><clipPath id="clip-path" transform="translate(653 -145)"><circle class="cls-1" cx="-461" cy="336.25" r="179.98"/></clipPath><linearGradient id="New_Gradient_Swatch_2-4" x1="-653" y1="337" x2="-269" y2="337" gradientTransform="matrix(1, 0, 0, 1, 0, 0)" xlink:href="#New_Gradient_Swatch_2"/></defs><title>Icon-Inequality_2</title><g id="Layer_2" data-name="Layer 2"><g id="Layer_1-2" data-name="Layer 1"><line class="cls-2" x1="127.45" y1="166.17" x2="244.17" y2="223.02"/><line class="cls-3" x1="127.45" y1="166.17" x2="237.58" y2="110.82"/><line class="cls-4" x1="109.72" y1="262.59" x2="272.78" y2="262.59"/></g><g id="Layer_2-2" data-name="Layer 2"><g class="cls-5"><path class="cls-6" d="M-470.84,145H-453a32.1,32.1,0,0,1,5.53.48c.32.05.64.1,1,.12,30.55,2.27,59.06,11.16,85,27.38,49,30.62,79,74.39,89.57,131.32,1.13,6.14,1.8,12.37,2.61,18.57a32.28,32.28,0,0,1,.29,4.28v18a31.18,31.18,0,0,1-.44,5.46c-.08.4-.14.8-.2,1.21-1.25,8.51-2,17.11-3.8,25.52-15.8,75.81-77.95,135.57-154.5,148.69-6.28,1.08-12.61,1.8-18.92,2.64a32.58,32.58,0,0,1-4.3.29h-17.9a36.42,36.42,0,0,1-5.51-.51,5.73,5.73,0,0,0-.58-.07c-28.06-2-54.56-9.62-78.91-23.64-52.46-30.2-84.67-75.09-96-134.71-1.19-6.25-1.84-12.61-2.67-18.94a34.05,34.05,0,0,1-.28-4.28v-18a29.64,29.64,0,0,1,.42-5.24,11.76,11.76,0,0,0,.2-1.45c2.58-33.18,12.89-63.77,31.58-91.27,30.76-45.27,73.14-73.1,127.1-83,6.14-1.13,12.36-1.8,18.56-2.62A32.58,32.58,0,0,1-470.84,145Zm176.23,188.41c-1.49-91.06-77.78-164.25-169.69-162.82-91.29,1.43-164.53,77.68-163.1,169.8,1.41,91.07,77.78,164.52,169.51,163S-293.09,425.71-294.61,333.41Z" transform="translate(653 -145)"/></g></g></g></svg>