<svg xmlns="http://www.w3.org/2000/svg" viewBox="0 0 264 264"><defs><style>.cls-1{fill:#18aa5e;}.cls-2{fill:#666;}.cls-3{fill:#fdef80;}.cls-4{fill:#d3a83d;}.cls-5{fill:#f1f1f1;}.cls-6{fill:#fff;}.cls-7{fill:#2880b9;}.cls-8{fill:#ecf0f1;}.cls-9{fill:#377bb9;}.cls-10{fill:#f8cc46;}.cls-11{fill:#0a3559;}.cls-12{fill:#c8cacc;}</style></defs><title>labtop_icon</title><g id="Layer_2" data-name="Layer 2"><g id="Layer_1-2" data-name="Layer 1"><path class="cls-1" d="M132,264c72.7,0,132-59.3,132-132S204.7,0,132,0,0,59.3,0,132,59.3,264,132,264Z"/><path class="cls-2" d="M90.27,125.23c6-10.09,15.46-21.81,5.85-39.62C82,23.75,147.17,11.21,157,36.74c16,6,15.62,39.35,7.37,56.77-.37,7.17-7.83,13.42,5.65,31.92l1-.21h0c-17.48,5.06-62.28,2.73-80.75,0Z"/><path class="cls-3" d="M107.4,93.19c4.91,10.33,6.73,14.36,12.84,19-1.43,26.3-21.63,13.74-36.4,37.58-1.27,2.06-5.26,12.35-8.78,22.36a104.11,104.11,0,0,0,113.88,0c-3.52-10-7.51-20.3-8.78-22.36-14.77-23.84-35-11.28-36.39-37.58,6.1-4.64,7.92-8.67,12.84-19,1.2.63,2.46,1.49,3.44.39s5.63-15.39,4.8-17.32-1.66-.7-2.91.18c.07-.42-1,5.16-1,4.31.12-6.75-4.71-12.69-6.23-30.53-14,25.93-54.4,15.26-52.68,26.22-7.86-5.51,1.69,16.91,1.89,17.14,1,1.09,2.24.24,3.45-.39Z"/><path class="cls-4" d="M120.24,112.19c-.36,6.54-1.87,10.67-4.17,13.56l16.41,9,16-8.34c-2.61-2.92-4.34-7.17-4.72-14.22,0,0-6.76,5-12,5s-11.56-5-11.56-5Z"/><path class="cls-5" d="M118,122.58c-3.68,7.94-11.33,8.84-19.54,13.25l33.19,53.25H132q3.33,0,6.6-.21l27-53c-8.56-4.61-16.52-5.38-20-14.27L132,130.52l-14-7.94Z"/><path class="cls-6" d="M118.59,119.41l-3.39,7.08,10.09,17,6.61-12.93Zm26.82,0h0l3.45,6.92-10.15,17.13-6.61-12.94Z"/><path class="cls-7" d="M110,130.36c-8.47,4-22.71,5.61-32.37,19.41-1,1.35-3.21,6.25-5.78,12.28-11.93,14-27.61,33-27.84,36-.37,4.81-1.11,8.33-.74,9.26s8.48,32.92,8.48,32.92l29.39.59-9.16-37.22,15.62-13.77v62h88.9v-62l15.62,13.77-9.16,37.22,29.38-.59s8.12-32,8.48-32.92-.37-4.45-.74-9.26c-.22-3-15.9-22-27.83-36-2.57-6-4.84-10.91-5.78-12.26-9.69-13.84-24-15.42-32.44-19.45l-17.06,33L132,170.55l-4.7-7.25L110,130.37Z"/><path class="cls-8" d="M67.65,229.57c8.38,0,15.16,4.22,15.16,9.42S76,248.4,67.65,248.4,52.48,244.18,52.48,239,59.27,229.57,67.65,229.57Zm0,2.49h0c-6.52,0-11.8,3.1-11.8,6.93s5.28,6.92,11.8,6.92,11.8-3.1,11.8-6.92S74.17,232.06,67.65,232.06Z"/><path class="cls-9" d="M67.65,245.91c6.5,0,11.8-3.11,11.8-6.92s-5.3-6.93-11.8-6.93-11.8,3.11-11.8,6.93S61.15,245.91,67.65,245.91Z"/><path class="cls-10" d="M62.85,242.94v7.59a1.72,1.72,0,0,1-1.71,1.71h-3a1.72,1.72,0,0,1-1.71-1.71V238.79a1.82,1.82,0,0,1,.08-.52v-2.58a4,4,0,0,1,4-4h24.7a4,4,0,0,1,4,4v2.58a1.49,1.49,0,0,1,.08.52v11.74a1.71,1.71,0,0,1-1.71,1.71h-3a1.72,1.72,0,0,1-1.71-1.71v-7.59H80.45v7.59a1.72,1.72,0,0,1-1.71,1.71h-3A1.72,1.72,0,0,1,74,250.53v-7.59H71.65v7.59a1.72,1.72,0,0,1-1.71,1.71h-3a1.71,1.71,0,0,1-1.71-1.71v-7.59Z"/><path class="cls-8" d="M196.35,229.57c-8.37,0-15.16,4.22-15.16,9.42s6.79,9.41,15.16,9.41,15.17-4.22,15.17-9.41S204.73,229.57,196.35,229.57Zm0,2.49h0c6.52,0,11.8,3.1,11.8,6.93s-5.28,6.92-11.8,6.92-11.8-3.1-11.8-6.92S189.83,232.06,196.35,232.06Z"/><path class="cls-9" d="M196.35,245.91c6.5,0,11.8-3.11,11.8-6.92s-5.3-6.93-11.8-6.93-11.8,3.11-11.8,6.93S189.85,245.91,196.35,245.91Z"/><path class="cls-10" d="M201.15,242.94v7.59a1.72,1.72,0,0,0,1.71,1.71h3a1.72,1.72,0,0,0,1.71-1.71V238.79a1.82,1.82,0,0,0-.08-.52v-2.58a4,4,0,0,0-4-4h-24.7a4,4,0,0,0-4,4v2.58a1.49,1.49,0,0,0-.08.52v11.74a1.72,1.72,0,0,0,1.71,1.71h3a1.71,1.71,0,0,0,1.71-1.71v-7.59h2.37v7.59a1.72,1.72,0,0,0,1.71,1.71h3a1.71,1.71,0,0,0,1.71-1.71v-7.59h2.37v7.59a1.72,1.72,0,0,0,1.71,1.71h3a1.71,1.71,0,0,0,1.71-1.71v-7.59Z"/><path class="cls-11" d="M112,129.36l20.19,39.33,19.89-39.31a30.27,30.27,0,0,0,3.19,1.73L132.16,176.2l-23.28-45.36a30.42,30.42,0,0,0,3.09-1.48Z"/><path class="cls-6" d="M64,153.14H200a7.91,7.91,0,0,1,7.9,7.89v75.18a7.92,7.92,0,0,1-7.9,7.9H64a7.92,7.92,0,0,1-7.9-7.9V161A7.92,7.92,0,0,1,64,153.14Z"/><path class="cls-12" d="M59.09,248H204.91a3,3,0,0,1,3,3v5.77a3,3,0,0,1-3,3H59.09a3,3,0,0,1-3-3V251A3,3,0,0,1,59.09,248Z"/><path class="cls-8" d="M78.39,242.3H91.28v8.79H78.39Zm94.33,0h12.89v8.79H172.72Z"/><path class="cls-8" d="M117.7,187.24h28.6a.69.69,0,0,1,.69.7v6.47a.69.69,0,0,1-.69.7H117.7a.7.7,0,0,1-.7-.7v-6.47A.7.7,0,0,1,117.7,187.24Z"/></g></g></svg>