<svg xmlns="http://www.w3.org/2000/svg" viewBox="0 0 267 267"><defs><style>.cls-1{fill:#18aa5e;}.cls-2{fill:#fdef80;}.cls-3{fill:#d3a83d;}.cls-4{fill:#fff;}.cls-5{fill:#f8cc46;}</style></defs><title>lightbulb_icon</title><g id="Layer_2" data-name="Layer 2"><g id="Layer_1-2" data-name="Layer 1"><path class="cls-1" d="M133.5,267C207,267,267,207,267,133.5S207,0,133.5,0,0,60,0,133.5,60,267,133.5,267Z"/><path class="cls-2" d="M192.82,224.25l-10.4-44.56S218,145.45,214,101.57,165.8,30.08,120.92,42.05,68.6,90,68.39,95.87s5.32,21,1.32,31.29-18.28,26.43-16.95,31.25,13.63,5.66,13.63,5.66.14,4.66-1.49,5.65-.71,4.86,2,7A27.23,27.23,0,0,0,74,180.36s-5.15,1.16-4.49,4.82,2.5,5.49,6.32,5.65,4.82-1.66,5.49.34,1.08,2.16,1.08,2.16-3.82,9.89-.5,17.2,8.48,7.32,14.47,5.82S114,211.53,114,211.53l3.19,16.22c3.32,23.61-12.75,35.75-13.09,36a133.72,133.72,0,0,0,108.75-22.91c-2.15-1-19.3-15.82-20.06-16.59Z"/><path class="cls-3" d="M83,212.58c3.31,5.25,8,5.11,13.37,3.77,6-1.5,17.62-4.82,17.62-4.82l3.19,16.22a40.9,40.9,0,0,1-2,20.15h0c11.12-15.86,2.92-28,4.38-34s24.72-11.71,29.6-15.46,8.38-14.06,8.38-14.06-4.88,7.48-10.08,12-45.63,16.43-53.35,19C86.83,217.91,83.37,213.07,83,212.58Z"/><path class="cls-3" d="M109.88,45.75c28-10.24,61.06-4.72,81.15,15.82,23.93,24.48,29.5,69-12.29,116.13l14.08,46.55-10.4-44.56S218,145.45,214,101.57,165.8,30.09,120.92,42.05a91.49,91.49,0,0,0-11,3.7Z"/><path class="cls-4" d="M141.65,63.8c14.55,0,26.34,12,26.34,26.91a27,27,0,0,1-13.39,23.45V126.5a2.65,2.65,0,0,1-2.62,2.67H132.67a2.64,2.64,0,0,1-2.61-2.67V114.88a27,27,0,0,1-14.74-24.17c0-14.86,11.79-26.91,26.34-26.91Z"/><path class="cls-5" d="M133.61,128.82H149.7a1.69,1.69,0,1,1,0,3.28,1.69,1.69,0,1,1,0,3.28,1.93,1.93,0,0,1,2.11,1.64h0a1.93,1.93,0,0,1-2.11,1.64H133.61A1.93,1.93,0,0,1,131.5,137h0a1.93,1.93,0,0,1,2.11-1.64,1.69,1.69,0,1,1,0-3.28,1.69,1.69,0,1,1,0-3.28Z"/><path class="cls-5" d="M134.41,90l4.18,34.06h6.13L148.9,90l1.52.24-4.27,34.81-.1.75h-8.8l-.09-.75-4.27-34.81,1.52-.24Z"/><path class="cls-5" d="M144.15,85.71l-.55,3.81,14.3-2.14-19.39,8.09.72-5.24-12.72,2.41,17.64-6.93Z"/><path class="cls-4" d="M140.41,145.55V146h-1.6v-.48h-.61a1.53,1.53,0,0,1-1.38-.94h0a1.6,1.6,0,0,1-1.54-1.65,1.67,1.67,0,0,1,.7-1.38h-2.35a1.65,1.65,0,0,1,0-3.3h16.15a1.65,1.65,0,0,1,0,3.3h-2.36a1.67,1.67,0,0,1,.7,1.38,1.59,1.59,0,0,1-1.53,1.65h0a1.52,1.52,0,0,1-1.38.94h-.65V146h-1.59v-.48Z"/></g></g></svg>