<svg xmlns="http://www.w3.org/2000/svg" viewBox="0 0 251.3 154.51"><defs><style>.cls-1{fill:#f8cc46;}.cls-1,.cls-2{stroke:#000;stroke-miterlimit:10;stroke-width:3px;}.cls-2{fill:#2980ba;}</style></defs><title>logo-blue</title><g id="Layer_2" data-name="Layer 2"><g id="Layer_1-2" data-name="Layer 1"><ellipse class="cls-1" cx="45.5" cy="64.21" rx="17.23" ry="15.79"/><ellipse class="cls-1" cx="161.5" cy="57.21" rx="17.23" ry="15.79"/><circle class="cls-1" cx="218.5" cy="22.71" r="17.23"/><circle class="cls-1" cx="99.5" cy="37.71" r="17.23"/><path class="cls-2" d="M31.5,51c3.53,3.31,10.94,10.43,17,10.43H68.41q24,0,36.4,11.23t12.42,34.13a53.82,53.82,0,0,1-3,18.36,39.63,39.63,0,0,1-9.07,14.58,41.43,41.43,0,0,1-15.23,9.61,60.73,60.73,0,0,1-21.49,3.46H4.83V125.37H68.41q11,0,17-5.62t5.94-14.9q0-10.16-5.94-15.23t-17-5.08H48.27a56.51,56.51,0,0,1-20-3.35,43.11,43.11,0,0,1-15.12-9.28C9.06,68,1.5,56.91,1.5,51Z"/><path class="cls-2" d="M157.63,97.17h38.52c9.07,0,19-.86,26.18-3.67s12.94-6.12,18-11c4.84-4.68,9-15.74,9.38-22.5h-31c-3.22,6.31-12.93,10.6-22.57,10.6l-36.82-.1-.2-8.9L159.06,51c-9,0-18.44-.29-27.29-.29V152.8l27.56.2-.2-64.83"/><path class="cls-2" d="M1.62,31.49C1.5,10,19,1.5,40.5,1.5h170c21.54,0,39,8.46,39,30H218.72c-2.39-8-14.39-6-22.57-6H159.07v6h-27.3v-6h-69c-2.37-.09-10.43-.15-14.24,0s-13.16,1-17,6Z"/></g></g></svg>