<svg xmlns="http://www.w3.org/2000/svg" xmlns:xlink="http://www.w3.org/1999/xlink" viewBox="0 0 423.05 256.68"><defs><style>.cls-1{fill:#424242;}.cls-2{fill:#312e34;}.cls-3{fill:#616161;}.cls-4{fill:url(#linear-gradient);}.cls-5{fill:#ffb300;}.cls-6{fill:#ffa000;}.cls-7{fill:#ffef80;}.cls-8{fill:#ff7d21;}.cls-9{fill:#ffcb5d;}.cls-10{fill:url(#linear-gradient-2);}.cls-11{fill:#1ab8ff;}.cls-12{fill:#f2f8fd;}.cls-13{fill:#deeee9;}.cls-14{fill:url(#linear-gradient-3);}.cls-15{fill:url(#linear-gradient-4);}.cls-16{fill:#fff;}.cls-17{fill:none;}.cls-18{fill:#1ae5ff;}.cls-19{fill:url(#linear-gradient-5);}.cls-20{fill:url(#linear-gradient-6);}.cls-21{fill:url(#linear-gradient-7);}.cls-22{fill:url(#linear-gradient-8);}.cls-23{fill:url(#linear-gradient-9);}.cls-24{fill:#db4fff;}.cls-25{fill:url(#linear-gradient-10);}.cls-26{fill:url(#linear-gradient-11);}.cls-27{fill:url(#linear-gradient-12);}.cls-28{fill:url(#linear-gradient-13);}.cls-29{fill:url(#linear-gradient-14);}.cls-30{fill:url(#linear-gradient-15);}.cls-31{fill:#ffcc80;}.cls-32{fill:url(#linear-gradient-16);}.cls-33{fill:url(#linear-gradient-17);}.cls-34{fill:url(#linear-gradient-18);}.cls-35{fill:url(#linear-gradient-19);}.cls-36{fill:#ff8a65;}.cls-37{fill:#fec800;}.cls-38{fill:url(#linear-gradient-20);}.cls-39{fill:#f1eeeb;}.cls-40{fill:url(#linear-gradient-21);}.cls-41{fill:url(#linear-gradient-22);}.cls-42{fill:url(#linear-gradient-23);}.cls-43{fill:url(#linear-gradient-24);}.cls-44{fill:#00acc1;}.cls-45{fill:#455a64;}.cls-46{fill:#3c0aff;}.cls-47{fill:#fbe3a7;}.cls-48{fill:url(#linear-gradient-25);}.cls-49{fill:url(#linear-gradient-26);}.cls-50{fill:url(#linear-gradient-27);}.cls-51{fill:url(#linear-gradient-28);}.cls-52{fill:url(#linear-gradient-29);}</style><linearGradient id="linear-gradient" x1="266.19" y1="38.32" x2="250.24" y2="400.89" gradientUnits="userSpaceOnUse"><stop offset="0" stop-color="#3c0aff"/><stop offset="1" stop-color="#b84fff"/></linearGradient><linearGradient id="linear-gradient-2" x1="89.01" y1="337.67" x2="78.01" y2="206.67" gradientUnits="userSpaceOnUse"><stop offset="0" stop-color="#00acc1"/><stop offset="1" stop-color="#4de4ad"/></linearGradient><linearGradient id="linear-gradient-3" x1="356.45" y1="261.81" x2="312.89" y2="91.42" xlink:href="#linear-gradient-2"/><linearGradient id="linear-gradient-4" x1="306.81" y1="298.59" x2="269.25" y2="136.27" xlink:href="#linear-gradient"/><linearGradient id="linear-gradient-5" x1="117.19" y1="174.54" x2="109.39" y2="125.63" gradientUnits="userSpaceOnUse"><stop offset="0" stop-color="#3949ab"/><stop offset="1" stop-color="#7986ff"/></linearGradient><linearGradient id="linear-gradient-6" x1="152.4" y1="165.97" x2="145.67" y2="128.4" gradientUnits="userSpaceOnUse"><stop offset="0" stop-color="#0067ff"/><stop offset="1" stop-color="#36ffff"/></linearGradient><linearGradient id="linear-gradient-7" x1="127.99" y1="162.37" x2="132.6" y2="127.99" xlink:href="#linear-gradient-2"/><linearGradient id="linear-gradient-8" x1="162.98" y1="271.98" x2="99.94" y2="131.46" xlink:href="#linear-gradient-6"/><linearGradient id="linear-gradient-9" x1="382.22" y1="296.6" x2="372.22" y2="236.6" xlink:href="#linear-gradient-2"/><linearGradient id="linear-gradient-10" x1="384.95" y1="90.83" x2="393.46" y2="90.83" gradientUnits="userSpaceOnUse"><stop offset="0" stop-color="#1ae5ff"/><stop offset="1" stop-color="#eaeeee"/></linearGradient><linearGradient id="linear-gradient-11" x1="310.35" y1="80.66" x2="315.31" y2="80.66" xlink:href="#linear-gradient-10"/><linearGradient id="linear-gradient-12" x1="63.31" y1="191.31" x2="68.28" y2="191.31" xlink:href="#linear-gradient-10"/><linearGradient id="linear-gradient-13" x1="410.29" y1="162.6" x2="415.25" y2="162.6" xlink:href="#linear-gradient-10"/><linearGradient id="linear-gradient-14" x1="176.35" y1="89.66" x2="181.31" y2="89.66" xlink:href="#linear-gradient-10"/><linearGradient id="linear-gradient-15" x1="226.41" y1="117.25" x2="243.66" y2="117.25" gradientUnits="userSpaceOnUse"><stop offset="0" stop-color="#fe9300"/><stop offset="1" stop-color="#fec800"/></linearGradient><linearGradient id="linear-gradient-16" x1="238.59" y1="76.75" x2="245.77" y2="157.83" xlink:href="#linear-gradient-15"/><linearGradient id="linear-gradient-17" x1="246.38" y1="76.06" x2="253.56" y2="157.14" xlink:href="#linear-gradient-15"/><linearGradient id="linear-gradient-18" x1="221.06" y1="78.31" x2="228.24" y2="159.38" xlink:href="#linear-gradient-15"/><linearGradient id="linear-gradient-19" x1="213" y1="79.02" x2="220.18" y2="160.09" xlink:href="#linear-gradient-15"/><linearGradient id="linear-gradient-20" x1="154.99" y1="255.84" x2="226.33" y2="179.18" xlink:href="#linear-gradient"/><linearGradient id="linear-gradient-21" x1="191.04" y1="224.92" x2="192.03" y2="165.56" xlink:href="#linear-gradient-15"/><linearGradient id="linear-gradient-22" x1="219.68" y1="199.25" x2="357.68" y2="199.25" xlink:href="#linear-gradient-15"/><linearGradient id="linear-gradient-23" x1="165.2" y1="190.5" x2="158.54" y2="239.16" xlink:href="#linear-gradient"/><linearGradient id="linear-gradient-24" x1="82.3" y1="280.52" x2="211.31" y2="214.95" xlink:href="#linear-gradient-2"/><linearGradient id="linear-gradient-25" x1="305.26" y1="16.14" x2="309.43" y2="10.02" xlink:href="#linear-gradient-2"/><linearGradient id="linear-gradient-26" x1="306.42" y1="2.44" x2="253.26" y2="24.77" xlink:href="#linear-gradient"/><linearGradient id="linear-gradient-27" x1="288.15" y1="27.19" x2="302.76" y2="27.19" xlink:href="#linear-gradient-2"/><linearGradient id="linear-gradient-28" x1="284.9" y1="27.78" x2="297.34" y2="27.78" xlink:href="#linear-gradient-2"/><linearGradient id="linear-gradient-29" x1="305.38" y1="-0.04" x2="252.22" y2="22.29" xlink:href="#linear-gradient"/></defs><title>main_graphic</title><g id="Layer_2" data-name="Layer 2"><g id="OBJECTS"><path class="cls-1" d="M224.5,100.11c12.75,0,24.32,1.63,32.9,4.26,8.58-2.63,20.15-4.26,32.9-4.26s24.27,1.62,32.85,4.24V48.64H191.66v55.71C200.23,101.73,211.78,100.11,224.5,100.11Z"/><path class="cls-2" d="M191.66,84.05c54-17.47,109.84-22.84,131.49-24.34V48.64H191.66Z"/><rect class="cls-1" x="134.06" y="42.52" width="246.68" height="11.21" rx="5.61" ry="5.61"/><rect class="cls-3" x="176.54" y="42.52" width="161.73" height="11.21"/><path class="cls-4" d="M380.41,256.68a129.62,129.62,0,1,0-243.76,0Z"/><rect class="cls-5" x="77.1" y="206.4" width="16.76" height="36.94"/><rect class="cls-6" x="65.13" y="237.86" width="42.41" height="10.95"/><rect class="cls-5" x="76.42" y="237.86" width="19.84" height="10.95"/><rect class="cls-6" x="42.9" y="248.81" width="86.88" height="7.87"/><rect class="cls-7" x="66.02" y="248.81" width="40.64" height="7.87"/><path class="cls-8" d="M99.33,204.7c.09-.15.18-.29.26-.44a14.49,14.49,0,0,0,.71-1.35c0-.11.11-.21.15-.32a15.08,15.08,0,0,0,.64-1.74c0-.15.07-.3.11-.44.12-.48.23-1,.31-1.45,0-.18.06-.36.08-.54l.06-.45h1.79v-3.88H69.24V198H71a15.38,15.38,0,0,0,22.55,12.08h0a16.24,16.24,0,0,0,1.59-1l.35-.26c.39-.3.78-.61,1.15-.95l.31-.29a14.59,14.59,0,0,0,1.26-1.35l.12-.16C98.72,205.61,99,205.16,99.33,204.7Z"/><path class="cls-6" d="M156.8,126.7a70.46,70.46,0,0,1-140.92,0Z"/><path class="cls-5" d="M119.52,188.87A70.46,70.46,0,0,0,156.8,126.7H82.23A70.45,70.45,0,0,0,119.52,188.87Z"/><rect class="cls-9" x="8.01" y="115.75" width="156.66" height="17.79"/><rect class="cls-7" x="54.87" y="115.75" width="62.94" height="17.79"/><path class="cls-10" d="M122.69,256.68c-.68-4.16-1.76-9-3.43-12.13-3.52-6.69-6.58-3-14.69,1.48s-5.35-29.46-14.69-36.64S75.35,217.07,69.23,228s-8.88,5.69-17.29,3.22c-7.76-2.28-9.92,21.72-10.22,25.5Z"/><rect class="cls-11" x="286.68" y="109.71" width="117.39" height="145.96" rx="6.39" ry="6.39"/><rect class="cls-12" x="292.16" y="113.9" width="105.91" height="137.45" rx="5.77" ry="5.77"/><rect class="cls-13" x="358.42" y="113.9" width="31.83" height="137.45"/><path class="cls-14" d="M379.68,103.32H286.16V255.67h93.52a6.39,6.39,0,0,0,6.39-6.39V109.71A6.39,6.39,0,0,0,379.68,103.32Z"/><path class="cls-15" d="M288.51,103.32H275.07a6.39,6.39,0,0,0-6.39,6.39V249.28a6.39,6.39,0,0,0,6.39,6.39h13.44Z"/><rect class="cls-16" x="297.9" y="142.06" width="73.96" height="17.22" rx="5.87" ry="5.87"/><path class="cls-17" d="M380.41,256.68a129.62,129.62,0,1,0-243.76,0Z"/><path class="cls-18" d="M112.12,134.75l-6.1,1.18a1,1,0,0,1-1.09-1.25l1.41-9.08a.92.92,0,0,1,.69-.78h0a.89.89,0,0,1,.93.47l4.69,7.89A1,1,0,0,1,112.12,134.75Z"/><path class="cls-19" d="M135.11,239.49h0l-1.15-6h0l-17.15-88.67-.85-4.4h0l-.58-3-4.26-7.29-2.92.56h0l-2.92.57-1.23,8.35.57,3h0l17.43,90.09h0l.34,1.75h0l1.39,7.18a.67.67,0,0,0,.78.53l6-1.16h0l.82-.16.68-.13h0l2.57-.49h0l.21,0a.45.45,0,0,0,.35-.53Z"/><path class="cls-16" d="M151.19,146l-6.1,1.18a1,1,0,0,1-1.09-1.26l1.41-9.07a.91.91,0,0,1,.69-.79h0a.92.92,0,0,1,.94.48l4.69,7.89A1,1,0,0,1,151.19,146Z"/><path class="cls-20" d="M174.18,250.74h0l-1.15-6h0l-17.15-88.67-.85-4.4h0l-.58-3-4.26-7.3-2.92.57h0l-2.92.56-1.23,8.36.57,3h0L161.12,244h0l.34,1.75h0l1.38,7.18a.67.67,0,0,0,.79.52l6-1.15h0l.82-.16.68-.13h0l2.56-.5h0l.22,0a.44.44,0,0,0,.35-.52Z"/><path class="cls-1" d="M140.41,136.73l-6-1.47a1,1,0,0,1-.46-1.59L139,126a.9.9,0,0,1,.95-.43h0a.91.91,0,0,1,.65.82l1,9.13C141.63,136.25,141,136.89,140.41,136.73Z"/><path class="cls-21" d="M117.66,241.52h0l1.43-5.89h0l21.37-87.75,1.06-4.36h0l.71-2.94-.83-8.4-2.89-.71h0l-2.89-.7L131,137.85l-.71,2.94h0L108.59,230h0l-.42,1.73h0l-1.73,7.11a.66.66,0,0,0,.49.8l5.9,1.44h0l.81.2.67.16h0l2.54.62h0l.21.05a.44.44,0,0,0,.54-.33Z"/><path class="cls-22" d="M102.06,162.49h67.6a4.94,4.94,0,0,1,4.94,4.94v89.25a0,0,0,0,1,0,0H97.13a0,0,0,0,1,0,0V167.43A4.94,4.94,0,0,1,102.06,162.49Z"/><path class="cls-23" d="M412.33,256.68c-.61-3.78-1.6-8.14-3.12-11-3.19-6.07-6-2.7-13.34,1.35s-4.86-26.76-13.34-33.28-13.2,7-18.76,16.86-8,5.18-15.7,2.93c-7-2.07-9,19.73-9.27,23.16Z"/><path class="cls-24" d="M8.51,152.4a4.26,4.26,0,1,1-4.26-4.25A4.25,4.25,0,0,1,8.51,152.4Z"/><circle class="cls-24" cx="419.51" cy="194.15" r="3.54"/><path class="cls-24" d="M278.83,71a2.13,2.13,0,1,1-2.12,2.12A2.12,2.12,0,0,1,278.83,71Z"/><circle class="cls-24" cx="124.83" cy="106.16" r="2.13"/><path class="cls-25" d="M393.46,90.83a4.26,4.26,0,1,1-4.26-4.25A4.26,4.26,0,0,1,393.46,90.83Z"/><path class="cls-26" d="M315.31,80.66a2.48,2.48,0,1,1-2.48-2.48A2.48,2.48,0,0,1,315.31,80.66Z"/><path class="cls-27" d="M68.28,191.31a2.49,2.49,0,1,1-2.48-2.48A2.48,2.48,0,0,1,68.28,191.31Z"/><path class="cls-28" d="M415.25,162.6a2.48,2.48,0,1,1-2.48-2.48A2.48,2.48,0,0,1,415.25,162.6Z"/><path class="cls-29" d="M181.31,89.66a2.48,2.48,0,1,1-2.48-2.48A2.48,2.48,0,0,1,181.31,89.66Z"/><path class="cls-16" d="M218.4,178.44s-6.81,2.86-6.71,4.29,3.45,1.27,5.7.33a10.14,10.14,0,0,0,2.91-1.9.76.76,0,0,0,1.17-.08c.51-.69,1.15-2.1.41-2.5S218.4,178.44,218.4,178.44Z"/><path class="cls-1" d="M227.65,128.89s-5.15,20.86-6.47,27.67-3.6,20.63-3.22,21.76,2.65.76,3.6.19,5.3-19.49,6.62-22.71,8.52-23.46,8.52-25.16S230.14,127.15,227.65,128.89Z"/><path class="cls-16" d="M237.34,170.73s-2.56,6.93-1.44,7.83,3.28-1.65,4.13-3.93a10.24,10.24,0,0,0,.6-3.43s.9,0,.74-.9-.75-2.28-1.54-2S237.34,170.73,237.34,170.73Z"/><path class="cls-3" d="M243.37,129.72a99.76,99.76,0,0,0-4,12c-1.68,6.51-2.63,9.38-2.35,10.3s3.85,14.71,3.36,16.9a2.8,2.8,0,0,1-4.73,1.14c-1.28-1.48-6.55-15.12-6.41-18.38s.63-19.35,3.45-23.24S243.19,126.72,243.37,129.72Z"/><path class="cls-30" d="M233.8,102.72a9.75,9.75,0,0,1,5.59,5c1.79,3.92,4.93,16.11,4.14,21.82-.78,3.46-12.53,2.57-15.88-.68-.45-2.57-2.35-12.19-.34-21.81C227.76,104.73,230.22,102.72,233.8,102.72Z"/><path class="cls-31" d="M231.34,91.09s3.41,3.46,3.08,7c-.51,3-1.74,3.19.11,5.15a3,3,0,0,1-4,.67s1.23-1.45-.89-2.69a11,11,0,0,1-4.48-6.71c-.33-2.68,1-3.8,2.8-4.25S230.84,90.41,231.34,91.09Z"/><path class="cls-32" d="M234.56,103.86s10.37,1,15.47,5.1c1.73,3.7-15.45.82-17.06-1.64S234.56,103.86,234.56,103.86Z"/><path class="cls-31" d="M247.13,98.53a1.64,1.64,0,0,0-.48-1.42,4.09,4.09,0,0,1-1.33-2.53c0-.68,1,.71,1,.71s-1.31-2.62-1.07-2.76,2.09,1.13,2.67,2.15,0,2.16.46,3.28Z"/><path class="cls-33" d="M248.25,109.7s-1.91-6.85-1.33-11.83l1.59-.2a30.5,30.5,0,0,1,2.3,8.32C251.13,109.88,249.14,111.12,248.25,109.7Z"/><path class="cls-31" d="M212.69,91.94a2.74,2.74,0,0,1-.44-1.57c.12-.72.19-2.7-.2-2.75s-.51,1-.51,1-.43-1.52-1-1.58-2,1.84-1.5,2.69,1.92,1.5,2.26,2l.51.76Z"/><path class="cls-34" d="M229.29,109.44s-10-2.86-14.25-7.89c-1-4,15.33,2.07,16.46,4.78S229.29,109.44,229.29,109.44Z"/><path class="cls-35" d="M218.1,101.57s-2.34-6.72-5.65-10.48l-1.42.74a30.64,30.64,0,0,0,2.85,8.15C215.83,103.36,218.18,103.25,218.1,101.57Z"/><path class="cls-36" d="M231.79,94s1.42,2.26,1.09,2.68-1.93.67-2,.34,1.26-.93,1.26-.93S230.86,93.46,231.79,94Z"/><path class="cls-6" d="M224.19,91.07s4.65-3.22,7.16-1.55c1.43,2.14-5.13,3.82-5.13,3.82s3.22,6.68,1.43,6.8S220.85,93.81,224.19,91.07Z"/><path class="cls-37" d="M40,94.92l1.11-4.13a1.21,1.21,0,0,1,2.33,0l1.11,4.13a1.2,1.2,0,0,0,.85.85l4.14,1.12a1.21,1.21,0,0,1,0,2.33l-4.14,1.11a1.2,1.2,0,0,0-.85.85l-1.11,4.14a1.21,1.21,0,0,1-2.33,0L40,101.18a1.2,1.2,0,0,0-.85-.85L35,99.22a1.21,1.21,0,0,1,0-2.33l4.14-1.12A1.2,1.2,0,0,0,40,94.92Z"/><path class="cls-37" d="M166.62,106.4l.53-2a.57.57,0,0,1,1.11,0l.54,2a.56.56,0,0,0,.4.41l2,.53a.58.58,0,0,1,0,1.12l-2,.53a.56.56,0,0,0-.4.41l-.54,2a.57.57,0,0,1-1.11,0l-.53-2a.58.58,0,0,0-.41-.41l-2-.53a.58.58,0,0,1,0-1.12l2-.53A.58.58,0,0,0,166.62,106.4Z"/><path class="cls-37" d="M19.13,175.11l.53-2a.57.57,0,0,1,1.11,0l.54,2a.57.57,0,0,0,.4.41l2,.53a.57.57,0,0,1,0,1.11l-2,.53a.57.57,0,0,0-.4.41l-.54,2a.57.57,0,0,1-1.11,0l-.53-2a.6.6,0,0,0-.41-.41l-2-.53a.57.57,0,0,1,0-1.11l2-.53A.6.6,0,0,0,19.13,175.11Z"/><path class="cls-38" d="M212.84,214.19h-75.5a5.05,5.05,0,0,0-5.06,5.05v32.38a5.06,5.06,0,0,0,5.06,5.06h75.5Z"/><path class="cls-24" d="M221.51,248.26V222.6a2.8,2.8,0,0,1,2.8-2.8H336a2.81,2.81,0,0,0,2.81-2.81h0a2.8,2.8,0,0,0-2.81-2.8H205.87a5.06,5.06,0,0,0-5.06,5.05v32.38a5.07,5.07,0,0,0,5.06,5.06H336a2.81,2.81,0,0,0,2.81-2.81h0a2.8,2.8,0,0,0-2.81-2.8H224.31A2.8,2.8,0,0,1,221.51,248.26Z"/><path class="cls-16" d="M217.83,219.8H333.66a0,0,0,0,1,0,0v31.27a0,0,0,0,1,0,0H217.83a9.29,9.29,0,0,1-9.29-9.29V229.09A9.29,9.29,0,0,1,217.83,219.8Z"/><path class="cls-39" d="M208.54,240.58v1.2a9.29,9.29,0,0,0,9.29,9.29H333.66V240.58Z"/><rect class="cls-1" x="143.31" y="228.73" width="43.21" height="14.4"/><path class="cls-40" d="M231.71,183.54h-75.5a5.05,5.05,0,0,0-5.06,5.05V209.9a5.05,5.05,0,0,0,5.06,5.06h75.5V183.54Z"/><path class="cls-41" d="M240.38,206.55V192a2.8,2.8,0,0,1,2.8-2.8h111.7a2.8,2.8,0,0,0,2.8-2.81h0a2.8,2.8,0,0,0-2.8-2.8H224.74a5.06,5.06,0,0,0-5.06,5.05V209.9a5.06,5.06,0,0,0,5.06,5.06H354.88a2.8,2.8,0,0,0,2.8-2.8h0a2.8,2.8,0,0,0-2.8-2.81H243.18A2.8,2.8,0,0,1,240.38,206.55Z"/><path class="cls-16" d="M352.53,209.35H236.7a9.29,9.29,0,0,1-9.29-9.29v-1.62a9.29,9.29,0,0,1,9.29-9.29H352.53Z"/><path class="cls-39" d="M227.41,198.87v1.19a9.29,9.29,0,0,0,9.29,9.29H352.53V198.87Z"/><polygon class="cls-42" points="161.03 214.96 166.99 214.96 166.99 183.54 166.99 183.54 161.03 183.54 161.03 183.54 161.03 214.96"/><path class="cls-43" d="M234.71,256.68l0-20.61H64.26l-.05,20.61ZM71.81,245.16a2.41,2.41,0,1,1-2.41,2.4A2.41,2.41,0,0,1,71.81,245.16Z"/><polygon class="cls-44" points="64.26 236.07 64.25 241.22 234.74 241.63 234.75 236.07 64.26 236.07"/><rect class="cls-45" x="75.95" y="252.11" width="7.27" height="1.87" transform="translate(-173.65 332.02) rotate(-89.86)"/><rect class="cls-45" x="81.35" y="254.12" width="3.95" height="1.16" transform="translate(-171.58 337.41) rotate(-89.86)"/><rect class="cls-45" x="84.56" y="254.13" width="3.94" height="1.16" transform="translate(-168.38 340.62) rotate(-89.86)"/><rect class="cls-45" x="87.77" y="254.13" width="3.93" height="1.16" transform="matrix(0, -1, 1, 0, -165.18, 343.84)"/><rect class="cls-45" x="90.98" y="254.14" width="3.93" height="1.16" transform="translate(-161.99 347.04) rotate(-89.86)"/><rect class="cls-45" x="93.01" y="252.13" width="7.22" height="1.87" transform="translate(-156.67 349.08) rotate(-89.86)"/><rect class="cls-45" x="98.4" y="254.14" width="3.91" height="1.16" transform="translate(-154.6 354.47) rotate(-89.86)"/><rect class="cls-45" x="101.62" y="254.15" width="3.9" height="1.16" transform="translate(-151.41 357.68) rotate(-89.86)"/><rect class="cls-45" x="104.83" y="254.15" width="3.89" height="1.16" transform="matrix(0, -1, 1, 0, -148.22, 360.89)"/><rect class="cls-45" x="108.04" y="254.16" width="3.89" height="1.16" transform="translate(-145.02 364.1) rotate(-89.86)"/><rect class="cls-45" x="110.07" y="252.15" width="7.18" height="1.87" transform="translate(-139.7 366.14) rotate(-89.86)"/><rect class="cls-45" x="115.46" y="254.16" width="3.87" height="1.16" transform="translate(-137.63 371.53) rotate(-89.86)"/><rect class="cls-45" x="118.67" y="254.17" width="3.86" height="1.16" transform="translate(-134.43 374.75) rotate(-89.86)"/><rect class="cls-45" x="121.88" y="254.17" width="3.85" height="1.16" transform="translate(-131.24 377.94) rotate(-89.86)"/><rect class="cls-45" x="125.09" y="254.18" width="3.84" height="1.16" transform="translate(-128.04 381.16) rotate(-89.86)"/><rect class="cls-45" x="127.12" y="252.17" width="7.14" height="1.87" transform="translate(-122.72 383.2) rotate(-89.86)"/><rect class="cls-45" x="132.52" y="254.18" width="3.83" height="1.16" transform="translate(-120.65 388.6) rotate(-89.87)"/><rect class="cls-45" x="135.73" y="254.19" width="3.82" height="1.16" transform="translate(-117.46 391.8) rotate(-89.86)"/><rect class="cls-45" x="138.94" y="254.19" width="3.81" height="1.16" transform="translate(-114.26 395.01) rotate(-89.86)"/><rect class="cls-45" x="142.15" y="254.2" width="3.8" height="1.16" transform="matrix(0, -1, 1, 0, -111.07, 398.21)"/><rect class="cls-45" x="144.18" y="252.19" width="7.1" height="1.87" transform="translate(-105.75 400.25) rotate(-89.86)"/><rect class="cls-45" x="149.57" y="254.21" width="3.79" height="1.16" transform="translate(-103.68 405.63) rotate(-89.86)"/><rect class="cls-45" x="152.78" y="254.21" width="3.78" height="1.16" transform="translate(-100.48 408.85) rotate(-89.86)"/><rect class="cls-45" x="156" y="254.21" width="3.77" height="1.16" transform="translate(-97.29 412.06) rotate(-89.86)"/><rect class="cls-45" x="159.21" y="254.22" width="3.76" height="1.16" transform="translate(-94.09 415.28) rotate(-89.86)"/><rect class="cls-45" x="161.24" y="252.21" width="7.06" height="1.87" transform="translate(-88.77 417.31) rotate(-89.86)"/><rect class="cls-45" x="166.63" y="254.23" width="3.75" height="1.16" transform="translate(-86.7 422.71) rotate(-89.87)"/><rect class="cls-45" x="169.84" y="254.23" width="3.74" height="1.16" transform="translate(-83.51 425.91) rotate(-89.86)"/><rect class="cls-45" x="173.05" y="254.23" width="3.73" height="1.16" transform="translate(-80.31 429.12) rotate(-89.86)"/><rect class="cls-45" x="176.26" y="254.24" width="3.72" height="1.16" transform="translate(-77.12 432.33) rotate(-89.86)"/><rect class="cls-45" x="178.29" y="252.23" width="7.02" height="1.87" transform="matrix(0, -1, 1, 0, -71.8, 434.36)"/><rect class="cls-45" x="183.69" y="254.25" width="3.7" height="1.16" transform="translate(-69.73 439.76) rotate(-89.86)"/><rect class="cls-45" x="186.9" y="254.25" width="3.7" height="1.16" transform="translate(-66.54 442.95) rotate(-89.86)"/><rect class="cls-45" x="190.11" y="254.25" width="3.69" height="1.16" transform="matrix(0, -1, 1, 0, -63.34, 446.18)"/><rect class="cls-45" x="193.32" y="254.26" width="3.68" height="1.16" transform="translate(-60.14 449.39) rotate(-89.86)"/><rect class="cls-45" x="195.35" y="252.25" width="6.98" height="1.87" transform="translate(-54.83 451.42) rotate(-89.86)"/><rect class="cls-45" x="200.74" y="254.27" width="3.66" height="1.16" transform="translate(-52.76 456.81) rotate(-89.86)"/><rect class="cls-45" x="203.95" y="254.27" width="3.66" height="1.16" transform="translate(-49.55 460.03) rotate(-89.87)"/><rect class="cls-45" x="207.16" y="254.27" width="3.65" height="1.16" transform="translate(-46.36 463.23) rotate(-89.86)"/><rect class="cls-45" x="210.38" y="254.28" width="3.64" height="1.16" transform="translate(-43.16 466.45) rotate(-89.86)"/><rect class="cls-45" x="212.4" y="252.27" width="6.94" height="1.87" transform="translate(-37.85 468.47) rotate(-89.86)"/><rect class="cls-45" x="217.8" y="254.29" width="3.62" height="1.16" transform="translate(-35.78 473.86) rotate(-89.86)"/><rect class="cls-45" x="221.01" y="254.29" width="3.62" height="1.16" transform="translate(-32.58 477.08) rotate(-89.86)"/><rect class="cls-45" x="224.22" y="254.29" width="3.61" height="1.16" transform="translate(-29.39 480.29) rotate(-89.86)"/><rect class="cls-45" x="227.43" y="254.3" width="3.6" height="1.16" transform="translate(-26.2 483.49) rotate(-89.86)"/><path class="cls-46" d="M49.51,213.22s5.05,3.19,4.39,4.05-5.85-1.46-6.18-2.33.86-1.92.86-1.92Z"/><polygon class="cls-1" points="32.37 256.68 29.98 256.68 62.3 104.63 64.69 104.63 32.37 256.68"/><polygon class="cls-1" points="46.7 256.68 44.31 256.68 76.63 104.63 79.01 104.63 46.7 256.68"/><polygon class="cls-1" points="75.3 113.39 61.76 113.39 62.21 111.27 75.75 111.27 75.3 113.39"/><polygon class="cls-1" points="73.43 122.14 59.9 122.14 60.35 120.02 73.89 120.02 73.43 122.14"/><polygon class="cls-1" points="71.57 130.9 58.04 130.9 58.49 128.78 72.02 128.78 71.57 130.9"/><polygon class="cls-1" points="69.71 139.66 56.18 139.66 56.63 137.53 70.16 137.53 69.71 139.66"/><polygon class="cls-1" points="67.85 148.41 54.32 148.41 54.77 146.29 68.3 146.29 67.85 148.41"/><polygon class="cls-1" points="65.99 157.17 52.46 157.17 52.91 155.05 66.44 155.05 65.99 157.17"/><polygon class="cls-1" points="64.13 165.93 50.59 165.93 51.05 163.81 64.58 163.81 64.13 165.93"/><polygon class="cls-1" points="62.27 174.68 48.73 174.68 49.19 172.56 62.72 172.56 62.27 174.68"/><polygon class="cls-1" points="60.41 183.44 46.87 183.44 47.32 181.32 60.86 181.32 60.41 183.44"/><polygon class="cls-1" points="58.54 192.2 45.01 192.2 45.46 190.07 58.99 190.07 58.54 192.2"/><polygon class="cls-1" points="56.68 200.95 43.15 200.95 43.6 198.83 57.13 198.83 56.68 200.95"/><polygon class="cls-1" points="54.82 209.71 41.29 209.71 41.74 207.59 55.27 207.59 54.82 209.71"/><polygon class="cls-1" points="52.96 218.47 39.43 218.47 39.88 216.34 53.41 216.34 52.96 218.47"/><polygon class="cls-1" points="51.1 227.22 37.57 227.22 38.02 225.1 51.55 225.1 51.1 227.22"/><polygon class="cls-1" points="49.24 235.98 35.7 235.98 36.16 233.86 49.69 233.86 49.24 235.98"/><polygon class="cls-1" points="47.38 244.74 33.84 244.74 34.29 242.61 47.83 242.61 47.38 244.74"/><path class="cls-47" d="M44.4,155.67s2.12,8.86-.18,9.57-6.91,1.24-7.44-2.48S40.67,153.36,44.4,155.67Z"/><path class="cls-1" d="M36.6,154.78s8.33-3.72,9.39-.71-6.2,4.43-6.2,4.43.88,7.62-1.77,8S33.41,157.09,36.6,154.78Z"/><path class="cls-1" d="M47.32,183.67c.26,0,7.66,8.28,8.11,11.47s-4.21,18.21-5.19,18.48-2.3,0-2.39-.54,2.26-15.81,1.46-16.61-7.93-3.77-9-8.55S47.32,183.67,47.32,183.67Z"/><path class="cls-1" d="M37.22,187.3s2.12,9.83,4.12,12.76-1.33,20.6-.53,21.26a1.53,1.53,0,0,0,2.52-.53c.67-1.19,3.59-15.28,3.72-19.54S45.86,187,45.86,187Z"/><path class="cls-24" d="M44.57,167.36s-4.61-2.3-7.62.71-3.72,14-.53,19.85c3.19,4.61,11-.53,12-2.84S45.28,174.81,44.57,167.36Z"/><path class="cls-31" d="M56.69,165.37c0-.2.26-2.79,2-2.79s2.33,1.2,1.8,1.33a1.46,1.46,0,0,1-.93-.07s-.67,2-1.4,2.13A2,2,0,0,1,56.69,165.37Z"/><path class="cls-24" d="M50,171.35c1.69,1.69,4.78-5,6.51-6.38s2.53.13,2.53.13-2.8,9.31-5.45,12.23-8.24-.8-11.83-5.45c-3-3.86-.09-4.7,1.2-4.87a4,4,0,0,1,.52,0A17.78,17.78,0,0,1,50,171.35Z"/><path class="cls-46" d="M41.6,221.19a1.62,1.62,0,0,0-.53,1.73c.27,1.2,3.59,5.32,4.65,4.78s-2.39-6.91-2.39-6.91Z"/><path class="cls-16" d="M306.05,59.89s5.67-.36,5.93.62-5.85,2-6.2,1.33S306.05,59.89,306.05,59.89Z"/><path class="cls-16" d="M314.15,57.23s5.67-.36,5.94.62-5.85,1.95-6.2,1.33S314.15,57.23,314.15,57.23Z"/><path class="cls-48" d="M296.39,17.62s2.66-.88,4.43,2.13.26,6.47,1.68,9.3-1.24,4.43-3.72,2.31S295.32,19.39,296.39,17.62Z"/><path class="cls-49" d="M297.89,3.49A5.69,5.69,0,0,0,291.25.17c-4.92,1.06-5.72,4.91-10.37,4.78s-7.44.4-9.83,2.79-7.85,0-9.31,4.65.14,11.83,7.58,11.83,7.44-5.85,11.56-4.52,5.72,2,9.44-.13,8.37-4.78,8.64-8.37S299,5,297.89,3.49Z"/><path class="cls-24" d="M289.3,35s-1.95,6.2,3.19,7.62c5,.35,8,.53,8,.53s4.08,18.61,5.32,18.07,1.42-.35,1.42-1.94-1.95-17-3.19-18.61-8.51-4.61-8.51-4.61l-6.91-.53"/><path class="cls-24" d="M295.14,34.12s-1.33,6.37,3.92,7.27c5-.13,8-.25,8-.25s5.88,18.12,7.07,17.47,1.37-.5,1.22-2.08-3.61-16.74-5-18.21-8.92-3.75-8.92-3.75l-6.93.15"/><path class="cls-50" d="M293.62,16.27s3.26.33,4.27,1.68,1,2.7,2.14,4.39-.57,3.15.22,5.62.45,2.59,1.91,4.84,0,3.26-1.8,4.39-8.86,1.87-10.88-.61-.34-3,.22-4.95-1.15-5.92-1.48-9.18.67-4.84,3-5.73S293.62,16.27,293.62,16.27Z"/><path class="cls-31" d="M295.5,4.6s2.21,4.43.76,7.79c-1.42,2.71-2.68,2.54-1.51,5a3.08,3.08,0,0,1-4.11-.61s1.65-1,0-2.88A11.23,11.23,0,0,1,288.4,6c.51-2.7,2.17-3.36,4-3.23S295.22,3.79,295.5,4.6Z"/><path class="cls-36" d="M295,7.53s.67,2.64.22,2.94-2.08,0-2.06-.31,1.51-.5,1.51-.5S294.29,6.75,295,7.53Z"/><path class="cls-51" d="M289.12,18.68a.78.78,0,0,0-.28.08c-.52.21-1.65,1.08-2.38,4.53-1,4.61-2,6.74-1.33,8.24s9.57,5.76,11.17,5.32,1.15-1.33.09-2.22-6.65-3.19-6.74-4.69,3.81-6.2,2.57-8.42"/><path class="cls-2" d="M309.12,35.65s.6.73-.39,1.27S296,39.37,295.57,39.24s-.6-.93-.6-.93Z"/><path class="cls-1" d="M292.74,30.05a2.65,2.65,0,0,1,2.07-3c4.76-1,14.67-2.84,15.18-1.73s-.19,8-.45,10.22a.92.92,0,0,1-.76.8l-13.53,2.62a1,1,0,0,1-1.11-.77Z"/><path class="cls-52" d="M295.86,3.27s.88,1.59-1.24,2.3-1.87,1.95-3.37,3.28S289,10.36,287.62,12s-3.73-1.86-1.69-5.32,1.95-4.51,5.05-5A5.31,5.31,0,0,1,295.86,3.27Z"/><path class="cls-16" d="M303.21,32.2a1.46,1.46,0,1,1-1.46-1.47A1.46,1.46,0,0,1,303.21,32.2Z"/><path class="cls-6" d="M345.28,97.32S347,97.85,347,101v8.24h-5.91V101c0-3.13,1.73-3.66,1.73-3.66Z"/><rect class="cls-7" x="340.82" y="94.93" width="6.51" height="2.66"/><path class="cls-6" d="M344.06,97h0a1.6,1.6,0,0,1-1.6-1.59V41.9a1.6,1.6,0,0,1,1.6-1.6h0a1.6,1.6,0,0,1,1.59,1.6V95.42A1.59,1.59,0,0,1,344.06,97Z"/></g></g></svg>