<svg xmlns="http://www.w3.org/2000/svg" xmlns:xlink="http://www.w3.org/1999/xlink" viewBox="0 0 199.16 182.13"><defs><style>.cls-1{isolation:isolate;}.cls-2,.cls-24,.cls-4,.cls-8{mix-blend-mode:multiply;}.cls-2{fill:url(#Gradiente_sem_nome_2);}.cls-3{fill:none;stroke:#fff;stroke-miterlimit:10;}.cls-21,.cls-4{fill:#ced2d8;}.cls-5{fill:url(#Gradiente_sem_nome_12);}.cls-6{fill:url(#Gradiente_sem_nome_4);}.cls-7{fill:url(#Gradiente_sem_nome_6);}.cls-41,.cls-8{fill:#383838;}.cls-8{opacity:0.4;}.cls-9{fill:#ffbe5f;}.cls-10,.cls-11,.cls-14,.cls-18,.cls-19{mix-blend-mode:overlay;}.cls-10{fill:url(#Gradiente_sem_nome_6-2);}.cls-11{fill:url(#Gradiente_sem_nome_6-3);}.cls-12{fill:url(#Gradiente_sem_nome_5);}.cls-13{fill:#ee5087;}.cls-14{fill:url(#Gradiente_sem_nome_6-4);}.cls-15{fill:url(#Gradiente_sem_nome_6-5);}.cls-16{fill:url(#Gradiente_sem_nome_7);}.cls-17{fill:#f05784;}.cls-18{fill:url(#Gradiente_sem_nome_6-6);}.cls-19{fill:url(#Gradiente_sem_nome_6-7);}.cls-20{fill:#e6e8eb;}.cls-22{fill:#3f02a8;}.cls-23,.cls-36{fill:#fff;}.cls-24{opacity:0.1;}.cls-25{fill:url(#Gradiente_sem_nome_7-2);}.cls-26{fill:url(#Gradiente_sem_nome_7-3);}.cls-27{fill:url(#Gradiente_sem_nome_3);}.cls-28{fill:#ffcc80;}.cls-29{fill:url(#Gradiente_sem_nome_5-2);}.cls-30{fill:url(#Gradiente_sem_nome_5-3);}.cls-31{fill:#f3779b;}.cls-32{fill:#9ba0b4;}.cls-33{fill:#aeb2c2;}.cls-34{fill:#d7dadf;}.cls-35{fill:url(#Gradiente_sem_nome_3-2);}.cls-36{font-size:13.31px;font-family:Lato-Black, Lato Black;}.cls-37{fill:#937458;}.cls-38{fill:url(#Gradiente_sem_nome_2-2);}.cls-39{fill:url(#Gradiente_sem_nome_2-3);}.cls-40{fill:url(#Gradiente_sem_nome_2-4);}.cls-42{fill:url(#Gradiente_sem_nome_3-3);}</style><linearGradient id="Gradiente_sem_nome_2" x1="6.47" y1="19.24" x2="59.96" y2="55.1" gradientUnits="userSpaceOnUse"><stop offset="0" stop-color="#ffbe5f"/><stop offset="1" stop-color="#ee5087"/></linearGradient><linearGradient id="Gradiente_sem_nome_12" x1="31.07" y1="157.6" x2="133.7" y2="157.6" gradientUnits="userSpaceOnUse"><stop offset="0" stop-color="#f05784"/><stop offset="1" stop-color="#3f02a8"/></linearGradient><linearGradient id="Gradiente_sem_nome_4" x1="154.41" y1="194.01" x2="94.74" y2="139.84" gradientUnits="userSpaceOnUse"><stop offset="0" stop-color="#383838"/><stop offset="1" stop-color="#9ba0b4"/></linearGradient><linearGradient id="Gradiente_sem_nome_6" x1="47.13" y1="136.31" x2="92.49" y2="190.09" gradientUnits="userSpaceOnUse"><stop offset="0" stop-color="#ced2d8"/><stop offset="1" stop-color="#9ba0b4"/></linearGradient><linearGradient id="Gradiente_sem_nome_6-2" x1="40.7" y1="163.27" x2="40.7" y2="150.06" xlink:href="#Gradiente_sem_nome_6"/><linearGradient id="Gradiente_sem_nome_6-3" x1="99.9" y1="120.82" x2="51.19" y2="192.19" xlink:href="#Gradiente_sem_nome_6"/><linearGradient id="Gradiente_sem_nome_5" x1="23.48" y1="123.01" x2="121.42" y2="146.97" gradientUnits="userSpaceOnUse"><stop offset="0" stop-color="#ee5087"/><stop offset="1" stop-color="#3f02a8"/></linearGradient><linearGradient id="Gradiente_sem_nome_6-4" x1="71.18" y1="125.27" x2="71.18" y2="124.14" xlink:href="#Gradiente_sem_nome_6"/><linearGradient id="Gradiente_sem_nome_6-5" x1="132.64" y1="127.28" x2="95.82" y2="93.86" xlink:href="#Gradiente_sem_nome_6"/><linearGradient id="Gradiente_sem_nome_7" x1="107.59" y1="80.68" x2="45.41" y2="171.78" gradientUnits="userSpaceOnUse"><stop offset="0" stop-color="#ffbe5f"/><stop offset="1" stop-color="#f05784"/></linearGradient><linearGradient id="Gradiente_sem_nome_6-6" x1="102.72" y1="105.73" x2="102.72" y2="118.1" xlink:href="#Gradiente_sem_nome_6"/><linearGradient id="Gradiente_sem_nome_6-7" x1="102.81" y1="77.99" x2="54.1" y2="149.36" xlink:href="#Gradiente_sem_nome_6"/><linearGradient id="Gradiente_sem_nome_7-2" x1="159.01" y1="40.15" x2="176.85" y2="57.99" xlink:href="#Gradiente_sem_nome_7"/><linearGradient id="Gradiente_sem_nome_7-3" x1="159.01" y1="58.12" x2="176.85" y2="75.95" xlink:href="#Gradiente_sem_nome_7"/><linearGradient id="Gradiente_sem_nome_3" x1="151.73" y1="6.82" x2="184.86" y2="39.95" gradientTransform="translate(154.98 -145.96) rotate(78.07)" gradientUnits="userSpaceOnUse"><stop offset="0" stop-color="#3f02a8"/><stop offset="1" stop-color="#f05784"/></linearGradient><linearGradient id="Gradiente_sem_nome_5-2" x1="32.6" y1="94.46" x2="58.35" y2="115.98" xlink:href="#Gradiente_sem_nome_5"/><linearGradient id="Gradiente_sem_nome_5-3" x1="35.81" y1="90.4" x2="61.68" y2="112.03" xlink:href="#Gradiente_sem_nome_5"/><linearGradient id="Gradiente_sem_nome_3-2" x1="21.83" y1="34.23" x2="40.1" y2="57.45" gradientTransform="matrix(1, 0, 0, 1, 0, 0)" xlink:href="#Gradiente_sem_nome_3"/><linearGradient id="Gradiente_sem_nome_2-2" x1="121.09" y1="167.64" x2="167.7" y2="167.64" xlink:href="#Gradiente_sem_nome_2"/><linearGradient id="Gradiente_sem_nome_2-3" x1="121.09" y1="167.69" x2="167.7" y2="167.69" xlink:href="#Gradiente_sem_nome_2"/><linearGradient id="Gradiente_sem_nome_2-4" x1="184.45" y1="167.69" x2="129.04" y2="167.69" xlink:href="#Gradiente_sem_nome_2"/><linearGradient id="Gradiente_sem_nome_3-3" x1="95.51" y1="82.95" x2="113.78" y2="106.17" gradientTransform="translate(146.66 -49.81) rotate(45)" xlink:href="#Gradiente_sem_nome_3"/></defs><title>SAT_main_graphic_new</title><g class="cls-1"><g id="Layer_2" data-name="Layer 2"><g id="OBJECTS"><path class="cls-2" d="M90.43,52.87V37.56a3,3,0,0,0-3-3H80.17a3,3,0,0,1-2.8-1.92c-.17-.41-.33-.81-.51-1.22A3,3,0,0,1,77.49,28l5.11-5.11a3,3,0,0,0,0-4.27L71.77,7.83a3,3,0,0,0-4.28,0l-5.11,5.11a3,3,0,0,1-3.35.63c-.4-.18-.81-.35-1.22-.51a3,3,0,0,1-1.92-2.81V3a3,3,0,0,0-3-3H37.56a3,3,0,0,0-3,3v7.23a3,3,0,0,1-1.92,2.81c-.41.16-.81.33-1.22.51A3,3,0,0,1,28,12.94L22.93,7.83a3,3,0,0,0-4.27,0L7.83,18.66a3,3,0,0,0,0,4.27L12.94,28a3,3,0,0,1,.63,3.35c-.18.41-.35.81-.51,1.22a3,3,0,0,1-2.81,1.92H3a3,3,0,0,0-3,3V52.87a3,3,0,0,0,3,3h7.23a3,3,0,0,1,2.81,1.92c.16.41.33.82.51,1.22a3,3,0,0,1-.63,3.35L7.83,67.49a3,3,0,0,0,0,4.28L18.66,82.6a3,3,0,0,0,4.27,0L28,77.49a3,3,0,0,1,3.35-.63l1.22.51a3,3,0,0,1,1.92,2.8V87.4a3,3,0,0,0,3,3H52.87a3,3,0,0,0,3-3V80.17a3,3,0,0,1,1.92-2.8c.41-.17.82-.33,1.22-.51a3,3,0,0,1,3.35.63l5.11,5.11a3,3,0,0,0,4.28,0L82.6,71.77a3,3,0,0,0,0-4.28l-5.11-5.11A3,3,0,0,1,76.86,59c.18-.4.34-.81.51-1.22a3,3,0,0,1,2.8-1.92H87.4A3,3,0,0,0,90.43,52.87ZM63.15,45.21A17.94,17.94,0,1,1,45.21,27.27,17.94,17.94,0,0,1,63.15,45.21Z"/><circle class="cls-3" cx="46.2" cy="45.21" r="28.11"/><ellipse class="cls-4" cx="101.64" cy="173.48" rx="97.52" ry="8.65"/><path class="cls-5" d="M96.2,167.21V148h36.17a1.33,1.33,0,0,0,1.33-1.34h0a1.33,1.33,0,0,0-1.33-1.33H32.69a1.62,1.62,0,0,0-1.62,1.63v21.32a1.62,1.62,0,0,0,1.62,1.62h99.68a1.33,1.33,0,0,0,1.33-1.33h0a1.33,1.33,0,0,0-1.33-1.34Z"/><rect class="cls-6" x="96.2" y="147.98" width="36.19" height="19.24"/><rect class="cls-7" x="33.96" y="147.98" width="62.24" height="19.24"/><rect class="cls-8" x="33.96" y="147.98" width="98.43" height="1.73"/><polygon class="cls-8" points="44.59 164.56 41.16 161.47 37.73 164.56 37.73 147.98 44.59 147.98 44.59 164.56"/><polygon class="cls-9" points="44.21 164 40.7 160.77 37.19 164 37.19 147.98 44.21 147.98 44.21 164"/><polygon class="cls-10" points="43.21 149.04 43.21 162 40.7 159.63 37.19 163.16 37.19 164 40.7 160.77 44.21 164 44.21 149.04 43.21 149.04"/><rect class="cls-8" x="37.19" y="147.98" width="7.02" height="1.07"/><path class="cls-11" d="M31.09,146.59H133.68a1.33,1.33,0,0,0-1.32-1.28H32.68A1.63,1.63,0,0,0,31.09,146.59Z"/><path class="cls-8" d="M133.68,168.6H31.09a1.6,1.6,0,0,0,1.59,1.28h99.68A1.33,1.33,0,0,0,133.68,168.6Z"/><rect class="cls-12" x="20.18" y="124.05" width="102" height="21.26"/><rect class="cls-9" x="105.43" y="124.05" width="13.27" height="21.26"/><rect class="cls-9" x="32.19" y="132.15" width="68.87" height="5.06"/><path class="cls-13" d="M115.19,134.68a3.11,3.11,0,1,1-3.11-3.11A3.11,3.11,0,0,1,115.19,134.68Z"/><rect class="cls-14" x="20.18" y="124.05" width="102" height="1.28"/><rect class="cls-8" x="20.18" y="143.87" width="102" height="1.44"/><rect class="cls-15" x="99.1" y="105.15" width="36.19" height="16.24"/><path class="cls-16" d="M135.27,105.15a1.34,1.34,0,0,0,1.33-1.33h0a1.34,1.34,0,0,0-1.33-1.33H35.59A1.63,1.63,0,0,0,34,104.11v18.32a1.63,1.63,0,0,0,1.63,1.62h99.68a1.33,1.33,0,0,0,0-2.66H99.1V105.15Z"/><polygon class="cls-8" points="135.29 105.14 99.1 105.14 99.1 121.39 100.47 121.39 100.47 106.51 102.08 106.51 102.08 118.26 104.23 116.36 104.23 106.51 135.29 106.51 135.29 105.14"/><polygon class="cls-17" points="103.8 115.82 101.64 117.72 101.64 105.14 103.8 105.14 103.8 115.82"/><polygon class="cls-18" points="103.37 105.61 103.37 115.5 101.64 117.02 101.64 117.73 103.8 115.83 103.8 105.61 103.37 105.61"/><rect class="cls-8" x="101.64" y="105.14" width="2.16" height="0.47"/><rect class="cls-9" x="86.32" y="102.48" width="3.09" height="21.57"/><rect class="cls-9" x="81.64" y="102.48" width="3.09" height="21.57"/><path class="cls-19" d="M34,103.76H136.59a1.33,1.33,0,0,0-1.32-1.28H35.59A1.63,1.63,0,0,0,34,103.76Z"/><path class="cls-8" d="M136.59,122.77H34a1.6,1.6,0,0,0,1.59,1.28h99.68A1.33,1.33,0,0,0,136.59,122.77Z"/><rect class="cls-20" x="58.34" y="19.75" width="116.34" height="75.24"/><rect class="cls-21" x="58.34" y="19.75" width="116.34" height="4.63"/><rect class="cls-9" x="71.86" y="27.35" width="89.31" height="52.43"/><rect class="cls-22" x="109.62" y="48.58" width="13.77" height="9.96"/><polygon class="cls-23" points="119.33 53.56 113.7 50.31 113.7 56.81 119.33 53.56"/><rect class="cls-21" x="71.86" y="84.74" width="34.79" height="2.75"/><rect class="cls-21" x="71.86" y="88.88" width="52.2" height="1.61"/><path class="cls-21" d="M151.15,86.12a1.57,1.57,0,1,1-1.57-1.57A1.57,1.57,0,0,1,151.15,86.12Z"/><path class="cls-21" d="M155.62,86.12a1.57,1.57,0,1,1-1.57-1.57A1.58,1.58,0,0,1,155.62,86.12Z"/><path class="cls-21" d="M160.08,86.12a1.57,1.57,0,1,1-1.56-1.57A1.57,1.57,0,0,1,160.08,86.12Z"/><circle class="cls-22" cx="61.62" cy="22.07" r="1.41"/><path class="cls-17" d="M66.74,22.07a1.41,1.41,0,1,1-1.41-1.41A1.41,1.41,0,0,1,66.74,22.07Z"/><circle class="cls-9" cx="69.04" cy="22.07" r="1.41"/><g class="cls-24"><path d="M175.68,49.64a8.18,8.18,0,1,1-8.18-8.18A8.19,8.19,0,0,1,175.68,49.64Z"/></g><path class="cls-25" d="M175.68,48.64a8.18,8.18,0,1,1-8.18-8.18A8.19,8.19,0,0,1,175.68,48.64Z"/><polygon class="cls-23" points="173.15 47.67 167.5 46.21 161.85 47.67 167.5 49.12 173.15 47.67"/><path class="cls-23" d="M164.77,49v2a7.12,7.12,0,0,0,5.47,0V49l-2.74.7Z"/><path class="cls-23" d="M172.1,49.61a.16.16,0,0,0-.11-.16V48.23l-.13,0v1.19a.17.17,0,0,0-.12.16.18.18,0,0,0,.1.16l-.1.73a.4.4,0,0,0,.36,0l-.09-.73A.19.19,0,0,0,172.1,49.61Z"/><g class="cls-24"><path d="M175.68,67.61a8.18,8.18,0,1,1-8.18-8.18A8.18,8.18,0,0,1,175.68,67.61Z"/></g><path class="cls-26" d="M175.68,66.61a8.18,8.18,0,1,1-8.18-8.18A8.18,8.18,0,0,1,175.68,66.61Z"/><path class="cls-23" d="M170.26,64.34c-.16-.4,0-1-.31-1.31s-.91-.15-1.3-.31-.71-.7-1.15-.7-.76.54-1.14.7-1,0-1.31.31-.14.91-.31,1.31-.7.7-.7,1.14.54.76.7,1.14,0,1,.31,1.31.91.15,1.31.31.7.71,1.14.71.77-.55,1.15-.71,1,0,1.3-.31.15-.91.31-1.31.71-.7.71-1.14S170.42,64.72,170.26,64.34Zm-2.76,3.15a2,2,0,1,1,2-2A2,2,0,0,1,167.5,67.49Z"/><path class="cls-23" d="M167.5,69.53c-.41,0-.73-.41-1.08-.67v2.78l1.08-.83,1.08.83V68.86C168.24,69.12,167.91,69.53,167.5,69.53Z"/><g class="cls-24"><circle cx="167.5" cy="23.59" r="15.2" transform="translate(109.79 182.6) rotate(-78.07)"/></g><circle class="cls-27" cx="167.5" cy="22.59" r="15.2" transform="translate(110.77 181.81) rotate(-78.07)"/><path class="cls-3" d="M172.73,18.21c0,3.29-2.34,5.95-5.23,5.95s-5.22-2.66-5.22-5.95,2.34-5.94,5.22-5.94S172.73,14.93,172.73,18.21Z"/><path class="cls-3" d="M177.61,29.87c0-2.4-2.11-3.49-5.21-4.58-1.29,1.35-3,1.18-4.9,1.18s-3.6.17-4.89-1.18c-3.11,1.09-5.21,2.18-5.21,4.58"/><path class="cls-28" d="M47.82,79.43s1.32,4.27.41,7.18a21.1,21.1,0,0,1-2,4.66l.68.32S51.21,89,52.21,86s0-7.2,0-7.2Z"/><path class="cls-22" d="M48.1,50c-2.92,1.54-.94,3.82-3.29,7.25a3.37,3.37,0,0,0,.4,4.44c2.16,2.25-.13,2.62.6,4.76s6.37,2,7.51-.72C54.61,62.7,51.65,48.16,48.1,50Z"/><path class="cls-29" d="M51.5,91.75c-9.16,3.27-13.06,9.38-12.57,16s2.67,14.88,2.23,16.94c0,0-3.2,4.94-2.2,5.81s5.17-6.15,5.63-7.73c1-3.45-1.5-14.77,1-17.39s13.47-10.48,23.61-11A19,19,0,0,0,51.5,91.75Z"/><path class="cls-8" d="M44.64,115.63c-.26-4.19-.52-8.72,1-10.25,2.5-2.63,13.47-10.48,23.61-11a19,19,0,0,0-17.7-2.58,23.6,23.6,0,0,0-8.82,5.43c-4.31,4.53,1.55,10.7,2,18.45Z"/><path class="cls-30" d="M69.2,94.33c0,8.79-4.6,8.15-12.35,8.15s-4,15,0,18.91c0,0,2.36,2.74-.89,8.49s-1.12-5.83-1.12-5.83-10.62-10.53-10.68-20.29S56.85,91.17,56.85,91.17,69.2,88.62,69.2,94.33Z"/><path class="cls-31" d="M51.75,66.05c-6,1.93-5.55,9.48-4.77,13.2a4.89,4.89,0,0,0,5.48-2C54.25,74.81,53.33,65.54,51.75,66.05Z"/><path class="cls-31" d="M51.75,66.05c-2.86,1.66-4.27,7.88-.25,15.37a10.76,10.76,0,0,1,0,10.33s7.33-2.43,17.7,2.58a64.27,64.27,0,0,0-1.86-15.77c-1.13-4.25-2.92-8.3-5.7-11.15a6.66,6.66,0,0,0-6.41-2.1Z"/><path class="cls-28" d="M50.61,60.23a11.05,11.05,0,0,1,1.14,5.9A1.59,1.59,0,0,0,52,68c.36,0,.82-1,2.17-1.29,2.67-.53.32-7.65.32-7.65Z"/><path class="cls-28" d="M46.18,55c-.26,2.23,1,6.47,2.41,7.66,2.73,2.27,5.67-1.43,6.24-4.12,0,0,1.42.87,1.94-2.07.3-1.66-.39-2.12-1-2A1.48,1.48,0,0,0,55,55s-1-3.92-4.22-2.77S46.84,49.55,46.18,55Z"/><path class="cls-22" d="M49.07,50.15c-.16,0-4.52.65-3.77,5.62,0,0,2.81,1.49,7.89,0C53.19,55.77,53.34,50.24,49.07,50.15Z"/><polygon class="cls-32" points="49.15 90.34 65.64 90.25 54.44 95.04 37.95 95.13 49.15 90.34"/><polygon class="cls-33" points="54.44 95.04 37.92 95.04 29.88 83.78 30.74 83.25 46.77 83.25 54.44 95.04"/><polygon class="cls-34" points="53.72 95.04 37.93 95.04 29.88 83.78 46.39 83.78 53.72 95.04"/><rect class="cls-33" x="37.95" y="95.04" width="16.49" height="1.56"/><polygon class="cls-33" points="54.44 96.61 65.64 91.44 65.64 90.25 54.44 95.04 54.44 96.61"/><path class="cls-28" d="M59.65,66.39c-2.69.58-2.11,4.64,2,8.38s5.23,7,2,10.59C62,87.25,54.27,90.16,54,92.09c0,0-.41,1.46,2.7,0s2.18-2.53,3.36-2.68c2-.27,8.31-3.51,9.16-6.16C70.86,78,64.57,65.35,59.65,66.39Z"/><path class="cls-31" d="M59.35,65.85c-4.07,1.43-.83,7.47,3.67,11.38,0,0,2.76.59,5.06-3.06C68.08,74.17,63.82,64.28,59.35,65.85Z"/><path class="cls-22" d="M52.71,53.82c1,.65.84,1.71.84,3.54s.8,1.83,1.14,3.66-3.13,3.93-.8,6.29,8.35.2,7.7-3.42c-.44-2.4-2.78-2.35-1.83-5,1.2-3.26-.9-3.11-2.1-4.49C57,53.68,56,50.65,54.18,49.7a6.22,6.22,0,0,0-7.6,1.62Z"/><path class="cls-35" d="M39,40.6a9.61,9.61,0,1,0-1.66,14.91l3.51.53-.53-3.51A9.61,9.61,0,0,0,39,40.6Z"/><text class="cls-36" transform="translate(29.49 52.67)">?</text><path class="cls-37" d="M137.65,144.4s1.69,7.7,1.32,9.27-3.71,3.29-3.71,3.29a4.79,4.79,0,0,0-3,1.07c-1.76,1.77,3.1,2.72,3.1,2.72s8.31-3.68,9-7.53-1.56-9.46-1.56-9.46Z"/><path class="cls-9" d="M151.39,128.23c-7.73,1-15.57,7.09-13.74,16.17h6.24Z"/><path class="cls-37" d="M169.14,144.4s-1.69,7.7-1.32,9.27,3.71,3.29,3.71,3.29a4.79,4.79,0,0,1,3,1.07c1.76,1.77-3.1,2.72-3.1,2.72s-8.31-3.68-9-7.53,1.56-9.46,1.56-9.46Z"/><path class="cls-9" d="M155.4,128.23c7.73,1,15.57,7.09,13.74,16.17H162.9Z"/><path class="cls-38" d="M161.44,165c1.47,2.07,13.62-8.74,20.73-7.11,0,0,1.69,19.72-28.61,19.72s-28.62-19.72-28.62-19.72c7.11-1.63,19.26,9.18,20.73,7.11Z"/><path class="cls-8" d="M152.14,172.09a18.44,18.44,0,0,1-5.15-2.41c-3.24-2.15-8.52-7-13.79-9.33l18.42,15.1c.88-.24,6.62-.21,9.21-1,6.78-2,15.67-15.49,15.67-15.49C171.44,160.75,160.08,170.35,152.14,172.09Z"/><path class="cls-39" d="M142.72,167.67c2,1.82,13.34,10.94,19.41,7.73s13.48,2.17,10.67,2.17H161.6c-42.76,1.33-43.77-18.08-36.66-19.7C124.94,157.87,130,156,142.72,167.67Z"/><path class="cls-8" d="M151.67,173.83a21.5,21.5,0,0,1-9.78.62s1.16,2.47,8.57,2.47a11.84,11.84,0,0,0,4.89-1.52A29.25,29.25,0,0,1,151.67,173.83Z"/><path class="cls-40" d="M164.39,167.67c-2,1.82-13.34,10.94-19.41,7.73s-13.48,2.17-10.67,2.17h11.2c42.76,1.33,43.77-18.08,36.66-19.7C182.17,157.87,177.13,156,164.39,167.67Z"/><path class="cls-9" d="M153.56,167.15c6.5,0,7.88-2.17,7.88-2.17s-.61-5.27,2.65-18-3.55-19-10.53-19-13.8,6.3-10.54,19,2.65,18,2.65,18S147.05,167.15,153.56,167.15Z"/><path class="cls-41" d="M161.6,119.28l-8-4.69-7.89,4.77c2.9,1.06-.57,3.4,1.8,5.36,1,.79,1.78.4,2.75.4s1.45,1,3.34,1c1.53,0,2.25-1.34,3.33-1a2.72,2.72,0,0,0,2.75-.4C162,122.76,158.56,120.81,161.6,119.28Z"/><path class="cls-37" d="M156,124.91a13.6,13.6,0,0,0-.27,5.35s-.25,1.09-2.3,1-2.24-1.1-2.24-1.1a13.77,13.77,0,0,0,0-5.36Z"/><path class="cls-37" d="M150.06,120.94c.34,1.12,0,2.18-.69,2.36s-1.6-.57-1.94-1.69,0-2.18.7-2.36S149.72,119.82,150.06,120.94Z"/><path class="cls-37" d="M157.05,120.94c-.34,1.12,0,2.18.69,2.36s1.6-.57,1.94-1.69,0-2.18-.7-2.36S157.39,119.82,157.05,120.94Z"/><ellipse class="cls-37" cx="153.56" cy="119.63" rx="5.36" ry="6.54"/><path class="cls-41" d="M153.56,108.09c2.63,0,2.51,2.49,5.36,2,1.68-.31,3.38,1.93,2.45,3.8-1.74,3.47,1.48,2,1.34,4.16s-3,1.93-3,1.93c-.11-.47-.7-.71-.7-.71l-.38,2.61s-.85-.17-1-.83a9.48,9.48,0,0,1,.47-2.5c.15-.86-.87-.39-1.69-.51-1.41-.2-2.41-1.43-3.88-.89-3.05,1.13-3.38.43-3.5,1.4-.07.54.59,1.84.47,2.5s-1,.83-1,.83l-.38-2.61s-.59.24-.7.71c0,0-2.89.27-3-1.93s3.12-1.16,1.06-4.44c-1-1.52,0-4.19,2.73-3.1S150.92,108.09,153.56,108.09Z"/><path class="cls-41" d="M156.89,169.64c0,.46-1.49.84-3.33.84s-3.34-.38-3.34-.84,1.49-.84,3.34-.84S156.89,169.17,156.89,169.64Z"/><path class="cls-17" d="M153.56,171c2.9,0,3.14-.63,3.14-.63l18.66-10.84v-.92L156.7,169.47s-.24.63-3.14.63-3.15-.63-3.15-.63l-18.66-10.84v.92l18.66,10.84S150.65,171,153.56,171Z"/><path class="cls-32" d="M132.2,158.89l2.58-1.53s18.81,2.76,18.78,9.41v2.14a13.14,13.14,0,0,0-3.15.56Z"/><path class="cls-21" d="M134.78,157.36l-2.58,1.53,18.21,10.58a13.14,13.14,0,0,1,3.15-.56C153.47,162.41,134.78,157.36,134.78,157.36Z"/><path class="cls-32" d="M174.91,158.89l-2.58-1.53s-18.81,2.76-18.77,9.41v2.14a13.08,13.08,0,0,1,3.14.56Z"/><path class="cls-21" d="M172.33,157.36l2.58,1.53L156.7,169.47a13.08,13.08,0,0,0-3.14-.56C153.64,162.41,172.33,157.36,172.33,157.36Z"/><path class="cls-42" d="M163.16,93a9.61,9.61,0,1,0-11.71,9.36l2.11,2.86,2.1-2.86A9.6,9.6,0,0,0,163.16,93Z"/><path class="cls-23" d="M156.54,91.28A3,3,0,0,0,153,88.34a3,3,0,0,0-2.4,2.43,3,3,0,0,0,.84,2.61,2.54,2.54,0,0,1,.77,1.81v.22a.66.66,0,0,0,.65.66h1.37a.66.66,0,0,0,.65-.66v-.22a2.39,2.39,0,0,1,.71-1.76A2.92,2.92,0,0,0,156.54,91.28Z"/><path class="cls-23" d="M154.63,96.47h-2.15a.32.32,0,1,0,0,.64h2.15a.32.32,0,1,0,0-.64Z"/><path class="cls-23" d="M154.49,97.51h-1.87a.28.28,0,0,0-.28.28.27.27,0,0,0,.28.28h1.87a.27.27,0,0,0,.28-.28A.28.28,0,0,0,154.49,97.51Z"/></g></g></g></svg>