<svg xmlns="http://www.w3.org/2000/svg" viewBox="0 0 274 274"><defs><style>.cls-1{fill:#18aa5e;}.cls-2{fill:#2880b9;}.cls-3{fill:#1c5c7f;}.cls-4{fill:#fff;}.cls-5{fill:#666;}.cls-6{fill:#807d7d;}.cls-7{fill:#fdef80;}</style></defs><title>world_icon</title><g id="Layer_2" data-name="Layer 2"><g id="Layer_1-2" data-name="Layer 1"><path class="cls-1" d="M137,0A137,137,0,1,1,0,137,137,137,0,0,1,137,0Z"/><path class="cls-2" d="M139.89,81.32a79.3,79.3,0,1,1-79.3,79.3A79.31,79.31,0,0,1,139.89,81.32Z"/><path class="cls-3" d="M203.3,113A79.27,79.27,0,1,1,63.06,140.89a76.31,76.31,0,1,0,151.63,12.22A75.94,75.94,0,0,0,203.3,113Z"/><path class="cls-4" d="M189.43,98.71A79.21,79.21,0,0,1,218,146.89a7.1,7.1,0,0,1-.73-1.57,15.92,15.92,0,0,1-3.43.86l-.08.11c-.72,1,0,.59-1.24,1.68-1.52,1.28-2.51,3-4.21,4.06-.2,1.81.15,2.22-.3,4.37-.18.8-1.07,2.93-2.11,2.77-.33-.06-1.73-3.52-2.06-4.48a36.77,36.77,0,0,1-1.6-4.69c-.23-1-.38-2.91-.61-3.58-1.09.16-1,.86-2.08.12-.74-.53-.41-.85-.82-1.65-.86-.81-1.75-1.62-2.64-2.44-.68-.22-3.32.17-4.44.05-2-.19-2.18-.06-3.38-1.67-2.11.1-1.93.89-4-.88-1.35-1.14-1.1-3-3-1.93-.08,1.67.74,2,1.47,2.81.54.59,1.2,1,1.48,1.79,0,0,.15.77.18.87,1.9.13,2.36-.79,3.4-1.56,1,.95,0,1.12,1.49,1.87,1.17.59.94.24,1.71,1.2.38,1.28-2.62,4.75-3.61,5.38-.76.49-1.17.21-1.85.77-1,.86.12.74-1.65,1.39s-3.79,2.15-5.79,2.28c-.43-1.18-.87-2.38-1.29-3.58-1.27-4.09-1.22-2.5-2.52-4.62-.61-.91-.36-1.5-.76-2.31-.28-.61-.71-.88-1.09-1.63-.59-1.16-1.27-3-2.62-2.78-.28.91,1.25,4,1.63,4.75s1,1.08,1.16,2.16c.26,1.48-.05,1.3.77,2.29,1.7,2.06-.08,1.69,2.56,3.7,2,1.51,1.48,2,2.31,4,1.3.37,5.16-1.36,5.81-.86.79,1.41-.91,3.64-1.34,4.86-1.42,4.09-3.91,4-5.81,7.16a29.05,29.05,0,0,0-2.49,3.94c-1.09,2.3,2.21,8.67.23,11.33-.43.61-1.83,1-3.58,2.83s.05,1.66-.66,5c-.56.77-1.25.81-1.93,1.36a14.3,14.3,0,0,1-.48,2.4c-.46,1.18-.54.55-1.2,1.5a13.61,13.61,0,0,1-1,1.75,7.31,7.31,0,0,1-1.19,1.22c-2.21,2-7,2.1-7.36,1.81-1.12-1-.36-1.2-.64-2.54a11.33,11.33,0,0,0-1.42-3.08l-.06-.09a7.72,7.72,0,0,1-.61-1.28c-.91-2.89-.58-5.08-2.18-8-2-3.79,1.12-5.76,1-7.89-.05-.57-.25-.92-.3-1.36-.39-2.36-.61-4.48-2.19-6.33-1.72-2-1.49-1.3-.94-4.61.71-3.8-.91-2.83-3.2-2.93-1.12-3.45-3.3-1.77-5.48-.75-1.37.63-1.88-.18-3.43,0-3.45.47-.74,2-5.36-1.71-1.92-1.52-.63-.75-1.77-2.66a27.19,27.19,0,0,0-2.09-2.3c-1.75-2.19.33-4.41,0-6.93-.54-4.68-1.3-.61,1.32-6.26,1.37-3,3.45-3,4-4.37s.15-2.06,1-3.15c.76-.9,1.85-.71,2.28-2.12.61-1.73-.56-1.95-1.83-2-.53-1.81-.53-1.36-.12-3,.23-.94,0-1.39.23-2.32.5-2.34,4.49,0,5.64-1a2.74,2.74,0,0,0,0-2.93c-.64-1-1.48-.84-1.91-1.75,1-.65.25-.08,1.1-.27s.86-.5,2-.73S144,117.62,145,117c1.45-.93.76-1.76,2.51-2,2.82-.49,1-.41,1.3-3,.43-.16.84-.35,1.24-.53.89,1.16-.23.69.84,1.46.28-.16.61-.32.91-.48-.15-1.26-.73-1-1.11-2.58-1.4.22-1.91,1.4-3,1s-1.15-2-1.1-3.27c.41-1,2.44-1.5,3.23-1.75,1.27-.43,1.09-1.28,2.26-2.44,1.52-1.52.4,0,1.14-2,1.68-.06.89-.12,1.88-.63l0,0,.1,0c.58-.27,1.35-.33,2.11-.59,2.79-.93,3.93-.47,6,.36,1.58.66,6.32.68,6.68,2.67-1.14,1.2-2.23.32-3.89.43.31,1.54.44,1.54,1.83,2,.23-.74-.1-.45.28-.92l1.37.27c.46-1.57,1-1.35,2.54-1.53-.25-1.08-.53-.77.05-1.63,1.6.17.31,0,1.1,1.31,1.11-.15,2.2-1.39,3.75-1.55,1-.1.92.27,2.29.12,1.11-.12,1.06-.53,2.18-.06.41-.75,0-.73,1-.91,1.52-.27,2.85.67,4.32.87-1.09-1.34-2.13-1.08-.79-3.31,1.7-.35,1.85-.1,2.59,1.18a7.34,7.34,0,0,0,.8-.6Zm-127,44.81h0a79.21,79.21,0,0,1,24-41.47,8.69,8.69,0,0,0,3,.07c.33-.61.54-1.14,1.12-1.36a2.34,2.34,0,0,1,.89-.08c.05.3.13.61.2.91,0,0,0,.23,0,.19s0,.12.07.18c1.6-.93.26-.95,1.12-2.64-1.35-.26-1.17-.1-2-1a4.69,4.69,0,0,1,3.56-1.11c-.08.81-.46.79-.15,1.48.91-.57,1.55-2.09,3-1.81a10.67,10.67,0,0,0,.91.57c-.76.71-1.9.75-2.89,1.16-.44,4.41,1.39.71.78,3.74a3.36,3.36,0,0,0,2.57-1.69c-.41-.52-1-.52-1.32-1.15A2.89,2.89,0,0,1,99,97.75a4.27,4.27,0,0,1,1.85-.38c8.08.06,4.24.43,6.73,1.57.56.24,1.55.36,1.88.85.51.77,0,1.51.84,2.12s.81,0,1.75,1.16a1.75,1.75,0,0,1-1.67,1.38c-1.38,0-.56-.92-2-.78,0,1.38,1.4,1.92.13,2.67s-.41-.25-1.24.22l-.13.08a.83.83,0,0,0-.13.14l-.4.45c-2-.55-1.65-.3-2.87-1.65-.46-.51-.53-.63-1.35-.57-.51,0-1.17.24-1.65-.2,1-1.24,1.47,0,2.92-.77a20.25,20.25,0,0,0,2.11-1.65c-.43-1-.05-.16-.69-.79-1.42-1.45-1.83-1.08-3.75-1.08-.91,1-1.58,2.32-2.57,2.89a2.35,2.35,0,0,1-2.23,0c.43,1.74,1.55.4,1.65,2.52-.74-.14-1.12-.51-1.88-.25-1.62.61-.18.55,0,.88,0,0,.76.1,0,.38s-.13-.16-1.75-1.11c.23-.41.46-.84.68-1.27a34.29,34.29,0,0,0-4.52,1.81,20.35,20.35,0,0,0-4.39,2.79c0,1.52.25.51.41,2.32,2.36.14,1.59.85,4,1.52a16.6,16.6,0,0,0,1.75.37c0,1.14-1,2-.31,3.17,1.65,1.16,1.71-1.1,2.11-2.54,5.59-1.17,2.9-2.81,4.34-5.88a6.77,6.77,0,0,1,1-1.48c.43,0,2.18.2,2.56.28,1.27.23.59.53,2,1.14,0,1.1-.59,2.52,1,2.26,1.24-.23,1-1.2,2.48-1.45.69,1.61.51,2.3.82,4.23,3.66,1.43,2,2.59,1.32,5.25.45.22.94.43,1.42.63,0,.77-.05,1.52-.08,2.28-.07,0-3.91-.84-4.16-.92.58-1.67,1.65-1.69,2.34-3.39-1.38.24-1.27.67-2.27,1a15.74,15.74,0,0,1-2.51.21c-.33,1.09,0-1,.08.44,0,.53.3,0-.06.59-1.26-.59-.83-2-3.19-.69.53.24,1.06.47,1.62.69-.07,1.56-.2.38-.53,1.42-.81,2.66,2.21,1,3,.88-.2,1.4-1.06,1.4-2.28,1.78s-1.75,1-2.82,1.21c0-1.67-.25-.27.48-1.43a9.59,9.59,0,0,0-2.87,1l-.1,0c-1.3.53-1.5.61-1.65,2.28a7.52,7.52,0,0,0-3.2,1.54c-.78.76-1.57,1.51-2.34,2.24l-.17.16c.28,2.09,0,2.13-1.27,3a14,14,0,0,0-2.41,1.54c-3.17,2.85-1.65,1.53-1.47,6.43-.66-.2-1.3-.43-1.91-.65-.48-3.25.18-2.18-2.43-2.93-2.82-.81-2.44.57-3.61.82s-1.93-1.18-3.81,0c-1,.71-2,1.17-2.28,2.43-.31,1.53-1,2.65-.89,4.34.17,4.57,4.34,4.83,5.4,2.7.71-1.42.54-2.2,2.85-1.83a5.69,5.69,0,0,1-.43,3.05c-.21.55-.76,1.54-.49,2.3,1.66.67,1.71-.59,3.89.71.15,2.17-1,4.61.68,5.88,1.3,1,1.37.1,2.52-.1s1,.56,2.21.75c.66-.82.38-.31.81-1.31.76-1.72,1-.91,2.77-2,.18-.1.33-.2.51-.32.2.43.43.83.63,1.24,1.32-1.57,1.47,0,3,.38A5.69,5.69,0,0,0,96,157c1.11,0,1.22-.52,2.73,0a4.85,4.85,0,0,0,.61.2s.1,0,.1.09l.13.1a6.17,6.17,0,0,1,.48.87c1,1,2.09,2,3.1,3,2,.79,2-.69,4.29,1.52,1,.92.53.9,1.07,2.08.07.18.22.36.33.59.2.55.43,1.07.66,1.6,1,1.37,2.46.51,3.91,1.91.83.82.2.57,2,.9,2.87.47,1.76.2,3.94,1.85.84.61,1,.26,1.83.79a3.76,3.76,0,0,1-.1,4.51c-2.82,4.11-1.86,3.44-2,6.69-.1,1.87-.63,5.74-2.38,6.2-6.38,1.79-2.67,3-4.34,6.18-.49.9-.84,1.12-1.15,1.84-1.26,3-.38,4-4.13,3.29a6.82,6.82,0,0,0,.48.77c1.11,1.73,1.3,3-1,3.46-1.9.36-1.09,0-1.27,2.11-.74.31-1.07,0-1.55.49.66,1.22.05.2,1.17.89-.2.67-.36,1.33-.54,2-.43,1.58-.55.12-.71,2,.66.3,1.12.24,1.71,1-.08.61-.69,2.27-.87,3.23.94,1.4,1.7,2.9,3.71,3.05,0,1.18.25,1-.76,1.3s-2.69-.61-3.46-1a9.06,9.06,0,0,1-3.42-3c-.51-.75-.31-.38-.84-1.09-1-1.24-.58-1.81-.86-2.65a3.2,3.2,0,0,1-.61-2.6c.07-.45.78-2.59-.08-2.22s.66.2-.53.77a17.19,17.19,0,0,1-.66-2.86c-.31-1.61-.69-1.67-.87-2.65-.38-2.25.59-2.5-.48-6.26-.7-2.49-.42-8.38-1.16-11.4a4.59,4.59,0,0,0-.44-1.2c-.68-1.14-2.36-1.67-3.7-2.59a.19.19,0,0,1-.16-.08c-1.85-1.3-3.6-6.4-5.08-8.31-.68-.92-1.11-.51-1.42-2s.18-1.1.61-2.2c-2.26-4.14,2.92-4.08,1.86-9.07a5.63,5.63,0,0,0-1.45-2.6c-1.07.47-.56.74-1.12,1.63l-2.56-1.46c-2.62-2.52-1.22-.69-2-2.34-1.57-3.46-3.07-1.53-5-3.23-.84-.71-1-1.83-2.38-1.63-2.11.29-.94.61-3.13-.41A20.84,20.84,0,0,1,63.64,148c-.06-1.83.61-1.91-.54-3.61a7.6,7.6,0,0,0-.66-.89ZM87.3,101.27h0c.49-.06.49-.28,1.78-.59a1.25,1.25,0,0,0-.28-.59l0-.08c-.5.42-1,.84-1.46,1.26Zm67.86,23.58h0l0,0a4,4,0,0,1-.51-.38c-1.12-1-1.35-1.89-2.59-1.67a1.75,1.75,0,0,0,.56,1.58c1.72,2.16,1.19,1.43,2.54,2.22l0,0c.32.18.68.44,1.19.8-1.72,1.53-.13,1.69-1.19,2.2l0,0-.28.12c-.35-.89.43-.46-.48-1.76a3.88,3.88,0,0,0-1.78-1.25c-2-.93-1.73-1.66-3-2.88-1.37,0-1.06.47-2,1-1.17.57-1-.1-2.36,0-1.12,2,.48.33-1.55,2-2.44,1.89-.43,3.87-4.34,4.46a2.51,2.51,0,0,0-.66.1c-.74.26-.31,0-.74.47.33.77-.13.65,1.19.83,2.41.32,2.72-1.16,4.47-1.53a57.2,57.2,0,0,1,6.65-.3c1.17,1.3.21,2.22.21,3.31,1.27.67,3.07.84,3.81,1.53s.43.67.83.81l0,0c.16,0,.38.12.77.26a5.7,5.7,0,0,0,2,.64c1-3.32,0-3,4.75-1.45,5,1.63,2.74.14,4.85.37,1,.1.76.42,2.21.24.28-.57,2.33-5.73-.33-5.08-.79.2-.25.49-1.37.2s-.05-.53-1.35-.35S164,132.6,163,128.76c-.38-1.39-1.07-2.59-2.64-.49.4.71.68.77,1.14,1.46a10.48,10.48,0,0,1-.71.88c-.86.85.36.44-1,.63-.76-.57-.61-1.3-1.35-2.32-1.29-1.89-.45-1-1.11-2.83A18.63,18.63,0,0,0,155.16,124.85Zm27.12,54.73h0c-1.11.57-1.27,1.87-2.11,2.61s-2.13.44-2.48,2c-.46,1.93.76,1.34-.59,3.86-.48.94-.5,3.27.23,4,2.21,2.13,3.41-3.26,3.91-4.94.38-1.21.74-2.56,1.14-3.68s1-2.26-.1-3.81Zm-3.66-56.72h0c.18,2.48,1.66,3.44,2.7,4.57-.13,1.18-.41.88-.38,2.53,1.24.89,2.15,1.44,3.78,1,.23-2-.41-1.89-1-3.25a2.21,2.21,0,0,1,.43-.41c.46-.61.23.25.46-.79-1.19-.39-3.12-1.61-3.27-3.21.58-.47.4-.19.83-.47.94-.61.23.32.79-.71-.48-.94-1-1.1-2.18-.63A15.26,15.26,0,0,0,178.62,122.86Zm-10.38.65h0c-.79-1.1-.74-1.64-2.26-1.69a7.76,7.76,0,0,0-1.65,2.63c-.51,1.5-.15.46-.1,2.09,0,.06,0,.14,0,.2,0,1-.26-.18-.1.71,1.19-.24.27-.22,1.16-.51s3.41-1,4.14-.87c1.75.41,3.23,1.79,5.21.41-.1-1.77-2.23-2.44-3.71-3.21.08-1.63.51-.35.41-1.91a2.6,2.6,0,0,0-1.3.1c-1.14.5-.51.65-.51.83.06.88,1.15-.18,0,.9a2.34,2.34,0,0,1-1.27.32Zm-29.66-12.32h0c0,2.85.95,1.89,1.89,3.3-.43,1.2-.51.26-1,1.5-.44,1,.1.1-.18,1.91a27.92,27.92,0,0,0,2.79-.3c1.37-.12,1.35-.25,1.83-1.65-.76-.94-1.52-1.87-2.31-2.81-1-1.5,0-.47-.3-1.73-.23-.44-.44-.89-.64-1.34a3.77,3.77,0,0,0-2.08,1.12Z"/><path class="cls-5" d="M193,71.1l1.36,31.84c-29.95,30.5-84,27.22-109,1L85.27,72.8,137,94.37,193,71.1Z"/><path class="cls-6" d="M47.35,65.38,137,34.08l89.65,31.3L137,96.68Z"/><path class="cls-4" d="M138,56.91,77.82,73.22A.89.89,0,0,0,77,74.28l-.34,26.8a5.4,5.4,0,0,1,3.35,5.1,5.07,5.07,0,1,1-10.11,0,5.44,5.44,0,0,1,3-4.94l.33-29.37a1.76,1.76,0,0,1,1.45-2L135.72,53.6c2.17-.68,4.45,1.82,2.3,3.31Zm-61.43,47.5h0l0,0h0l0,0h0l0,0h0l0,0h0l0,0h0l0,0h0l0,0h0l0,0h0l0,0h0l0,0h0l0,0h-.05l0,0h0l0,0h0l0,0H74.19l0,0H74l0,0h0l0,0h-.07l0,0h0l0,0h0l0,0h0l0,0h0l0,0h0l0,0h0l0,0h0l0,0,0,0h0l0,0h0l0,0h0v0l0,0h0l0,0h0l0,0,0,0h0l0,0h0l0,0h0v0l0,0h0l0,0h0l0,0,0,0h0l0,0h0l0,0,0,0,0,0h0l0,0h0l0,0,0,0,0,0h0l0,0h0v0l0,0h0l0,0h0l0,0h0v0a2.64,2.64,0,0,0-.22,1.06,2.35,2.35,0,1,0,4.69,0,2.61,2.61,0,0,0-.68-1.77Z"/><path class="cls-7" d="M74.35,108.61l-6.83,43.73c-.11.71,2.29,1.67,3.44.25a2.38,2.38,0,0,0,4.1-.18,2.16,2.16,0,0,0,3.83.07c1.15,1.42,3.71.43,3.52-.76l-6.79-43.15a.67.67,0,0,0-1.27,0Z"/></g></g></svg>